<?xml version="1.0" encoding="UTF-8"?>
<svg id="Layer_2" data-name="Layer 2" xmlns="http://www.w3.org/2000/svg" viewBox="0 0 129.53 94.23">
  <defs>
    <style>
      .cls-1 {
        fill: #1ea3d8;
        stroke: #463750;
        stroke-miterlimit: 10;
      }
    </style>
  </defs>
  <g id="Layer_1-2" data-name="Layer 1">
    <g id="_8tiTLY.tif" data-name="8tiTLY.tif">
      <g>
        <path class="cls-1" d="m14.14,18.51c.27-.36.53-.74.97-.98.35.34.18.78.19,1.16.07,3.23.45,6.43.74,9.64.16,1.73.24,3.47.27,5.21.05,3.36.45,6.68.72,10.02.12,1.52.25,3.06.26,4.59.02,4.19.77,8.33.8,12.51,0,.82.51.92,1.16.94,1.18.03,2.27-.42,3.42-.57,2.13-.28,4.25-.54,6.33-1.19,2.33-.72,4.38-1.72,5.48-4.07.27-.58.72-1.12,1.45-.91.71.2.64.88.64,1.47,0,.29.02.58,0,.87-.16,1.73-.15,1.8,1.61,1.58,1.35-.17,2.67-.56,3.99-.88.46-.11.87-.37,1.04-.83.54-1.41,1.06-2.84,1.58-4.26.13-.16.3-.3.38-.48,1.79-3.9,4.14-7.4,7.41-10.24,1.3-.58,2.44-1.42,4.03-1.33,2.97.16,4.75,1.93,6.21,4.19.78,1.22,1.36,2.55,1.81,3.94.63,1.98,2.17,2.56,3.99,1.51.74-.43,1.49-.58,2.37-.72-1.58,3.26-3.12,6.44-4.66,9.61-.23.48-.58.94-.69,1.45-.38,1.9-1.67,2.64-3.42,3.1-5.96,1.57-11.96,3.02-17.98,4.3-1.47.31-2.02,1.29-2.4,2.53-.23.74-.58,1.38-1.25,1.8-1.14.72-2.29.18-2.24-1.16.04-1.11-.41-1.43-1.37-1.25-2.19.41-4.37.85-6.56,1.28-.36.07-.73.16-1.09.24-.78.45-1.56.61-2.47.28-.48-.17-1.1-.17-1.6-.04-4.36,1.12-9,.98-13.16,2.95-.53-.79-.66-1.65-.69-2.59-.18-4.64-.42-9.27-.78-13.89-.23-3.01-.47-6.02-.61-9.04-.17-3.54-.41-7.08-.85-10.62-.29-2.33-.08-4.72-.35-7.07-.09-1.12-.54-2.25.07-3.36,1.77-3.23,3.52-6.47,5.28-9.71Zm33.8,38.41c2.38.03,4.61-.68,6.88-1.13.65-.13.64-.55.31-1.03-.6-.86-1.25-1.67-2.12-2.26-.98-.66-1.95-.62-2.85.2-1.09.99-1.89,2.2-2.61,3.47-.33.57-.06.72.4.74Z"/>
        <path class="cls-1" d="m118.56,36.9c2.76-1.34,5.61-1.52,8.5-.56,1.42.47,2.07,1.35,1.95,2.81-.5,6.49-3.43,11.56-8.97,15.05-4.76,3-10.17,4.54-15.31,6.68-3.34,1.39-6.07,3.38-7.78,6.66-1.56,2.98-3.73,5.23-7.22,5.95-2.74.57-5.36-.07-7.91-.76-3.01-.81-6.04-1.68-8.93-2.92-.53-.23-1.07-.46-1.57-.73-.61-.33-1.04-.8-1.05-1.57-.01-.79.58-1.12,1.13-1.32,1.5-.54,3.04-1.01,4.58-1.45,3.43-.98,6.94-1.57,10.44-2.21,2.15-.4,4.31-.8,6.38-1.54,1.77-.26,2.79-1.31,3.22-3.01.63-2.52,1.86-4.65,4.04-6.15,2.55-1.35,5.27-2.29,7.99-3.24,3.25-.23,5.28-1.94,6.21-5.04.79-2.63,2.28-4.81,4.3-6.66Z"/>
        <path class="cls-1" d="m2.57,18.85c-.08.02-.16.04-.24.07-.53.19-1.18.77-1.59.27-.48-.59.43-.93.7-1.39.67-1.13,1.61-2.1,2.1-3.35.09-.22.22-.55.12-.68-.18-.24-.52-.16-.81-.06-.51.17-1.01.34-1.51.54-.42.16-.73.13-.82-.39.87-.93,1.57-1.98,2.24-3.06.85-1.36,1.68-2.75,3.05-3.67C11.68,4.97,17.54,2.84,23.49.67c.11.57-.16.88-.39,1.21-.83,1.14-1.66,2.28-2.47,3.43-.18.26-.42.55-.21.91.25.42.6.12.9.09.56-.04,1.26-.55,1.63-.04.39.54-.36,1.02-.62,1.49-.64,1.16-1.38,2.25-2.1,3.37-.37.58-.93.94-1.56,1.18-2.2.84-4.39,1.69-6.59,2.53-2.83.66-5.33,2.16-8.03,3.17-.51.19-1.16.24-1.47.83Z"/>
        <path class="cls-1" d="m17.37,88.05c-.11-.48.03-.87.38-1.24,2.13-2.21,4.01-4.61,5.87-7.04.96-1.25,1.31-1.31,2.48-.31.91.78,1.81,1.57,2.72,2.36.41.86,1.36,1.13,1.95,1.82.65.77.75,1.42.13,2.2-1.93,2.41-3.83,4.84-5.79,7.23-.58.71-1.27,1-2.03.11-1.68-1.96-3.93-3.28-5.71-5.14Z"/>
      </g>
    </g>
  </g>
</svg>