<?xml version="1.0" encoding="UTF-8"?>
<svg id="Layer_2" data-name="Layer 2" xmlns="http://www.w3.org/2000/svg" viewBox="0 0 111.36 64.32">
  <defs>
    <style>
      .cls-1, .cls-2 {
        fill: #1ea3d8;
      }

      .cls-3 {
        fill: #3c3045;
      }

      .cls-2 {
        stroke: #463750;
        stroke-miterlimit: 10;
      }
    </style>
  </defs>
  <g id="Layer_1-2" data-name="Layer 1">
    <g id="pPOEJX.tif">
      <g>
        <path class="cls-3" d="m87.31,64.32c0-.21-.19-.19-.3-.22-.44-.13-.62-.54-.92-.82-.03-.03-.03-.09-.03-.14,0-.93,0-1.87,0-2.8.11-.06.15.02.18.07.13.19.31.3.54.32.12.01.22.09.32.16.28.2.56.31.92.2.57-.17,1.17-.07,1.74-.18,1.2-.23,2.41-.23,3.63-.24.25,0,.34.06.34.33-.02.84-.02,1.67,0,2.51,0,.24-.07.33-.32.33-.62-.01-1.23.04-1.83.18-.27.06-.53.06-.8.05-.46,0-.91.01-1.36.14.02.06.16-.02.12.1h-2.22Z"/>
        <path class="cls-1" d="m89.82,64.32s0-.04.01-.04c.03,0,.05,0,.05.04h-.06Z"/>
        <path class="cls-2" d="m57.01,46.57c0,4.15,0,8.31,0,12.46,0,.21-.05.28-.27.27-1.8,0-3.59,0-5.39,0-.17,0-.31-.04-.44-.13-.38-.25-.75-.51-1.13-.77-.04-.03-.08-.07-.12-.09-.81-.28-.98-1.03-1.22-1.7-.12-.33-.11-.71-.27-1.05-.48-1-.86-2.02-1.13-3.1-.15-.59-.5-1.13-.75-1.7-.02-.05-.08-.07-.07-.15.08-.54-.23-.98-.39-1.46-.13-.39-.34-.74-.5-1.12-.38-.89-.6-1.84-1.06-2.7-.32-.61-.37-1.31-.55-1.96-.19-.7-.43-1.38-.66-2.07-.1-.3-.12-.6-.17-.9-.01-.09,0-.18-.05-.26-.05-.08-.1-.15-.21-.13-.09.02-.16.08-.17.19-.01.16,0,.32.07.47.15.31.16.64.18.99.03.68.19,1.35.33,2.02.14.63.22,1.28.38,1.91.3,1.19.28,2.41.43,3.61.11.87.26,1.74.36,2.61.05.47.07.96.19,1.4.22.79.11,1.64.43,2.41.05.11-.06.19-.04.28.12.5.02,1.01.09,1.52.08.57.14,1.14.21,1.71.03.21-.08.29-.26.22-.13-.05-.25-.04-.38-.04-1.22,0-2.43-.02-3.65,0-.51.01-.89-.18-1.24-.51-.14-.14-.28-.3-.46-.38-.39-.18-.49-.45-.49-.86.01-5.16,0-10.32,0-15.48,0-.84-.05-1.68-.17-2.52-.14-.95-.06-1.91-.12-2.86-.02-.34-.02-.68-.02-1.02,0-.48.03-.44.49-.73.76-.49,1.66-.59,2.45-.98.68-.33,1.37-.46,2.12-.44.87.03,1.74,0,2.6,0,.15,0,.24.06.3.19.24.53.49,1.06.71,1.59.07.16.05.36.09.54.08.46.26.9.49,1.3.44.79.65,1.65.86,2.51.06.24.22.42.31.64.15.39.3.79.52,1.16.07.12.12.27.14.42.08.59.26,1.13.53,1.66.21.4.4.82.46,1.28.07.52.27.99.5,1.46.36.74.69,1.49.87,2.3.08.35.18.72.33,1.01.31.57.3,1.24.65,1.79.06.09.02.23.04.35.02.15.04.3.19.38.05.02.12.03.17.01.07-.03.05-.1.03-.16-.25-.52-.18-1.09-.27-1.64-.12-.68-.28-1.34-.45-2.01-.18-.7-.38-1.39-.57-2.09-.1-.37-.09-.76-.12-1.15-.04-.61-.12-1.21-.26-1.79-.12-.51-.2-1.03-.31-1.54-.14-.66-.3-1.33-.42-2-.12-.67-.12-1.36-.24-2.02-.13-.7-.11-1.43-.36-2.12-.06-.16-.07-.35-.09-.53-.01-.09,0-.19.08-.24.27-.17.53-.38.87-.42.66-.09,1.3-.26,1.91-.53.46-.2.95-.33,1.46-.35.77-.03,1.54-.01,2.3-.02.18,0,.23.05.26.23.05.29.04.57.04.86,0,3.98,0,7.97,0,11.95h0Z"/>
        <path class="cls-2" d="m42.93,15.66c0-2.62.01-5.24,0-7.86,0-.63-.04-1.27-.06-1.9-.02-1.02-.16-2.03-.16-3.05,0-.35.1-.57.44-.64.38-.08.7-.3,1.07-.42.5-.16,1.02-.15,1.52-.28.52-.14,1.04-.34,1.56-.45.64-.14,1.27-.4,1.94-.36.37.03.71-.14,1.07-.15.36-.01.71-.02,1.07,0,.41.03.81.06,1.22.09.34.03.68,0,1,.09.56.14,1.13.23,1.68.4.77.23,1.55.45,2.36.53.24.02.42.18.63.25.83.3,1.45.8,1.71,1.68,0,.03.03.05.04.08.3.38.42.81.44,1.3.04.69.22,1.37.21,2.07-.02.86-.14,1.72-.2,2.58-.04.51-.15.97-.38,1.42-.19.38-.47.65-.87.77-.4.13-.73.36-1.07.58-.07.05-.13.09-.12.18.01.1.1.08.16.09.34.09.67.2,1.02.23.03,0,.07,0,.09.02.48.43,1.16.63,1.39,1.36.18.57.3,1.16.48,1.72.29.9.19,1.81.21,2.71.01.49-.08.98-.16,1.46-.07.43-.18.86-.33,1.23-.32.76-.41,1.62-.99,2.27-.18.2-.37.35-.62.47-.4.2-.81.37-1.14.7-.21.21-.55.29-.85.36-.6.13-1.12.47-1.65.74-.45.23-.91.3-1.38.41-1.46.34-2.93.13-4.4.16-1.47.04-2.93-.01-4.4.02-.53.01-1.02-.04-1.51-.25-.03-.01-.06,0-.08-.03-.22-.2-.44-.41-.68-.6-.22-.17-.25-.42-.25-.69,0-3.11,0-6.22,0-9.32h-.02Zm6.6,3.29c0,.99,0,1.97,0,2.96,0,.2.05.31.25.37.82.24,1.67.35,2.52.43.43.04.87.04,1.31.06.2,0,.32-.04.31-.28-.01-.21.08-.41.14-.6.21-.63.41-1.26.39-1.94,0-.36-.02-.72,0-1.08.06-.83-.13-1.62-.43-2.39-.07-.18-.15-.24-.34-.23-.2.01-.43.05-.59-.03-.54-.27-1.15-.18-1.71-.37-.48-.17-1.04-.09-1.57-.14-.23-.02-.29.06-.29.28,0,.99,0,1.97,0,2.96Zm4.39-10.35c.01-.75,0-1.42-.12-2.09-.09-.48-.34-.81-.73-1.07-.38-.27-.8-.42-1.26-.52-.65-.14-1.32-.17-1.95-.38,0,0-.02,0-.03,0-.24-.04-.31.05-.31.29.01,2.03.01,4.06.02,6.09,0,.19,0,.37-.05.56-.07.27.05.39.34.41.3.03.6-.01.91-.01.8,0,1.59,0,2.39,0,.16,0,.31-.03.36-.2.11-.33.25-.65.3-1,.11-.72.18-1.44.13-2.1Z"/>
        <path class="cls-2" d="m.6,13.86c0-1.98.01-3.96,0-5.95-.01-1.7-.06-3.41-.09-5.11,0-.51.02-.55.52-.65.04,0,.08-.01.11-.03,1.09-.58,2.37-.5,3.49-.94.43-.17.88-.19,1.3-.36.33-.13.72-.1,1.08-.16.85-.16,1.7-.14,2.56-.05.97.09,1.95.16,2.89.42.83.23,1.65.5,2.49.63.69.1,1.25.44,1.8.81.36.24.56.63.77.99.14.23.24.48.4.69.09.12.07.27.07.41.02.6.19,1.18.22,1.79.04.93,0,1.86-.12,2.78-.04.26-.06.54-.05.8,0,.45-.19.83-.37,1.21-.22.45-.69.61-1.12.79-.32.13-.56.37-.87.51-.07.03-.11.12-.1.2.02.09.11.04.16.06.48.14.99.19,1.42.48.19.13.39.23.59.35.4.24.5.68.67,1.06.19.45.22.95.36,1.42.15.47.21.92.2,1.4-.03.77.08,1.56-.07,2.32-.09.48-.22.96-.35,1.43-.17.58-.37,1.14-.56,1.71-.19.54-.52,1.03-1.11,1.26-.44.17-.8.49-1.19.76-.23.17-.49.26-.76.33-.48.12-.94.32-1.37.56-.52.29-1.07.48-1.66.62-.7.16-1.4.15-2.1.15-2.28,0-4.57,0-6.85,0-.49,0-1,0-1.41-.26-.37-.22-.67-.57-.92-.93-.07-.1-.04-.29-.04-.44,0-3.69,0-7.37,0-11.06h0Zm6.43,5.09c0,1.01,0,2.01,0,3.02,0,.14,0,.22.19.29.66.24,1.35.24,2.02.38.68.14,1.38.11,2.08.13.11,0,.19-.04.21-.16.04-.33.19-.64.27-.96.18-.69.33-1.39.27-2.12-.03-.34-.02-.68,0-1.01.04-.72-.16-1.39-.42-2.05-.06-.15-.14-.21-.31-.21-.31.02-.63.05-.9-.12-.17-.1-.36-.13-.54-.14-.5-.03-.97-.22-1.46-.2-.38.02-.72-.2-1.12-.11-.24.06-.28.12-.28.33,0,.98,0,1.95,0,2.93Zm0-10.94c0,.97,0,1.93,0,2.9,0,.16.01.32-.01.48-.05.33.05.49.38.5.34.01.68,0,1.02,0,.79,0,1.59-.02,2.38.06.11.01.27.04.29-.13.04-.3.2-.56.27-.85.25-1.1.16-2.22.18-3.33,0-.42-.07-.82-.14-1.23-.04-.23-.11-.44-.27-.62-.32-.33-.73-.59-1.14-.74-.48-.17-1-.32-1.54-.28-.14.01-.27-.05-.4-.1-.23-.1-.48-.13-.73-.14-.22-.01-.29.05-.28.28.01,1.07,0,2.13,0,3.2Z"/>
        <path class="cls-2" d="m93.65,59.06c-.98-.04-1.9.24-2.86.26-.94.02-1.88.09-2.81.16-.93.07-1.65-.29-2.02-1.19-.22-.52-.44-1.05-.59-1.59-.11-.4-.15-.82-.26-1.22-.06-.24-.12-.49-.23-.71-.27-.57-.41-1.18-.67-1.75-.18-.4-.17-.87-.26-1.31-.09-.41-.3-.78-.4-1.18-.11-.47-.36-.59-.81-.51-.24.05-.5.03-.75,0-.25-.02-.3.09-.3.31.01.71.02,1.41.02,2.12,0,2.08,0,4.16,0,6.25,0,.19,0,.37.06.55-.11.06-.22.04-.33.04-1.54,0-3.07,0-4.61,0-.1,0-.21,0-.29-.03-.45-.23-.9-.45-1.27-.82-.33-.33-.44-.7-.35-1.14.02-.09,0-.18,0-.27,0-4.75,0-9.5,0-14.25,0-1.06-.12-2.12-.16-3.19-.04-1.38-.26-2.75-.24-4.13,0-.14.03-.22.18-.27.51-.15.97-.4,1.47-.56.6-.19,1.21-.28,1.82-.37.04,0,.09.01.12,0,.43-.28.95-.3,1.42-.44.67-.2,1.34-.42,2.03-.52.43-.06.87,0,1.3-.02,1.31-.03,2.55.33,3.8.64.77.19,1.54.38,2.3.58.41.1.74.38,1.12.52.61.23.74.8,1,1.27.18.32.38.62.52.96.12.31.18.61.2.94.02.26,0,.55.13.79.1.18.06.39.07.58.05.72.25,1.45.13,2.17-.15.91-.09,1.84-.34,2.73-.06.21,0,.43-.05.65-.12.66-.44,1.24-.75,1.83-.12.23-.28.44-.37.68-.07.19-.17.25-.35.22-.3-.05-.52.05-.66.33-.02.04-.05.11-.08.12-.45.1-.24.3-.09.5.09.12.14.27.16.41.09.73.43,1.35.8,1.97.09.16.17.31.17.5,0,.21.07.41.14.6.24.63.61,1.2.89,1.82.14.31.21.64.3.97.2.68.64,1.25.9,1.91.07.18.15.34.17.54.05.58.47,1,.64,1.58Zm-11.92-16.99s0,0,0,0c0,1.24,0,2.49,0,3.73,0,.21.03.32.27.4.78.24,1.61.24,2.4.41.23.05.39-.12.46-.34.3-1.01.45-2.04.44-3.1-.02-1.21.08-2.42-.17-3.62-.12-.57-.24-1.06-.79-1.35-.11-.06-.22-.15-.31-.24-.13-.12-.28-.16-.44-.21-.55-.16-1.14-.17-1.69-.32-.14-.04-.21,0-.2.15.02.33.04.65.05.98,0,1.17,0,2.33,0,3.5Z"/>
        <path class="cls-2" d="m37.62,26.54c-.77,0-1.54,0-2.3,0-.44,0-.84-.2-1.28-.24-.04,0-.1-.01-.11-.03-.23-.5-.83-.73-.9-1.38-.05-.46-.12-.92-.15-1.39-.06-.91-.15-1.81-.24-2.72-.02-.21-.18-.23-.35-.23-1.27,0-2.53,0-3.8,0-.58,0-.54.01-.71.57-.16.53-.1,1.08-.22,1.61-.08.37-.19.73-.21,1.11-.04.76-.33,1.49-.27,2.27.03.4-.02.42-.43.42-1.44,0-2.87-.01-4.31,0-.59,0-1.06-.24-1.47-.62-.5-.47-.59-1.2-.28-1.89.02-.04.06-.08.07-.13.09-.5.18-1,.27-1.5.05-.3.18-.58.21-.89.1-1.02.46-2,.46-3.05,0-.47.08-.96.21-1.45.13-.47.26-.96.32-1.46.07-.56.23-1.11.34-1.66.16-.85.33-1.71.36-2.58.01-.34.09-.67.14-1,.09-.63.3-1.24.36-1.88.03-.34.23-.65.24-1.01.04-.85.29-1.69.23-2.55,0-.14.07-.23.12-.33.16-.37.09-.76.19-1.14.07-.28.17-.47.47-.6.54-.25,1.05-.54,1.51-.93.12-.11.24-.19.41-.2.22-.01.41-.12.61-.22.51-.24.98-.57,1.52-.74.81-.26,1.63-.14,2.46-.1,1.36.07,2.59.62,3.88.94.21.05.42.09.64.12.42.04.65.28.65.69,0,.16.02.31.08.46.1.25.17.51.16.78,0,.13.02.25.06.38.21.8.39,1.61.42,2.44.03.74.15,1.48.27,2.21.13.78.29,1.57.47,2.35.14.61.17,1.24.4,1.82.05.12.06.25.06.38-.02.87.07,1.75.26,2.59.12.52.15,1.07.37,1.57.05.1.03.23.05.35.15.81.38,1.62.48,2.43.1.84.15,1.7.27,2.54.04.28.1.55.16.83.11.53.22,1.07.31,1.6.06.37.16.73.23,1.1.06.31.03.35-.28.35-.8,0-1.6,0-2.39,0Zm-7.49-10.28c.53,0,1.06,0,1.59,0,.09,0,.22.04.21-.13,0-.23.06-.47-.03-.68-.28-.64-.2-1.33-.25-2-.08-1.06-.13-2.12-.35-3.16-.03-.14-.06-.29-.07-.44-.05-.78-.23-1.55-.32-2.33-.05-.4-.15-.79-.17-1.2-.02-.42-.07-.86-.59-1.02-.36-.11-.49-.07-.53.31-.12,1.15-.3,2.3-.31,3.47,0,.42-.02.85-.14,1.26-.18.62-.22,1.27-.31,1.9-.1.77-.27,1.54-.32,2.33-.03.48-.24.94-.2,1.44.02.21.08.26.28.26.51-.01,1.02,0,1.53,0Z"/>
        <path class="cls-2" d="m67.1,26.54c-.73,0-1.46-.04-2.18.01-.48.03-.9-.08-1.29-.32-.33-.2-.68-.46-.67-.88,0-.35.02-.71.07-1.06.02-.12.03-.23.04-.35,0-.34-.03-.69.17-1.01.04-.06.05-.15.05-.23-.05-.62.36-1.17.27-1.79,0-.05.03-.09.05-.13.12-.3.23-.61.19-.94-.01-.08,0-.17.05-.25.09-.22.14-.46.14-.7,0-.7.07-1.38.24-2.07.29-1.13.57-2.27.74-3.43.12-.8.23-1.61.28-2.42.04-.66.23-1.31.36-1.96.19-.92.43-1.84.57-2.77.13-.88.27-1.76.31-2.66.01-.38.17-.61.57-.79.53-.24,1.06-.54,1.51-.95.07-.07.15-.15.25-.15.59-.02,1.03-.39,1.52-.65.79-.42,1.6-.57,2.49-.45.59.07,1.2.06,1.78.18.88.18,1.71.51,2.58.75.28.08.55.16.84.17.4.02.62.28.62.68,0,.19.04.37.08.56.14.67.31,1.33.41,2.01.06.43.15.87.26,1.28.31,1.15.19,2.36.46,3.51.14.6.24,1.2.35,1.81.14.79.42,1.55.37,2.37-.03.56.2,1.09.19,1.65-.01.51.23.97.32,1.46.11.54.13,1.12.32,1.64.1.27.04.57.14.83.11.31.1.63.15.93.07.46.02.94.14,1.4.13.51.08,1.07.24,1.56.13.4.09.83.3,1.2.09.16.02.35.06.52.09.38.18.76.26,1.14.06.28,0,.38-.28.36-1.57-.11-3.14-.02-4.72-.05-.2,0-.39,0-.59-.06-.34-.11-.72-.14-.91-.51-.02-.03-.05-.07-.09-.08-.58-.25-.63-.8-.75-1.31-.14-.6-.14-1.22-.15-1.82,0-.69-.28-1.35-.17-2.03.02-.14-.06-.16-.18-.16-1.48,0-2.95,0-4.43,0-.17,0-.22.08-.24.23-.08.65-.12,1.31-.27,1.94-.27,1.19-.31,2.4-.39,3.61-.01.19-.1.2-.25.2-.73,0-1.46,0-2.18,0Zm5.42-10.28c.44,0,.88,0,1.32,0,.53,0,.55-.03.47-.55,0-.02,0-.04-.01-.06-.26-.84-.25-1.7-.27-2.56,0-.15-.01-.3-.04-.44-.16-.87-.18-1.75-.36-2.62-.19-.93-.24-1.88-.45-2.81-.11-.49,0-.99-.12-1.48-.02-.09.02-.2-.11-.25-.2-.07-.39-.16-.59-.22-.25-.07-.41.04-.43.3-.04.82-.25,1.64-.23,2.46.02,1.08-.23,2.11-.3,3.17-.03.48-.23.94-.26,1.42-.04.75-.2,1.49-.32,2.23-.06.39-.1.77-.11,1.15,0,.19.05.26.25.25.52-.01,1.04,0,1.56,0Z"/>
        <path class="cls-2" d="m34.35,59.3c-.72,0-1.44-.03-2.15,0-.71.04-1.19-.36-1.69-.76-.68-.54-.58-1.35-.72-2.07-.06-.33-.04-.67-.13-1-.17-.7-.13-1.42-.18-2.13-.01-.2-.05-.27-.26-.27-1.25.01-2.49,0-3.74,0-.18,0-.27.03-.26.24.02.31-.03.62-.11.91-.19.76-.16,1.54-.24,2.3-.09.84-.15,1.69-.12,2.53,0,.19-.06.23-.24.23-1.56,0-3.11,0-4.67,0-.38,0-.6-.31-.91-.46-.98-.49-.74-1.37-.67-2.19,0-.03.02-.06.02-.09.02-.94.33-1.83.44-2.75.06-.53.22-1.04.27-1.56.05-.56.25-1.08.3-1.63.04-.46.15-.92.13-1.38-.02-.58.11-1.13.21-1.7.11-.67.3-1.33.33-2.02,0-.15.08-.31.1-.46.17-1.07.37-2.13.37-3.22,0-.27.06-.53.11-.79.14-.73.32-1.45.38-2.19.02-.27.15-.54.17-.81.03-.71.38-1.38.31-2.11-.02-.16.1-.28.24-.31.75-.14,1.29-.68,1.94-1.01.2-.1.39-.21.61-.23.48-.04.86-.36,1.29-.53.42-.16.81-.4,1.23-.53.66-.21,1.34-.12,2.01,0,1.18.22,2.28.69,3.44.99.38.1.74.23,1.09.38.25.11.36.32.35.58-.04,1.04.11,2.07.28,3.08.1.61.14,1.24.35,1.83,0,.02.02.04.02.06.01.69.24,1.34.35,2.01.12.74.18,1.47.23,2.21.04.6.12,1.21.24,1.79.12.57.1,1.18.42,1.71.14.24-.01.57.09.85.15.4.17.83.23,1.25.07.48.25.95.23,1.42-.04.83.1,1.63.22,2.43.1.63.23,1.26.34,1.89.13.76.38,1.5.36,2.28,0,.32.03.64.09.95.04.22-.03.25-.22.25-.83,0-1.66,0-2.48,0Zm-6.93-10.52c.48,0,.96,0,1.44,0,.16,0,.21-.05.17-.21-.32-1.37-.37-2.79-.64-4.17-.02-.12-.05-.24-.05-.35-.02-1.11-.06-2.22-.18-3.33-.09-.78-.13-1.56-.3-2.33-.01-.06-.02-.12-.1-.12-.25,0-.46-.11-.68-.22-.11-.06-.2-.04-.18.12.02.24,0,.48-.06.71-.16.7-.1,1.43-.25,2.12-.2.94-.19,1.91-.42,2.84-.1.39,0,.77-.06,1.15-.15.84-.16,1.69-.19,2.54-.01.34.05.7-.08,1.04-.07.18,0,.22.17.22.47,0,.94,0,1.41,0Z"/>
        <path class="cls-2" d="m.99,49.94c0-1.98,0-3.96,0-5.95,0-1.11.06-2.23-.19-3.33-.05-.24,0-.5,0-.75,0-1.35-.25-2.69-.22-4.04,0-.09-.01-.18-.02-.27q0-.43.43-.47c.25-.02.4-.22.62-.31.76-.29,1.55-.48,2.36-.59.32-.04.61-.17.91-.25.82-.23,1.64-.49,2.48-.66.92-.19,1.86-.19,2.78,0,.26.06.52.13.79.13.21,0,.41.06.61.13.46.15.96.16,1.41.34.83.33,1.74.39,2.58.71.14.05.28.11.39.21.15.13.31.24.5.32.24.09.38.29.46.52.15.43.38.83.55,1.25.3.76.63,1.52.61,2.37-.03.83.11,1.65.17,2.48.05.65-.03,1.3-.1,1.95-.06.54-.06,1.09-.07,1.64-.01.62-.2,1.18-.44,1.74-.04.09-.04.17-.04.26,0,.17-.07.33-.22.4-.2.1-.29.27-.31.46-.08.89-.71,1.3-1.42,1.61-.33.14-.64.31-.94.51-.41.28-.85.51-1.34.62-.6.13-1.15.43-1.67.7-.96.5-1.95.47-2.97.43-.29-.01-.58,0-.87-.03-.17,0-.23.06-.23.23.01.27.02.54.02.81,0,1.96,0,3.92.01,5.89,0,.19-.05.26-.25.26-1.52,0-3.03.02-4.55-.02-.53-.01-.97-.35-1.37-.71-.45-.4-.48-.91-.47-1.46.02-2.39,0-4.78,0-7.17Zm10.33-6.73c.1-1.29-.05-2.56-.24-3.83-.05-.31-.11-.66-.33-.88-.51-.48-1.11-.83-1.83-.92-.34-.04-.7-.02-1.02-.18-.22-.11-.29-.04-.27.19,0,.09,0,.18,0,.27,0,3.22,0,6.45,0,9.67,0,.22.05.3.28.29.36,0,.74-.09,1.07.04.43.17.86.19,1.3.19.44,0,.51-.07.67-.48.24-.63.21-1.3.35-1.95.17-.79.03-1.61.06-2.41Z"/>
        <path class="cls-2" d="m101.76.51c1.3.06,2.27.08,3.22.24.72.12,1.43.31,2.12.59.33.13.67.27,1.03.3.57.05.74.32.91.94.23.85.27,1.72.39,2.59.09.66.12,1.32.09,1.99,0,.13-.04.23-.18.27-.07.02-.15.06-.21.11-.63.56-1.45.63-2.21.87-.79.25-1.58.47-2.39.64-.03,0-.06.02-.09.03-.59.11-.66.06-.67-.52,0-.14,0-.28-.11-.39-.02-.02-.05-.05-.05-.08-.02-.51-.33-.95-.32-1.46.01-.5-.22-.97-.24-1.47,0-.08-.06-.11-.14-.13-.73-.22-1.48-.4-2.24-.47-.15-.01-.21.04-.28.19-.43.98-.49,1.98-.21,3,.03.1.08.2.14.3.18.31.37.61.47.96.08.29.31.44.56.55.22.1.38.25.48.47.15.31.37.54.7.66.24.09.45.18.59.44.17.31.52.45.82.63.42.24.87.47,1.19.81.24.25.52.31.78.45.22.12.42.26.56.48.12.2.32.32.5.46.68.56,1.4,1.08,1.81,1.89.1.21.3.32.44.51.38.52.59,1.09.6,1.73,0,.32.1.65.1.97,0,.46-.04.93-.07,1.39-.02.34-.1.67-.09,1,0,.6-.2,1.14-.43,1.68-.22.5-.64.8-1.12,1.02-.29.13-.57.28-.78.52-.33.38-.8.51-1.24.67-.59.21-1.09.59-1.66.85-.25.11-.49.19-.75.21-.51.05-.95.31-1.45.41-.54.11-1.08.15-1.64.07-.56-.08-1.13-.06-1.69-.08-.06,0-.13.02-.18,0-.65-.24-1.34-.21-2-.37-.3-.07-.6-.05-.89-.1-.36-.06-.69-.24-1.04-.38-.08-.03-.16-.11-.24-.11-.38.01-.59-.29-.83-.49-.18-.16-.25-.43-.28-.67-.05-.55-.05-1.11-.22-1.64-.07-.21-.1-.42-.1-.64,0-.84,0-1.67,0-2.51,0-.23.08-.35.3-.32.26.04.46-.09.66-.19.75-.38,1.51-.75,2.34-.91.54-.1,1.1-.15,1.65-.22.09-.01.18-.01.26-.05.33-.14.44-.1.54.25.11.37.15.76.29,1.11.18.45.17.94.38,1.38.12.26,0,.57.09.85.07.22.17.37.39.48.44.23.9.42,1.38.49.33.05.61.24.96.22.32-.02.56-.16.56-.47,0-.36.08-.71.12-1.06.02-.24.08-.48.08-.73,0-.55-.14-1.05-.35-1.56-.16-.39-.38-.72-.71-.99-.09-.07-.15-.17-.2-.29-.13-.31-.34-.55-.66-.68-.2-.08-.36-.2-.49-.37-.37-.45-.94-.64-1.34-1.04-.53-.52-1.29-.7-1.82-1.22-.27-.27-.53-.53-.9-.67-.25-.1-.36-.36-.56-.53-.46-.41-1-.73-1.31-1.29,0,0-.01-.02-.02-.02-.87-.56-1.06-1.54-1.4-2.4-.44-1.11-.29-2.28-.04-3.43.14-.65.4-1.27.58-1.91.11-.4.45-.6.75-.82.46-.34.92-.66,1.46-.89.4-.17.76-.5,1.15-.74.1-.06.21-.14.32-.16.84-.15,1.54-.64,2.33-.89.67-.21,1.37-.35,1.75-.31Z"/>
        <path class="cls-2" d="m98.27,54.49c0-.85-.03-1.69,0-2.54.04-.82-.21-1.54-.58-2.25-.05-.09-.09-.17-.09-.27-.03-.5-.26-.95-.31-1.44,0-.04-.03-.08-.05-.11-.39-.49-.62-1.05-.69-1.67-.06-.54-.28-1.03-.48-1.53-.36-.87-.71-1.75-.88-2.69-.12-.64-.52-1.17-.82-1.74-.1-.19-.21-.38-.26-.59-.12-.43-.32-.82-.6-1.17-.26-.32-.33-.74-.47-1.11-.12-.31-.26-.6-.48-.85-.21-.23-.27-.55-.48-.78-.07-.07-.04-.12.05-.15.02,0,.03-.02.05-.03.7-.21,1.25-.69,1.89-1,.09-.04.18-.1.27-.12.77-.11,1.43-.52,2.14-.8.19-.08.38-.12.58-.12.8,0,1.6,0,2.39,0,.2,0,.25.05.3.26.16.66.16,1.33.33,1.99.14.55.16,1.16.34,1.7.25.73.15,1.48.28,2.21.12.62.17,1.25.31,1.87.16.71.35,1.43.34,2.16,0,.44.09.85.24,1.25.04.12.1.23.24.22.13-.02.16-.14.18-.25.07-.3.07-.61.06-.92-.02-.51.12-1,.19-1.5.08-.6.28-1.18.3-1.79,0-.06,0-.12.02-.18.23-.66.25-1.36.39-2.04.13-.63.22-1.28.26-1.94.03-.68,0-1.37.22-2.03.07-.22.19-.3.42-.39.47-.18.99-.14,1.44-.36.15-.08.31-.04.47-.07.91-.17,1.81-.36,2.75-.27.08,0,.17,0,.23.04.51.27,1.1.31,1.6.61.15.1.4-.02.49.14.06.11-.13.25-.16.42-.08.48-.39.88-.55,1.33-.16.45-.38.88-.38,1.37,0,.06,0,.13-.04.17-.3.49-.4,1.06-.66,1.57-.22.41-.38.88-.44,1.36-.07.48-.24.93-.44,1.37-.38.83-.76,1.67-.87,2.59-.01.12-.12.22-.17.34-.3.76-.62,1.52-.75,2.32-.05.3-.18.48-.38.69-.18.19-.16.49-.28.73-.27.53-.42,1.1-.52,1.69-.03.16-.1.32-.16.47-.08.19-.06.43-.06.64,0,2.54,0,5.08,0,7.62,0,.25-.05.34-.32.33-1.44-.02-2.87-.02-4.31,0-.63,0-1.09-.32-1.53-.7-.13-.11-.22-.25-.36-.35-.17-.13-.19-.31-.19-.51,0-1.09,0-2.17,0-3.26Z"/>
        <path class="cls-2" d="m62.58,47.88c0-3.27,0-6.53,0-9.8,0-.33-.08-.39-.35-.24-.51.28-1.02.56-1.58.74-.24.08-.45-.08-.63-.18-.47-.27-.87-.66-1.39-.87-.12-.05-.12-.18-.12-.28-.03-1.15-.05-2.31-.08-3.46,0-.23.1-.25.29-.25,4.31,0,8.62,0,12.93.01.41,0,.82,0,1.23-.02.23-.01.32.07.3.29-.09.96-.08,1.92-.2,2.88-.08.6-.12,1.21-.1,1.82,0,.18-.05.23-.23.24-.36.03-.65-.14-.97-.24-.43-.13-.85-.26-1.28-.41-.3-.11-.63-.17-.92-.31-.2-.09-.34-.04-.31.24.03.33.05.67.05,1.01,0,6.55,0,13.11,0,19.66q0,.6-.61.6c-1.33,0-2.65-.03-3.98.01-.65.02-1.08-.33-1.52-.71-.02-.02-.03-.05-.06-.07-.43-.36-.49-.83-.48-1.37.02-3.1,0-6.2,0-9.29Z"/>
        <path class="cls-3" d="m.6,27.03c.35.33.73.58,1.13.81.44.26.89.39,1.41.38,2.43-.02,4.87-.02,7.3,0,.51,0,1-.06,1.44-.27.37-.18.76-.19,1.13-.31.67-.22,1.3-.51,1.89-.88.2-.12.4-.23.64-.22.13,0,.26-.05.36-.13.42-.31.91-.54,1.24-.95.05-.06.11-.13.2-.08.1.05.08.15.08.24,0,.76,0,1.51,0,2.27,0,.15-.01.29.04.44.06.17-.04.3-.21.37-.53.23-1.03.5-1.47.88-.36.31-.85.38-1.28.55-.66.27-1.3.56-1.93.9-.25.14-.56.1-.83.17-.69.19-1.4.12-2.11.12-2.28,0-4.57.02-6.85,0-.6,0-1.15-.17-1.64-.64-.46-.45-.66-.88-.59-1.51.07-.6,0-1.21-.03-1.82,0-.09-.03-.19.04-.32Z"/>
        <path class="cls-3" d="m59.57,25.44c.06.71.09,1.37.06,2.04-.02.32-.04.64-.02.95,0,.12,0,.24-.15.29-.69.23-1.21.77-1.87,1.04-.23.1-.46.19-.7.27-.5.17-.93.48-1.41.67-.51.2-1,.43-1.56.51-.52.07-1.02.11-1.54.11-2.52,0-5.05.01-7.57,0-.77,0-1.36-.45-1.84-1.03-.09-.12-.09-.28-.09-.43,0-.71,0-1.41,0-2.12,0-.08,0-.16,0-.24,0-.06-.09-.12,0-.18.09-.06.14.03.2.06.35.19.7.39,1.04.59.31.18.63.26.99.26,2.6-.01,5.21-.01,7.81,0,.4,0,.77-.08,1.1-.26.24-.13.49-.16.75-.22.56-.13,1.1-.3,1.61-.57.46-.24.87-.62,1.43-.68.24-.03.5-.18.7-.34.32-.26.67-.47,1.07-.71Z"/>
        <path class="cls-3" d="m100.86,31.56c-.78.01-1.55-.06-2.33-.16-.8-.11-1.6-.28-2.41-.32-.26-.01-.48-.16-.72-.25-.51-.19-1-.43-1.49-.66-.13-.06-.16-.16-.16-.33,0-.83.09-1.67-.04-2.5-.04-.25.06-.32.31-.2.37.17.73.35,1.13.45.29.07.58.12.88.15.18.02.36.04.5.16.03.03.07.07.1.06.52-.06.96.29,1.49.27.38-.02.75.12,1.12.21.13.03.28.01.42.01.77-.01,1.54.05,2.3,0,.49-.03.94-.21,1.39-.38.42-.16.87-.26,1.29-.43.67-.28,1.34-.55,1.92-1,.12-.1.32-.11.48-.15.28-.07.51-.21.69-.44.08-.11.18-.19.32-.24.28-.1.46-.36.71-.52.1-.06.2-.16.32-.11.13.05.07.19.07.29,0,.71-.03,1.42.02,2.12.04.59-.27.9-.71,1.16-.25.15-.56.22-.78.43-.54.52-1.21.8-1.9,1.05-.45.16-.83.44-1.26.65-.53.26-1.12.3-1.66.5-.66.24-1.33.16-2,.17Z"/>
        <path class="cls-2" d="m86.72,7.99c-.12.02-.17-.06-.21-.14-.17-.38-.5-.55-.87-.66-.13-.04-.25-.09-.31-.21-.18-.37-.5-.59-.84-.78-.51-.29-.96-.65-1.34-1.08-.25-.28-.59-.36-.89-.53-.22-.12-.24-.23-.03-.38,1.03-.72,1.91-1.64,2.92-2.38.32-.24.74-.3,1.03-.59.1-.1.22-.18.3-.29.14-.23.3-.28.5-.09.59.55,1.41.73,2.02,1.26.34.3.69.6,1.08.85.25.16.44.39.56.68.11.25.34.41.55.58.11.09.18.19.06.3-.34.28-.55.67-.83,1-.39.47-.93.77-1.4,1.15-.42.34-.86.64-1.41.75-.14.03-.22.16-.32.27-.16.17-.37.23-.57.3Z"/>
        <path class="cls-3" d="m81.98,6.02c.47.1.83.3,1.1.66.2.26.45.48.76.61.05.02.09.04.13.08.68.71,1.58,1.13,2.3,1.8.47.44.61.42,1.16.06.51-.34,1.04-.65,1.58-.95.24-.13.46-.27.64-.47.22-.25.46-.46.77-.6.24-.11.27-.38.37-.59.06-.13.11-.28.23-.38.06-.05.13-.09.22-.06.08.03.07.11.07.18,0,.93,0,1.85,0,2.78,0,.11-.02.17-.15.2-.24.06-.39.22-.48.45-.14.36-.36.63-.73.79-.13.05-.21.17-.31.28-.43.45-.93.81-1.5,1.06-.39.17-.73.41-1.06.66-.31.23-.39.21-.64-.07-.14-.16-.28-.33-.46-.43-.85-.47-1.49-1.21-2.32-1.7-.24-.14-.44-.34-.6-.57-.17-.25-.42-.4-.71-.45-.23-.04-.37-.17-.37-.4,0-.96,0-1.93,0-2.91Z"/>
        <path class="cls-3" d="m54.13,64.08c-.8,0-1.6-.02-2.39,0-.38.01-.72-.11-1.01-.3-.49-.33-.96-.66-1.48-.94-.2-.11-.32-.28-.31-.55.02-.83,0-1.65.01-2.48,0-.09-.08-.24.09-.26.13-.02.25,0,.34.12.43.57,1.05.84,1.7,1.06.15.05.34.01.51.01,1.7,0,3.39,0,5.09,0,.26,0,.34.07.34.34-.02.93-.02,1.85-.01,2.78,0,.22-.1.24-.27.24-.87,0-1.74,0-2.6,0Z"/>
        <path class="cls-3" d="m34.32,64.08c-.65,0-1.3-.04-1.94.01-.67.06-1.16-.29-1.66-.62-.21-.14-.38-.35-.57-.52-.11-.09-.14-.2-.14-.34,0-.89,0-1.77,0-2.66,0-.07-.05-.18.06-.2.08-.02.14.05.19.12.42.62,1.03.87,1.76.86,1.59,0,3.19,0,4.78,0,.23,0,.31.06.3.3-.02.91-.03,1.83-.02,2.75,0,.24-.08.31-.31.31-.82,0-1.63,0-2.45,0Z"/>
        <path class="cls-3" d="m79.14,64.08c-.76,0-1.52,0-2.27,0-.2,0-.37-.05-.52-.17-.39-.32-.9-.47-1.22-.89-.12-.16-.2-.31-.2-.51,0-.75,0-1.49-.01-2.24,0-.19.03-.38-.07-.56-.02-.04-.04-.12.04-.15.06-.01.08.03.11.08.37.8,1.09,1.06,1.88,1.08,1.53.04,3.05.02,4.58,0,.24,0,.3.06.29.29-.02.96-.03,1.91-.03,2.87,0,.21-.12.19-.25.19-.78,0-1.56,0-2.33,0Z"/>
        <path class="cls-3" d="m75.52,27.04c.52.52,1.13.75,1.68,1.07.16.09.34.11.52.11,1.57,0,3.13,0,4.7,0,.23,0,.3.06.3.29-.01.86-.01,1.71,0,2.57,0,.19-.04.26-.24.26-1.67,0-3.33.02-5-.02-.45,0-.92-.14-1.23-.54-.07-.09-.15-.2-.25-.25-.45-.26-.49-.65-.48-1.12.03-.76,0-1.53,0-2.36Z"/>
        <path class="cls-3" d="m33.16,27.13c.07-.02.11.01.14.05.25.33.6.47.95.66.56.29,1.12.39,1.74.38,1.35-.02,2.69,0,4.04-.01.21,0,.3.03.29.27-.02.87-.01,1.73,0,2.6,0,.19-.05.25-.25.25-1.63,0-3.27,0-4.9-.01-.63,0-1.22-.17-1.55-.79-.01-.03-.03-.06-.05-.07-.47-.26-.45-.69-.43-1.13.02-.63,0-1.25,0-1.88,0-.1-.03-.22.03-.31Z"/>
        <path class="cls-3" d="m104.97,62.44c0,.42,0,.84,0,1.25,0,.38-.16.51-.53.42-.11-.03-.22-.03-.32-.03-1.14,0-2.28-.04-3.41.01-.74.04-1.28-.29-1.81-.69-.19-.14-.34-.33-.52-.49-.09-.08-.11-.18-.11-.29,0-.9,0-1.79,0-2.69,0-.06-.04-.16.05-.18.08-.02.15.04.19.11.42.68,1.08.87,1.82.87,1.46,0,2.91,0,4.37,0,.22,0,.29.05.28.28-.02.48,0,.96,0,1.43Z"/>
        <path class="cls-3" d="m22.16,64.08c-.77,0-1.54,0-2.3,0-.18,0-.32-.04-.44-.19-.27-.33-.71-.43-1.01-.73-.19-.19-.28-.38-.29-.65-.03-.82.03-1.65-.07-2.47,0-.08,0-.14.08-.18.07-.03.11,0,.17.06.57.55,1.2.87,2.05.84,1.37-.06,2.75-.01,4.13-.02.22,0,.29.04.28.27-.01.94-.01,1.87,0,2.81,0,.24-.07.28-.29.27-.77-.01-1.54,0-2.3,0Z"/>
        <path class="cls-3" d="m62.58,59.71c.14.02.19.07.23.15.36.63.94.87,1.62.88,1.49.01,2.97.01,4.46,0,.27,0,.34.08.33.34-.02.93-.02,1.85-.01,2.78,0,.19-.07.24-.24.24-1.56,0-3.11,0-4.67,0-.12,0-.24-.04-.34-.11-.46-.32-.9-.65-1.28-1.07-.06-.06-.11-.11-.11-.2,0-.99,0-1.99,0-3Z"/>
        <path class="cls-3" d="m.99,59.72c.18.04.25.14.31.27.11.24.29.39.54.49.43.17.86.27,1.33.26,1.4-.02,2.79,0,4.19-.01.23,0,.31.05.3.3-.02.93-.03,1.85-.02,2.78,0,.21-.08.28-.28.28-1.51,0-3.01,0-4.52,0-.13,0-.23-.06-.34-.1-.55-.22-.94-.65-1.37-1.03-.11-.09-.14-.22-.14-.35,0-.95,0-1.91,0-2.89Z"/>
        <path class="cls-3" d="m38.7,59.56c.19.29.47.48.7.71.32.32.71.46,1.16.46,1.42,0,2.83,0,4.25,0,.23,0,.3.06.3.29-.01.93-.01,1.85,0,2.78,0,.21-.04.29-.27.29-1.38-.01-2.75,0-4.13-.01-.43,0-.8-.23-1.1-.52-.24-.22-.48-.45-.79-.58-.12-.05-.18-.13-.18-.27,0-1.04,0-2.07,0-3.11.02-.01.04-.03.07-.04Z"/>
        <path class="cls-3" d="m66.91,31.31c-.78,0-1.56.05-2.33-.02-.6-.05-1.13-.36-1.52-.81-.15-.17-.25-.44-.25-.73.02-.78,0-1.55,0-2.33,0-.07-.05-.18.05-.21.07-.02.11.08.17.11.72.37,1.3.97,2.24.91,1.32-.08,2.65-.01,3.98-.03.23,0,.28.06.28.28-.01.86-.01,1.71,0,2.57,0,.2-.05.27-.26.27-.79-.01-1.57,0-2.36,0,0,0,0,0,0-.01Z"/>
        <path class="cls-3" d="m20.39,27.15c.46.36.96.55,1.39.85.23.16.48.22.76.22,1.41,0,2.81,0,4.22,0,.23,0,.31.06.3.3-.02.86-.01,1.71,0,2.57,0,.18-.04.25-.23.25-1.53,0-3.05.04-4.58-.02-.71-.03-1.29-.49-1.78-1-.06-.06-.08-.18-.08-.28,0-.93,0-1.87,0-2.88Z"/>
      </g>
    </g>
  </g>
</svg>