<?xml version="1.0" encoding="UTF-8"?>
<svg id="Layer_2" data-name="Layer 2" xmlns="http://www.w3.org/2000/svg" viewBox="0 0 265.16 128.78">
  <defs>
    <style>
      .cls-1 {
        fill: #1ea3d8;
        stroke: #463750;
        stroke-miterlimit: 10;
        stroke-width: 2px;
      }
    </style>
  </defs>
  <g id="Layer_1-2" data-name="Layer 1">
    <g id="LCvJN4.tif">
      <g>
        <path class="cls-1" d="m214.35,33.69c.63-1.37,1.13-2.53,1.69-3.65,2.16-4.32,4.32-8.65,6.57-12.93.25-.48,1.04-.83,1.64-.94,3.75-.73,7.52-1.33,11.26-2.06,4.37-.86,8.72-1.81,13.08-2.71.34-.07.7-.04,1.32-.07-.54,1.05-.97,1.86-1.38,2.68-2.45,4.9-4.87,9.81-7.36,14.69-.2.39-.83.68-1.31.79-2.81.63-5.62,1.23-8.45,1.77-2.95.56-5.92,1.04-8.88,1.55-2.13.37-4.26.75-6.39,1.09-1.04.17-1.44.58-1.13,1.73.73,2.78.31,5.42-.98,8.01-2.46,4.9-5.61,9.3-9.32,13.31-3.21,3.48-7.11,6.05-11.34,8.1-3.46,1.68-6.97,3.32-10.57,4.66-2.93,1.09-6.02,1.77-9.05,2.55-1.23.32-1.54,1.02-1.33,2.16.51,2.78,2.42,4.18,4.94,4.91,2.68.78,5.35.84,8.17.41,8.07-1.25,16.07-2.83,23.77-5.51,4.99-1.74,9.75-4.16,14.62-6.25,1.07-.46.98-1.31.74-2.13-1.03-3.68-2.06-7.35-3.2-10.99-.34-1.08-.32-1.91.33-2.85,3.24-4.72,6.44-9.48,9.66-14.22.07-.1.18-.17.45-.41.34.42.79.77.95,1.22,1.27,3.74,2.6,7.46,3.7,11.25,1.6,5.46.56,10.79-1.33,15.97-1.37,3.76-3.24,7.26-5.85,10.37-3.4,4.06-7.47,7.26-11.96,9.99-6.63,4.04-13.65,7.22-21.1,9.41-6.93,2.04-14,3.05-21.23,2.73-2.88-.13-5.64-.81-8.23-2.03-3.82-1.79-4.99-5.25-5.32-9.09-.37-4.28.84-8.32,2.17-12.32.08-.24.17-.48.24-.72.02-.08,0-.17-.03-.43-2.25,1.12-4.37.04-6.54-.3-.21-.03-.48-.06-.6-.19-2-2.34-4.31-.86-6.47-.48-2.91.52-5.8,1.23-8.69,1.85-1.28.27-2.62.41-3.84.85-.62.22-1.22.9-1.51,1.52-2.4,5.12-5.42,9.81-9.33,13.89-4.3,4.48-9.62,7.32-15.46,9.25-3.68,1.22-7.47,1.62-11.3,1.04-5.85-.87-9.89-4.17-12.32-9.5-2.08-4.57-2.17-9.36-1.48-14.22,1.19-8.43,4.21-16.23,8.16-23.71.85-1.61,1.68-3.23,2.57-4.82.26-.47.63-1.02,1.08-1.22.64-.28,1.5-.51,2.1-.3.45.16,1,1.14.89,1.6-.49,2.04-1.05,4.09-1.86,6.03-1.24,2.97-2.84,5.8-4.03,8.78-1.26,3.14-2.39,6.36-1.94,9.87.41,3.22,3.27,6.26,6.5,6.61,4.96.54,9.89.61,14.78-.77,5.15-1.46,9.76-3.92,13.99-7.11.45-.34.79-1.13.8-1.71.01-1.78-.16-3.56-.28-5.33-.4-6.09-.82-12.19-1.21-18.28-.2-3.13-.36-6.26-.56-9.4-.32-4.95-.66-9.9-.96-14.85-.09-1.48-.09-2.97-.04-4.46.01-.48.22-1,.48-1.42,2.97-4.79,5.96-9.58,8.99-14.33.31-.49.98-.75,1.48-1.12.3.6.81,1.18.85,1.79.24,3.73.33,7.46.56,11.19.46,7.2,1,14.39,1.47,21.58.23,3.51.35,7.04.55,10.55.15,2.75.36,5.5.52,8.26.05.92.54,1.32,1.41,1.23,1.89-.21,3.79-.44,5.67-.72,2.77-.41,5.53-.82,8.29-1.31,4.28-.75,7.76-2.7,9.75-6.77.11-.23.22-.54.41-.63.58-.27,1.26-.71,1.79-.59.42.1.87.89.96,1.43.39,2.39-.88,4.44-1.56,6.61-.11.36-.39.73-.35,1.07.03.32.36.83.6.86,1.54.16,2.95.07,4.18-1.24,6.52-6.98,13.11-13.89,19.69-20.82,3.28-3.45,7.38-5.21,12.07-5.62,3.95-.34,7.16.98,9.43,4.34.18.27.42.51.8.97Zm-29.57,19.37c.01.06.03.11.04.17,1.22-.31,2.47-.56,3.66-.95,3.69-1.21,7.36-2.48,11.04-3.73.83-.28,1.11-.68.43-1.46-1.61-1.85-5.62-2.76-7.75-1.59-3.2,1.76-6.12,3.92-8.7,6.52-.16.16-.37.52-.3.62.14.2.43.35.69.42.28.07.59.02.89.02Z"/>
        <path class="cls-1" d="m44.31,77.8c1.71-.09,3.35-.18,4.98-.26,3.73-.19,7.35-.95,10.59-2.84,3.56-2.07,5.5-5.43,6.75-9.24.1-.31.17-.63.25-.95,2.59.88,2.93,1.32,2.68,3.87-.36,3.74-1.21,7.38-2.75,10.8-1.2,2.66-2.38,5.37-3.93,7.83-2.38,3.79-5.86,6.4-10.13,7.71-3.84,1.18-7.77,2.08-11.69,2.97-1.39.32-2.88.18-4.3.35-1.33.16-2.65.58-3.98.66-.94.06-1.9-.3-2.86-.38-1.07-.09-2.18-.27-3.22-.1-5.64.93-11.26,1.93-16.88,2.97-.75.14-1.41.66-2.14.96-.49.21-1.09.57-1.5.44-.35-.11-.67-.82-.7-1.29-.14-2.11-.13-4.24-.27-6.36-.39-6.09-.85-12.18-1.24-18.27-.38-5.84-.69-11.68-1.09-17.52-.45-6.55-.98-13.1-1.43-19.66-.19-2.79-.29-5.59-.43-8.39-.12-2.36,1.5-4.01,2.46-5.9,1.86-3.67,3.87-7.26,5.83-10.88.14-.26.24-.58.46-.76.3-.25.7-.39,1.05-.58.16.32.42.62.45.95.26,2.83.51,5.66.7,8.49.44,6.56.83,13.12,1.25,19.68.28,4.4.54,8.81.84,13.21.38,5.75.79,11.51,1.19,17.26.19,2.75.42,5.5.57,8.25.06,1.02.37,1.39,1.42,1.05.55-.18,1.16-.19,1.75-.24,1.18-.1,2.4-.03,3.54-.29,3.5-.81,7.18-.74,10.52-2.34,1.32-.63,2.88-.73,4.24-1.28,2.25-.91,3.5-2.89,4.64-4.9.49-.87.99-1.64,2.15-1.34.82.21,1.43,1.54,1.24,2.68-.11.63-.29,1.24-.46,1.85-.17.61-.36,1.21-.53,1.79Z"/>
        <path class="cls-1" d="m260.52,12.47c.08.4.2.8.23,1.21.45,7.41.85,14.82,1.34,22.22.52,7.91,1.14,15.81,1.7,23.72.14,1.95.09,3.91.32,5.84.27,2.22-.54,4.04-1.67,5.84-2.59,4.13-5.15,8.29-7.73,12.43-.2.32-.42.67-.72.87-.33.22-.79.4-1.14.34-.18-.03-.37-.61-.4-.95-.27-3.42-.51-6.85-.74-10.27-.42-6.26-.83-12.52-1.23-18.77-.27-4.19-.56-8.38-.8-12.56-.22-3.77-.45-7.53-.51-11.3-.02-1.02.37-2.18.91-3.06,3.03-4.91,6.16-9.75,9.26-14.61.24-.37.54-.7.81-1.04.12.04.24.08.36.12Z"/>
        <path class="cls-1" d="m50.92,127.41c-1.9-1.8-3.77-3.56-5.63-5.33-1.41-1.34-2.81-2.7-4.24-4.02-.6-.55-.75-.99-.17-1.71,3.57-4.41,7.11-8.85,10.63-13.3.57-.72,1.01-.37,1.47.05,1.25,1.14,2.49,2.3,3.73,3.46,1.73,1.62,3.43,3.28,5.19,4.88.76.7.9,1.23.18,2.12-3.57,4.42-7.06,8.89-10.59,13.34-.12.16-.3.28-.56.51Z"/>
        <path class="cls-1" d="m45,52.31c-.26.4-.42.69-.62.94-3.39,4.24-6.8,8.47-10.16,12.73-.72.91-1.39.89-2.14.21-2.92-2.65-5.81-5.34-8.72-8-.83-.76-.87-1.43-.1-2.36,3.38-4.09,6.68-8.24,10.02-12.36,1.03-1.27,1.11-1.24,2.34-.1,2.77,2.56,5.58,5.09,8.36,7.65.39.36.66.83,1.02,1.28Z"/>
      </g>
    </g>
  </g>
</svg>