<?xml version="1.0" encoding="UTF-8"?>
<svg id="Layer_2" data-name="Layer 2" xmlns="http://www.w3.org/2000/svg" viewBox="0 0 212.41 126.95">
  <defs>
    <style>
      .cls-1 {
        fill: #1f99ce;
      }

      .cls-2 {
        fill: #3d3146;
      }
    </style>
  </defs>
  <g id="Layer_1-2" data-name="Layer 1">
    <g id="MMElBt.tif">
      <g>
        <path class="cls-2" d="m209.43,70.85c.6.2,1.2.39,1.8.61,1.14.41,1.42,1.06.97,2.29-2.5,6.91-4.55,13.96-6.67,21-1.09,3.62-2.46,7.15-3.64,10.74-1.01,3.09-.55,6.29-.62,9.45-.06,3.17-.03,6.35,0,9.52.01,1.69-.74,2.39-2.47,2.33-2.32-.09-4.66.01-6.98,0-3.19-.03-5.48-2.35-5.51-5.56-.02-2.47-.14-4.95.01-7.4.29-4.82-1.2-9.22-2.63-13.72-1.06-3.33-2.21-6.65-3.06-10.06-.76-3.06-2.15-5.88-3.63-8.66-.12-.22-.18-.62-.53-.47-.11.05-.1.5-.06.76.73,4.65.39,9.28-.4,13.88-.47,2.76-1.29,5.45-3.77,7.14-.83.57-.36,1.12-.23,1.63.64,2.43,1.59,4.79,2.54,7.09,1.69,4.08,3.01,8.29,4.76,12.33.7,1.61.26,2.38-1.48,2.61-3.43.44-6.89.58-10.34.62-1.99.02-3.34-.7-4.28-2.68-1.27-2.66-1.47-5.57-2.46-8.27-.85-2.3-1.32-4.71-1.92-7.08-.16-.64-.15-1.76-1.32-1.54-1.09.21-.53,1.16-.54,1.73-.05,5.36-.07,10.72,0,16.08.02,1.25-.22,1.72-1.61,1.65-2.67-.15-5.36-.06-8.04-.1-3.25-.06-5.48-2.35-5.5-5.62-.05-11.43-.05-22.85-.15-34.28-.03-3.52-.28-7.04-.52-10.56-.12-1.71.39-2.67,2.12-3.3,2.46-.89,5.11-1.03,7.48-2.08,2.13-.94,4.25-1.64,6.59-1.67,2.42-.03,4.75.47,7.07,1.07-.21.29-.15.46.22.5,3.33.93,7.05.93,9.49,3.99.31.39.56.13.85-.08,2.17-1.59,4.85-2.24,7.09-3.58,2.25-1.35,4.45-1.29,6.79-1.34,1.49-.03,2.25.6,2.47,2.13.78,5.35,1.65,10.69,2.49,16.04.05.3.15.58.22.87.07-.27.15-.54.2-.81.72-3.95,1.56-7.88,1.67-11.91.1-3.92.34-4.22,4.1-5.11.41-.1.83-.19,1.24-.28.48.08.48-.14.3-.48,2.56-.41,5.13-1.24,7.65.2-.18.29,0,.36.24.41Zm-54.6,43.86h0c0-2.19,0-4.37,0-6.56,0-3.38.09-3.42,3.4-3.41,1.1,0,1.74.36,2.05,1.38.5,1.68.95,3.37,1.35,5.08.91,3.81,2.06,7.57,3.19,11.33.35,1.17,1.17,1.88,2.52,1.83,2.54-.09,5.07-.13,7.61-.2,1.55-.04,2-.66,1.43-2.21-2.25-6.03-4.77-11.95-6.76-18.07-.47-1.45-.3-2.47.85-3.05,2.79-1.42,3.26-4.1,3.7-6.66.72-4.17.9-8.41.1-12.61-.57-3-1.39-6.07-4.6-7.27-2.61-.97-5.44-1.37-8.15-2.1-5.7-1.53-10.75,1.33-16.05,2.38-1.44.29-2.33,1.45-2.11,3.3.33,2.79.45,5.62.47,8.43.07,11.42.07,22.84.1,34.26,0,2.38,1.18,3.6,3.59,3.65,1.9.04,3.81-.07,5.71.04,1.35.07,1.68-.47,1.64-1.72-.08-2.61-.02-5.22-.02-7.82Zm33.55-.47c0,2.72,0,4.55,0,6.38,0,2.24,1.19,3.53,3.42,3.6,1.97.06,3.95-.05,5.92.03,1.28.06,1.54-.52,1.51-1.64-.06-2.11-.08-4.23-.01-6.35.12-3.79-.5-7.64.6-11.36,1.38-4.7,3.09-9.29,4.54-13.97,1.68-5.42,3.14-10.91,5.12-16.24.49-1.31.03-1.69-1.1-2.05-3.3-1.08-6.39.15-9.53.78-.7.14-.8.74-.79,1.32.1,6.66-2.11,13.05-2.27,19.68-.03,1.04-.22,2.33-1.65,2.26-1.32-.06-1.5-1.23-1.66-2.33-.98-6.88-2-13.76-2.98-20.64-.12-.87-.38-1.42-1.41-1.44-3.78-.06-7.11,1.13-10.06,3.48-.48.38-.95.66-.44,1.33,1.16,1.53,1.46,3.46,2.29,5.16.97,1.99,2.29,3.97,2.67,6.14.66,3.69,2,7.18,3.1,10.7,1.64,5.27,3.3,10.43,2.72,15.15Zm-12.08-34.17c.02-.26.06-.46.05-.65,0-.06-.12-.12-.19-.18-.03.2-.07.39-.07.59,0,.07.11.13.21.25Z"/>
        <path class="cls-2" d="m101.95,70.19c1.69-.14,3.37-.36,5.06-.39,2.3-.05,2.83.5,2.93,2.84.05,1.27,0,2.54,0,3.81,0,15.52,0,31.04,0,46.56,0,3.67-.09,3.75-3.81,3.74-2.19,0-4.38-.01-6.56.02-3.5.06-7.02-2.82-8.03-6.15-2-6.57-4.2-13.07-6.34-19.6-.09-.28-.1-.77-.57-.7-.08.01-.12.61-.08.93.61,5.17,1.26,10.34,1.84,15.52.3,2.65.47,5.32.73,7.98.14,1.39-.61,1.95-1.85,1.97-2.47.04-4.94.14-7.4,0-2.98-.17-5.19-2.69-5.19-5.69,0-8.04-.11-16.09.03-24.13.12-6.77-.41-13.52-.58-20.28-.05-2.09.58-3.25,2.49-4.03,3.79-1.57,7.46-3.4,11.8-2.86,1.61.2,2.69.51,3.25,2.22,1.96,6.03,4.21,11.96,5.96,18.06.48,1.67,1.44,3.2,1.68,4.96.02.15.15.29.24.44.01-.28.08-.57.03-.84-.45-2.71-.96-5.41-1.38-8.12-.57-3.68-1.09-7.38-1.58-11.07-.24-1.79.47-2.99,2.38-3.33,1.59-.29,3.16-.7,4.63-1.4.53.15.42-.17.33-.46Zm5.83,28.06c0-8.04-.04-16.08.03-24.12.01-1.5-.43-1.84-1.89-1.89-3-.11-5.56,1.47-8.42,1.83-.89.11-.74.94-.67,1.54.46,3.63.84,7.28,1.45,10.88,1.29,7.62,2.71,15.21,4.04,22.82.15.86.38,1.96-.86,2.25-1.29.3-1.43-.84-1.69-1.68-.98-3.14-1.65-6.42-2.95-9.42-1.44-3.32-2.04-6.87-3.24-10.25-.68-1.92-1.78-3.75-2.1-5.69-.61-3.66-2.77-6.78-3.27-10.45-.17-1.23-.94-1.74-2.35-1.84-3.43-.25-6.51.74-9.6,1.99-1.47.59-1.93,1.51-1.93,3.07,0,6.48.63,12.94.51,19.44-.15,7.97-.04,15.94-.04,23.91,0,2.17,1.25,3.5,3.46,3.59,1.69.07,3.39-.06,5.08.03,1.42.08,1.48-.46,1.41-1.75-.19-3.59-.59-7.16-1.17-10.69-.89-5.49-.88-11.08-2.01-16.54-.64-3.09-1.1-6.22-1.58-9.34-.17-1.07.24-2.06,1.35-2.29,1.15-.24,1.2.93,1.54,1.64.09.19.14.4.18.61,1.42,8.22,5.07,15.75,7.25,23.72.98,3.59,2.83,6.89,3.3,10.63.09.73.41,1.42,1,1.8,1.82,1.17,3.54,2.52,5.99,2.22,1.67-.21,3.39-.15,5.07-.01,1.67.14,2.15-.42,2.14-2.1-.09-7.97-.04-15.94-.04-23.91Z"/>
        <path class="cls-2" d="m187.68,2.23c3.74-2.7,8.09-2.3,12.2-1.86,2.67.29,5.21,1.9,7.78,3,.84.36,1.18,1.25,1.29,2.08.44,3.2,1.02,6.39.99,9.65-.01,1.12-.4,1.8-1.32,2.42-1.32.9-2.84,1.2-4.31,1.68-1.13.37-2.32.59-3.46.94-3.28,1.01-3.26,1.01-4.26-2.43-.37-1.29-.61-2.59-.74-3.93-.07-.72-.1-1.48-1.08-1.84-2.01-.74-2.95-.28-2.97,1.85-.02,2.29.83,4.14,2.39,6.01,2.97,3.55,6.93,5.82,10.28,8.84,4.11,3.7,6.77,7.97,6.22,13.74-.16,1.68-.32,3.37-.48,5.05-.32,3.4-3.05,4.91-5.42,6.5-2.16,1.46-4.69,2.38-7.07,3.51-2.89,1.36-5.99.97-8.96.71-3.02-.26-6.04-.89-8.81-2.37-1.4-.75-2.44-1.56-2.59-3.26-.24-2.8-.68-5.56-.63-8.4.03-1.98.17-3.23,2.57-3.97,2.47-.76,4.68-2.28,7.41-2.56,1.87-.19,3.01.09,3.3,2.14.16,1.1.75,2.17.77,3.27.05,2.8,1.47,4.16,4.13,4.44-.22.28-.08.46.2.51.21.04.32-.11.26-.34,1.46-5.53-1.11-9.14-5.48-12.13-4.01-2.75-7.86-5.89-10.78-9.71-2.39-3.13-2.88-7.24-2.22-11.27.17-1.02.64-2.01.67-3.03.09-2.72,1.9-4.41,3.79-5.71,1.85-1.29,3.79-2.69,6.15-3.1.26-.07.28-.22.15-.42Zm4.3,53.48c3.05.2,5.77-.79,8.52-1.98,1.99-.86,3.38-2.51,5.26-3.41,1.62-.77,2.26-2,2.42-3.65.1-1.05.25-2.1.35-3.15.42-4.41-.57-8.29-3.79-11.58-3.07-3.13-6.92-5.27-10.09-8.26-2.91-2.74-5.35-5.76-4.95-9.96.45-4.75.64-5.42,5.73-4.22,1.51.36,2.26,1.03,2.3,2.71.03,1.53.51,3.04.77,4.56.23,1.29.8,1.76,2.17,1.26,1.64-.61,3.38-.95,5.05-1.5,1.4-.46,2.12-1.43,2.06-3.01-.09-2.4-.43-4.76-.83-7.12-.11-.67-.27-1.23-1.01-1.45-3.36-.99-6.73-2.15-10.25-2.15-4.26,0-7.97,1.55-11.52,4.06-2.4,1.7-4.26,3.14-4.86,6.27-1.12,5.85.21,10.54,4.71,14.59,3.01,2.71,6.38,4.94,9.39,7.66,3.86,3.5,5.64,8.25,4.12,13.02-.41,1.28-1.33,2-2.77,1.61-.94-.25-1.86-.57-2.79-.83-1.76-.49-2.66-1.61-2.86-3.45-.15-1.39-.59-2.74-.81-4.13-.17-1.1-.52-1.47-1.79-1.34-2.16.21-4.09.91-6.03,1.77-1.12.5-1.53,1.11-1.55,2.35-.02,2.33.37,4.63.44,6.94.04,1.44.58,2.18,1.84,2.63,3.48,1.24,7.1,1.58,10.75,1.74Z"/>
        <path class="cls-2" d="m147.19,2.68c3.35.58,3.56,1.08,4.06,3.97,1.6,9.15,2.46,18.41,4.09,27.54,1.23,6.89,1.67,13.9,3.25,20.73.5,2.16-.12,2.86-2.35,2.89-2.19.03-4.4-.19-6.56.05-3.87.44-7.37-2.72-7.16-6.86.09-1.9.51-4.35-.64-5.51-1.17-1.18-3.63-.18-5.5-.4-1.38-.17-1.69.55-1.8,1.65-.29,2.94-.67,5.87-.86,8.82-.11,1.67-.67,2.39-2.45,2.29-2.53-.15-5.08.04-7.62-.1-3.16-.18-4.8-2.29-4.48-5.4.92-8.87,2.79-17.6,3.94-26.42.78-5.93,2.38-11.73,2.61-17.74.06-1.47.77-2.51,2.2-3.29,1.74-.95,3.6-1.78,5.12-3.13,2.36-2.11,5.26-1.74,7.97-1.42,2.03.25,3.97,1.25,5.95,1.92-.14.26-.04.39.23.42Zm-8.73,39.85c.99,0,1.98.08,2.96-.02,1.97-.19,2.68.69,2.88,2.61.23,2.18.32,4.35.42,6.53.11,2.22,1.35,3.5,3.55,3.57,2.25.06,4.51-.02,6.77.04,1.12.03,1.39-.22,1.17-1.45-.81-4.48-1.48-8.98-2.11-13.49-.59-4.24-1.16-8.48-1.81-12.71-.91-5.83-1.63-11.68-2.53-17.5-.46-3-.81-5.93-4.84-5.97-.07,0-.13-.04-.2-.06-3.95-1.11-7.89-2.12-11.68.5-.28.19-.69.18-.98.37-1.64,1.09-3.84,1.87-4.2,3.99-.35,2.06-.55,4.17-.88,6.26-1.41,8.87-2.75,17.75-4.12,26.63-.55,3.53-1.44,7.01-1.49,10.62-.03,2.17.4,2.73,2.62,2.79,1.97.06,3.95-.08,5.92.04,1.31.08,1.75-.45,1.85-1.64.2-2.38.44-4.76.7-7.13.41-3.73.68-3.97,4.32-3.96.56,0,1.13,0,1.69,0Z"/>
        <path class="cls-2" d="m71.64,57.8c-1.27,0-2.54.05-3.81,0-3.39-.15-5.47-2.18-5.8-5.61-.18-1.89-.37-3.78-.52-5.68-.08-.97-.4-1.4-1.54-1.43-5.97-.17-5.98-.21-6.72,5.95-.18,1.54-.35,3.08-.44,4.62-.09,1.44-.74,2.18-2.22,2.17-2.47-.02-4.94.06-7.41-.02-3.63-.11-5.68-2.83-4.97-6.39,2.03-10.07,3.2-20.29,4.89-30.42.74-4.44,1.02-8.94,1.98-13.34.26-1.2.75-1.99,1.86-2.59,2.38-1.29,4.62-2.82,7.01-4.09,2.33-1.24,4.76-.86,7.26-.3,2.39.53,4.53,1.7,6.88,2.27,1.35.33,1.92,1.06,2.22,2.42,1.13,5.17,1.31,10.47,2.33,15.65,1.34,6.84,2.02,13.78,3.23,20.64.82,4.61,1.27,9.32,1.98,13.97.22,1.45-.37,2.14-1.76,2.17-1.48.04-2.96,0-4.45,0h0Zm-.85-2.57c1.2,0,2.4-.03,3.6,0,.91.03,1.22-.21,1.01-1.23-.44-2.13-.83-4.29-1.01-6.45-.61-7.29-2.22-14.43-3.1-21.68-.6-4.95-1.67-9.83-2.08-14.82-.3-3.65-.92-7.14-5.81-7.1-.26,0-.52-.23-.79-.28-3.35-.6-6.73-1.66-9.87.72-.27.21-.64.29-.96.42-3.08,1.28-5.22,3.21-5.33,6.88-.17,5.7-1.7,11.24-2.31,16.9-.37,3.41-1.42,6.75-1.77,10.16-.44,4.27-1.01,8.51-2,12.68-.6,2.49.33,3.72,2.93,3.78,1.9.04,3.81-.04,5.71.02,1.09.04,1.65-.19,1.73-1.46.18-2.87,1.05-5.66,1.23-8.55.14-2.25.78-2.72,3.05-2.71,2.12,0,4.23.07,6.35-.02,1.24-.05,1.85.45,1.99,1.61.17,1.39.37,2.79.42,4.19.21,6.59.51,6.91,7.02,6.93Z"/>
        <path class="cls-2" d="m65.68,126.74c-1.13,0-2.26-.02-3.39,0-3.35.06-5.75-1.97-6.2-5.31-.29-2.16-.63-4.33-.73-6.51-.06-1.17-.46-1.35-1.5-1.37-4.72-.1-4.76-.14-5.17,4.5-.2,2.24-.24,4.5-.29,6.76-.03,1.33-.63,1.93-1.94,1.93-2.75-.01-5.51.07-8.26-.04-2.43-.1-4.62-2.66-4.48-5.08.22-4,1.1-7.92,1.61-11.89,1-7.74,1.99-15.48,3.03-23.22.47-3.49,1.02-6.96,1.56-10.43.12-.75.37-1.33,1.19-1.81,2.69-1.58,5.72-2.43,8.35-4.19,2.49-1.66,5.43-1.06,7.94.06,1.91.85,3.88,1.44,5.82,2.16,1.26.46,2.02,1.22,2,2.63-.07,5.32,1.46,10.42,2.11,15.64.36,2.86.34,5.74.93,8.58,1.7,8.28,2.15,16.74,3.52,25.06.31,1.87-.46,2.63-2.3,2.54-1.27-.06-2.54-.01-3.81-.01Zm-.79-2.52c.71,0,1.41,0,2.12,0,2.93,0,2.91,0,2.37-2.98-.58-3.25-1.55-6.51-1.56-9.78-.03-6.74-2.19-13.14-2.55-19.84-.3-5.55-2.03-11.01-2.12-16.64-.01-.71-.41-.56-.75-.69-5.19-1.89-10.37-3.94-15.69-.37-.11.07-.3.04-.4.12-1.91,1.39-4.39,2.22-4.76,5.1-.42,3.28-1.11,6.52-1.38,9.81-.53,6.45-1.88,12.79-2.5,19.22-.41,4.26-1.26,8.47-1.75,12.72-.24,2.11.96,3.27,3.06,3.32,1.9.04,3.81-.06,5.71.04,1.33.07,1.68-.46,1.68-1.71,0-3.17.14-6.32.82-9.46.25-1.15.67-1.59,1.76-1.58,2.12.01,4.23.03,6.35,0,1.54-.03,2.1.68,2.16,2.18.09,2.25.3,4.49.55,6.73.3,2.64,1.68,3.82,4.34,3.83.85,0,1.69,0,2.54,0Z"/>
        <path class="cls-2" d="m87.98,2.03c3.19-.77,6.26-2.1,9.67-1.82,5.26.42,10.27,1.79,15.1,3.86,2.23.96,2.91,3.27,3.3,5.14,1.07,5.04,1.47,10.29-.72,15.12-.91,2.02-.94,2.64.6,4.45,2,2.34,2.1,5.86,2.24,9.06.17,3.86-.7,7.54-1.88,11.17-.67,2.06-2.27,3.36-4.06,4.31-3.3,1.74-6.57,3.82-10.32,4.25-5.33.61-10.71.32-16.07.14-2.8-.09-4.93-2.65-4.93-5.48-.02-11.22.05-22.43-.07-33.65-.03-3.51.04-7.04-.37-10.56-.35-2.94.06-3.53,2.93-4.44,1.4-.44,2.86-.72,4.3-1.07.46.05.39-.21.29-.49Zm-5.13,29.3s.06,0,.09,0c0,6.7,0,13.39,0,20.09,0,2.72,1.05,3.79,3.82,3.81,3.1.03,6.22-.21,9.3.05,6.36.53,11.82-1.55,16.88-5.15.48-.34.88-.73,1.09-1.26,2.16-5.69,2.72-11.48.9-17.36-.44-1.41-1.47-2.46-2.99-2.97-.81-.27-1.96-.22-2.09-1.44-.11-1.01.8-1.36,1.38-1.96,1.03-1.05,2.86-1.4,2.94-3.31.1-2.6.69-5.18.42-7.79-.64-6.24-1.26-8.64-8.08-9.72-1.38-.22-2.72-.74-4.11-.92-2.22-.28-4.5-.77-6.67-.5-3.39.43-6.72,1.37-10.06,2.18-3.4.82-3.44.96-2.95,4.48.1.69.12,1.4.12,2.11,0,6.55,0,13.11,0,19.66Z"/>
        <path class="cls-2" d="m27.41,2.64c5.51.5,7.99,3.94,8.38,9.32.3,4.13.53,8.31-1.01,12.31-.12.32-.16.82-.4.94-2.8,1.48-.57,2.17.47,2.98,1.24.96,1.35,2.46,1.74,3.74,1.8,5.98.88,11.85-1.33,17.52-1.01,2.59-3.46,3.95-5.86,5.05-1.83.84-3.74,1.5-5.47,2.59-1.07.67-2.44.68-3.69.69-4.8.05-9.6.08-14.39,0-3.49-.05-5.63-2.37-5.64-5.89C.19,36.87.45,21.84,0,6.82c-.08-2.79,1.93-3.11,3.54-3.53,2.93-.76,5.67-2,8.52-2.9,1.93-.61,4.23-.41,6.3-.1,2.96.44,5.96.89,8.82,1.87-.2.29-.12.45.23.48ZM2.37,28.86c0,8.56,0,15.68,0,22.81,0,2.53.99,3.53,3.57,3.56,2.33.03,4.66-.01,6.99,0,5.14.05,10.35.45,14.98-2.47,1.85-1.17,4.3-1.91,5.22-3.96,2.34-5.19,3.01-10.67,1.51-16.25-.5-1.88-1.57-3.42-3.58-4.1-2.67-.91-2.68-1.28-.53-3.31,1.27-1.19,3.11-1.91,3.11-4.18,0-3.24.34-6.49-.03-9.72-.27-2.38-1.25-4.97-3.48-5.64-6.21-1.86-12.54-4.03-19.14-1.94-2.62.83-5.42.9-7.93,2.06-.54.25-1.08.37-1.01,1.31.62,7.74.14,15.5.3,21.81Z"/>
        <path class="cls-2" d="m133.16,103.93c0,6.7,0,13.39,0,20.09,0,2.39-.33,2.71-2.65,2.73-2.26.01-4.51.01-6.77,0-3.23-.03-5.35-2.17-5.36-5.45-.01-12.48-.04-24.95.04-37.43.01-1.68-.39-1.97-1.88-1.45-2.43.84-5.77-1.34-5.93-3.85-.13-2.04-.25-4.09-.21-6.12.03-1.3.17-2.69,2.07-2.68,8.74.02,17.49.01,26.23,0,1.39,0,1.92.87,1.88,2.02-.11,3.31-.33,6.61-.55,9.91-.08,1.14-.83,1.58-1.9,1.43-.69-.1-1.37-.3-2.04-.51-3.05-1-3.03-1.01-3.03,2.09.01,6.41,0,12.82,0,19.24.03,0,.06,0,.09,0Zm-2.1-1.88h-.04c0-5.71,0-11.42,0-17.14,0-1.48-.09-2.97.08-4.44.18-1.62,1.16-2.09,2.47-1.16,1.03.72,2.23.77,3.31,1.25.69.3,1.03-.06,1.07-.8.11-1.83.19-3.66.39-5.48.17-1.55-.32-2.07-1.95-2.04-6.42.09-12.84.03-19.26.03-4.81,0-4.76,0-4.57,4.87.07,1.67,1.19,2.45,2.32,3.23,1.06.73,1.92-.17,2.66-.68.65-.45,1.2-1.07,2.01-.72.9.39.9,1.34.97,2.17.05.56.01,1.13.01,1.69,0,12.62,0,25.25,0,37.87,0,2.52,1.02,3.51,3.57,3.52,1.69,0,3.39-.09,5.08.03,1.48.1,1.93-.4,1.91-1.89-.07-6.77-.03-13.54-.03-20.31Z"/>
        <path class="cls-2" d="m9.65,126.75c-1.13,0-2.26.02-3.39,0-3.2-.08-5.23-2.1-5.24-5.31-.02-7.05-.15-14.1.03-21.15.21-8.11-.63-16.18-.87-24.27-.04-1.47.12-2.4,1.86-2.86,1.75-.47,3.43-1.19,5.25-1.45,1.65-.24,3.12-1.09,4.68-1.62,4.09-1.38,8.11-1.04,12.05.7.95.42,1.99.78,3.02.87,4.71.41,6.68,3.56,7.73,7.62,1.14,4.41,1.12,8.91.99,13.43-.11,3.81-.72,7.46-2.39,10.94-1.18,2.47-3.55,3.47-5.64,4.71-2.13,1.26-4.66,1.75-6.81,3.14-1,.64-2.47.45-3.74.28-1.09-.15-1.41.25-1.53,1.36-.37,3.38.25,6.73.13,10.1-.13,3.42-.13,3.53-3.61,3.52-.85,0-1.69,0-2.54,0Zm-6.43-21.67h-.05c0,5.29,0,10.58,0,15.87,0,2.19.93,3.19,3.13,3.27,1.83.06,3.67-.07,5.5.04,1.44.08,1.99-.34,1.94-1.87-.11-3.52-.07-7.05-.06-10.58,0-2.34.41-2.83,2.71-2.65,2.77.22,5.31-.31,7.73-1.63,1.83-1,3.7-1.94,5.53-2.96.73-.41,1.4-.89,1.81-1.71,1.88-3.81,2.39-7.86,2.27-12.04-.14-4.64.01-9.3-2.07-13.66-.58-1.21-1.47-2.34-2.54-2.66-5.1-1.51-10.17-3.51-15.67-2.24-2.8.65-5.53,1.59-8.38,2.09-1.91.33-2.8,1.45-2.73,3.51.18,5.06.95,10.09.89,15.17-.05,4.02-.01,8.04-.01,12.06Z"/>
        <path class="cls-2" d="m175.1,9.83c-.46,1.14-.99,2.34-1.92,3.17-2.16,1.93-4.35,3.86-6.96,5.21-.72.37-1.32.25-1.93-.28-2.49-2.17-4.83-4.49-7.52-6.43-1.73-1.25-1.27-1.95.07-3.61,2.06-2.54,5.03-3.94,7.14-6.33.79-.9,1.62-1.12,2.56-.32,2.73,2.31,6.13,3.89,7.94,7.23.23.43.56.8.62,1.36Zm-2.52-.05c-.29-.46-.5-1.02-.89-1.38-1.64-1.5-3.05-3.24-5.15-4.23-.83-.39-1.27-.3-2.04.11-2.05,1.07-3.4,2.9-5.12,4.31-.62.51-.73.93-.14,1.72.96,1.28,2.28,2.03,3.45,3.01,3.11,2.63,3.31,2.66,6.51.19.56-.43,1.11-.86,1.68-1.27.85-.6,1.06-1.63,1.7-2.47Z"/>
        <path class="cls-1" d="m187.68,2.23c.13.2.11.36-.15.42-.1-.19-.26-.41.15-.42Z"/>
        <path class="cls-1" d="m147.19,2.68c-.27-.03-.38-.16-.23-.42.45-.07.25.23.23.42Z"/>
        <path class="cls-1" d="m87.98,2.03c.1.28.17.54-.29.49-.33-.41-.07-.48.29-.49Z"/>
        <path class="cls-1" d="m209.43,70.85c-.24-.04-.42-.12-.24-.41.45-.08.27.21.24.41Z"/>
        <path class="cls-1" d="m201.54,70.25c.18.34.18.56-.3.48-.05-.1-.1-.2-.15-.3.15-.06.3-.11.46-.17Z"/>
        <path class="cls-1" d="m164.64,70.8c-.37-.04-.43-.21-.22-.5.42.01.36.24.22.5Z"/>
        <path class="cls-1" d="m101.95,70.19c.09.3.2.61-.33.46-.29-.44.01-.46.33-.46Z"/>
        <path class="cls-1" d="m195.39,47.61c.06.23-.05.37-.26.34-.29-.05-.42-.23-.2-.51.16.06.31.12.47.17Z"/>
        <path class="cls-1" d="m27.41,2.64c-.35-.03-.43-.19-.23-.48.44-.02.34.23.23.48Z"/>
        <path class="cls-1" d="m154.83,114.71c0,2.61-.05,5.22.02,7.82.04,1.25-.29,1.79-1.64,1.72-1.9-.1-3.81,0-5.71-.04-2.41-.05-3.59-1.27-3.59-3.65-.03-11.42-.03-22.84-.1-34.26-.02-2.81-.15-5.64-.47-8.43-.22-1.85.67-3.01,2.11-3.3,5.3-1.06,10.35-3.92,16.05-2.38,2.71.73,5.53,1.13,8.15,2.1,3.21,1.19,4.03,4.27,4.6,7.27.8,4.19.62,8.44-.1,12.61-.44,2.56-.91,5.24-3.7,6.66-1.15.58-1.32,1.6-.85,3.05,1.99,6.13,4.52,12.05,6.76,18.07.58,1.55.12,2.17-1.43,2.21-2.54.07-5.08.1-7.61.2-1.35.05-2.17-.66-2.52-1.83-1.12-3.76-2.28-7.52-3.19-11.33-.41-1.71-.85-3.4-1.35-5.08-.3-1.02-.95-1.38-2.05-1.38-3.31,0-3.4.04-3.4,3.41,0,2.19,0,4.37,0,6.56h0Zm-.03-26.36s.01,0,.02,0c0,2.11,0,4.22,0,6.34-.01,4.33.3,4.67,4.72,5.04.28.02.56.02.84.06,1.55.17,2.26-.51,2.58-2.05.9-4.32.94-8.63.46-12.99-.45-4.12-2.35-6.07-6.49-6.56-1.58-.19-2.19.35-2.15,1.94.07,2.74.02,5.49.02,8.24Z"/>
        <path class="cls-1" d="m188.38,114.24c.58-4.72-1.08-9.88-2.72-15.15-1.1-3.52-2.44-7.01-3.1-10.7-.39-2.17-1.7-4.15-2.67-6.14-.83-1.7-1.12-3.63-2.29-5.16-.5-.66-.04-.95.44-1.33,2.95-2.34,6.27-3.53,10.06-3.48,1.03.02,1.29.57,1.41,1.44.98,6.88,1.99,13.76,2.98,20.64.16,1.1.34,2.27,1.66,2.33,1.43.07,1.63-1.22,1.65-2.26.16-6.63,2.37-13.02,2.27-19.68,0-.58.1-1.19.79-1.32,3.14-.63,6.23-1.85,9.53-.78,1.13.37,1.58.75,1.1,2.05-1.98,5.32-3.44,10.82-5.12,16.24-1.45,4.68-3.16,9.27-4.54,13.97-1.1,3.72-.47,7.57-.6,11.36-.07,2.11-.05,4.23.01,6.35.03,1.12-.23,1.7-1.51,1.64-1.97-.08-3.95.03-5.92-.03-2.23-.07-3.41-1.35-3.42-3.6,0-1.83,0-3.67,0-6.38Z"/>
        <path class="cls-1" d="m107.78,98.24c0,7.97-.05,15.94.04,23.91.02,1.69-.47,2.24-2.14,2.1-1.68-.14-3.41-.2-5.07.01-2.44.3-4.17-1.04-5.99-2.22-.59-.38-.91-1.07-1-1.8-.47-3.73-2.32-7.04-3.3-10.63-2.18-7.97-5.84-15.51-7.25-23.72-.04-.21-.08-.42-.18-.61-.35-.71-.39-1.88-1.54-1.64-1.12.23-1.52,1.22-1.35,2.29.48,3.12.94,6.25,1.58,9.34,1.13,5.46,1.12,11.05,2.01,16.54.57,3.53.98,7.1,1.17,10.69.07,1.29,0,1.83-1.41,1.75-1.69-.09-3.39.04-5.08-.03-2.21-.09-3.46-1.42-3.46-3.59,0-7.97-.12-15.94.04-23.91.12-6.49-.51-12.95-.51-19.44,0-1.56.46-2.48,1.93-3.07,3.09-1.24,6.17-2.23,9.6-1.99,1.41.1,2.19.61,2.35,1.84.5,3.67,2.66,6.78,3.27,10.45.32,1.94,1.42,3.77,2.1,5.69,1.19,3.38,1.8,6.92,3.24,10.25,1.3,3,1.97,6.27,2.95,9.42.26.84.4,1.98,1.69,1.68,1.24-.28,1.01-1.39.86-2.25-1.33-7.61-2.75-15.2-4.04-22.82-.61-3.61-1-7.25-1.45-10.88-.08-.6-.22-1.43.67-1.54,2.86-.36,5.42-1.94,8.42-1.83,1.46.06,1.91.4,1.89,1.89-.07,8.04-.03,16.08-.03,24.12Z"/>
        <path class="cls-1" d="m191.97,55.71c-3.65-.16-7.27-.5-10.75-1.74-1.27-.45-1.8-1.19-1.84-2.63-.07-2.31-.46-4.6-.44-6.94.01-1.24.43-1.85,1.55-2.35,1.94-.87,3.87-1.56,6.03-1.77,1.27-.12,1.61.24,1.79,1.34.22,1.38.66,2.74.81,4.13.2,1.84,1.1,2.96,2.86,3.45.94.26,1.85.58,2.79.83,1.44.38,2.36-.33,2.77-1.61,1.52-4.77-.26-9.52-4.12-13.02-3.01-2.72-6.37-4.95-9.39-7.66-4.5-4.05-5.83-8.74-4.71-14.59.6-3.13,2.46-4.57,4.86-6.27,3.55-2.51,7.26-4.06,11.52-4.06,3.53,0,6.89,1.16,10.25,2.15.73.22.89.78,1.01,1.45.4,2.36.74,4.72.83,7.12.06,1.57-.66,2.54-2.06,3.01-1.67.55-3.41.89-5.05,1.5-1.37.51-1.94.04-2.17-1.26-.27-1.52-.74-3.04-.77-4.56-.04-1.68-.79-2.35-2.3-2.71-5.1-1.2-5.29-.53-5.73,4.22-.4,4.2,2.05,7.22,4.95,9.96,3.17,2.99,7.02,5.13,10.09,8.26,3.22,3.28,4.21,7.17,3.79,11.58-.1,1.05-.25,2.1-.35,3.15-.15,1.66-.8,2.88-2.42,3.65-1.88.9-3.27,2.55-5.26,3.41-2.75,1.19-5.47,2.18-8.52,1.98Z"/>
        <path class="cls-1" d="m138.46,42.53c-.56,0-1.13,0-1.69,0-3.63,0-3.9.23-4.32,3.96-.26,2.37-.5,4.75-.7,7.13-.1,1.18-.55,1.72-1.85,1.64-1.97-.12-3.95.02-5.92-.04-2.22-.06-2.65-.62-2.62-2.79.05-3.61.95-7.08,1.49-10.62,1.37-8.88,2.71-17.76,4.12-26.63.33-2.08.53-4.19.88-6.26.36-2.12,2.56-2.89,4.2-3.99.28-.19.7-.18.98-.37,3.79-2.62,7.74-1.61,11.68-.5.07.02.13.06.2.06,4.03.05,4.37,2.98,4.84,5.97.9,5.82,1.63,11.67,2.53,17.5.66,4.22,1.23,8.47,1.81,12.71.63,4.51,1.3,9.01,2.11,13.49.22,1.23-.05,1.47-1.17,1.45-2.26-.05-4.51.03-6.77-.04-2.2-.06-3.44-1.35-3.55-3.57-.11-2.18-.19-4.35-.42-6.53-.2-1.92-.91-2.8-2.88-2.61-.98.1-1.97.02-2.96.02Zm-.14-6.66c.71,0,1.41.01,2.12,0,2.31-.05,2.81-.7,2.33-3.03-.17-.83-.49-1.65-.51-2.48-.16-5.79-1.26-11.47-1.78-17.22-.15-1.65-.77-2.7-2.51-2.75-1.96-.06-1.68,1.54-1.82,2.72-.7,6.08-1.2,12.17-2,18.25-.67,5.09-.32,4.54,4.16,4.52Z"/>
        <path class="cls-1" d="m70.79,55.23c-6.51-.02-6.81-.34-7.02-6.93-.04-1.4-.25-2.8-.42-4.19-.14-1.16-.75-1.66-1.99-1.61-2.11.09-4.23.03-6.35.02-2.27,0-2.91.46-3.05,2.71-.17,2.89-1.05,5.67-1.23,8.55-.08,1.27-.64,1.49-1.73,1.46-1.9-.06-3.81.03-5.71-.02-2.59-.06-3.52-1.29-2.93-3.78,1-4.18,1.57-8.41,2-12.68.35-3.41,1.4-6.75,1.77-10.16.61-5.66,2.14-11.19,2.31-16.9.11-3.67,2.25-5.6,5.33-6.88.33-.13.69-.22.96-.42,3.14-2.39,6.52-1.32,9.87-.72.27.05.53.28.79.28,4.89-.04,5.51,3.45,5.81,7.1.41,4.99,1.48,9.87,2.08,14.82.88,7.25,2.48,14.39,3.1,21.68.18,2.16.57,4.32,1.01,6.45.21,1.02-.1,1.25-1.01,1.23-1.2-.03-2.4,0-3.6,0Zm-13.22-19.36c.77,0,1.55.01,2.32,0,1.96-.04,2.4-.62,2.17-2.61-.58-5.01-1.02-10.04-1.73-15.03-.32-2.26-.06-4.64-1.26-6.78-.56-1-1.35-1.14-2.29-1.07-.91.07-1.03.79-1.12,1.52-.09.69-.28,1.36-.36,2.05-.6,5.72-1.11,11.45-1.81,17.15-.59,4.77-.68,4.76,4.08,4.76Z"/>
        <path class="cls-1" d="m64.89,124.23c-.85,0-1.69,0-2.54,0-2.66-.01-4.04-1.18-4.34-3.83-.25-2.24-.47-4.48-.55-6.73-.06-1.49-.62-2.21-2.16-2.18-2.12.04-4.23.02-6.35,0-1.09,0-1.51.43-1.76,1.58-.68,3.13-.82,6.29-.82,9.46,0,1.25-.35,1.78-1.68,1.71-1.9-.1-3.81,0-5.71-.04-2.1-.05-3.3-1.21-3.06-3.32.49-4.25,1.34-8.47,1.75-12.72.62-6.44,1.97-12.77,2.5-19.22.27-3.28.96-6.53,1.38-9.81.37-2.88,2.85-3.7,4.76-5.1.11-.08.29-.04.4-.12,5.32-3.58,10.5-1.53,15.69.37.34.12.74-.02.75.69.09,5.63,1.82,11.09,2.12,16.64.36,6.7,2.52,13.1,2.55,19.84.02,3.26.98,6.52,1.56,9.78.53,2.98.56,2.98-2.37,2.98-.71,0-1.41,0-2.12,0Zm-16.39-24.51c0,.95.09,1.74-.02,2.5-.24,1.68.44,2.33,2.1,2.23,1.4-.08,2.81.02,4.22-.03,1.23-.04,1.8-.34,1.55-1.94-.57-3.52-.76-7.1-1.08-10.66-.29-3.21-.52-6.43-.81-9.65-.13-1.44-1.52-2.56-2.93-2.34-1.33.2-1.23,1.31-1.3,2.29-.08,1.05-.17,2.1-.29,3.14-.58,4.87-1.2,9.73-1.43,14.46Z"/>
        <path class="cls-1" d="m82.85,31.33c0-6.55,0-13.11,0-19.66,0-.7-.03-1.41-.12-2.11-.49-3.52-.45-3.65,2.95-4.48,3.34-.81,6.67-1.75,10.06-2.18,2.17-.27,4.46.21,6.67.5,1.39.18,2.72.7,4.11.92,6.82,1.08,7.44,3.48,8.08,9.72.27,2.61-.32,5.19-.42,7.79-.07,1.91-1.91,2.26-2.94,3.31-.58.6-1.49.94-1.38,1.96.14,1.22,1.28,1.17,2.09,1.44,1.52.5,2.56,1.56,2.99,2.97,1.82,5.88,1.26,11.67-.9,17.36-.2.53-.61.92-1.09,1.26-5.05,3.6-10.52,5.67-16.88,5.15-3.08-.25-6.2-.02-9.3-.05-2.77-.02-3.82-1.09-3.82-3.81,0-6.7,0-13.39,0-20.09-.03,0-.06,0-.09,0Zm10.58,8.95c0,1.97-.02,3.95,0,5.92.02,1.19.32,2.34,1.67,2.59,2.28.43,4.55.96,6.89.93.95-.01,1.61-.39,1.92-1.33,1.18-3.55,1.22-7.22.86-10.86-.15-1.45-.34-3.56-1.9-3.97-2.36-.62-4.8-1.29-7.33-1.2-1.53.06-2.17.7-2.14,2.2.04,1.9,0,3.81.01,5.71Zm0-22.54c0,2.25.04,4.51-.01,6.76-.03,1.58.61,2.37,2.24,2.34,1.76-.03,3.52-.01,5.28,0,1.32,0,1.95-.61,2.34-1.92.97-3.32.76-6.68.64-10.05-.03-.93-.43-1.75-.88-2.57-1.69-3.06-4.81-2.71-7.57-3.21-1.52-.27-2.04.51-2.03,1.9.02,2.25,0,4.5,0,6.76Z"/>
        <path class="cls-1" d="m2.37,28.86c-.17-6.31.32-14.07-.3-21.81-.08-.94.46-1.06,1.01-1.31,2.52-1.16,5.31-1.23,7.93-2.06,6.61-2.1,12.93.08,19.14,1.94,2.23.67,3.21,3.26,3.48,5.64.37,3.23.04,6.48.03,9.72,0,2.27-1.85,2.98-3.11,4.18-2.16,2.03-2.14,2.4.53,3.31,2.01.68,3.07,2.22,3.58,4.1,1.5,5.58.83,11.06-1.51,16.25-.93,2.05-3.37,2.79-5.22,3.96-4.63,2.93-9.84,2.52-14.98,2.47-2.33-.02-4.66.02-6.99,0-2.58-.03-3.57-1.03-3.57-3.56,0-7.12,0-14.25,0-22.81Zm10.14,11.53h0c0,2.05,0,4.09,0,6.14,0,1.1.3,1.95,1.51,2.2,2.34.48,4.66,1.09,7.08,1,1.22-.05,1.94-.6,2.26-1.8.98-3.68.85-7.41.55-11.13-.1-1.23-.57-2.83-1.81-3.1-2.45-.52-4.86-1.37-7.45-1.32-1.53.03-2.22.52-2.17,2.09.06,1.97.01,3.95.01,5.93Zm0-22.67h.01c0,2.11-.02,4.23,0,6.34.03,2.41.4,2.75,2.88,2.78,1.48.02,2.97-.06,4.44.08,1.81.18,2.51-.66,2.82-2.32.6-3.22.51-6.45.44-9.68-.02-1.07-.47-2-1.04-2.93-1.73-2.84-4.74-2.34-7.31-2.93-1.6-.36-2.33.43-2.27,2.1.08,2.18.02,4.37.02,6.55Z"/>
        <path class="cls-1" d="m131.06,102.05c0,6.77-.04,13.54.03,20.31.02,1.49-.43,1.99-1.91,1.89-1.69-.12-3.38-.02-5.08-.03-2.55,0-3.57-.99-3.57-3.52,0-12.62,0-25.25,0-37.87,0-.56.03-1.13-.01-1.69-.07-.83-.07-1.78-.97-2.17-.81-.36-1.36.26-2.01.72-.74.51-1.6,1.41-2.66.68-1.14-.78-2.26-1.56-2.32-3.23-.2-4.87-.24-4.87,4.57-4.87,6.42,0,12.84.07,19.26-.03,1.64-.02,2.13.5,1.95,2.04-.2,1.82-.28,3.65-.39,5.48-.04.73-.38,1.1-1.07.8-1.08-.47-2.28-.52-3.31-1.25-1.31-.93-2.29-.46-2.47,1.16-.16,1.46-.08,2.96-.08,4.44,0,5.71,0,11.42,0,17.14h.04Z"/>
        <path class="cls-1" d="m3.21,105.08c0-4.02-.04-8.04.01-12.06.07-5.08-.71-10.11-.89-15.17-.07-2.06.81-3.18,2.73-3.51,2.85-.49,5.57-1.44,8.38-2.09,5.49-1.27,10.57.73,15.67,2.24,1.07.32,1.96,1.45,2.54,2.66,2.08,4.36,1.92,9.02,2.07,13.66.13,4.18-.38,8.23-2.27,12.04-.41.82-1.08,1.31-1.81,1.71-1.82,1.02-3.69,1.96-5.53,2.96-2.42,1.32-4.96,1.85-7.73,1.63-2.29-.18-2.7.32-2.71,2.65-.01,3.53-.06,7.05.06,10.58.05,1.53-.49,1.95-1.94,1.87-1.83-.11-3.67.02-5.5-.04-2.21-.07-3.13-1.07-3.13-3.27,0-5.29,0-10.58,0-15.87h.05Zm19.5-12.95c0-1.69.15-3.39-.03-5.06-.3-2.78,0-5.76-2.98-7.66-1.67-1.07-3.54-1.45-5.15-1.11-1.44.31-.83,2.31-.84,3.58-.06,5.49-.03,10.98-.03,16.48q0,3.84,3.83,4.42c.14.02.28.05.42.07,3.02.56,3.7.1,4.34-2.93.54-2.57.48-5.18.45-7.78Z"/>
        <path class="cls-1" d="m172.57,9.78c-.64.84-.85,1.86-1.7,2.47-.57.41-1.13.84-1.68,1.27-3.21,2.48-3.4,2.44-6.51-.19-1.17-.99-2.49-1.73-3.45-3.01-.59-.79-.48-1.21.14-1.72,1.72-1.42,3.07-3.24,5.12-4.31.78-.41,1.21-.5,2.04-.11,2.1.99,3.51,2.73,5.15,4.23.39.36.6.91.89,1.38Z"/>
        <path class="cls-2" d="m154.8,88.35c0-2.75.05-5.49-.02-8.24-.04-1.59.57-2.13,2.15-1.94,4.14.49,6.04,2.44,6.49,6.56.48,4.36.45,8.68-.46,12.99-.32,1.54-1.04,2.23-2.58,2.05-.28-.03-.56-.03-.84-.06-4.42-.37-4.73-.7-4.72-5.04,0-2.11,0-4.22,0-6.34,0,0-.01,0-.02,0Zm2.15.47c0,2.18.08,4.37-.02,6.54-.1,2.15,1.62,1.44,2.62,1.76,1.21.39,1.58-.4,1.72-1.46.5-4,.52-7.99-.05-11.98-.21-1.51-1.2-2.24-2.62-2.56-1.2-.27-1.79-.12-1.69,1.37.15,2.1.04,4.22.04,6.33Z"/>
        <path class="cls-2" d="m138.32,35.87c-4.48.01-4.83.57-4.16-4.52.8-6.07,1.3-12.17,2-18.25.14-1.17-.14-2.77,1.82-2.72,1.73.05,2.36,1.1,2.51,2.75.52,5.75,1.62,11.43,1.78,17.22.02.83.34,1.65.51,2.48.48,2.33-.03,2.98-2.33,3.03-.71.01-1.41,0-2.12,0Zm2.03-3.54c-.14-5.68-1.13-11.43-1.87-17.21-.04-.32-.26-.61-.39-.92-.04.3-.1.6-.11.9-.11,5.49-.97,10.9-1.75,16.31-.19,1.28-.14,2.21,1.57,2,.53-.06,1.09.18,1.64.26.94.13,1.32-.24.92-1.34Z"/>
        <path class="cls-2" d="m57.57,35.87c-4.76,0-4.66.01-4.08-4.76.7-5.71,1.2-11.44,1.81-17.15.07-.69.27-1.36.36-2.05.09-.73.21-1.45,1.12-1.52.94-.07,1.73.07,2.29,1.07,1.2,2.13.94,4.52,1.26,6.78.71,4.99,1.15,10.02,1.73,15.03.23,1.99-.21,2.57-2.17,2.61-.77.02-1.55,0-2.32,0Zm1.79-7.11c-.34-4.39-.83-8.44-1.5-12.46-.11-.63-.16-1.27-.23-1.9-.14.68-.38,1.36-.4,2.04-.09,4.8-1.18,9.48-1.58,14.25-.23,2.72-.31,2.63,2.28,2.72,1.45.05,2.02-.24,1.63-1.81-.25-1.01-.15-2.1-.19-2.83Z"/>
        <path class="cls-2" d="m48.49,99.71c.22-4.73.85-9.59,1.43-14.46.12-1.04.22-2.09.29-3.14.07-.98-.03-2.09,1.3-2.29,1.41-.21,2.8.91,2.93,2.34.3,3.21.53,6.43.81,9.65.32,3.56.52,7.14,1.08,10.66.26,1.6-.32,1.9-1.55,1.94-1.41.05-2.82-.05-4.22.03-1.66.1-2.34-.55-2.1-2.23.11-.76.02-1.54.02-2.5Zm2.07-.77s.06,0,.09.01c0,.7-.12,1.43.02,2.1.32,1.52,1.58.56,2.39.76.6.15,1.1,0,.96-.86-.83-5.14-.97-10.34-1.39-15.51-.02-.26-.03-.64-.41-.59-.11.02-.21.45-.24.71-.49,4.46-.96,8.92-1.44,13.38Z"/>
        <path class="cls-2" d="m93.42,40.28c0-1.9.03-3.81,0-5.71-.03-1.5.6-2.14,2.14-2.2,2.54-.09,4.97.57,7.33,1.2,1.55.41,1.75,2.52,1.9,3.97.37,3.64.32,7.31-.86,10.86-.31.94-.98,1.32-1.92,1.33-2.34.03-4.61-.5-6.89-.93-1.35-.26-1.65-1.4-1.67-2.59-.03-1.97,0-3.95-.01-5.92Zm2.14.23c0,.49,0,.98,0,1.48,0,4.74,0,4.7,4.85,5.12,1.15.1,1.61-.28,1.92-1.34.82-2.77.42-5.57.27-8.36-.03-.58-.14-1.43-1.1-1.58-1.58-.25-3.15-.56-4.73-.84-.87-.16-1.28.13-1.23,1.1.07,1.47.02,2.95.02,4.42Z"/>
        <path class="cls-2" d="m93.43,17.75c0-2.25.01-4.5,0-6.76-.01-1.39.51-2.17,2.03-1.9,2.77.49,5.88.15,7.57,3.21.45.81.85,1.63.88,2.57.12,3.37.33,6.73-.64,10.05-.38,1.31-1.02,1.92-2.34,1.92-1.76,0-3.52-.02-5.28,0-1.62.03-2.27-.76-2.24-2.34.05-2.25.01-4.5.01-6.76Zm2.13.12s0,0,.01,0c0,1.69.04,3.38-.02,5.06-.04.99.28,1.31,1.3,1.36,4.54.24,4.93-.08,5.01-4.67.01-.77,0-1.55-.02-2.32-.09-4.26-.86-5.06-5.1-5.58-.97-.12-1.23.15-1.2,1.08.06,1.69.02,3.37.02,5.06Z"/>
        <path class="cls-2" d="m12.5,40.38c0-1.98.05-3.95-.01-5.93-.05-1.57.64-2.06,2.17-2.09,2.58-.05,4.99.8,7.45,1.32,1.24.26,1.71,1.86,1.81,3.1.3,3.72.43,7.46-.55,11.13-.32,1.2-1.04,1.75-2.26,1.8-2.42.1-4.74-.52-7.08-1-1.21-.25-1.52-1.1-1.51-2.2.01-2.05,0-4.09,0-6.14h0Zm9.6.47c-.09-1.26-.13-2.52-.3-3.77-.08-.56-.19-1.14-1.11-1.22-1.59-.13-3.18-.48-4.75-.81-1.04-.22-1.34.12-1.32,1.16.06,2.95.11,5.9-.02,8.84-.06,1.37.79,1.65,1.64,1.55,1.72-.21,3.63,1.75,5.14-.38.3-.43.37-1.05.46-1.6.2-1.25.35-2.5.25-3.78Z"/>
        <path class="cls-2" d="m12.5,17.71c0-2.18.06-4.37-.02-6.55-.06-1.68.67-2.47,2.27-2.1,2.57.59,5.58.09,7.31,2.93.57.94,1.02,1.86,1.04,2.93.06,3.24.16,6.47-.44,9.68-.31,1.65-1.01,2.5-2.82,2.32-1.47-.15-2.96-.07-4.44-.08-2.48-.03-2.86-.38-2.88-2.78-.02-2.11,0-4.23,0-6.34h-.01Zm2.15.14c0,.7,0,1.4,0,2.11,0,4.29,0,4.21,4.2,4.36,1.43.05,1.95-.54,2.01-1.73.1-2.1.13-4.21.13-6.31,0-3.02-2.84-5.21-5.83-4.62-.81.16-.48.74-.49,1.13-.04,1.68-.02,3.37-.02,5.05Z"/>
        <path class="cls-2" d="m22.72,92.13c.03,2.6.1,5.21-.45,7.78-.64,3.03-1.32,3.5-4.34,2.93-.14-.03-.28-.05-.42-.07q-3.84-.58-3.83-4.42c0-5.49-.03-10.98.03-16.48.01-1.26-.6-3.27.84-3.58,1.61-.34,3.47.04,5.15,1.11,2.97,1.9,2.68,4.87,2.98,7.66.18,1.67.03,3.38.03,5.06Zm-6.98-1.62h-.01c0,2.25,0,4.5,0,6.75-.01,2.84-.01,2.82,2.83,3.23,1.03.15,1.49-.06,1.64-1.23.62-5.04.58-10.05.04-15.1-.22-2.1-1.36-2.69-3.02-3.12-1.13-.29-1.51.1-1.49,1.25.05,2.74.02,5.48.02,8.22Z"/>
      </g>
    </g>
  </g>
</svg>