<?xml version="1.0" encoding="UTF-8"?>
<svg id="Layer_2" data-name="Layer 2" xmlns="http://www.w3.org/2000/svg" viewBox="0 0 76.72 44.27">
  <g id="Layer_1-2" data-name="Layer 1">
    <g id="_4GP8qW.tif" data-name="4GP8qW.tif">
      <g>
        <path d="M36.75,35.85c-.13-.68-.27-1.36-.39-2.04-.37-2.02-.73-4.03-1.09-6.05-.19-1.06-.35-2.12-.52-3.19-.08-.51,.02-.7,.49-.89,1.14-.48,2.32-.75,3.57-.71,.5,.01,.66,.15,.67,.67,0,1.31,0,2.61,0,3.92,0,2.83,0,5.65,0,8.48,0,1.28-.01,2.57-.02,3.85,0,.21,.02,.41,0,.61-.02,.25-.16,.38-.43,.38-1.06,0-2.12,.03-3.18-.02-1.07-.05-1.87-.51-2.25-1.59-1-2.81-2.05-5.6-3.05-8.41-.34-.94-.57-1.93-.86-2.89-.06-.18-.18-.34-.27-.51-.02,.01-.04,.02-.07,.03,.25,1.41,.52,2.81,.75,4.23,.19,1.19,.32,2.38,.48,3.57,.2,1.59,.39,3.17,.61,4.76,.11,.8,.09,.83-.73,.83-.76,0-1.52,0-2.28,0-.87-.01-1.43-.57-1.44-1.43,0-3.16,.02-6.31-.02-9.47-.02-1.64-.17-3.28-.28-4.92-.04-.6,.16-1.01,.73-1.3,1-.5,2.07-.72,3.18-.78,.42-.02,.84,0,1.26,0,.33,0,.51,.15,.62,.45,.81,2.21,1.64,4.42,2.42,6.64,.64,1.82,1.2,3.66,1.81,5.49,.04,.12,.12,.23,.18,.35,.04-.02,.07-.03,.11-.05Z"/>
        <path d="M40.24,8.44c.07,.03,.15,.07,.22,.09,1.14,.3,1.8,1.06,1.94,2.21,.17,1.31,.16,2.63-.22,3.91-.11,.37-.23,.76-.44,1.08-.21,.33-.48,.66-.81,.85-1.08,.66-2.25,1.14-3.47,1.5-.3,.09-.63,.13-.94,.13-.77,0-1.54-.03-2.31-.03-.81,0-1.62,.02-2.43,.04-.1,0-.21,0-.31,0-1.22-.02-1.75-.54-1.75-1.76,0-3.17,.02-6.34-.02-9.5-.02-1.62-.17-3.24-.25-4.86-.03-.6,.04-.73,.62-.88,1.31-.35,2.64-.61,3.93-1.01,1.14-.36,2.2-.03,3.29,.17,.82,.15,1.63,.33,2.42,.57,1.56,.48,2.27,1.37,2.32,2.99,.03,.94-.07,1.88-.19,2.82-.09,.75-.66,1.17-1.3,1.49-.09,.05-.19,.09-.28,.13-.01,0-.02,.03-.04,.07Zm-5.96,4.5c0,.62,0,1.23,0,1.85,0,.26,.09,.45,.37,.48,.71,.07,1.43,.12,2.14,.19,.35,.04,.52-.14,.62-.45,.33-.97,.29-1.96,.22-2.96-.05-.73-.21-.92-.94-1.08-.64-.14-1.29-.19-1.94-.27-.35-.04-.46,.06-.47,.43,0,.61,0,1.21,0,1.82Zm0-7.53c0,.68,0,1.36,0,2.03,0,.47,.06,.52,.54,.51,.49,0,.99,0,1.48,.02,.52,.02,.71-.11,.82-.62,.21-.97,.17-1.94,.1-2.91-.04-.51-.34-.88-.84-1.04-.55-.17-1.1-.31-1.66-.45-.33-.08-.43,0-.43,.35,0,.7,0,1.4,0,2.1Z"/>
        <path d="M10.81,8.44c.16,.06,.3,.11,.43,.15,1.1,.38,1.69,1.19,1.76,2.35,.07,1.11,.12,2.22-.13,3.31-.08,.36-.19,.71-.32,1.06-.23,.6-.63,1.08-1.2,1.39-1.2,.65-2.44,1.23-3.82,1.43-.65,.09-1.31,.09-1.97,.1-1.05,0-2.1-.02-3.14-.03-.26,0-.51,0-.77-.02-.77-.07-1.26-.57-1.32-1.34-.02-.18-.01-.37-.01-.55,0-3.22-.01-6.43-.03-9.65,0-.95-.06-1.91-.09-2.86C.19,3.08-.08,2.41,.02,1.72c.02-.1,0-.2,0-.34,1-.26,1.98-.53,2.97-.79,.36-.09,.72-.15,1.07-.27C5.09-.03,6.11-.05,7.16,.21c1.02,.25,2.06,.45,3.09,.67,.04,0,.08,.02,.12,.03,1.16,.26,1.83,.95,2.09,2.14,.27,1.23,.23,2.44,.01,3.67-.09,.49-.34,.88-.75,1.16-.28,.19-.57,.36-.91,.57Zm-5.96,4.48s0,0,0,0c0,.61,0,1.21,0,1.82,0,.25,.06,.49,.36,.52,.69,.07,1.39,.14,2.08,.18,.5,.03,.6-.07,.74-.54,.31-.99,.2-2.01,.16-3.02-.02-.57-.4-.89-.95-.97-.66-.1-1.32-.17-1.98-.22-.31-.03-.41,.09-.42,.43,0,.61,0,1.21,0,1.82Zm0-7.53s0,0,0,0c0,.67,0,1.34,0,2,0,.48,.13,.58,.62,.56,.51-.02,1.03-.02,1.54,0,.42,.01,.57-.08,.67-.5,.24-.98,.21-1.97,.13-2.97-.05-.54-.3-.91-.82-1.07-.56-.17-1.12-.32-1.69-.46-.33-.08-.44,0-.44,.35,0,.7,0,1.4,0,2.1Z"/>
        <path d="M64.87,40.7c-.55,.06-1.06,.12-1.57,.17-.73,.08-1.47,.15-2.2,.24-.7,.09-1.47-.37-1.7-1.1-.47-1.5-.92-3.01-1.38-4.52-.02-.06-.03-.12-.05-.18-.19-.67-.61-.9-1.28-.65-.08,.03-.15,.17-.15,.26,0,1.78,0,3.56,.02,5.33,0,.55-.08,.63-.61,.63-.82,0-1.65,0-2.47,0-1.13,0-1.63-.51-1.63-1.64,0-2.64,.02-5.28-.02-7.92-.03-2.13-.14-4.25-.22-6.37-.03-.8-.04-.83,.73-1.05,1.11-.32,2.22-.67,3.35-.9,1.88-.37,3.72-.06,5.52,.51,.16,.05,.31,.12,.47,.16,.89,.22,1.37,.81,1.68,1.66,.85,2.37,.68,4.68-.3,6.95-.14,.32-.46,.6-.75,.82-.4,.31-.46,.37-.27,.83,.89,2.13,1.78,4.27,2.67,6.4,.04,.1,.08,.21,.15,.38Zm-8.32-12.26s.04,0,.06,0c0,.89,0,1.78,0,2.68,0,.34,.2,.55,.53,.62,.33,.07,.66,.14,1,.18,.45,.05,.53-.01,.64-.46,.34-1.37,.32-2.75,.16-4.13-.08-.7-.42-1.22-1.12-1.45-.26-.09-.53-.15-.81-.18-.35-.05-.46,.06-.46,.43,0,.77,0,1.54,0,2.31Z"/>
        <path d="M25.82,18.18c-.54,0-1.09,.03-1.63,0-.64-.04-1.18-.52-1.34-1.27-.17-.82-.25-1.66-.35-2.5-.05-.36-.1-.43-.45-.44-.75-.01-1.5-.03-2.25-.04-.37,0-.57,.16-.63,.58-.1,.66-.16,1.32-.24,1.99-.04,.4-.08,.8-.13,1.19-.05,.36-.22,.54-.59,.54-.9,0-1.81,0-2.71-.04-1.06-.06-1.46-.67-1.27-1.79,.66-3.91,1.31-7.83,1.97-11.74,.13-.79,.27-1.58,.4-2.36,.05-.33,.23-.55,.51-.69,.97-.51,1.94-1.03,2.93-1.5,.25-.12,.61-.11,.9-.05,1.03,.21,2.04,.45,3.06,.69,.87,.21,1.14,.55,1.28,1.44,.57,3.48,1.14,6.96,1.72,10.44,.28,1.7,.56,3.39,.83,5.09,.06,.39-.07,.52-.49,.52-.5,0-1.01,0-1.51,0v-.05Zm-4.85-7.13s0,.01,0,.02c.2,0,.39,0,.59,0,.45,.02,.52-.05,.51-.5,0-.08-.01-.16-.02-.25-.24-1.91-.48-3.83-.72-5.74-.03-.25-.06-.51-.13-.76-.06-.24-.26-.35-.5-.33-.26,.02-.2,.25-.22,.41-.07,.54-.12,1.08-.19,1.62-.14,1.15-.28,2.3-.41,3.45-.06,.53-.11,1.06-.15,1.59-.02,.33,.07,.45,.41,.48,.28,.02,.55,0,.83,0Z"/>
        <path d="M55.28,18.19c-.48,0-.97,.03-1.45,0-1.03-.07-1.56-.63-1.66-1.67-.07-.74-.17-1.49-.26-2.23-.02-.2-.12-.31-.34-.31-.86,0-1.73,0-2.59,0-.25,0-.35,.14-.37,.36-.13,1.05-.26,2.1-.38,3.15-.07,.58-.27,.76-.86,.75-.7-.01-1.4-.02-2.1-.03-.06,0-.12,0-.19,0-1.2-.05-1.66-.62-1.46-1.81,.61-3.61,1.21-7.22,1.82-10.83,.19-1.11,.36-2.23,.57-3.33,.04-.21,.21-.47,.4-.57,1.01-.55,2.02-1.08,3.06-1.58,.24-.11,.57-.1,.84-.05,1.04,.22,2.08,.48,3.12,.72,.75,.17,1.12,.61,1.24,1.4,.41,2.81,.88,5.61,1.34,8.41,.39,2.36,.8,4.71,1.2,7.06,.08,.45-.06,.61-.52,.61-.47,0-.95,0-1.42,0,0-.01,0-.03,0-.04Zm-5.03-7.12c.3,0,.6,0,.89,0,.23,0,.34-.12,.33-.34-.01-.21-.04-.43-.07-.64-.2-1.53-.39-3.07-.6-4.6-.07-.56-.16-1.12-.25-1.67-.04-.25-.23-.32-.46-.32-.24,0-.2,.19-.22,.33-.11,.86-.2,1.73-.31,2.59-.17,1.42-.35,2.84-.53,4.27-.03,.26,.08,.39,.34,.39,.29,0,.57,0,.86,0Z"/>
        <path d="M23.52,40.88c-.42,0-.84,0-1.26,0-.99,0-1.61-.61-1.69-1.59-.06-.78-.16-1.55-.25-2.32-.02-.22-.15-.34-.37-.34-.7,.01-1.4,.02-2.1,.05-.31,.01-.44,.24-.48,.51-.05,.43-.09,.86-.13,1.28-.07,.66-.13,1.33-.2,1.99-.03,.28-.16,.41-.46,.41-.93-.01-1.85,0-2.78,0-.91,0-1.44-.67-1.3-1.58,.27-1.74,.51-3.49,.77-5.23,.21-1.44,.43-2.88,.65-4.31,.24-1.58,.47-3.16,.7-4.74,.04-.29,.13-.49,.42-.65,1.1-.61,2.22-1.17,3.43-1.48,.37-.1,.8-.11,1.18-.04,.86,.17,1.71,.41,2.56,.66,.56,.16,.9,.57,1,1.14,.14,.8,.25,1.6,.37,2.4,.19,1.3,.39,2.59,.58,3.89,.19,1.27,.4,2.55,.59,3.82,.23,1.5,.44,3,.66,4.49,.05,.34,.1,.69,.13,1.04,.04,.36-.09,.54-.45,.55-.53,.03-1.07,0-1.6,0,0,0,0,.02,0,.02Zm-4.94-14.69c-.01,.05-.03,.09-.03,.13-.12,1.1-.24,2.2-.35,3.31-.12,1.19-.25,2.39-.36,3.58-.04,.38,.05,.49,.43,.52,.4,.03,.8,.02,1.2,.03,.51,0,.54-.03,.5-.54,0-.04-.01-.08-.02-.12-.14-1.24-.28-2.49-.41-3.73-.09-.86-.17-1.72-.27-2.57-.05-.45-.23-.6-.68-.6Z"/>
        <path d="M.58,34.39c0-1.4,.03-2.8,0-4.19-.05-1.63-.15-3.26-.23-4.89-.01-.3-.06-.6-.03-.89,.01-.13,.13-.33,.24-.36,1.95-.6,3.87-1.34,5.97-1.2,1.59,.11,3.12,.47,4.59,1.11,.36,.16,.56,.47,.72,.81,.44,.95,.65,1.96,.73,3,.13,1.74,.02,3.45-.54,5.11-.26,.78-.71,1.38-1.47,1.72-.86,.39-1.73,.76-2.59,1.14-.68,.31-1.39,.34-2.11,.23-.51-.08-.63,.03-.63,.54,0,1.25,0,2.51,0,3.76,0,.5-.09,.59-.59,.59-.84,0-1.69,0-2.53,0-1.02,0-1.51-.5-1.52-1.52,0-1.65,0-3.31,0-4.96Zm4.63-5.05c0,1.07,0,2.14,0,3.21,0,.2,.02,.38,.26,.42,.53,.08,1.05,.17,1.58,.23,.22,.03,.33-.1,.38-.32,.38-1.8,.4-3.61,.18-5.42-.13-1.07-.53-1.48-1.53-1.69-.1-.02-.2-.04-.3-.06-.41-.08-.56,.04-.56,.45,0,1.06,0,2.12,0,3.17Z"/>
        <path d="M64.62,14.57c0-.25,0-.49,0-.74,0-.26,.11-.44,.35-.56,1.02-.51,2.12-.77,3.24-.96,.24-.04,.4,.07,.45,.31,.13,.6,.26,1.2,.38,1.81,.09,.46,.34,.77,.77,.91,.31,.1,.63,.17,.96,.21,.36,.05,.54-.08,.62-.44,.3-1.3-.05-2.43-1.07-3.27-1.01-.83-2.11-1.56-3.15-2.37-.58-.46-1.15-.94-1.63-1.5-.86-1-1.08-2.22-.87-3.5,.08-.53,.2-1.05,.37-1.55,.09-.26,.28-.54,.51-.7,1.28-.93,2.71-1.56,4.23-2.03,.73-.23,1.39-.17,2.09-.02,.94,.2,1.89,.38,2.83,.59,.59,.13,.92,.5,.97,1.12,.07,.87,.15,1.74,.22,2.61,.02,.29-.11,.48-.37,.62-1.02,.54-2.14,.77-3.27,.95-.24,.04-.34-.14-.38-.35-.12-.56-.24-1.12-.38-1.68-.15-.6-.7-1.08-1.31-1.14-.45-.05-.6,.09-.71,.52-.41,1.53,.27,2.65,1.4,3.54,.96,.76,1.98,1.43,2.95,2.17,.5,.38,.98,.79,1.39,1.26,.93,1.05,1.14,2.32,.95,3.67-.08,.58-.25,1.14-.4,1.7-.04,.15-.14,.31-.26,.4-1.39,1.03-2.89,1.85-4.61,2.17-1.23,.22-2.44,.02-3.64-.23-.52-.11-1.03-.26-1.55-.4-.58-.15-.88-.55-.93-1.13-.06-.66-.11-1.33-.16-2,0,0,.01,0,.02,0Z"/>
        <path d="M70.52,30.92c.09-.27,.23-.52,.27-.8,.15-.96,.26-1.93,.39-2.89,.16-1.16,.32-2.31,.48-3.47,.03-.21,.13-.36,.33-.39,.97-.18,1.92-.46,2.92-.39,.46,.03,.91,.13,1.36,.25,.48,.13,.54,.31,.38,.78-.4,1.15-.8,2.3-1.2,3.45-.82,2.32-1.63,4.65-2.46,6.97-.18,.49-.26,.98-.25,1.51,.01,1.43,0,2.86,0,4.29,0,.57-.1,.66-.66,.66-.84,0-1.69,0-2.53-.01-.23,0-.47-.04-.69-.12-.56-.18-.89-.69-.81-1.27,.25-1.81,.05-3.58-.43-5.32-.6-2.17-1.27-4.32-2.17-6.39-.4-.93-.9-1.82-1.37-2.72-.3-.57-.27-.71,.3-.97,.95-.43,1.88-.94,2.94-1.07,.47-.06,.94-.04,1.41-.03,.27,0,.45,.16,.49,.46,.35,2.25,.7,4.5,1.05,6.75,.04,.24,.09,.48,.13,.71,.04,0,.08,.01,.12,.02Z"/>
        <path d="M43.73,25.84c-.44,.11-.81,.24-1.19,.3-.67,.11-1.47-.57-1.49-1.25-.01-.62,0-1.23,0-1.85,0-.31,.12-.42,.45-.4,1.29,.09,2.58,.19,3.87,.29,1.52,.12,3.03,.24,4.55,.35,.32,.02,.65,.04,.97,.06,.36,.03,.47,.13,.42,.49-.14,.93-.31,1.86-.48,2.79-.05,.27-.19,.36-.46,.26-.47-.18-.94-.35-1.41-.53-.46-.17-.63-.05-.67,.43-.11,1.58-.21,3.15-.33,4.73-.13,1.71-.27,3.42-.4,5.13-.1,1.24-.19,2.48-.27,3.72-.04,.55-.15,.68-.7,.64-.9-.07-1.8-.13-2.7-.24-.82-.1-1.21-.55-1.18-1.38,.04-1.05,.13-2.09,.21-3.13,.07-.99,.15-1.99,.23-2.98,.09-1.19,.19-2.37,.28-3.56,.07-.95,.14-1.9,.21-2.86,.02-.33,.05-.65,.08-1.01Z"/>
        <path d="M29.65,18.55c.59,.57,1.31,.73,2.1,.73,1.01,0,2.01,.05,3.02,.05,2.29,0,4.41-.56,6.29-1.89,.04-.03,.09-.05,.13-.08,0,0,.02,0,.08,0,0,.49-.03,.99,0,1.48,.05,.54-.16,.84-.64,1.08-1.12,.54-2.2,1.18-3.44,1.4-.69,.12-1.41,.15-2.11,.16-1.12,.02-2.24,0-3.36-.03-.34,0-.68-.02-1.01-.08-.59-.11-.96-.49-1.04-1.07-.08-.57-.08-1.16-.11-1.74,.03,0,.06-.02,.09-.03Z"/>
        <path d="M.32,18.48c.64,.68,1.43,.82,2.28,.8,.93-.02,1.87-.06,2.8,.01,1.15,.09,2.27,0,3.33-.4,.94-.35,1.84-.8,2.75-1.22,.41-.19,.47-.17,.51,.27,.02,.23,.06,.47,.05,.7-.02,.71-.41,1.2-1.02,1.49-1.74,.84-3.53,1.49-5.52,1.37-1.17-.07-2.34-.04-3.51-.05-1.07,0-1.66-.58-1.67-1.66,0-.44,0-.88,0-1.32Z"/>
        <path d="M69.77,21.6c-1.63-.02-2.99-.29-4.32-.77-.44-.16-.52-.3-.53-.75,0-.32-.04-.63-.04-.95,0-.55,.24-.73,.73-.48,.84,.42,1.74,.6,2.66,.71,2.47,.3,4.7-.35,6.71-1.77,.16-.11,.35-.18,.53-.27,.05,.19,.14,.37,.16,.57,.09,.96-.36,1.66-1.12,2.18-1.51,1.03-3.18,1.54-4.79,1.54Z"/>
        <path d="M56.84,2.82c.93-.94,1.96-1.69,3.05-2.38,.11-.07,.33-.07,.45,0,1.01,.51,1.9,1.17,2.67,2,.23,.25,.24,.52,.01,.77-.74,.83-1.63,1.47-2.62,1.96-.24,.12-.46,.04-.66-.11-.96-.73-1.92-1.47-2.9-2.23Z"/>
        <path d="M56.85,3.9c.74,.55,1.43,1.07,2.12,1.58,.24,.18,.48,.36,.72,.53,.4,.28,.8,.29,1.2,0,.81-.57,1.63-1.14,2.32-1.92,.04,.5,.09,.95,.11,1.41,.01,.46-.22,.82-.5,1.16-.69,.81-1.57,1.34-2.52,1.79-.11,.05-.32,.02-.42-.06-.9-.66-1.79-1.34-2.67-2.03-.28-.22-.4-.5-.37-.88,.04-.5,.01-1,.01-1.58Z"/>
        <path d="M33.85,40.96c.62,.53,1.26,.89,2.01,.97,.17,.02,.35,.03,.52,.03,.84,0,1.67-.02,2.51-.03,.54,0,.65,.14,.57,.67-.04,.27,0,.55,.04,.82,.06,.44-.06,.7-.49,.71-1.21,.02-2.42,.05-3.62-.04-.87-.07-1.46-.79-1.53-1.67-.04-.46,0-.92,0-1.45Z"/>
        <path d="M59.57,41.48c.67,.73,1.43,.69,2.21,.6,.86-.1,1.73-.2,2.59-.29,.41-.04,.59,.16,.58,.67,0,.3-.03,.59-.05,.89-.02,.33-.19,.55-.51,.61-.53,.1-1.07,.19-1.61,.24-.66,.06-1.33,.07-2,.08-.83,0-1.2-.36-1.21-1.2,0-.5,0-1,0-1.6Z"/>
        <path d="M52.3,18.42c.64,.71,1.38,.89,2.21,.87,.77-.02,1.54,.01,2.3,.06,.36,.02,.5,.2,.5,.57,0,.42-.04,.84-.06,1.26-.01,.21-.14,.3-.32,.3-1.14,0-2.28,.01-3.42-.03-.57-.02-1.04-.53-1.16-1.12-.03-.13-.05-.26-.05-.4,0-.47,0-.94,0-1.5Z"/>
        <path d="M20.7,41.18c.88,.89,1.92,.81,2.96,.76,.47-.02,.94,0,1.41,.04,.29,.02,.51,.19,.53,.5,.03,.43,.04,.86,.03,1.29,0,.23-.17,.38-.41,.38-1.08,0-2.16,.03-3.24-.02-.83-.04-1.29-.6-1.3-1.43,0-.48,0-.96,0-1.52Z"/>
        <path d="M22.9,18.48c.87,.8,1.84,.9,2.87,.8,.49-.05,.98-.02,1.48,0,.42,.01,.62,.23,.62,.64,0,.35-.03,.7-.06,1.04-.03,.3-.2,.48-.5,.48-1.02,0-2.03,.03-3.05,0-.74-.03-1.23-.54-1.33-1.26-.02-.15-.03-.31-.03-.46,0-.38,0-.76,0-1.23Z"/>
        <path d="M51.8,41.11c.72,.83,1.61,.9,2.55,.86,.53-.02,1.06,0,1.58,0,.43,.01,.61,.2,.62,.64,.01,.41,0,.82,0,1.23,0,.23-.11,.31-.32,.31-.98,0-1.95,.01-2.93,0-.93-.02-1.46-.57-1.51-1.55-.02-.46,0-.92,0-1.48Z"/>
        <path d="M.6,41.21c.6,.62,1.29,.79,2.07,.75,.69-.03,1.38-.02,2.06-.03,.46,0,.57,.16,.51,.61-.03,.25-.02,.51,.02,.76,.1,.58-.06,.82-.65,.83-.91,.02-1.82,.02-2.74,0-.69-.01-1.18-.44-1.26-1.16-.06-.56-.01-1.14-.01-1.77Z"/>
        <path d="M43.46,18.37c.59,.77,1.35,.95,2.22,.91,.65-.03,1.31,0,1.97,.05,.34,.02,.51,.2,.52,.54,0,.43-.03,.86-.07,1.29-.02,.2-.15,.31-.36,.31-1.02,0-2.03,.01-3.05-.03-.63-.03-1.16-.58-1.21-1.24-.04-.58,0-1.16,0-1.82Z"/>
        <path d="M43.3,41.19c.65,.69,1.39,.82,2.22,.77,.62-.04,1.25,0,1.87,.03,.43,.02,.61,.22,.61,.65,0,.4-.04,.8-.07,1.2-.02,.23-.15,.32-.37,.32-1.01,0-2.01,.01-3.02-.01-.62-.01-1.16-.49-1.23-1.13-.06-.57-.01-1.16-.01-1.82Z"/>
        <path d="M68.05,41.22c.85,.82,1.85,.79,2.87,.73,.47-.02,.94,0,1.41,.03,.2,0,.36,.12,.36,.34,0,.49,0,.98-.03,1.47-.02,.26-.26,.34-.48,.35-.94,.01-1.89,.04-2.83,0-.77-.04-1.22-.53-1.29-1.35-.04-.5,0-1,0-1.57Z"/>
        <path d="M14.03,18.35c.64,.84,1.45,.97,2.34,.93,.41-.02,.82,0,1.23,0,.18,0,.37,.03,.55,.05,.31,.03,.49,.23,.51,.53,.03,.41,.02,.82,.01,1.23,0,.21-.12,.37-.34,.37-1.03,0-2.06,.03-3.08-.05-.74-.06-1.08-.47-1.17-1.22-.06-.5-.04-1-.05-1.51,0-.08,0-.15,0-.33Z"/>
        <path d="M12.48,41.25c.84,.76,1.81,.75,2.8,.7,.5-.03,1,0,1.5,.03,.08,0,.22,.14,.23,.22,.02,.5,.02,1.01,0,1.51-.02,.3-.25,.43-.52,.43-.93,.01-1.87,.04-2.8,0-.72-.04-1.15-.52-1.2-1.25-.03-.52,0-1.04,0-1.62Z"/>
        <path d="M26.73,41.17c.91,.86,1.94,.85,3,.78,.38-.03,.76,0,1.13,.03,.24,.02,.4,.19,.4,.43,0,.4,0,.8-.04,1.2-.04,.37-.2,.52-.56,.53-.86,.02-1.73,.05-2.59,0-.79-.05-1.31-.66-1.33-1.46-.01-.47,0-.93,0-1.49Z"/>
      </g>
    </g>
  </g>
</svg>