<?xml version="1.0" encoding="UTF-8"?>
<svg id="Layer_2" data-name="Layer 2" xmlns="http://www.w3.org/2000/svg" viewBox="0 0 262 152">
  <defs>
    <style>
      .cls-1 {
        fill: #1bade0;
      }

      .cls-1, .cls-2 {
        stroke: #463750;
        stroke-miterlimit: 10;
        stroke-width: 2px;
      }

      .cls-2 {
        fill: #1698d2;
      }
    </style>
  </defs>
  <g id="Layer_1-2" data-name="Layer 1">
    <g id="q4iMGW.tif">
      <g>
        <path class="cls-1" d="m22.25,1c-.08.09-.16.19-.19.22,4.27.91,8.63,1.76,12.96,2.76,5.44,1.25,7.74,3.61,8.36,9.13.35,3.07.12,6.23-.02,9.34-.13,3-1.88,4.97-4.51,6.24-.36.18-.72.37-1.3.66.58.31.97.58,1.4.75,4.11,1.67,5.96,4.77,6.07,9.14.09,4.01.13,7.98-1.01,11.89-.96,3.29-2.93,5.56-5.96,7.13-6.01,3.1-12.31,4.73-19.09,4.47-3.91-.15-7.83-.01-11.73-.24-3.19-.18-4.56-1.65-5.02-4.84-.14-.94-.19-1.91-.19-2.86-.02-14.29-.02-28.58-.03-42.87,0-.71,0-1.42-.25-2.16-.15,1.05-.3,2.11-.46,3.16-.08.53-.18,1.05-.27,1.57,0-2.92,0-5.83,0-8.75.88-.21,1.77-.42,2.65-.63,5.35-1.3,10.58-3.1,15.95-3.79-.19-.07-.53-.2-.86-.33,1.17,0,2.33,0,3.5,0Zm-4.78,43.98s-.03,0-.05,0c0,2,.03,3.99-.01,5.99-.02,1.11.38,1.73,1.54,1.81,2.4.17,4.8.34,7.2.56,1.24.11,1.8-.46,2.1-1.6.93-3.48.91-6.99.52-10.52-.24-2.17-.8-2.83-2.97-3.21-2.25-.39-4.53-.55-6.79-.86-1.1-.15-1.55.28-1.54,1.35.01,2.16,0,4.32,0,6.49Zm-.04-25.74s.02,0,.03,0c0,2.37-.03,4.75,0,7.12.02,1.4.31,1.64,1.73,1.65,1.75,0,3.5,0,5.24,0,2.04,0,2.39-.28,2.78-2.34.63-3.3.65-6.62.24-9.94-.18-1.46-.83-2.62-2.36-3.05-2-.56-3.98-1.19-6-1.65-1.56-.36-1.68-.19-1.69,1.47,0,2.25,0,4.5,0,6.74Z"/>
        <path class="cls-1" d="m122,1c-.32.14-.65.28-.86.37,5.06.75,10.2,1.52,15.13,3.25,4.93,1.73,7.03,4.78,7.04,10.27,0,2.9-.29,5.82-.61,8.71-.3,2.73-2.19,4.27-4.5,5.4-.22.1-.44.18-.96.39.55.35.87.65,1.25.77,4.01,1.27,5.77,4.22,6.22,8.2.52,4.57.13,9.05-1.25,13.44-.74,2.35-2.13,4.22-4.26,5.5-3.62,2.17-7.48,3.84-11.56,4.89-1.59.41-3.3.49-4.95.51-4.78.07-9.57.04-14.35.02-.83,0-1.67-.08-2.48-.24-2.34-.46-3.71-1.87-3.85-4.26-.15-2.53-.08-5.07-.08-7.61,0-7,.13-13.99,0-20.99-.12-6.16-.55-12.31-.84-18.46-.06-1.29-.07-2.58-.13-3.87-.05-.98.36-1.54,1.33-1.79,3.54-.9,7.07-1.86,10.61-2.75,2.25-.56,4.52-1.02,6.85-1.34-.41-.14-.83-.27-1.24-.41,1.17,0,2.33,0,3.5,0Zm-4.82,44.17s-.04,0-.06,0c0,2,.03,4-.01,6-.02,1.03.41,1.53,1.44,1.62,2.24.2,4.47.48,6.71.66,1.93.16,2.24-.07,2.71-1.93.87-3.39,1.02-6.82.55-10.28-.24-1.8-.79-2.6-2.53-2.93-2.4-.47-4.85-.73-7.26-1.15-1.03-.18-1.54.12-1.55,1.16-.02,2.29,0,4.57,0,6.86Zm-.07-25.93h.1c0,2.53,0,5.07,0,7.6,0,.81.37,1.19,1.24,1.17,2.16-.04,4.32-.03,6.48,0,.83.01,1.35-.31,1.59-1.09.17-.55.44-1.11.46-1.67.12-3.02.27-6.05.23-9.08-.02-1.65-.92-3.01-2.51-3.56-1.99-.69-4.07-1.15-6.12-1.67-.96-.24-1.5.11-1.49,1.19.02,2.37,0,4.74,0,7.11Z"/>
        <path class="cls-1" d="m71,1c2.5.58,5.01,1.15,7.51,1.75,1.66.4,3.32.8,4.94,1.32,1.54.49,2.54,1.58,2.83,3.2.84,4.75,1.66,9.5,2.45,14.26,1.39,8.33,2.76,16.66,4.13,24.99.78,4.72,1.54,9.44,2.29,14.16.25,1.57-.1,2.02-1.67,2.01-3.29-.02-6.58-.06-9.86-.18-2.48-.09-4.25-1.36-4.84-3.77-.6-2.45-.95-4.98-1.26-7.49-.38-3.04-.31-3.09-3.34-3.14-2.08-.04-4.16.06-6.24.07-1.22,0-1.86.66-2,1.8-.41,3.26-.82,6.52-1.17,9.79-.28,2.64-.56,2.97-3.24,2.95-2.79-.02-5.58,0-8.36-.24-2.88-.25-4.21-1.82-3.91-4.7.35-3.39,1-6.74,1.56-10.11,1.71-10.25,3.45-20.5,5.17-30.76.43-2.54.85-5.09,1.26-7.63.21-1.31.8-2.33,2.04-2.93,3.14-1.53,6.26-3.08,9.39-4.63.44-.22.87-.47,1.31-.71.33,0,.67,0,1,0Zm1.08,37.49s0,.03,0,.05c.75,0,1.5.02,2.25,0,1.51-.06,1.72-.31,1.54-1.84-.55-4.62-1.09-9.25-1.67-13.87-.36-2.84-.76-5.68-1.21-8.51-.13-.85-.55-1.65-1.6-1.6-1.13.06-1.03,1.03-1.12,1.78-.41,3.3-.84,6.6-1.17,9.91-.42,4.22-.73,8.45-1.12,12.67-.09.99.35,1.39,1.24,1.42.96.03,1.91,0,2.87,0Z"/>
        <path class="cls-1" d="m171.25,1c.53.2,1.04.48,1.59.6,2.79.65,5.59,1.29,8.4,1.87,2.98.61,4.57,2.38,5.03,5.4,1.18,7.77,2.42,15.53,3.7,23.29,1.44,8.74,2.93,17.47,4.4,26.21.17.98.29,1.97.44,2.96.11.71-.18,1.12-.9,1.22-.45.06-.91.16-1.36.15-3.08-.05-6.17.02-9.23-.22-3.25-.26-4.84-1.9-5.32-5.12-.38-2.55-.68-5.11-.99-7.67-.12-.99-.57-1.49-1.61-1.48-2.58.04-5.16.01-7.74.05-1.19.02-1.9.54-2.05,1.85-.4,3.51-.88,7.02-1.36,10.52-.19,1.38-.85,2.04-2.23,2.05-2.99,0-6,.05-8.98-.18-3.08-.24-4.54-2.01-4.13-5.06.69-5.11,1.58-10.19,2.43-15.28,1.46-8.78,2.94-17.56,4.42-26.33.36-2.13.76-4.26,1.11-6.39.25-1.52,1.04-2.55,2.44-3.22,3.29-1.59,6.55-3.26,9.81-4.9.14-.07.25-.2.38-.31.58,0,1.17,0,1.75,0Zm-.07,37.53s0,.02,0,.03c.87,0,1.75.02,2.62,0,1.73-.04,1.83-.16,1.66-1.91-.02-.21-.05-.41-.08-.62-.64-4.99-1.26-9.99-1.92-14.98-.32-2.39-.76-4.76-1.1-7.15-.16-1.09-1.02-.99-1.7-1-.23,0-.63.65-.69,1.04-.69,5.28-1.34,10.57-1.97,15.86-.3,2.52-.51,5.05-.8,7.57-.1.88.22,1.21,1.1,1.16.96-.05,1.92-.01,2.87-.01Z"/>
        <path class="cls-1" d="m261,81.75c-.55,1.42-1.13,2.83-1.64,4.27-3.59,10.19-7.16,20.4-10.75,30.59-.87,2.46-1.25,4.98-1.21,7.6.07,4.33.07,8.67.08,13,0,1.77-.45,2.26-2.2,2.27-2.71.02-5.42,0-8.12-.02-.62,0-1.25-.09-1.86-.22-2.29-.49-3.79-1.96-3.53-4.01,1.3-10.26-1.66-19.79-4.79-29.3-2.03-6.17-4.48-12.17-7.57-17.9-.55-1.02-.99-2.11-1.52-3.14-.35-.69-.2-1.23.45-1.58,4.67-2.56,9.46-4.76,15-4.32,1.53.12,1.95.45,2.2,2.01,1.09,6.86,2.13,13.73,3.2,20.6.23,1.5.54,2.99.81,4.48.18.02.35.04.53.06.38-1.47.9-2.92,1.12-4.41.92-6.43,1.73-12.87,2.6-19.3.24-1.79.46-2.04,2.18-2.37,1.96-.37,3.93-.75,5.9-1,3.16-.39,6.2.15,9.11,1.43v1.25Z"/>
        <path class="cls-2" d="m205.75,151c-2.66-1.08-2.96-3.28-2.76-5.75.08-.99.01-1.99.01-3.18,3.89,2.99,8.06,1.27,12.12,1.05,1.41-.08,2.81-.29,4.22-.39,1.08-.08,1.62.5,1.65,1.57.01.58,0,1.17,0,1.75,0,3.15-.73,3.97-3.92,4.18-1.52.1-3.06.02-4.94.02,1.44.3,2.53.53,3.61.76h-10Z"/>
        <path class="cls-2" d="m125.25,151h6.75-6.75Z"/>
        <path class="cls-1" d="m100.45,94.08c.13.99.21,1.99.41,2.97,2,9.84,3.24,19.78,4.43,29.74.41,3.43.89,6.85,1.35,10.27.29,2.09.03,2.44-2.09,2.42-2.79-.02-5.59.05-8.36-.17-2.75-.22-4.24-1.74-4.42-4.52-.21-3.19-.16-6.41-.19-9.61-.03-3.95.01-7.9-.03-11.85-.08-6.66-.17-13.33-.32-19.99-.05-2.25-.34-4.48-.46-6.73-.16-3.06.53-4.14,3.35-5.43,2.84-1.29,5.84-1.91,8.93-2.17,1.45-.12,2.91-.14,4.37-.15,1.52-.02,2.43.73,2.95,2.19,1.58,4.47,3.3,8.88,4.87,13.35,2.5,7.09,4.94,14.21,7.38,21.32.66,1.92,1.24,3.88,1.89,5.8.15.44.43.84.65,1.26.1-.03.19-.06.29-.09,0-.54.08-1.1-.01-1.63-1.92-10.68-3.88-21.36-5.8-32.04-.3-1.68-.52-3.37-.73-5.06-.15-1.2.26-2.02,1.47-2.55,3.64-1.58,7.43-2.41,11.38-2.53,2.37-.07,2.96.56,2.96,2.9.01,18.45.03,36.91.05,55.36,0,2-.33,2.36-2.3,2.33-3.5-.06-7-.04-10.49-.24-3.16-.19-5.55-1.71-6.71-4.77-1.95-5.17-3.91-10.34-5.73-15.56-2.6-7.49-5.08-15.04-7.62-22.55-.28-.82-.64-1.61-.96-2.42l-.5.14Z"/>
        <path class="cls-1" d="m220.68,138.87c-2.07.21-3.92.4-5.77.6-1.9.2-3.81.39-5.71.6-3.8.42-6.03-1-7.16-4.64-1.37-4.45-2.7-8.91-4.05-13.36-.25-.83-.44-1.72-.86-2.46-.32-.55-.91-1.13-1.5-1.32-2.32-.73-3.21-.06-3.18,2.37.06,5.12.18,10.24.28,15.36,0,.5.03,1,0,1.5-.1,1.51-.6,2-2.11,1.97-3.25-.05-6.5-.01-9.73-.24-2.45-.18-3.87-1.74-3.92-4.21-.1-4.91.03-9.83-.07-14.74-.25-11.57-.56-23.14-.87-34.71-.07-2.68.03-2.89,2.66-3.61,2.69-.74,5.39-1.42,8.06-2.21,6.52-1.92,13-1.46,19.45.33,1.16.32,2.29.77,3.45,1.09,3.11.87,5.05,2.9,6.08,5.91,2.66,7.76,2.24,15.4-1.02,22.87-.51,1.16-1.59,2.11-2.53,3.02-1.39,1.36-1.56,1.6-.8,3.45,2.48,6.04,4.99,12.06,7.5,18.08.58,1.4,1.18,2.79,1.83,4.34Zm-27.99-41.19s.03,0,.04,0c0,2.79-.04,5.58.01,8.37.03,1.66.41,2.16,1.99,2.59,1.16.32,2.37.43,3.55.65,1.19.22,1.68-.33,1.97-1.47,1.13-4.48.87-9.03.64-13.54-.2-4.05-2.66-6.09-6.81-6.29-1.06-.05-1.41.32-1.4,1.32.03,2.79,0,5.58,0,8.37Z"/>
        <path class="cls-1" d="m81.16,139.25c-1.49.07-2.78.18-4.07.19-3.75.05-5.9-1.87-6.31-5.62-.26-2.36-.51-4.72-.78-7.07-.19-1.66-.38-1.78-2.04-1.73-1.75.05-3.5.03-5.25.06-2.3.05-2.77.44-3.03,2.7-.34,3.06-.63,6.13-.93,9.19-.21,2.22-.45,2.49-2.66,2.5-2.46.01-4.91,0-7.37-.02-3.98-.03-5.74-2-5.19-5.95.89-6.34,1.87-12.67,2.81-19.01,1.39-9.34,2.79-18.67,4.15-28.02.21-1.43.76-2.53,2.12-3.13,3.3-1.46,6.58-2.96,9.91-4.37,1.85-.78,3.8-.84,5.75-.32,2.65.71,5.32,1.35,7.95,2.12,1.83.54,2.97,1.84,3.28,3.73.85,5.21,1.65,10.43,2.44,15.66,1.14,7.48,2.28,14.97,3.4,22.45.71,4.77,1.39,9.55,2.06,14.33.25,1.81-.16,2.27-1.96,2.31-.75.02-1.5,0-2.25,0-.75,0-1.5,0-2.05,0Zm-19.75-26.52s.03,0,.04,0c0,.29,0,.58,0,.87,0,1.53.11,1.63,1.6,1.69,1.16.05,2.32.17,3.49.18,2.25.02,2.42-.18,2.19-2.37-.74-6.9-1.48-13.8-2.26-20.7-.08-.68-.23-1.45-.62-1.98-.32-.44-1.03-.59-1.56-.88-.21.45-.55.89-.61,1.36-.24,1.81-.37,3.64-.56,5.46-.57,5.46-1.14,10.91-1.71,16.37Z"/>
        <path class="cls-1" d="m3.56,119.38c-.48-11.52-.94-23.04-1.44-34.55-.05-1.19.26-2.03,1.47-2.4,5.24-1.63,10.42-3.47,15.97-3.79,6.58-.38,12.8,1.12,18.82,3.61,1.27.53,2.04,1.54,2.6,2.74,1.4,2.97,2.11,6.12,2.43,9.37.57,5.73.16,11.38-1.42,16.94-.98,3.46-2.89,6.01-6.33,7.35-1.97.77-3.9,1.67-5.81,2.58-2.88,1.37-5.84,2.04-9.06,1.73-2.04-.2-2.11-.01-2.1,2.01.01,4.12.04,8.25.06,12.37,0,1.72-.43,2.18-2.12,2.15-3.08-.04-6.16-.03-9.23-.23-2.69-.17-4.09-1.65-4.14-4.37-.09-5.16-.03-10.33-.03-15.49.11,0,.22-.01.33-.02Zm15.13-18.98c0,3.62,0,7.25,0,10.87,0,.67-.08,1.38.88,1.51,1.69.23,3.37.48,5.06.73,1.03.15,1.47-.3,1.68-1.32,1.25-6.1,1.33-12.25.54-18.39-.48-3.77-2.48-5.48-6.34-5.8-1.65-.13-1.81-.02-1.81,1.65-.02,3.58,0,7.17,0,10.75Z"/>
        <path class="cls-1" d="m237.76,63.28c-4.96-.17-9.44-1.09-13.84-2.38-2-.58-3.19-1.9-3.35-4.03-.21-2.87-.37-5.73-.58-8.6-.08-1,.3-1.64,1.19-2.11,3.4-1.78,7.08-2.63,10.8-3.33.83-.16,1.36.29,1.55,1.1.39,1.66.87,3.31,1.1,4.99.39,2.76,1.96,4.12,4.62,4.62,3.23.6,3.76.23,4.05-3.08.33-3.73-.9-6.84-3.78-9.18-3.2-2.6-6.55-5-9.79-7.55-1.76-1.39-3.45-2.88-5.1-4.41-3.95-3.68-5.28-8.24-4.31-13.51.08-.45.18-.9.24-1.35.5-3.37,2.1-5.86,5.21-7.56,3.7-2.03,7.47-3.87,11.51-5.03,2.54-.73,5.2-.59,7.8-.06,2.77.56,5.55,1.11,8.31,1.72,2.75.61,3.62,1.48,3.96,4.23.35,2.81.52,5.64.75,8.46.08.97-.49,1.58-1.27,1.97-3.45,1.75-7.15,2.69-10.96,3.23-.75.11-1.03-.34-1.17-.99-.4-1.83-.8-3.66-1.26-5.47-.5-1.99-1.7-3.38-3.7-4.04-2.03-.68-3.02-.21-3.5,1.85-.86,3.77,0,7.17,2.75,9.88,1.8,1.77,3.89,3.25,5.89,4.82,3.07,2.42,6.26,4.7,9.23,7.24,4.46,3.81,5.78,8.77,4.77,14.44-.08.45-.16.9-.26,1.35-1.05,4.8-1.08,4.83-5.24,7.42-4.1,2.55-8.45,4.47-13.27,5.18-.9.13-1.82.15-2.38.19Z"/>
        <path class="cls-1" d="m149.15,88.51c-1.25.29-2.37.61-3.51.81-2.47.43-4.92-1.08-5.31-3.57-.33-2.12-.25-4.31-.27-6.46,0-.8.48-1.35,1.34-1.35,1.2,0,2.41.01,3.61.1,8.84.65,17.68,1.34,26.53,1.98,4.05.3,3.43.6,2.95,3.54-.4,2.38-.8,4.76-1.25,7.13-.27,1.42-.59,1.57-1.97,1.08-1.53-.54-3.04-1.14-4.59-1.62-1.5-.47-1.82-.32-2,1.2-.31,2.69-.47,5.39-.68,8.08-.54,7.27-1.08,14.53-1.61,21.8-.39,5.23-.77,10.46-1.16,15.7-.04.5-.08,1-.17,1.48-.19,1.02-.83,1.5-1.87,1.41-3.03-.26-6.06-.46-9.08-.82-3.12-.37-4.31-1.66-4.18-4.78.19-4.78.56-9.56.91-14.34.61-8.26,1.28-16.52,1.91-24.79.16-2.15.27-4.31.41-6.59Z"/>
        <path class="cls-2" d="m41,60.62c1.5,2.62.64,6.49-1.88,7.91-4.86,2.75-10.02,4.82-15.64,5.05-5.52.23-11.07.07-16.59-.11-2.57-.08-3.96-1.43-4.45-3.95-.35-1.77-.39-3.6-.57-5.38.31-.06.43-.11.46-.08,2.14,1.99,4.75,2.31,7.54,2.27,3.2-.05,6.42-.04,9.61.19,5.66.42,10.88-.91,15.89-3.41,1.49-.74,3.01-1.41,4.52-2.1.36-.17.76-.27,1.11-.4Z"/>
        <path class="cls-2" d="m101.22,64.02c.65.39.97.65,1.33.79,1.35.51,2.69,1.32,4.07,1.39,4.73.25,9.49.38,14.23.3,6.95-.11,13.33-2.17,19.08-6.12.16-.11.35-.19.89-.47-.13,2.48-.2,4.73-.41,6.96-.04.41-.64.86-1.09,1.11-6.04,3.42-12.34,5.97-19.47,5.75-4.41-.14-8.82-.08-13.23-.24-3.45-.13-4.92-1.72-5.12-5.17-.08-1.32-.17-2.64-.28-4.3Z"/>
        <path class="cls-2" d="m237.26,74.06c-4.82-.07-9.52-.82-14.05-2.49-1.91-.7-2.2-1.12-2.2-3.1,0-1-.02-2,0-3,.04-1.45.68-1.88,2.03-1.27,3.54,1.59,7.24,2.42,11.1,2.61,6.12.31,11.92-.84,17.29-3.86,1.45-.81,2.87-1.69,4.28-2.57.91-.57,1.31-.48,1.51.62.36,2.01.1,4.02-1.29,5.53-1.28,1.38-2.81,2.61-4.42,3.57-4.37,2.58-9.1,4.04-14.24,3.95Z"/>
        <path class="cls-1" d="m193.98,10.37c.82-.72,1.61-1.51,2.5-2.18,2.39-1.81,4.78-3.61,7.25-5.3.47-.32,1.43-.4,1.93-.15,3.25,1.65,6.13,3.83,8.63,6.5.99,1.06,1,1.6.02,2.68-2.43,2.69-5.31,4.8-8.55,6.38-.55.27-1.59.17-2.08-.19-3.21-2.37-6.33-4.86-9.48-7.32-.09-.07-.11-.21-.22-.43Z"/>
        <path class="cls-2" d="m193.84,14.49c1.19.88,2.11,1.57,3.03,2.25,2,1.49,4,2.99,6.01,4.48,1.6,1.19,3.26,1.24,4.83,0,2.29-1.8,4.52-3.67,6.77-5.51.15-.13.31-.25.56-.45.66,3.35.87,6.38-1.92,8.95-2.3,2.12-4.8,3.83-7.59,5.18-.67.33-1.2.29-1.82-.19-2.59-2.03-5.19-4.05-7.83-6-1.5-1.11-2.26-2.44-2.06-4.36.14-1.34.03-2.7.03-4.35Z"/>
        <path class="cls-2" d="m116.09,140.2c2.08,1.74,4.41,2.91,7.11,3.02,2.24.09,4.49-.03,6.74-.04,1.04,0,2.08,0,3.12,0,1.13.02,1.65.62,1.64,1.74,0,1.29,0,2.58.07,3.87.06,1.02-.46,1.52-1.38,1.52-4.25,0-8.49,0-12.74-.13-1.48-.04-2.65-.89-3.53-2.11-1.24-1.71-1.79-5.66-1.04-7.88Z"/>
        <path class="cls-2" d="m178.31,63.86c.57.41.95.7,1.35.97,1.42.93,2.95,1.46,4.68,1.48,2.66.03,5.33.13,7.98.26,2.48.12,2.88.58,2.79,3.03-.03.91-.14,1.83-.11,2.74.03.94-.44,1.29-1.26,1.31-1.62.04-3.25.07-4.87.05-2.12-.02-4.25.03-6.35-.18-2.23-.23-3.62-1.73-4.03-3.97-.08-.45-.17-.91-.17-1.36-.02-1.36,0-2.73,0-4.34Z"/>
        <path class="cls-2" d="m78.76,63.92c1.65,1.35,3.49,2.29,5.6,2.44,1.69.12,3.4.03,5.1.02,1.2,0,2.41-.11,3.61-.03,1.63.11,2.35.96,2.34,2.61,0,.7-.13,1.41-.17,2.11-.11,1.96-.51,2.5-2.43,2.56-2.91.1-5.82.16-8.72.02-3.37-.16-5.02-1.86-5.36-5.23-.14-1.44-.17-2.89-.25-4.33.09-.06.19-.12.28-.19Z"/>
        <path class="cls-2" d="m70.88,140.72c.51.25.72.3.86.43,1.76,1.51,3.85,2.08,6.11,2.12,2.37.04,4.74-.06,7.1.03,2.29.09,2.74.63,2.76,2.89.01.96-.03,1.91,0,2.87.03.83-.33,1.27-1.16,1.26-3.91-.02-7.81.03-11.71-.11-1.9-.07-3.23-1.5-3.52-3.62-.25-1.84-.29-3.71-.44-5.86Z"/>
        <path class="cls-2" d="m148.55,63.71c.19.15.39.29.56.46,1.37,1.43,3.06,2.08,5.02,2.12,2.53.06,5.07.12,7.6.25,2.01.1,2.38.52,2.39,2.51,0,1.08-.11,2.16-.12,3.24,0,.83-.42,1.22-1.2,1.3-.58.05-1.16.12-1.74.11-2.87-.04-5.74,0-8.59-.21-2.14-.16-3.53-1.58-3.87-3.66-.33-1.98-.28-4.02-.4-6.03.12-.03.24-.06.35-.09Z"/>
        <path class="cls-2" d="m48.8,63.6c1.82,2.21,4.21,2.8,6.93,2.72,2.07-.06,4.16.02,6.23.21,1.83.16,2.18.66,2.23,2.46.03,1.04.02,2.08.04,3.12.02.96-.43,1.56-1.39,1.54-3.53-.08-7.07-.17-10.6-.36-1.7-.09-2.82-1.18-3.1-2.79-.39-2.23-.53-4.5-.78-6.75.14-.05.29-.1.43-.15Z"/>
        <path class="cls-2" d="m176.74,140.68c2.54,2.47,5.68,2.75,8.95,2.63,1.62-.06,3.25.01,4.87-.05,1.18-.04,1.87.48,1.95,1.61.11,1.49.16,2.99.08,4.47-.02.34-.66.92-1.02.93-3.66.05-7.33.08-10.99-.06-1.98-.08-3.54-1.79-3.82-4.02-.22-1.76-.22-3.55-.31-5.33l.28-.18Z"/>
        <path class="cls-2" d="m2.98,141.14c1.45.68,2.68,1.59,4.03,1.8,2.07.32,4.21.17,6.33.21,1.33.03,2.65.01,3.98.06.99.04,1.37.67,1.39,1.58.03,1.29.01,2.58.06,3.87.04,1.07-.53,1.6-1.48,1.61-3.58.03-7.16.05-10.73-.06-1.64-.05-2.96-1.34-3.21-3.17-.27-1.95-.25-3.94-.36-5.9Z"/>
        <path class="cls-2" d="m148.01,141.12c.67.43,1.31,1.06,2.06,1.26,1.59.42,3.23.74,4.87.87,2.24.17,4.49.11,6.74.18,1.29.04,1.86.81,1.86,2.03,0,1.21-.07,2.41-.09,3.62-.01.88-.46,1.3-1.31,1.3-3.53-.02-7.06,0-10.58-.11-1.78-.05-3.3-1.37-3.48-3.19-.19-1.96-.04-3.94-.04-5.98Z"/>
        <path class="cls-2" d="m231.81,141.06c.49.32.82.54,1.16.75,1.9,1.2,4,1.54,6.21,1.51,2.25-.03,4.49.05,6.74.05.9,0,1.28.4,1.27,1.28-.02,1.37-.02,2.75,0,4.12.02,1.01-.37,1.57-1.46,1.56-3.29-.03-6.58,0-9.87-.06-1.99-.04-3.11-.86-3.68-2.77-.61-2.04-.75-4.13-.38-6.45Z"/>
        <path class="cls-2" d="m43.2,141.32c1.66.63,3.04,1.41,4.5,1.64,1.99.31,4.05.18,6.08.26,1.28.05,2.58.07,3.84.26.39.06,1,.61,1.02.96.08,1.49,0,2.98-.08,4.48-.06,1.09-.74,1.46-1.77,1.45-3.03-.04-6.07-.02-9.1-.06-2.34-.03-3.81-1.19-4.13-3.48-.25-1.79-.24-3.62-.35-5.5Z"/>
        <path class="cls-2" d="m91.78,140.81c2.67,2.3,5.84,2.63,9.16,2.5,1.57-.06,3.15.07,4.72.15.95.05,1.43.57,1.33,1.56-.14,1.32-.28,2.65-.39,3.97-.08.91-.57,1.36-1.46,1.35-3.11-.02-6.23.01-9.34-.11-2.04-.08-3.36-1.37-3.76-3.27-.41-1.96-.45-3.99-.66-6,.13-.05.27-.1.4-.16Z"/>
      </g>
    </g>
  </g>
</svg>