<?xml version="1.0" encoding="UTF-8"?>
<svg id="Layer_2" data-name="Layer 2" xmlns="http://www.w3.org/2000/svg" viewBox="0 0 105.5 107.71">
  <defs>
    <style>
      .cls-1 {
        fill: #37499f;
      }
    </style>
  </defs>
  <g id="Layer_2-2" data-name="Layer 2">
    <path class="cls-1" d="M104.29,58.91c-.58-1.15-1.3-2.2-2.12-3.19-3.58-4.36-3.95-7.92-1.38-12.91,.97-1.88,1.74-3.84,2.01-5.98,.43-3.35-.77-5.93-3.47-7.88-1.67-1.2-3.54-2-5.51-2.56-5.21-1.47-8.27-4.76-8.74-10.25-.1-1.12-.31-2.21-.67-3.28-1.79-5.27-6.81-7.82-12.39-6.27-1.15,.32-2.26,.78-3.39,1.18-3.96,1.4-7.47,.67-10.46-2.3-1.53-1.52-3.06-3.03-4.95-4.13-1.03-.6-2.23-.75-3.26-1.34h-2.88c-.86,.36-1.76,.66-2.59,1.08-1.89,.96-3.32,2.47-4.57,4.16-.85,1.15-1.62,2.37-2.64,3.4-2.48,2.51-5.43,3.53-8.94,2.95-2.12-.35-4.23-.72-6.42-.36-4.42,.74-7.33,3.75-7.7,8.21-.14,1.75-.12,3.51-.21,5.26-.22,4.54-2.5,7.72-6.53,9.7-1.29,.63-2.58,1.26-3.7,2.19-3.9,3.21-4.85,7.62-2.6,12.14,.63,1.26,1.41,2.42,2.32,3.48,3.33,3.84,3.71,7.95,1.28,12.4-1.23,2.26-2.11,4.63-2.14,7.27-.03,2.81,1.14,5.01,3.29,6.73,1.91,1.53,4.15,2.34,6.48,2.98,4.2,1.16,6.81,3.85,7.71,8.13,.24,1.13,.35,2.29,.58,3.42,.3,1.46,.87,2.81,1.64,4.09,1.81,2.98,4.48,4.34,7.92,4.24,2.06-.06,4.02-.57,5.94-1.29,4.88-1.81,8.52-.94,12.04,2.83,2.06,2.21,4.41,3.93,7.46,4.48,.09,.02,.17,.14,.25,.22h2.16c4.03-1.06,6.7-3.77,8.74-7.24,.24-.41,.58-.76,.91-1.11,3.07-3.33,6.91-3.89,11.11-3.01,3.52,.73,6.78,.39,9.5-2.18,2.33-2.2,3.15-5.02,3.09-8.15-.03-1.52-.09-3.03,.18-4.54,.69-3.88,2.89-6.57,6.39-8.28,.97-.47,1.95-.94,2.84-1.52,4.55-2.97,5.85-7.91,3.4-12.77Zm-28.31,16.45H32.4v-8.22h43.57v8.22Zm0-15H32.4v-8.22h43.57v8.22Zm.05-15H32.45v-8.22h43.57v8.22Z"/>
  </g>
</svg>