<?xml version="1.0" encoding="UTF-8"?>
<svg id="Layer_2" data-name="Layer 2" xmlns="http://www.w3.org/2000/svg" viewBox="0 0 293.89 118.33">
  <defs>
    <style>
      .cls-1 {
        fill: #1ea3d8;
        stroke: #463750;
        stroke-miterlimit: 10;
        stroke-width: 2px;
      }
    </style>
  </defs>
  <g id="Layer_1-2" data-name="Layer 1">
    <g id="VK3JMm.tif">
      <g>
        <path class="cls-1" d="m46.14,40.11c-1.91-.28-3.84-.51-5.77-.61-2.19-.12-4.21.47-5.7,2.16-.91,1.04-1.76,2.17-2.39,3.39-1.38,2.65-2.6,5.38-3.87,8.08-.19.42-.45.65-.9.75-1.3.3-2.59.61-3.88.96-3.95,1.09-7.92,2.14-11.62,3.96-3.44,1.69-6.18,4.03-7.66,7.78-1.67,4.24-2.55,8.62-3.08,13.09-.33,2.79-.33,5.59-.14,8.39.29,4.14.68,8.26,1.51,12.33.59,2.88,1.17,5.77,1.76,8.65.5,2.46,1,4.91,1.5,7.37.06.3.08.61.11.92h4.26c.31-.38.68-.71,1.12-.98.05-.38.1-.69.12-.99.21-4.54.21-9.07-.61-13.57-.67-3.71-1.18-7.45-1.78-11.17-.39-2.43-.81-4.86-1.2-7.3-.22-1.41-.44-2.83-.6-4.25-.14-1.21.14-2.3,1.12-3.14,1.79-1.54,3.85-2.64,6.04-3.45,2.2-.81,4.48-1.41,6.73-2.1,2.76-.85,5.55-1.62,8.28-2.57,3.12-1.1,5.97-2.74,8.69-4.6,2.49-1.7,4.72-3.66,6.41-6.2,1.36-2.06,2.5-4.23,3.23-6.57.63-2.01,1.13-4.08,1.46-6.16.38-2.45-.69-3.81-3.13-4.17Z"/>
        <path class="cls-1" d="m68.76,75.34c4.49-.74,8.97-1.49,13.47-2.23-.01-.22,0-.34-.03-.45-.4-1.41-.85-2.82-1.21-4.24-.12-.46-.12-1,0-1.46.42-1.62,1.35-2.99,2.39-4.25,1.73-2.1,3.56-4.12,5.31-6.2.87-1.03,1.95-1.54,3.27-1.73,2.02-.29,4.05-.56,6.09-.32,1.74.2,3.45.54,4.99,1.46,1.88,1.12,2.71,3.03,2.37,5.4-.4,2.82-1.86,5.21-3.38,7.54-.26.39-.52.79-.83,1.26.26.03.43.07.6.06,4.17-.33,8.34-.68,12.5-1.01,1.17-.09,1.88-.8,2.45-1.7.12-.19.18-.47.16-.7-.22-3.56-.44-7.12-.7-10.67-.33-4.69-.7-9.39-1.04-14.08-.13-1.78-.26-3.55-.31-5.33-.01-.48.14-1.03.4-1.44,2.83-4.48,5.69-8.93,8.54-13.39.21-.34.43-.67.64-1.01.05.01.1.03.15.04.03.21.08.43.09.65.08,1.49.12,2.98.23,4.47.19,2.52.46,5.03.63,7.55.31,4.66.56,9.32.87,13.97.16,2.48.42,4.95.59,7.43.04.62-.09,1.26-.16,1.99.23-.28.39-.53.6-.73,2.04-1.93,4.03-3.91,6.14-5.76,1.82-1.59,4.11-2.21,6.42-2.72,1.52-.34,3.02-.44,4.56-.02,2.74.74,4.46,2.55,5.56,5.05.89,2.02.75,4.03-.17,6.02-1.56,3.37-3.57,6.47-5.88,9.36-2.74,3.42-6.23,5.95-10.04,8.09-4.75,2.67-9.79,4.56-15.14,5.64-3.98.8-7.93,1.7-11.91,2.5-1.34.27-2.72.38-4.09.5-2.4.22-4.8.43-7.21.57-2.11.11-4.21-.02-6.26-.58-.62-.17-1.22-.4-1.86-.61-1.32.52-2.66,1.1-4.03,1.56-5.79,1.94-11.74,3.26-17.74,4.38-.9.17-1.8.34-2.7.49-.54.09-.89.38-1.12.87-.37.79-.79,1.55-1.19,2.32-.1.19-.22.36-.34.53-.05-.01-.1-.03-.15-.04-.05-.71-.08-1.43-.17-2.13-.04-.35-.2-.69-.3-1.04-.05-.19-.12-.39-.13-.59-.09-2.48-.15-4.97-.25-7.45-.07-1.7-.17-3.4-.29-5.09-.32-4.45-.66-8.89-.97-13.34-.2-2.83-.34-5.67-.54-8.5-.31-4.43-.65-8.85-.95-13.28-.17-2.5-.33-5.01-.42-7.51-.02-.55.14-1.16.4-1.65,2.44-4.58,4.91-9.14,7.38-13.71.24-.44.47-.88.7-1.33.06.02.12.04.17.06.02.09.06.18.06.27.12,2.46.21,4.93.36,7.39.16,2.69.39,5.37.57,8.06.19,2.83.37,5.67.55,8.51.14,2.17.25,4.35.39,6.52.36,5.38.75,10.75,1.11,16.13.14,2.07.24,4.14.39,6.21.08,1.09.24,2.17.39,3.47Zm69.16-12.18c-.83-2.03-3.7-2.96-5.66-1.86-2.59,1.45-4.89,3.3-6.98,5.41-.07.07-.11.15-.17.23.02.05.05.09.07.14,4.38-.82,8.61-2.14,12.73-3.92Z"/>
        <path class="cls-1" d="m194.96,74.59c.91-.18,1.69-.32,2.45-.5,1.96-.47,3.91-.98,5.87-1.46.76-.19.92-.79,1.16-1.45-.37-.06-.69-.1-1.12-.17.27-.32.44-.58.66-.77,1.01-.86,1.63-1.96,2.17-3.15,2.52-5.61,5.31-11.09,8.7-16.23,2.13-3.23,4.42-6.4,7.42-8.95,2.38-2.03,4.85-3.96,7.94-4.8,3.32-.9,6.28.06,8.89,2.09,1.57,1.22,1.63,3.04,1.34,4.85-.31,1.89-1.2,3.56-1.92,5.31-1.17,2.86-2.3,5.74-3.44,8.6-.13.32-.28.63-.43.94-.06,0-.12,0-.18,0-.15-.31-.28-.62-.45-.91-.89-1.54-1.75-3.1-2.7-4.6-.29-.45-.79-.79-1.25-1.11-.73-.51-1.54-.64-2.43-.43-1.84.43-3.5,1.21-4.92,2.45-1.45,1.27-2.86,2.58-4.42,3.99.52.05.9.08,1.27.13.76.11,1.53.17,2.28.35,2.25.55,3.48,2.24,3.15,4.5-.37,2.48-.77,4.96-1.83,7.27-1.61,3.53-3.85,6.58-6.86,9.05-1.79,1.47-3.8,2.59-5.84,3.68-2.77,1.48-5.61,2.77-8.6,3.63-4.39,1.27-8.84,2.35-13.28,3.47-.68.17-1.14.44-1.45,1.1-.48,1.03-1.08,2-1.79,2.99-.06-1.07-.12-2.14-.19-3.21-.31-.03-.56-.05-.86-.08.13-.81.32-1.53.34-2.27.04-1.65.06-3.31-.03-4.96-.14-2.73-.38-5.46-.57-8.19-.02-.33-.06-.65-.11-1.08-.21.11-.38.16-.51.26-1.69,1.17-3.55,2-5.51,2.59-3.85,1.15-8.04-.28-10.43-3.33-1.21-1.54-1.59-3.35-1.16-5.3.92-4.16,2.49-8.06,4.57-11.79,1.88-3.38,4.03-6.59,6.37-9.66,1.78-2.34,3.98-4.17,6.73-5.3,4.1-1.68,7.78.96,8.74,4.31.63,2.23.64,4.51.81,6.78.18,2.35.38,4.7.56,7.06.07.95.09,1.91.15,2.86.19,2.98.4,5.96.59,8.94.05.78.09,1.56.15,2.47Zm-12.5-12.15c.02-.11.06-.19.05-.27-.23-1.61-.41-3.24-.73-4.83-.08-.38-.56-.78-.95-.97-.79-.37-1.64-.31-2.36.23-.71.53-1.4,1.1-2.05,1.72-.43.4-.76.91-1.1,1.32.93,2.33,5.13,3.94,7.15,2.81Z"/>
        <path class="cls-1" d="m251.54,94.19c-.05-.91-.1-1.81-.16-2.73-.12-.15-.24-.29-.4-.47.05-.66.16-1.36.13-2.06-.1-2.24-.25-4.47-.39-6.71-.18-2.84-.36-5.67-.55-8.51-.2-2.79-.42-5.58-.62-8.37-.13-1.84-.26-3.68-.37-5.52-.18-2.81-.32-5.63-.51-8.45-.17-2.5-.4-5-.57-7.5-.19-2.79-.38-5.59-.5-8.38-.02-.57.16-1.2.43-1.71,2.59-4.85,5.21-9.69,7.82-14.53.06-.1.12-.2.29-.47.06.37.11.57.13.78.24,3.47.48,6.94.71,10.42.15,2.32.26,4.64.42,6.95.19,2.68.42,5.36.61,8.05.09,1.24.13,2.49.22,3.73.18,2.69.39,5.38.56,8.07.21,3.25.38,6.49.58,9.74.16,2.46.34,4.92.52,7.38.01.16.05.32.07.47,3.02,0,18.29-4.79,19.93-6.32-.39-1.09-.79-2.24-1.24-3.48-.41.18-.69.26-.92.41-1.47.94-3.07,1.52-4.82,1.52-1.38,0-2.75-.2-3.94-1-1.24-.84-1.89-1.99-1.98-3.49-.1-1.75.34-3.37,1.14-4.9,1.4-2.68,2.74-5.41,4.24-8.04.86-1.5,1.86-2.97,3.02-4.25,1.71-1.87,3.8-2,5.92-.59,3.03,2.02,5.04,4.85,6.33,8.2,1.29,3.34,1.38,6.79.81,10.28-.56,3.46-1.73,6.74-3.3,9.86-1.86,3.7-4.5,6.81-7.68,9.46-2.63,2.2-5.62,3.79-8.85,4.88-4.32,1.46-8.72,2.64-13.21,3.47-.12.02-.24.06-.37.07-1,.08-1.71.47-1.98,1.54-.15.59-.51,1.13-.82,1.67-.13.24-.36.42-.54.62-.05-.03-.11-.06-.16-.09Z"/>
        <path class="cls-1" d="m193.02,34.28c-7.22,1.35-14.5,2.71-21.96,4.1.15-.44.21-.69.33-.91,2.23-4.45,4.47-8.89,6.69-13.34.26-.52.72-.58,1.18-.66,2.31-.41,4.63-.81,6.94-1.23,4.5-.83,8.99-1.67,13.49-2.5.18-.03.36-.04.72-.08-2.48,4.91-4.9,9.69-7.39,14.63Z"/>
        <path class="cls-1" d="m292.21,18.37c-.48.94-.89,1.77-1.3,2.59-1.84,3.62-3.73,7.23-5.5,10.88-.41.85-.96,1.18-1.82,1.34-6.15,1.14-12.3,2.31-18.45,3.47-.72.14-1.45.27-2.3.42.12-.3.17-.45.24-.59,2.29-4.54,4.58-9.07,6.89-13.6.13-.26.44-.54.71-.59,4.18-.81,8.38-1.58,12.56-2.37,2.68-.5,5.35-1,8.03-1.49.27-.05.55-.04.95-.06Z"/>
        <path class="cls-1" d="m225.59,26.45c-.27-.99-.53-1.91-.81-2.93,2.53-1.11,4.98-2.18,7.42-3.24,0-.07,0-.13,0-.2-.25-.15-.5-.31-.76-.44-.31-.16-.65-.29-.96-.46-1.87-1.04-2.63-2.8-2.15-4.89.35-1.54,1.08-2.92,1.95-4.21,1.56-2.32,3.32-4.46,5.43-6.31,1.46-1.28,3.23-2.03,5.02-2.71.1-.04.2-.04.31-.05.04,0,.08.03.2.07-.07,1.07.21,2.17-.37,3.24-.59,1.09-1.11,2.23-1.63,3.36-.65,1.41-1.68,2.4-3.13,2.96-.21.08-.4.2-.59.3l-.03.19c.32.13.64.3.97.37,1.05.23,1.91.77,2.74,1.42,1.39,1.1,1.78,2.5,1.34,4.16-.75,2.81-2.48,4.84-4.91,6.41-2.25,1.46-4.77,2-7.33,2.47-.86.15-1.71.32-2.71.51Z"/>
      </g>
    </g>
  </g>
</svg>