<?xml version="1.0" encoding="UTF-8"?>
<svg id="Layer_2" data-name="Layer 2" xmlns="http://www.w3.org/2000/svg" viewBox="0 0 417.06 167.54">
  <defs>
    <style>
      .cls-1 {
        fill: #1ea3d8;
        stroke: #463750;
        stroke-miterlimit: 10;
        stroke-width: 2px;
      }
    </style>
  </defs>
  <g id="Layer_1-2" data-name="Layer 1">
    <g id="VK3JMm.tif">
      <g>
        <path class="cls-1" d="m65.23,56.65c-2.72-.4-5.47-.72-8.21-.87-3.12-.18-5.99.67-8.1,3.08-1.29,1.48-2.51,3.09-3.41,4.82-1.96,3.77-3.7,7.65-5.51,11.5-.28.59-.64.92-1.29,1.07-1.85.42-3.69.86-5.52,1.37-5.62,1.55-11.27,3.05-16.53,5.63-4.9,2.41-8.8,5.74-10.89,11.07-2.37,6.03-3.62,12.26-4.39,18.63-.48,3.96-.47,7.95-.2,11.94.41,5.89.97,11.76,2.14,17.55.83,4.1,1.67,8.2,2.51,12.31.71,3.5,1.43,6.99,2.13,10.49.09.43.11.87.16,1.31h6.06c.44-.54.97-1.01,1.59-1.39.07-.53.15-.98.17-1.41.3-6.46.3-12.9-.86-19.32-.96-5.28-1.69-10.6-2.53-15.9-.55-3.46-1.16-6.92-1.71-10.39-.32-2.01-.62-4.02-.85-6.04-.2-1.72.2-3.27,1.6-4.47,2.54-2.2,5.48-3.76,8.59-4.91,3.13-1.15,6.38-2,9.58-2.98,3.93-1.21,7.9-2.3,11.78-3.66,4.43-1.56,8.49-3.9,12.36-6.55,3.54-2.42,6.72-5.2,9.12-8.82,1.94-2.93,3.55-6.02,4.59-9.34.89-2.86,1.61-5.8,2.08-8.76.55-3.48-.99-5.42-4.46-5.93Z"/>
        <path class="cls-1" d="m97.42,106.79c6.39-1.06,12.76-2.12,19.17-3.18-.02-.31,0-.48-.04-.64-.58-2.01-1.21-4.01-1.72-6.04-.17-.65-.17-1.42,0-2.08.59-2.3,1.93-4.25,3.4-6.05,2.46-2.99,5.06-5.86,7.55-8.82,1.24-1.47,2.78-2.18,4.65-2.46,2.88-.42,5.76-.79,8.67-.45,2.48.29,4.91.77,7.11,2.07,2.68,1.59,3.86,4.31,3.37,7.68-.58,4.02-2.64,7.41-4.82,10.73-.37.56-.74,1.12-1.19,1.8.36.04.61.1.86.08,5.93-.48,11.86-.97,17.79-1.44,1.66-.13,2.68-1.13,3.49-2.42.17-.28.25-.67.23-1-.32-5.06-.63-10.13-.99-15.19-.48-6.68-1-13.36-1.48-20.03-.18-2.53-.37-5.06-.44-7.59-.02-.68.2-1.47.57-2.05,4.02-6.37,8.09-12.71,12.15-19.06.31-.48.61-.96.91-1.44.07.02.14.04.21.06.04.31.11.61.12.92.11,2.12.17,4.25.32,6.36.27,3.58.66,7.16.9,10.74.44,6.62.79,13.26,1.23,19.88.23,3.53.6,7.05.83,10.58.06.89-.13,1.79-.22,2.83.32-.4.55-.75.85-1.03,2.9-2.75,5.73-5.56,8.74-8.19,2.58-2.26,5.85-3.14,9.14-3.88,2.17-.48,4.3-.62,6.49-.03,3.89,1.06,6.35,3.63,7.91,7.18,1.26,2.88,1.07,5.74-.25,8.57-2.23,4.79-5.08,9.21-8.37,13.32-3.9,4.87-8.86,8.47-14.28,11.51-6.76,3.81-13.92,6.49-21.54,8.02-5.66,1.14-11.29,2.43-16.94,3.56-1.91.38-3.87.54-5.82.72-3.42.31-6.84.62-10.26.81-3,.16-5.99-.03-8.9-.83-.88-.24-1.74-.57-2.64-.87-1.88.74-3.78,1.57-5.74,2.22-8.24,2.76-16.71,4.64-25.24,6.24-1.28.24-2.56.48-3.84.7-.77.13-1.26.54-1.6,1.24-.53,1.12-1.12,2.21-1.7,3.31-.14.26-.32.51-.48.76-.07-.02-.15-.04-.22-.06-.07-1.01-.11-2.03-.24-3.03-.06-.5-.29-.99-.43-1.49-.08-.27-.17-.56-.18-.84-.12-3.53-.21-7.07-.36-10.6-.1-2.42-.24-4.84-.41-7.25-.45-6.33-.94-12.65-1.38-18.98-.28-4.03-.48-8.07-.76-12.1-.44-6.3-.92-12.59-1.36-18.89-.24-3.56-.47-7.12-.6-10.69-.03-.78.2-1.65.57-2.34,3.47-6.52,6.99-13.01,10.5-19.51.34-.63.67-1.26,1-1.89.08.03.16.05.25.08.03.13.08.25.09.38.17,3.51.3,7.01.51,10.52.23,3.82.56,7.64.82,11.46.28,4.03.53,8.07.79,12.1.19,3.09.35,6.19.56,9.28.52,7.65,1.06,15.3,1.58,22.95.2,2.94.34,5.89.56,8.83.11,1.55.34,3.09.55,4.93Zm98.41-17.33c-1.19-2.89-5.26-4.21-8.06-2.65-3.69,2.06-6.96,4.69-9.93,7.69-.09.1-.16.22-.24.33.03.07.07.13.1.2,6.23-1.17,12.24-3.04,18.12-5.57Z"/>
        <path class="cls-1" d="m277.01,105.72c1.29-.26,2.4-.45,3.48-.71,2.79-.68,5.57-1.4,8.35-2.07,1.08-.26,1.31-1.13,1.65-2.06-.53-.08-.98-.15-1.6-.24.38-.45.62-.82.94-1.1,1.43-1.23,2.32-2.8,3.08-4.49,3.58-7.98,7.55-15.78,12.37-23.09,3.04-4.6,6.29-9.1,10.55-12.73,3.39-2.89,6.9-5.63,11.3-6.83,4.72-1.28,8.94.09,12.65,2.97,2.23,1.73,2.32,4.32,1.9,6.91-.44,2.68-1.71,5.07-2.73,7.55-1.67,4.07-3.27,8.16-4.9,12.24-.18.45-.4.89-.61,1.34-.08,0-.17,0-.25.01-.21-.43-.4-.88-.64-1.3-1.26-2.19-2.49-4.41-3.84-6.55-.41-.64-1.13-1.12-1.78-1.57-1.04-.73-2.19-.91-3.46-.61-2.62.62-4.98,1.72-7,3.49-2.06,1.8-4.07,3.67-6.29,5.68.74.08,1.28.11,1.8.19,1.08.15,2.18.25,3.24.5,3.2.78,4.96,3.19,4.48,6.41-.53,3.52-1.1,7.06-2.6,10.35-2.29,5.02-5.48,9.36-9.76,12.88-2.55,2.09-5.4,3.68-8.31,5.24-3.94,2.1-7.98,3.94-12.24,5.17-6.25,1.8-12.59,3.34-18.9,4.94-.96.24-1.62.62-2.06,1.57-.68,1.46-1.54,2.84-2.55,4.25-.09-1.52-.18-3.04-.26-4.57-.44-.04-.8-.08-1.23-.12.18-1.15.46-2.18.48-3.22.06-2.35.09-4.71-.04-7.06-.2-3.89-.54-7.77-.82-11.65-.03-.46-.09-.93-.15-1.54-.3.15-.53.23-.73.37-2.41,1.67-5.05,2.85-7.84,3.68-5.47,1.63-11.44-.4-14.83-4.74-1.72-2.19-2.26-4.77-1.65-7.54,1.31-5.92,3.55-11.48,6.5-16.78,2.68-4.81,5.73-9.37,9.07-13.75,2.54-3.33,5.66-5.94,9.57-7.54,5.84-2.39,11.07,1.37,12.43,6.14.9,3.17.91,6.41,1.15,9.64.25,3.35.54,6.69.8,10.04.1,1.35.13,2.71.22,4.07.28,4.24.56,8.48.84,12.72.07,1.11.13,2.22.21,3.52Zm-17.78-17.28c.03-.15.09-.27.07-.38-.32-2.3-.58-4.61-1.03-6.88-.11-.54-.8-1.12-1.36-1.38-1.13-.53-2.34-.44-3.36.33-1.01.76-2,1.57-2.92,2.44-.61.57-1.09,1.29-1.57,1.87,1.32,3.31,7.3,5.61,10.17,3.99Z"/>
        <path class="cls-1" d="m357.51,133.6c-.07-1.29-.15-2.58-.22-3.88-.17-.21-.34-.41-.57-.67.07-.94.23-1.94.19-2.93-.14-3.18-.35-6.36-.55-9.54-.25-4.03-.51-8.07-.79-12.1-.28-3.97-.6-7.94-.89-11.91-.19-2.62-.37-5.24-.53-7.86-.25-4.01-.46-8.01-.73-12.02-.24-3.56-.57-7.12-.81-10.68-.27-3.97-.54-7.95-.71-11.93-.03-.81.22-1.71.61-2.43,3.68-6.91,7.41-13.78,11.13-20.67.08-.15.17-.29.41-.67.09.53.16.82.18,1.1.34,4.94.68,9.88,1,14.82.21,3.3.37,6.6.6,9.89.27,3.82.59,7.63.87,11.45.13,1.77.19,3.54.31,5.3.26,3.83.55,7.65.79,11.48.29,4.62.53,9.24.83,13.86.22,3.5.49,7,.74,10.5.02.23.07.45.1.67,4.3,0,26.03-6.82,28.36-9-.55-1.55-1.13-3.19-1.76-4.96-.58.25-.98.37-1.31.58-2.09,1.34-4.37,2.17-6.85,2.16-1.96,0-3.91-.28-5.6-1.42-1.76-1.19-2.69-2.83-2.81-4.96-.15-2.5.48-4.79,1.62-6.98,2-3.82,3.9-7.69,6.03-11.44,1.22-2.14,2.64-4.23,4.3-6.04,2.43-2.66,5.41-2.84,8.42-.83,4.31,2.88,7.17,6.9,9,11.67,1.83,4.75,1.97,9.66,1.16,14.62-.8,4.92-2.46,9.59-4.69,14.04-2.65,5.27-6.41,9.69-10.93,13.46-3.75,3.12-8,5.4-12.6,6.95-6.14,2.07-12.41,3.75-18.8,4.93-.17.03-.35.08-.52.09-1.42.12-2.43.67-2.82,2.2-.21.84-.73,1.61-1.17,2.38-.19.33-.51.59-.77.89-.08-.04-.16-.08-.23-.13Z"/>
        <path class="cls-1" d="m274.24,48.36c-10.27,1.92-20.63,3.86-31.25,5.84.22-.62.3-.98.46-1.3,3.17-6.33,6.36-12.65,9.53-18.99.37-.74,1.02-.83,1.68-.95,3.29-.59,6.58-1.15,9.87-1.76,6.4-1.18,12.8-2.38,19.2-3.56.25-.05.51-.05,1.03-.11-3.53,6.99-6.97,13.79-10.52,20.81Z"/>
        <path class="cls-1" d="m415.39,25.72c-.68,1.34-1.26,2.52-1.86,3.69-2.62,5.16-5.3,10.28-7.83,15.48-.59,1.21-1.37,1.68-2.59,1.9-8.76,1.63-17.51,3.29-26.26,4.94-1.03.19-2.06.38-3.27.6.17-.42.24-.64.34-.84,3.26-6.46,6.51-12.91,9.8-19.35.19-.36.62-.76,1.01-.84,5.95-1.15,11.92-2.26,17.88-3.37,3.81-.71,7.62-1.42,11.43-2.12.39-.07.79-.06,1.35-.09Z"/>
        <path class="cls-1" d="m320.59,37.21c-.39-1.41-.75-2.72-1.15-4.17,3.61-1.58,7.08-3.1,10.56-4.62,0-.09,0-.19,0-.28-.36-.21-.72-.43-1.09-.63-.45-.23-.92-.41-1.36-.65-2.66-1.48-3.74-3.98-3.06-6.96.5-2.2,1.54-4.16,2.77-6,2.21-3.29,4.73-6.35,7.73-8.98,2.08-1.82,4.59-2.89,7.14-3.86.14-.05.29-.06.44-.07.05,0,.11.04.28.1-.09,1.52.31,3.09-.52,4.6-.85,1.55-1.58,3.17-2.32,4.77-.92,2.01-2.38,3.42-4.46,4.21-.29.11-.56.28-.85.42l-.04.27c.46.18.91.42,1.39.53,1.49.33,2.72,1.1,3.9,2.02,1.98,1.56,2.53,3.55,1.9,5.92-1.07,3.99-3.53,6.89-6.98,9.13-3.2,2.07-6.78,2.85-10.43,3.51-1.22.22-2.43.46-3.86.73Z"/>
      </g>
    </g>
  </g>
</svg>