<?xml version="1.0" encoding="utf-8"?>
<!-- Generator: Adobe Illustrator 27.4.1, SVG Export Plug-In . SVG Version: 6.00 Build 0)  -->
<svg version="1.1" id="Layer_2_00000055687557588746692050000014722453143041289112_"
	 xmlns="http://www.w3.org/2000/svg" xmlns:xlink="http://www.w3.org/1999/xlink" x="0px" y="0px" viewBox="0 0 105.5 107.7"
	 style="enable-background:new 0 0 105.5 107.7;" xml:space="preserve">
<style type="text/css">
	.st0{fill:none;stroke:#37499F;stroke-width:3;stroke-miterlimit:10;}
</style>
<g id="Layer_2-2">
	<path class="st0" d="M104.3,58.9c-0.6-1.2-1.3-2.2-2.1-3.2c-3.6-4.4-3.9-7.9-1.4-12.9c1-1.9,1.7-3.8,2-6c0.4-3.3-0.8-5.9-3.5-7.9
		c-1.7-1.2-3.5-2-5.5-2.6c-5.2-1.5-8.3-4.8-8.7-10.2c-0.1-1.1-0.3-2.2-0.7-3.3C82.6,7.6,77.6,5,72,6.6c-1.2,0.3-2.3,0.8-3.4,1.2
		c-4,1.4-7.5,0.7-10.5-2.3c-1.5-1.5-3.1-3-5-4.1C52.2,0.7,51,0.6,50,0h-2.9c-0.9,0.4-1.8,0.7-2.6,1.1c-1.9,1-3.3,2.5-4.6,4.2
		c-0.8,1.2-1.6,2.4-2.6,3.4c-2.5,2.5-5.4,3.5-8.9,2.9c-2.1-0.4-4.2-0.7-6.4-0.4c-4.4,0.7-7.3,3.8-7.7,8.2c-0.1,1.8-0.1,3.5-0.2,5.3
		c-0.2,4.5-2.5,7.7-6.5,9.7c-1.3,0.6-2.6,1.3-3.7,2.2c-3.9,3.2-4.8,7.6-2.6,12.1c0.6,1.3,1.4,2.4,2.3,3.5c3.3,3.8,3.7,8,1.3,12.4
		c-1.2,2.3-2.1,4.6-2.1,7.3c0,2.8,1.1,5,3.3,6.7c1.9,1.5,4.2,2.3,6.5,3c4.2,1.2,6.8,3.8,7.7,8.1c0.2,1.1,0.4,2.3,0.6,3.4
		c0.3,1.5,0.9,2.8,1.6,4.1c1.8,3,4.5,4.3,7.9,4.2c2.1-0.1,4-0.6,5.9-1.3c4.9-1.8,8.5-0.9,12,2.8c2.1,2.2,4.4,3.9,7.5,4.5
		c0.1,0,0.2,0.1,0.2,0.2h2.2c4-1.1,6.7-3.8,8.7-7.2c0.2-0.4,0.6-0.8,0.9-1.1c3.1-3.3,6.9-3.9,11.1-3c3.5,0.7,6.8,0.4,9.5-2.2
		c2.3-2.2,3.2-5,3.1-8.2c0-1.5-0.1-3,0.2-4.5c0.7-3.9,2.9-6.6,6.4-8.3c1-0.5,1.9-0.9,2.8-1.5C105.4,68.7,106.7,63.8,104.3,58.9
		L104.3,58.9z M76,75.4H32.4v-8.2H76L76,75.4L76,75.4z M76,60.4H32.4v-8.2H76L76,60.4L76,60.4z M76,45.4H32.5v-8.2H76L76,45.4
		L76,45.4z"/>
</g>
</svg>
