<?xml version="1.0" encoding="UTF-8"?>
<svg id="Layer_2" data-name="Layer 2" xmlns="http://www.w3.org/2000/svg" viewBox="0 0 102.23 104.34">
  <defs>
    <style>
      .cls-1 {
        fill: none;
        stroke: #473851;
        stroke-miterlimit: 10;
        stroke-width: 3px;
      }
    </style>
  </defs>
  <g id="Layer_2-2" data-name="Layer 2">
    <g id="Layer_2-2" data-name="Layer 2-2">
      <path class="cls-1" d="m99.62,56.97c-.57-1.13-1.22-2.07-1.98-3.01-3.39-4.14-3.67-7.44-1.32-12.15.94-1.79,1.6-3.58,1.88-5.65.38-3.11-.75-5.56-3.3-7.44-1.6-1.13-3.3-1.88-5.18-2.45-4.9-1.41-7.82-4.52-8.19-9.61-.09-1.04-.28-2.07-.66-3.11-1.7-4.9-6.4-7.35-11.68-5.84-1.13.28-2.17.75-3.2,1.13-3.77,1.32-7.06.66-9.89-2.17-1.41-1.41-2.92-2.83-4.71-3.86-.85-.66-1.98-.75-2.92-1.32h-2.73c-.85.38-1.7.66-2.45,1.04-1.79.94-3.11,2.35-4.33,3.96-.75,1.13-1.51,2.26-2.45,3.2-2.35,2.35-5.09,3.3-8.38,2.73-1.98-.38-3.96-.66-6.03-.38-4.14.66-6.88,3.58-7.25,7.72-.09,1.7-.09,3.3-.19,4.99-.19,4.24-2.35,7.25-6.12,9.14-1.22.57-2.45,1.22-3.48,2.07-3.67,3.01-4.52,7.16-2.45,11.4.57,1.22,1.32,2.26,2.17,3.3,3.11,3.58,3.48,7.53,1.22,11.68-1.13,2.17-1.98,4.33-1.98,6.88s1.04,4.71,3.11,6.31c1.79,1.41,3.96,2.17,6.12,2.83,3.96,1.13,6.4,3.58,7.25,7.63.19,1.04.38,2.17.57,3.2.28,1.41.85,2.64,1.51,3.86,1.7,2.83,4.24,4.05,7.44,3.96,1.98-.09,3.77-.57,5.56-1.22,4.62-1.7,8.01-.85,11.3,2.64,1.98,2.07,4.14,3.67,7.06,4.24.09,0,.19.09.19.19h2.07c3.77-1.04,6.31-3.58,8.19-6.78.19-.38.57-.75.85-1.04,2.92-3.11,6.5-3.67,10.45-2.83,3.3.66,6.4.38,8.95-2.07,2.17-2.07,3.01-4.71,2.92-7.72,0-1.41-.09-2.83.19-4.24.66-3.67,2.73-6.22,6.03-7.82.94-.47,1.79-.85,2.64-1.41,4.24-2.73,5.46-7.35,3.2-11.96h0Zm-26.65,15.54H31.9v-7.72h41.06v7.72h0Zm0-14.13H31.9v-7.72h41.06v7.72h0Zm0-14.13H31.99v-7.72h40.97v7.72h0Z"/>
    </g>
  </g>
</svg>