<?xml version="1.0" encoding="UTF-8"?>
<svg id="Layer_2" data-name="Layer 2" xmlns="http://www.w3.org/2000/svg" viewBox="0 0 224.84 172.61">
  <defs>
    <style>
      .cls-1 {
        fill: #1ea3d8;
        stroke: #463750;
        stroke-miterlimit: 10;
        stroke-width: 2px;
      }
    </style>
  </defs>
  <g id="Layer_1-2" data-name="Layer 1">
    <g id="wS76kL.tif">
      <g>
        <path class="cls-1" d="m218.42,81.15c.52,1.56,1.07,3.07,1.54,4.61,1.14,3.73,2.32,7.46,3.36,11.23.96,3.48.46,6.97-.33,10.41-1.94,8.44-6.17,15.45-12.94,20.96-8.53,6.93-18.22,11.55-28.65,14.73-2.99.91-6.02,1.76-9.1,2.3-4.62.81-9.31,1.36-13.99.77-2.68-.33-5.36-1.07-7.89-2.02-3.3-1.25-5.17-3.84-5.79-7.38-.74-4.16-.16-8.15,1.05-12.11.44-1.44.87-2.88,1.24-4.11-2.04-.22-4.06-.35-6.05-.71-.84-.15-1.77-.64-2.34-1.26-.63-.69-1.16-.72-1.93-.53-3.61.9-7.2,1.87-10.85,2.62-3.28.67-6.61,1.1-9.92,1.61-1.1.17-1.89.6-2.3,1.74-.32.89-.91,1.68-1.52,2.76-.23-1.92-.52-3.56-.61-5.21-.27-4.93-.42-9.88-.71-14.81-.36-6.26-.79-12.52-1.22-18.78-.46-6.66-.98-13.32-1.43-19.98-.45-6.59-.86-13.18-1.24-19.78-.03-.59.12-1.27.4-1.79,3.33-6.33,6.7-12.64,10.06-18.96.1-.18.25-.33.44-.57,1.65,24.88,3.3,49.65,4.94,74.46,2.96-.27,5.87-.45,8.75-.83,2.88-.38,5.75-.9,8.6-1.49,4.14-.85,7.44-2.94,9.47-6.79.22-.41.53-.82.9-1.1,1.39-1.09,2.84-.56,2.87,1.19.03,1.44-.3,2.91-.64,4.32-.26,1.06-.83,2.05-1.21,3.08-.19.5-.28,1.03-.5,1.88,1.95-.59,3.78-.17,5.22-1.84,6.3-7.34,12.82-14.47,19.81-21.18,3.14-3.02,6.71-5.21,11.02-5.98,2.5-.44,5.1-.72,7.52.38,5.71,2.59,8.44,8.78,5.42,15.01-2.49,5.13-5.56,9.91-9.59,14-5.67,5.76-12.45,9.81-20.02,12.49-4.12,1.46-8.37,2.57-12.58,3.78-1.58.45-1.8.68-1.56,2.31.5,3.35,3.35,5.64,7.09,5.95,4.18.35,8.25-.14,12.29-1.09,5.85-1.38,11.71-2.7,17.51-4.26,5.87-1.58,11.22-4.47,16.68-7.07.62-.3.85-.75.72-1.43-.81-4.52-2.18-8.87-3.93-13.11-.12-.28-.1-.75.07-1,3.88-5.79,7.78-11.57,11.68-17.34.02-.02.06-.03.21-.09Zm-51.23,16.71c.08.15.16.31.24.46,1.22-.21,2.46-.36,3.67-.63,4.36-.96,8.64-2.15,12.67-4.12,1.2-.58,1.23-.86.31-1.84-1.73-1.83-5.15-2.46-7.35-1.25-1.35.74-2.7,1.54-3.9,2.5-1.94,1.54-3.77,3.24-5.64,4.87Z"/>
        <path class="cls-1" d="m56.09,71.3c1.65,0,3.04.14,4.4-.03,3.51-.43,7.05-.79,10.49-1.55,4.17-.91,8.25-2.19,12.38-3.3.7-.19.99-.62.8-1.31-.82-3.09-1.65-6.18-2.45-9.27-.08-.31-.06-.75.11-.99,3.24-4.75,6.51-9.49,9.78-14.23.5-.73,1.07-1.34,2.08-1.18,1.02.16,1.47.87,1.72,1.79,1.25,4.67,2.63,9.35,2.06,14.26-.52,4.57-1.77,8.97-3.73,13.15-2.71,5.78-6.4,10.8-11.72,14.43-3.93,2.68-8.38,4.28-12.88,5.79-4.36,1.46-8.86,1.88-13.39,2.14-3.64.21-7.3.31-10.94.2-1.62-.05-3.26-.59-4.82-1.13-.79-.27-1.33-.24-1.89.28-2.42,2.22-5,4.29-7.21,6.7-4.55,4.98-9.06,10.02-13.29,15.27-3.06,3.8-5.43,8.11-6.78,12.85-.47,1.66-.56,3.46-.67,5.2-.08,1.32.69,2.39,1.54,3.33,6.36,6.98,14.22,11.17,23.55,12.5,3.31.47,6.68.6,10.02.92.8.08,1.6.26,2.39.38.25.04.51.08.76.06,1.76-.15,3.51-.41,5.27-.47,7.89-.26,15.6-1.65,23.27-3.38,2.41-.54,4.82-1.1,7.23-1.64.87-.2,1.76-.25,2.24.66.49.93.54,1.9-.22,2.79-2.94,3.43-6.2,6.53-9.85,9.2-7.05,5.18-15.04,8.38-23.31,10.99-4.58,1.44-9.24,2.02-14.02,2.34-3.61.24-7.16-.06-10.68-.43-3.95-.42-7.74-1.76-11.43-3.33-6.31-2.69-10.75-7.21-13.33-13.49-2.28-5.56-2.87-11.42-2.46-17.39.53-7.73,2.48-15.12,5.22-22.33,3.1-8.16,7.68-15.34,13.94-21.45,3.96-3.87,7.87-7.79,11.77-11.72.28-.28.46-.85.4-1.25-.42-2.99-.82-6-1.41-8.96-.39-1.96.24-3.58,1.23-5.12,2.89-4.48,6.36-8.51,10.1-12.29.28-.28.64-.56,1.01-.64,4.88-1.12,9.75-1.44,14.63.15,5.01,1.63,5.69,5.4,4.68,9.27-1.09,4.17-3.35,7.77-5.89,11.19-.19.25-.36.51-.73,1.03Z"/>
        <path class="cls-1" d="m91.52,1.48c-1.16,5.15-2.4,10.26-8.24,12.82.54.24.82.37,1.1.49,1.14.51,2.33.93,3.4,1.56,2.63,1.54,3.38,3.68,2.41,6.59-1.08,3.25-3.16,5.72-6,7.57-2.82,1.84-5.92,2.95-9.25,3.46-1.02.16-2.03.36-3.03.63-.78.21-1.07-.09-1.24-.79-.16-.67-.48-1.32-.56-2-.04-.29.25-.8.53-.93,2.84-1.32,5.71-2.57,8.57-3.86.26-.11.48-.29.91-.55-.71-.34-1.25-.61-1.8-.86-3.45-1.57-4.9-4.47-3.33-8.04,2.95-6.74,7.25-12.28,14.02-15.58.68-.33,1.42-.55,2.13-.83.12.11.24.22.36.33Z"/>
        <path class="cls-1" d="m182.62,61.98c-.54-.48-1.01-.88-1.46-1.31-3.22-3.04-6.44-6.08-9.68-9.1-.46-.43-.47-.68-.07-1.17,3.78-4.67,7.54-9.36,11.3-14.05.94-1.18.93-1.19,2-.19,3.27,3.05,6.52,6.1,9.8,9.13.52.48.81.85.24,1.55-3.33,4.14-6.63,8.31-9.94,12.46-.69.86-1.39,1.7-2.2,2.68Z"/>
        <path class="cls-1" d="m188.38,160.98c.67-.84,1.33-1.66,1.99-2.48,3.38-4.23,6.77-8.46,10.14-12.7.44-.55.79-.64,1.35-.12,3.41,3.16,6.83,6.3,10.26,9.43.62.57.61,1.04.09,1.69-3.81,4.74-7.61,9.49-11.37,14.27-.59.75-.97.68-1.58.09-3.11-2.99-6.24-5.96-9.37-8.93-.45-.42-.95-.79-1.51-1.25Z"/>
      </g>
    </g>
  </g>
</svg>