<?xml version="1.0" encoding="UTF-8"?>
<svg id="Layer_2" data-name="Layer 2" xmlns="http://www.w3.org/2000/svg" viewBox="0 0 145.01 129.35">
  <defs>
    <style>
      .cls-1 {
        fill: #1fa3d8;
        stroke: #473851;
        stroke-miterlimit: 10;
      }
    </style>
  </defs>
  <g id="Layer_1-2" data-name="Layer 1">
    <g id="z1ujn7.tif">
      <g>
        <path class="cls-1" d="m101.66,73.92c.79-.39,1.11-.57,1.44-.7,2.95-1.17,5.93-2.28,8.86-3.5,5.27-2.2,9.61-5.66,13.21-10.06,2.83-3.46,4.09-7.6,4.78-11.91.44-2.78-.38-3.74-3.14-4.42-1.01-.25-2.02-.51-3-.85-.45-.16-.82-.54-1.57-1.06,2.49-.78,2.27-2.51,2.18-4.16-.33-5.63-.67-11.27-1.03-16.9-.41-6.41-.86-12.82-1.29-19.27-.13.13-.32.24-.43.41-2.68,4.33-5.38,8.65-7.99,13.02-.38.64-.47,1.57-.42,2.35.18,3.28.48,6.55.68,9.83.22,3.61.29,7.23.58,10.83.39,4.81,1.07,9.62-1.88,13.97-.39.58-.73,1.26-.88,1.94-.6,2.64-2.45,3.77-4.85,4.51-3.45,1.07-6.89,2.19-10.22,3.58-5.67,2.36-9.54,6.44-11.26,12.46-.81,2.84-1.78,5.64-2.7,8.45-1.38,4.27-.9,4.88,3.59,5.21,3.65.27,7.28.75,10.91,1.17.41.05.79.33,1.18.5,0,.19.02.38.03.57-4.97,1.97-9.93,3.95-14.91,5.91-4.78,1.88-9.62,3.61-14.34,5.63-2.59,1.11-4.33,3.36-4.84,6.1-.78,4.14-3.07,6.1-7.18,6.75-5.29.83-10.53,2.03-15.75,3.22-2.61.59-5.16,1.45-7.69,2.33-.85.3-1.54,1.04-2.65,1.83,1.34.91,2.23,1.85,3.31,2.19,5.31,1.66,10.61,3.5,16.04,4.64,5.86,1.22,10.72-.69,13.6-6.36.35-.68.77-1.33,1.2-1.96,2.25-3.32,4.95-6.08,8.81-7.59,4.48-1.76,8.92-3.66,13.32-5.6,5.01-2.21,9.66-4.95,12.8-9.67,1.39-2.1,2.93-4.11,4.13-6.32,1.74-3.22,3.39-6.5,4.79-9.88.97-2.34.03-4.16-2.25-5.28-.82-.41-1.76-.59-2.63-.9-.72-.26-1.43-.56-2.55-1Zm-76.56,3.91c-3.21-2.14-6.38-4.27-9.56-6.39-.75-.5-1.26-.34-1.68.51-3.51,6.93-7.3,13.73-10.49,20.8-2.58,5.71-3.59,11.89-2.3,18.15,1.4,6.82,6.99,10.73,13.28,10.42,5.89-.29,11.35-2.66,15.83-6.57,5.78-5.04,8.99-11.73,11.21-18.96,2.5-8.15,2.1-16.08-1.49-23.83-.27-.59-.65-1.14-.97-1.7-1.86,4.3-3.58,8.43-5.46,12.5-.51,1.1-.66,1.99-.2,3.1,1.36,3.22,2.03,6.6,1.94,10.09-.02.79-.51,1.84-1.13,2.29-2.08,1.51-4.25,2.91-6.5,4.14-5.02,2.73-10.47,3.88-16.04,2.63-5.54-1.24-6.7-4.05-4.91-8.73,1.11-2.91,2.46-5.73,3.64-8.62.48-1.19,1.15-1.32,2.13-.67,1.41.94,2.94,1.75,4.2,2.86,1.22,1.08,1.78.57,2.36-.51,2.02-3.76,4.02-7.52,6.16-11.51Zm110.64,40.18c2.62-4.24,4.96-8.19,7.48-12.02.92-1.41,1.39-2.77,1.28-4.44-.84-12.02-1.65-24.04-2.45-36.06-.12-1.81-.18-3.63-.27-5.69-.32.34-.45.43-.53.56-2.51,4.04-5.05,8.06-7.49,12.15-.46.78-.79,1.81-.74,2.7.59,9.23,1.31,18.46,1.93,27.69.33,4.91.52,9.83.79,15.13Zm-62.36-33.42c-.76-.63-1.38-1.09-1.94-1.61-1.76-1.64-3.53-3.28-5.24-4.97-1.06-1.05-1.85-.89-2.61.31-.5.78-1.05,1.54-1.63,2.27-2.05,2.55-4.12,5.08-5.79,7.14,2.48,2.75,4.81,5.36,7.22,7.9.19.2,1.21.03,1.46-.28,2.86-3.52,5.65-7.1,8.53-10.76Zm-4.2-26.55c2.49,2.38,4.95,4.71,7.39,7.07.77.74,1.27.72,1.96-.18,2.46-3.21,5.01-6.36,7.51-9.54.29-.37.51-.79.74-1.16-2.87-2.57-5.62-5.04-8.42-7.55-3.17,3.92-6.19,7.65-9.18,11.35Z"/>
        <path class="cls-1" d="m101.66,73.92c1.12.44,1.83.74,2.55,1,.87.31,1.8.5,2.63.9,2.28,1.12,3.22,2.94,2.25,5.28-1.4,3.38-3.04,6.67-4.79,9.88-1.2,2.2-2.74,4.22-4.13,6.32-3.14,4.72-7.79,7.46-12.8,9.67-4.41,1.94-8.84,3.84-13.32,5.6-3.86,1.51-6.56,4.27-8.81,7.59-.43.63-.86,1.28-1.2,1.96-2.88,5.67-7.74,7.58-13.6,6.36-5.44-1.13-10.73-2.97-16.04-4.64-1.08-.34-1.97-1.28-3.31-2.19,1.11-.78,1.8-1.53,2.65-1.83,2.53-.88,5.08-1.73,7.69-2.33,5.23-1.19,10.46-2.39,15.75-3.22,4.11-.64,6.4-2.61,7.18-6.75.51-2.74,2.25-4.99,4.84-6.1,4.72-2.02,9.56-3.75,14.34-5.63,4.98-1.95,9.94-3.94,14.91-5.91,0-.19-.02-.38-.03-.57-.39-.17-.77-.45-1.18-.5-3.63-.42-7.27-.89-10.91-1.17-4.5-.34-4.97-.94-3.59-5.21.91-2.81,1.89-5.61,2.7-8.45,1.71-6.02,5.59-10.11,11.26-12.46,3.33-1.38,6.78-2.5,10.22-3.58,2.4-.75,4.25-1.88,4.85-4.51.15-.68.49-1.36.88-1.94,2.95-4.35,2.27-9.16,1.88-13.97-.29-3.6-.36-7.22-.58-10.83-.2-3.28-.51-6.55-.68-9.83-.04-.78.04-1.7.42-2.35,2.61-4.37,5.31-8.69,7.99-13.02.1-.17.29-.29.43-.41.43,6.46.88,12.86,1.29,19.27.36,5.63.7,11.26,1.03,16.9.1,1.65.32,3.38-2.18,4.16.75.52,1.12.9,1.57,1.06.98.35,1.99.6,3,.85,2.75.68,3.58,1.64,3.14,4.42-.69,4.31-1.94,8.45-4.78,11.91-3.6,4.39-7.94,7.86-13.21,10.06-2.93,1.22-5.9,2.33-8.86,3.5-.33.13-.65.32-1.44.7Z"/>
        <path class="cls-1" d="m25.1,77.83c-2.13,3.99-4.14,7.75-6.16,11.51-.58,1.08-1.14,1.59-2.36.51-1.26-1.11-2.79-1.92-4.2-2.86-.99-.66-1.65-.53-2.13.67-1.17,2.89-2.52,5.71-3.64,8.62-1.79,4.68-.64,7.49,4.91,8.73,5.57,1.24,11.02.1,16.04-2.63,2.25-1.23,4.43-2.63,6.5-4.14.62-.45,1.11-1.5,1.13-2.29.09-3.48-.58-6.87-1.94-10.09-.47-1.11-.31-2,.2-3.1,1.88-4.06,3.6-8.2,5.46-12.5.32.56.7,1.11.97,1.7,3.58,7.75,3.99,15.68,1.49,23.83-2.22,7.24-5.43,13.93-11.21,18.96-4.48,3.9-9.93,6.28-15.83,6.57-6.29.31-11.88-3.59-13.28-10.42-1.29-6.26-.27-12.44,2.3-18.15,3.19-7.07,6.98-13.87,10.49-20.8.43-.84.93-1.01,1.68-.51,3.18,2.12,6.36,4.25,9.56,6.39Z"/>
        <path class="cls-1" d="m135.74,118.01c-.27-5.3-.47-10.22-.79-15.13-.61-9.23-1.33-18.46-1.93-27.69-.06-.89.27-1.92.74-2.7,2.44-4.08,4.98-8.11,7.49-12.15.08-.12.2-.22.53-.56.1,2.06.15,3.88.27,5.69.8,12.02,1.61,24.04,2.45,36.06.12,1.67-.35,3.03-1.28,4.44-2.52,3.84-4.86,7.78-7.48,12.02Z"/>
        <path class="cls-1" d="m73.38,84.59c-2.88,3.66-5.67,7.24-8.53,10.76-.25.31-1.26.48-1.46.28-2.41-2.53-4.74-5.15-7.22-7.9,1.67-2.05,3.74-4.59,5.79-7.14.58-.72,1.13-1.48,1.63-2.27.76-1.21,1.55-1.37,2.61-.31,1.71,1.69,3.48,3.33,5.24,4.97.56.52,1.17.98,1.94,1.61Z"/>
        <path class="cls-1" d="m69.18,58.04c3-3.7,6.01-7.43,9.18-11.35,2.8,2.51,5.55,4.97,8.42,7.55-.23.37-.45.79-.74,1.16-2.5,3.18-5.05,6.33-7.51,9.54-.69.9-1.19.92-1.96.18-2.43-2.36-4.89-4.69-7.39-7.07Z"/>
      </g>
    </g>
  </g>
</svg>