<?xml version="1.0" encoding="UTF-8"?>
<svg id="Layer_2" data-name="Layer 2" xmlns="http://www.w3.org/2000/svg" viewBox="0 0 471.57 817.04">
  <defs>
    <style>
      .cls-1 {
        fill: #c8b2d6;
      }
    </style>
  </defs>
  <g id="Layer_1-2" data-name="Layer 1">
    <path class="cls-1" d="m420.2,816.75c-5.01-5.93-12.08-8.18-19.12-10.13-13.98-3.86-28.36-6.21-42.01-11.3-20.96-7.81-34.13-22.32-38.03-44.63-.43-2.48-.2-5.13-.42-8.02,4.06,10.52,13.2,14.55,22.57,17.9,6.93,2.48,14.16,4.11,21.28,6.07,14.27,3.93,28.64,7.69,40.76,16.76,11.12,8.32,17.86,19.39,19.94,33.21-1.65.05-3.31.09-4.96.14Z"/>
    <path class="cls-1" d="m466.01,605.74c-1.82-5.03-6.83-6.61-10.46-9.69-.3-.21-.6-.41-.9-.62-1.53-.68-3.06-1.37-4.59-2.05-.01-.89-.02-1.78-.04-2.67,7.1-3.22,14.2-1.99,21.3-.02,0,16.81,0,33.63,0,50.44-3.96-.46-7.02,1.57-10.07,3.62-.44-.03-.88-.06-1.31-.09.36-4.19,2.67-7.4,5.82-10.82-13.9-.41-26.4-4.41-38.25-10.08-6.68-3.19-13.48-5.97-20.43-8.36-10.33-3.56-20.79-7.4-31.55-.64,7.58-9.68,17-16.36,28.93-19.25,16.21-3.93,31.44.26,46.57,5.54,4.91,1.71,9.47,4.56,14.87,4.75.18,1.71,1.34,2.26,2.84,2.24.22,0,.69-.71.62-1-.46-2.02-2.11-1.16-3.35-1.3Z"/>
    <path class="cls-1" d="m1.17,642.81c2.99.31,4.05-2.58,5.9-3.92,13.58-9.87,28.29-10.81,43.95-6.77,12.8,3.3,24.33,9.62,36.24,15,6.21,2.81,12.58,4.94,19.13,6.62,4.86,1.25,9.33-.56,13.88-2.3-5.24,7.2-12.39,11.6-20.4,14.69-12.72,4.9-25.33,3.3-37.83-1.08-12.94-4.53-24.49-12.02-37.09-17.3-8.04-3.38-16.02-5.53-24.51-1.84-.65-1.24.26-2.12.73-3.1Z"/>
    <path class="cls-1" d="m290.13,85.68c-7.12-10.22-10.65-21.34-8.65-33.92,2.9-18.26,14.02-32.03,24.84-45.99,1.42-1.83,2.76-3.71,4.14-5.57,7.83-.01,15.66-.02,23.5-.03-1.95,19.54-13.76,33.82-25.56,48.13-6.46,7.84-13.16,15.46-17.15,25.08-1.73,4.16-.57,8.18-1.03,12.23l-.09.08Z"/>
    <path class="cls-1" d="m167.57.17c-5.68,8.98-14.05,14.51-23.67,18.38-12.64,5.08-26.1,6.76-39.34,9.41-4.81.96-9.6,2.25-14.24,3.86-5.6,1.94-10.18,5.44-13.29,10.89.86-6.79,2.11-13.2,5.31-19.11C88.65,11.97,98.94,5.24,110.64.16c18.98,0,37.95,0,56.93,0Z"/>
    <path class="cls-1" d="m424.99.1c-.32,2.75,1.1,5.1,1.84,7.57,3.13,10.48,3.85,21.47,6.94,31.97,2.51,8.54,5.01,16.87,12.94,22.4-6.87.22-12.87-2.24-18.59-5.39-12.37-6.82-19.06-18.09-23.68-30.91-2.99-8.31-4.97-16.87-6.57-25.53,9.04-.04,18.09-.07,27.13-.11Z"/>
    <path class="cls-1" d="m193.7.31c-5.02,9.71-4.94,20.52-6.71,30.93-2.17,12.76-5.09,25.12-15.52,34.18-6.08,5.29-13.01,8.14-21.14,8.71,10.16-6.42,10.74-17.22,12.46-27.17,1.86-10.75,3.52-21.52,7.78-31.6,2.35-5.55,6.8-9.78,10.73-14.27,4.05-1.5,8.22-1.11,12.39-.78Z"/>
    <path class="cls-1" d="m359.1,13.05c-.33,6.94-4.39,12.32-7.62,18.03-1.81,3.2-3.82,6.3-5.79,9.42-2.87,4.54-3.59,9.4-2.32,14.59,0,0-.1.06-.1.06-9.31-9.9-9.4-20.95-3.74-32.48,2.99-6.1,6.58-11.9,9.84-17.87.8-1.48,1.36-3.09,2.04-4.63,2.55,0,5.1,0,7.64,0,.3,2.58.6,5.16.89,7.74.19,1.71,1.27,2.21,2.85,2.4,8.09.94,13.35,5.97,17.28,12.56,3.86,6.47,5.13,13.83,6.58,21.09,1.32,6.62,2.15,13.44,7.47,18.65-6.88-.7-12.4-3.63-16.67-8.9-5.54-6.84-7.24-15.18-9.3-23.43-1.58-6.35-2.11-13.2-7.23-18.16-.36-.72-.73-.86-1.12-.02,0,0,.04-.02.04-.02-.25.33-.49.65-.74.98Z"/>
    <path class="cls-1" d="m457.92,177.74c-4.6,6.5-5.45,14.24-6.82,21.7-1.75,9.53-5.15,17.99-13,24.76,3.04,1.08,5.9,1.93,8.64,3.1,7.8,3.32,13.85,9.12,20.25,14.43,1.29,1.07,2.3,2.63,4.35,1.98,0,3.47,0,6.94.01,10.4-13.03,1.18-21.82-6.71-30.55-14.52-3.78-3.38-7.58-6.58-12.11-8.98-2.25-1.19-5.06.3-7.19-2.17,13.55-4.1,10.94-16.61,13.72-26.21,2.69-9.28,5.05-18.55,13.99-24.09,2.25-1.4,4.6-2.55,7.35-2.45.45.68.9,1.37,1.35,2.05Z"/>
    <path class="cls-1" d="m471.3,149.99c-7.07,12.75-19.24,17.69-32.36,21.14-5.52,1.45-11.09,2.73-16.63,4.13-6.53,1.65-12.31,4.66-16.95,10.56.48-14.89,9.85-26.74,24.78-32.13,6.56-2.37,13.34-3.96,20.19-5.15,7.38-1.28,14.32-3.61,20.82-7.31.05,2.92.11,5.84.16,8.76Z"/>
    <path class="cls-1" d="m471.36,541.56c-5.52,2.16-8.05,7.31-11.34,11.61-6.17,8.06-11.92,16.39-19.9,22.94-6.82,5.61-23.01,8.59-29.93,4.49,11.1-2.23,15.33-11.5,20.97-19.18,4.93-6.72,9.54-13.65,16.24-18.88,7.11-5.55,15.13-7.39,23.91-6.73.01,1.92.03,3.83.04,5.75Z"/>
    <path class="cls-1" d="m13.07,816.76c1.27-11.29,3.21-22.49,7.85-32.9,4.47-10.03,15.51-19.92,28.26-19.9-7.65,5.55-8.72,13.69-9.94,21.62-1.6,10.44-2.81,20.94-5.55,31.18-6.88,0-13.75,0-20.63,0Z"/>
    <path class="cls-1" d="m10.38,457.77c-3.03,7.96,1.82,14.3,4.57,20.96,2.39,5.81,5.45,11.35,8.34,16.94,5.34,10.33,1.84,28.63-7.26,36.45.56-15.84-8.92-27.8-15.04-41.02-1.31-6.75-.64-13.58-.77-20.38,3.03-2.31,3.08-6.42,5.5-9.14,1.37-1.55,2.08-3.77,4.65-3.83h.01Z"/>
    <path class="cls-1" d="m.99,385.32c2.87-.07,5.13-1.97,7.81-2.61,1.23-.3,2.47-.65,3.47.37,1.24,1.26-.33,1.94-.83,2.65-2.12,3.02-1.14,6.39.17,8.82,3.23,6.02,5.84,12.4,10.01,17.92,6.63,8.77,7.68,18.69,5.6,29.21-.63,3.2-.85,6.47-4.97,8.05.87-6.37-2.02-11.02-4.93-15.68-4.38-7.01-9.02-13.88-12.37-21.83-1.66,1.8-2.94,3.19-4.22,4.58-.83-10.5-1.18-20.99.27-31.47Z"/>
    <path class="cls-1" d="m470.48,767.55c-8.29-4.39-14.24-10.54-15.27-20.37,1.01.3,1.45,2.17,3.32.86-1.61-1.94-1.52-5.05-4.73-5.71-.77-1.88-1.95-3.39-3.45-4.81-5.8-5.51-11.34-11.26-14.81-18.65-3.9-8.3-3.92-16.39,1.02-24.99,2.58,10.01,9.76,16.15,15.63,23.19,5.79,6.94,11.34,14.02,10.93,23.78-.1,2.28-.28,4.67-1.03,6.79-1.24,3.51.41,4.51,3.37,5.16,1.97.43,3.87,1.05,5.91.72-.44,4.66,1.2,9.46-.89,14.02Z"/>
    <path class="cls-1" d="m275.21,816.74c4.62-11.38,10.73-22.16,14.09-34.02,1.62-5.73,2.27-11.81-1.73-17.29,1.48-.94,2.08.27,2.75.91,13.84,13.13,16.54,29.07,11.69,46.86-.33,1.19-.89,2.3-.62,3.59-8.73-.02-17.45-.04-26.18-.05Z"/>
    <path class="cls-1" d="m409.1,385.19c-3.91-3.24-7.7-6.56-8.24-12.09.62,0,1.25-.01,1.87-.02,5.76,3.13,12.22,3.94,18.48,4.47,7.5.64,14.29,2.55,20.47,6.75.04,1.11.56,1.76,1.71,1.82,1.4,2.63,2.81,5.26,4.55,8.52.92-13.68,11.71-21.7,23.18-24.56.08,4.44.15,8.89.23,13.33-7.98,3.57-16.93,5.33-22.4,13.38-1.93,2.84-2.89-1.37-4.54-1.66-.3-.22-.61-.43-.91-.65-5.44-2.89-11.56-2.6-17.39-3.66-5.59-1.02-11.11-2.11-16.1-5.02-.3-.21-.6-.42-.91-.63Z"/>
    <path class="cls-1" d="m471.3,46.7c-10.65-1.87-18.38-7.84-23.14-17.37-4.56-9.13-7.35-18.89-8.51-29.07,5.96-.06,11.92-.11,17.88-.17-.01.46-.16.96-.02,1.37,3.18,9.18,4.96,18.67,6.85,28.18.98,4.94,2,10.74,7.02,14.07-.02,1-.05,1.99-.07,2.99Z"/>
    <path class="cls-1" d="m229.85.17c-1.75,8.79-4.11,17.32-9.36,24.81-5.52,7.87-17.86,14.92-26.92,14.84,10.77-7.43,10.81-19.09,13.06-29.81.68-3.26,1.11-6.57,1.65-9.85,7.19,0,14.38.01,21.57.02Z"/>
    <path class="cls-1" d="m.97,537c3.07-1.5,2.8-5.72,6.18-7.45-1.49,7.86,3.3,13.39,6.58,19.44,2.13,3.93,4.39,7.8,6.71,11.63,5.2,8.56,4.48,17.71,2.81,26.95-.45,2.46-2.76,3.46-4.23,5.02-1.41-14.37-12.64-23.44-18.04-35.45-1.1-6.71-1.08-13.43,0-20.14Z"/>
    <path class="cls-1" d="m471.32,279.24c-4.39-2.62-9.13-2.41-13.89-1.58-8.75,1.54-17.37,3.72-26.41,3.36-9.52-.38-16.62-4.34-22.02-13.69,11.11,5.06,20.56-.39,30.4-1.64,8.47-1.08,16.93-1.42,24.72,3.33,2.6,1.59,3.8,4.98,7.22,5.4-.01,1.61-.02,3.22-.03,4.82Z"/>
    <path class="cls-1" d="m311.5,775.95c1,6.37,6.13,9.04,11.01,11.41,6.86,3.33,13.3,7.25,19.4,11.77,5.82,4.31,9.36,10,9.89,17.36-3.21.62-6.44.35-9.67.26-4.3-4.19-9.99-6.14-14.94-9.29-7.21-4.59-13.85-9.71-15.93-18.61-.99-4.23-2.95-8.49-.59-12.91,0,0,.42-.04.42-.04l.42.04Z"/>
    <path class="cls-1" d="m114.38,816.74c.19-12.21,3.14-23.46,12.38-32.03,4.42-4.1,9.22-8.07,16.63-8.76-9.43,9.13-7.46,20.38-7.69,31.12-.07,3.24.13,6.49.21,9.74-7.18-.02-14.36-.04-21.54-.06Z"/>
    <path class="cls-1" d="m471.21,120.26c-7.25-1.41-12.05-6.03-15.57-12.15-4.7-8.19-6.14-17.45-8.3-26.46-1.51-6.29-3.23-9.4-7.66-13.27,7.55-1.57,17.88,6.46,21.23,12.84,3.73,7.1,5.37,14.78,6.79,22.55.72,3.94,1.73,7.82,3.56,11.42-.02,1.69-.03,3.37-.05,5.06Z"/>
    <path class="cls-1" d="m248.53.24c3.54,5.59,7.36,11.06,9.73,17.26,3.78,9.91,3.79,19.53-3.41,28.2-.24-.1-.49-.15-.75-.15.93-8.02-3.08-14.26-7.52-20.22-5.64-7.58-10.14-15.6-11.35-25.15,4.43.02,8.87.04,13.3.07Z"/>
    <path class="cls-1" d="m415.57,530.26c2.59-6.49,8.05-10.51,15.05-10.13,8.56.46,16.53-1.09,24.04-5.15,5.57.59,11.26.28,16.65,2.22,0,5.35-.01,10.69-.02,16.04-5.36-2.74-10.73-5.47-16.09-8.21-2.83-1.44-5.35-1.56-8.14.57-4.39,3.35-9.82,3.47-15.06,3.68-5.39.21-10.82-.37-16.09,1.26l-.34-.28Z"/>
    <path class="cls-1" d="m471.32,316.46c-4.85-1.62-8.94-4.5-12.92-7.61-7.91-6.16-13.98-14.98-24.93-16.94,9.25-4.8,18.09-4.57,26.98.05,3.79,1.97,6.58,5.52,10.87,6.62,0,5.96,0,11.92,0,17.88Z"/>
    <path class="cls-1" d="m.25,719.99c2.29-1.51,4.58-3.03,6.87-4.54,9.08-5.94,18.73-6.09,28.69-2.76.7.23,1.33.71,1.94,1.16.17.13.13.55.28,1.34-11.28-.91-16.49,8.63-24.15,14.04-4.28,3.02-8.19,6.55-13.44,7.85-.06-5.7-.12-11.4-.19-17.1Z"/>
    <path class="cls-1" d="m33.59,135.87c-1.79,8.43-7.72,13-15.26,15.67-5.8,2.05-11.88,3.14-18.1,3.03,0-5.02.02-10.05.03-15.07,11.13-1.17,22.69,1.62,33.39-3.59l-.05-.04Z"/>
    <path class="cls-1" d="m160.73,816.56c3.01-5.28,8.22-7.57,13.44-9.78,7.56-3.2,15.31-6,21.89-11.98,1.08,8.98-2.7,15.46-8.31,21.23-8.98,1.61-18.01.73-27.02.53Z"/>
    <path class="cls-1" d="m14.2,346.14c-2.5,2.54-2.79,6-3.85,9.15-2.56,7.59-3.79,15.79-9.81,21.82-.8-10.68-.3-21.36-.26-32.05,4.79-5.2,10.57-8.68,17.53-10.09,1.2.23,2.6-.52,3.58.76-3.88,1.99-6.78,4.64-6.39,9.5l.04-.05c-.73-.07-.81.42-.83.96Z"/>
    <path class="cls-1" d="m.26,292.08c4.13,3.42,5.74,8.31,7.34,13.11,1.99,5.98,3.61,12.08,5.56,18.07,1.25,3.84,3.06,7.4,6.44,9.9-.38.83-1.2.82-1.92,1.01-7.2-.53-12.38-4.85-17.46-9.36.01-10.91.03-21.82.04-32.73Z"/>
    <path class="cls-1" d="m464.17,816.04c-1.52-3.86-5.73-4.96-8.14-8.21-4.68-6.33-6.66-12.97-5.94-20.63.59,0,1.18,0,1.77,0,.47,2.89,2.87,4.37,4.78,6.03,4.25,3.7,9.66,5.37,14.67,7.7.03,3.22.09,6.45.1,9.67.01,7.09-.27,7.3-7.25,5.43Z"/>
    <path class="cls-1" d="m.66,570.93c3.48,2.68,4.54,6.78,6.02,10.58,1.73,4.41,3.18,8.92,4.71,13.41,1.95,5.73,4.59,10.98,10.81,14.82-9.21-.13-16.23-2.8-21.99-8.63.19-10.06-.67-20.13.46-30.17Z"/>
    <path class="cls-1" d="m266.1.17c.52,4.83,3.43,8.46,6.1,12.22,4.05,5.71,7.62,11.48,6.93,19.04-.3,3.24-1.58,5.88-2.9,8.64-2.06.04-1.86-1.44-1.85-2.77.02-1.85-.37-3.52-2.01-4.65-1.24-4.53-4.58-7.86-6.81-11.82-3.79-6.73-4.67-13.49-1.55-20.65.7,0,1.39,0,2.09,0Z"/>
    <path class="cls-1" d="m25.96,119.7c.3,3.61,4.23,5.49,4.59,9.5-9.95-5.08-20.3-1.81-30.35-2.56.02-3.77.04-7.55.06-11.32,3.55.03,7.13.37,10.64.03,5.45-.53,9.7,2.51,14.41,4.19.2.11.42.17.66.17Z"/>
    <path class="cls-1" d="m471.18,76.55c-6.51-1.24-9.76-6.05-12.21-11.52-1.83-4.06-3.31-8.28-4.84-12.47-.91-2.49-2.4-4.56-4.32-6.43,6.44-1.07,11.98,1.86,15.4,8.75,2.37,4.77,4.1,9.87,6.12,14.82-.05,2.28-.1,4.56-.14,6.84Z"/>
    <path class="cls-1" d="m.26,92.06c13.66,1.76,24.17,11.3,23.75,21.49-7.08-5.71-15.8-5.68-23.72-8.2-.01-4.43-.02-8.86-.03-13.29Z"/>
    <path class="cls-1" d="m471.08,427.34c-10.14-2.96-18.62-7.85-22.03-18.75-.45-1.45-1.7-3.31-.38-4.24,1.61-1.13,2.39,1.24,3.52,2.09.75.56,1.42,1.16,2.42,1.12.32.5.61,1.18,1.14.16,0,0,.13.06.12.05.71-.08,1.41-.16,2.12-.24.75.15,1.5.3,2.25.44-.75,1.96.8,2.44,2.03,2.89,2.99,1.11,6.04,2.07,9.07,3.09,0,4.46.43,8.93-.27,13.38Z"/>
    <path class="cls-1" d="m471.37,330.37c-6.95-3.2-14.92-2.72-21.86-6.32-5.46-2.83-8.05-7.07-9.46-14.18,4.52,5.23,9.83,5.57,14.83,6.33,6.07.92,11.49,3.13,16.47,6.6,0,2.52,0,5.05.01,7.57Z"/>
    <path class="cls-1" d="m247.24,788.95c-.07,1.6.41,3.04,1.36,4.3,5.39,7.09,6.49,15,4.49,23.5-5.05-.03-10.09-.05-15.14-.08,1.54-5.8,5.36-10.79,6.22-16.77.34-2.36,2.9-5.16-.48-7.37.54-1.83,1.75-3,3.54-3.58Z"/>
    <path class="cls-1" d="m69.86,815.93c1.32-8.55.82-17.53,5.7-25.26,2.03-3.21,4.88-5.1,9.13-5.4-4.87,10.35-2.33,21.78-7.31,31.5-2.51-.23-5.19,1-7.52-.83Z"/>
    <path class="cls-1" d="m471.35,583.43c-5.43,2.31-11.17,1.89-16.83,1.73-4.49-.13-8.82.62-13.27,1.95,2.68-7.54,7.7-10.84,15.93-11.26,4.71-.24,9.56,1.19,14.14-.96.01,2.85.02,5.69.03,8.54Z"/>
    <path class="cls-1" d="m.22,175.82c6.44.96,10.88-.85,13.08-7.72,1.18-3.67,3.86-6.96,6.27-10.1,2.83-3.7,6.89-4.85,11.9-4.3-4.69,5.6-7.22,12.02-10.31,18.13-2.08,4.12-6.37,4.58-9.91,4.67-4.37.11-7.69,1.35-10.57,4.37-.78-1.62-.51-3.34-.46-5.04Z"/>
    <path class="cls-1" d="m471.44,206.58c-2.82-1.13-2.98,1.46-3.75,2.87-2.87,5.27-6.35,9.82-12.21,12.1-1.33.52-2.58,1.02-3.98.81-1.76-.27-2.8-1.11-1.06-2.63,3.86-3.35,5.59-8.06,8.03-12.3,2.93-5.1,6.95-8.46,12.87-9.3,0,2.24-.02,4.47-.02,6.71-.17.24-.34.48-.51.72.21.03.42.07.63.1,0,.3,0,.61,0,.91Z"/>
    <path class="cls-1" d="m440.75,130.31c6.34-8.62,15.2-5.57,23.39-4.76,2.36.23,4.71,1.26,7.21.95-.03,1.94-.05,3.89-.08,5.83-5.66,2.51-11.26,1.78-16.97.01-4.08-1.27-8.25-2.35-12.63-1.85-.31-.06-.62-.13-.93-.19Z"/>
    <path class="cls-1" d="m.68,54.64c3.8,5.52,10.26,8.22,14.29,13.59,2.32,3.09,3.03,6.31,2.83,9.94-.05.85.39,2.02-.76,2.41-1.07.36-1.62-.64-2.2-1.32-4.22-4.86-9.11-9.02-13.89-13.3-1.51-3.74-.88-7.53-.27-11.32Z"/>
    <path class="cls-1" d="m96.73,816.75c-.64-3.28-3.22-5.44-4.77-8.19-3.28-5.82-5.08-11.72-1.44-19.04,3.45,9.8,13.46,15.89,11.05,27.22-1.62,0-3.23,0-4.85.01Z"/>
    <path class="cls-1" d="m471.28,476.52c-3.13,2.06-4.33,5.49-6.11,8.52-2.98,5.08-5.9,10.17-12.43,11.45-1.14.22-2.16.54-2.9-.48-.84-1.15.48-1.56,1.01-2.13,3.09-3.36,4.32-7.79,6.76-11.52,3.27-5.01,7.66-7.89,13.73-7.93-.02.7-.04,1.4-.06,2.09Z"/>
    <path class="cls-1" d="m.7,266.68c6.02,2.26,9.64,7.32,13.78,11.77.03.24.11.46.25.67v11.59c-3.25-6.3-9.7-8.32-14.49-12.4.09-3.88-.63-7.79.46-11.64Z"/>
    <path class="cls-1" d="m453.8,459.67c3.61-2.52,4.58-6.74,6.56-10.29,2.57-4.61,5.37-8.94,10.96-10.32.01,2.54.02,5.09.03,7.63-.85.23-.89,1.01-1.13,1.66-1.58,2.43-3.01,4.97-4.76,7.26-2.87,3.74-6.85,5.45-11.54,5.56-.04-.5-.08-1-.12-1.5Z"/>
    <path class="cls-1" d="m.67,677.92c6.49,8.81,7.37,27.3-.4,33.9.08-11.3-.71-22.61.4-33.9Z"/>
    <path class="cls-1" d="m460.25,407.98c-.75-.15-1.5-.3-2.25-.44-.78-.34-1.56-.69-2.34-1.03-.27-1.79-2.65-1.42-3.34-3.73,7.3,1.03,12.8-3.2,18.9-5.66.03,4.12.06,8.25.09,12.37-3.76,0-7.5-.12-11.07-1.51Z"/>
    <path class="cls-1" d="m34.64.18c-.32,10.26.02,11.74,3.88,17.04-7.41-.76-12.98-7.87-13.36-17.07,3.16,0,6.32.02,9.48.03Z"/>
    <path class="cls-1" d="m384.15.16c.28,2.45.9,4.84,2.11,6.98,1.11,1.95,2.51,3.73,3.83,5.65-7.06.32-15.29-5.17-18.48-12.21,4.15-1,8.35-.37,12.54-.42Z"/>
    <path class="cls-1" d="m454.66,515.04c.75-5.8,5.79-10.53,12.43-11.58,1.36-.21,2.75-.21,4.12-.31.05,3.19.1,6.38.15,9.57-5.63.3-11.6-1.84-16.7,2.32Z"/>
    <path class="cls-1" d="m471.32,233.67c-6.73.15-12.95-.88-17.57-7.84,6.69,2.66,11.94-.97,17.58-1.66,0,3.17,0,6.33-.01,9.5Z"/>
    <path class="cls-1" d="m.26,79.03c8.68.61,13.46,4.31,15.23,12.22-4.81-3.17-9.86-4.17-15.23-3.64,0-2.86,0-5.72,0-8.58Z"/>
    <path class="cls-1" d="m.26,233.46c5.1,2.99,9.52,7.35,17.02,7.47-5.99,3.49-11.43,4.41-17.02,4.83,0-4.1,0-8.2,0-12.3Z"/>
    <path class="cls-1" d="m471.33,349.03c-1.61,1.34-3.21,2.69-4.82,4.03,2.25-5.23-2.6-10.62.57-15.75,1.12-1.81,1.67-4.01,4.26-4.3,0,5.34,0,10.68-.01,16.02Z"/>
    <path class="cls-1" d="m288.39,13.8c.24-4.49-2.36-7.46-5.41-10.2-1.13-1.01-2.77-1.44-3.35-3.05,3.21-.94,6.48-.37,9.72-.38-.06,4.54-.12,9.09-.18,13.63-.26.1-.52.09-.77,0Z"/>
    <path class="cls-1" d="m471.3,363.93c-2.2.8-3.79,4.01-6.78,1.72,2.31-2.39,2.8-5.68,4.01-8.58.58-1.4,1.06-2.47,2.59-2.8.06,3.22.12,6.44.18,9.66Z"/>
    <path class="cls-1" d="m.4,251.97c5.99,3.77,7.57,6.84,5.96,11.68-1.92-1.82-3.2-4.44-6.16-4.92.07-2.25.14-4.5.2-6.76Z"/>
    <path class="cls-1" d="m.24,159.06c2.91.16,5.76.55,8.87,2.68-3.86-.36-6.1,1.78-8.65,3.21-.07-1.96-.14-3.93-.21-5.89Z"/>
    <path class="cls-1" d="m.27,128.35c1.83,1.25,3.96,2.16,5.29,4.61-1.87.39-3.61.75-5.35,1.11.02-1.91.04-3.82.06-5.73Z"/>
    <path class="cls-1" d="m.55,68.63c2.15.9,3.42,2.38,3.25,5-1.43.62-2.39-.62-3.56-.9.1-1.37.21-2.74.31-4.1Z"/>
    <path class="cls-1" d="m470.31,494.07c-.46.06-1.19.79-1.3-.05-.12-.89.89-.82,1.56-.89-.09.31-.17.62-.26.93Z"/>
    <path class="cls-1" d="m470.22,448.35c.23-.65.28-1.43,1.13-1.66-.02.59-.05,1.18-.07,1.77-.35-.04-.7-.07-1.05-.11Z"/>
    <path class="cls-1" d="m471.44,205.67c-.21-.03-.42-.07-.63-.1.17-.24.34-.48.51-.72.09.27.13.55.12.83Z"/>
    <path class="cls-1" d="m146.8,263.87c-4.14-2.11-8.07-1.19-11.88-1.48-13.74-1.04-26.67-4.43-36.5-14.83-4.65-4.92-8.66-10.5-10.17-17.75,5.88,5.63,13.27,6.71,20.64,7.99,3.71.64,7.42.65,11.07.25,13.56-1.48,27.14-1.97,40.46,1.25,17.91,4.33,28.73,16.5,34.7,33.46.11.33-.21.81-.35,1.31-8.28-11.74-19.12-9.48-28.86-.21-6.5,6.2-12.78,12.7-18.55,19.58-4.83,5.75-10.41,10.54-16.29,15-13.97,10.58-29.38,12.36-45.79,6.76-1.26-.43-2.39-1.26-3.81-2.02,7.99-1.82,14.13-5.87,20.47-10.64,6.77-5.09,10.96-12.15,17.13-17.58,8.64-7.6,16.68-15.82,27.74-21.07Z"/>
    <path class="cls-1" d="m341.39,602.93c6.1-6.76,11.97-13.75,19.45-19.1,11.75-8.39,24.75-9.66,38.47-6.74.88.19,1.82.43,2.28,2.07-4.35.49-8.44,1.57-11.96,4.42-6.21,5.03-10.63,11.5-15.11,17.91-6.71,9.62-13.5,19.22-22.18,27.15-6.51,5.95-14.37,9.71-23.13,11.48-7.97,1.61-15.68.66-23.3-1.8.62-.59,1.24-1.17,1.86-1.76,9.67-3.46,12.31-12.51,11.57-22.88-.96-13.55-4.73-26.61-6.15-40.1-1.86-17.61,3.36-32.14,15.76-44.29,3.44-3.37,7.19-6.66,12.36-7.3,0,0-.06-.06-.06-.06-8.3,9.35-7.26,20.3-5.39,31.4,2.76,16.39,6.12,32.75,3.39,49.52-.83,1.03-1.03,2.17-.97,4.42,1.41-1.98,2.26-3.16,3.1-4.34Z"/>
    <path class="cls-1" d="m98.59,215.92c-8.91-7.56-14.02-17.55-18.37-28.12-5.26-12.78-7.72-26.4-12.13-39.42-2.17-6.41-4.97-12.53-9.48-17.77-3.49-4.06-7.92-6.14-13.6-7.16,6.26-2.09,9.73-6.38,12.42-11.68,3.67-7.22,6-15.02,10.37-21.98,6.2-9.88,14.21-15.56,26.96-14.18-9.19,5.62-10.7,15.43-14.42,23.8-4.13,9.29-8.88,17.65-18.68,21.95-.75.33-2.07.56-1.8,1.75.31,1.41,1.72,1.58,2.91,1.88,6.91,1.77,13.39,4.51,19.24,8.67,12.92,9.18,19.18,22.69,23.65,37.16,2.85,9.22,4.87,18.7,7.26,28.06,1.72,6.76,3.81,13.69,7.65,19.72,1.88,2.95,4.73,5.14,7.71,7.06,1.21.78,2.9.92,4.01,3.1-12.35-1.37-23.53-3.98-32.72-12.12-.33-.24-.66-.48-.98-.72Z"/>
    <path class="cls-1" d="m242.33,734.59c.44,12.44-3.97,22.91-11.48,32.28-4.83,6.03-11.28,10.54-17.86,13.57-8.65,3.98-18.13,6.56-27.61,8.55-9.62,2.02-19.31,4.02-28.33,8.04-4.55,2.03-9.38,4.21-10.52,10.07-.18.94-1.09,1.48-2.18,1.23-1.01-.23-1.03-1.03-.91-1.81,2-13.24,6.85-25.05,17.54-33.71,8.99-7.29,19.61-11.31,30.59-14.42,9.19-2.6,18.55-4.65,27.58-7.7,9.09-3.07,18.2-6.58,23.18-16.1Z"/>
    <path class="cls-1" d="m271.42,192.5c3.67-9.54,1.02-18.54-2.45-27.43-4.67-11.96-10.84-23.27-15.22-35.37-6.67-18.43-7.16-36.25,4.7-52.97,1.94-2.73,4.29-5.16,7.21-8.63-.13,4.04-1.51,6.6-1.71,9.41-.63,8.63,3.1,15.97,6.51,23.35,5.51,11.93,11.95,23.44,15.92,36.04,6.27,19.9,2.61,37.75-11.22,53.42-.9,1.02-2.1,1.77-3.17,2.64-.2-.15-.39-.31-.58-.46Z"/>
    <path class="cls-1" d="m426.14,296.3c-18.97,12.4-37.7,10.62-56.4-.29-11-6.42-20.46-14.94-30.7-22.39-9.37-6.82-18.86-13.26-31.55-11.43,5.85-4.98,12.6-7.47,19.74-9.02,19.29-4.18,35.4,3.05,50.21,14.4,8.07,6.18,15.79,12.81,23.82,19.04,7.27,5.65,15.05,10.21,24.88,9.69Z"/>
    <path class="cls-1" d="m108,506.97c-21.85-3.1-34.84-14.69-42.7-33.36-4.26-10.11-5.74-20.75-8.26-31.21-2.18-9.02-3.75-18.28-8.61-26.36-2.09-3.47-5.15-6.36-9.9-9.23,5.53-.4,9.5,1.01,13.37,2.19,4.56,1.39,8.61,4.09,12.91,6.11,9.79,4.6,13.63,13.62,17.49,22.5,4.88,11.21,6.74,23.3,8.89,35.25,1.28,7.12,2.96,14.11,5.45,20.92,1.97,5.38,6.65,8.44,11.35,13.18Z"/>
    <path class="cls-1" d="m384.07,509.07c-22.37-2.28-35.42-15.39-42.72-35.9-4.29-12.06-5.73-24.72-9.15-36.94-2.85-10.18-5.57-20.28-15.49-26.45,9.42-.27,17.53,3.09,25.02,8.04,11.15,7.38,17.01,18.5,20.9,30.86,3.53,11.23,4.89,22.94,7.39,34.4.82,3.76,1.84,7.5,3.02,11.17,1.91,5.95,5.3,10.8,11.02,13.74,0,.36.01.72.02,1.08Z"/>
    <path class="cls-1" d="m308.08,204.36c-1.62-1.54-1.02-2.92-.67-4.48,5.09-22.39,19.87-35.01,41.28-40.59,12.37-3.23,25-5.47,37.37-8.71,9.52-2.5,13.23-5.66,17.82-12.9.61,3.49-.34,8.18-2.4,13.5-6.22,16.02-18.66,24.9-34.24,30.33-13.59,4.73-27.92,6.65-41.6,11.02-7.51,2.4-12.34,5.51-17.56,11.83Z"/>
    <path class="cls-1" d="m310.73,772.14c-2.74-7.9-10.04-10.73-16.35-14.6-5.6-3.43-11.61-6.22-16.33-10.96-2.93-2.95-5.93-5.83-6.7-10.25-.19-1.12-.73-2.42-2.13-2.82-1.2.51-1.27,1.6-1.46,2.68-1.47,8.28-5.94,15.41-8.87,23.12-.95,2.49-3.44,2.37-5.25,3.3-4.36,2.26-8.59,5.23-14.55,3.87,8.87-7.81,9.59-18.96,12.61-28.99,6.51-21.61,25.12-27.5,43.25-20.06,5.35,2.19,10.81,4.1,15.89,6.99,5.08,2.9,10.64,3.86,16.45,2.27,0,0-.03-.03-.03-.03-7.39,8-16.2,11.01-27.01,8.43-6.98-1.66-13.19-4.91-19.47-8.11-2.72-1.38-5.48-2.54-8.91-3.03,1.82,5.02,5.93,7.15,9.94,9.18,6.13,3.1,12.15,6.38,17.72,10.36,8.87,6.34,13.69,14.86,12.79,26.09-.07.93-.06,1.87-.81,2.57-.27.01-.53,0-.79-.04Z"/>
    <path class="cls-1" d="m189.4,559.19c-.58,4.35-3.37,7.61-5.48,11.2-.22.25-.44.51-.66.77-8.71,6.95-18.98,9.25-29.76,10.33-3.77.38-7.53,1.34-11.19,2.38-7.36,2.1-8.5,6.37-4.09,12.63,5.74,8.14,13.21,14.91,18.19,23.66,4.12,7.24,3.94,20.56-1.19,26.63-1.91-10.45-10.55-10.39-17.95-11.37-11.35-1.51-22.97-1.71-32.85-8.51-4.03-2.77-5.24-7.64-7.35-11.77-.35-.69.71-2.17,1.55-1.34,4.56,4.53,10.63,3.6,16.07,4.44,6.49,1,13.12,1.06,19.61,2.26.79.14,1.72-.51,2.58-.8,1.05.42.48,2.14,1.79,2.27.23.02.71-.54.73-.87.1-1.22-.62-1.93-1.74-2.26-.28-.08-.59-.09-.88-.13-3.92-5.44-4.65-12.02-6.45-18.21-.6-2.05.67-3.89,1.05-5.81,2.28-11.45,7.68-20.99,17.62-27.56.44-.29,1.14-.19,1.72-.28.17.34.33.69.5,1.03.14-.36.29-.73.43-1.09,11.54-2.56,23.65-2.19,34.78-6.83.98-.26,1.96-.51,2.95-.77Z"/>
    <path class="cls-1" d="m281.02,413.12c-3.03,9.11-6.71,17.91-16.31,21.92-10.16,4.25-20.62,8.18-31.5,2.24-5.34-2.91-10.25-6.64-14.18-11.3-4.98-5.9-9.8-11.82-17.64-14.06-.36-.1-.59-.64-.99-1.09,12.56-5.46,22.75-1.12,31.97,7.25,4.46,4.04,8.43,8.58,13.16,12.39,2.84,2.29,6.2,3.24,9.27,4.87,2.24,1.19,3.68-.94,4.81-2.59,3.78-5.54,4.03-12.17,5.62-18.4,2.31-9.09,4.14-18.38,12.39-24.56,4.32-3.23,8.99-5.08,14.62-5.66-5.69,6.31-5.16,13.93.91,22.22,5.49,7.5,10.26,15.45,12.3,24.68,1.75,7.91-.7,14.78-5.62,21.04.27-6.69-3.01-11.83-6.52-16.9-4.76-6.86-8.76-14.12-11.43-22.06-.16-.59.24-1.39-.64-1.71-.07.57-.13,1.15-.2,1.72Z"/>
    <path class="cls-1" d="m295.1,187.97c-3,7.83-.14,15.55.81,23.19,1.29,10.34,1.61,20.27-4.64,29.32,2.18,1.12,3.79.28,5.51-.41,9.4-3.78,18.87-6.84,29.07-2.82,4.41,1.74,7.9,4.53,11.6,9.25-9.97-4.02-17.35,1-25.06,3.83-6.51,2.38-13.07,4.77-19.93,5.37-5.9.52-11.69-1.54-16.29-5.22-6.59-5.28-11.39-11.94-13.04-20.6-1.24-6.47-2.9-12.86-4.57-19.23-1.2-4.57-3.81-8.33-8.14-11.28,11.13-.01,20.82,7.58,24.88,18.8,2.48,6.86,3.16,14.08,4.69,21.13.42,1.93,1.14,3.79,2.14,7.02,1.82-4.27,2.85-7.4,2.35-10.85-1.14-7.85-3.18-15.67-3.38-23.54-.25-9.77,2.14-19,11.67-24.48.76-.43,1.25-1.32,1.87-2,.16.83.32,1.67.47,2.5Z"/>
    <path class="cls-1" d="m403.51,192.65c.38,6.37-2.9,11.09-7.31,15-4.93,4.37-10.95,6.67-17.32,8.33-7.28,1.9-14.85,2.84-21.69,6.27-1.63.82-3.37,1.52-4.55,3.78,15.85,1.9,26,16.12,41.6,18.25-.84,1.47-2.63,2.06-4.17,2.99-1.11.67-3.17.68-2.91,2.42.25,1.69,2.17,2.06,3.64,2.38,4.2.91,8.51,1.4,12.64,2.55,7.46,2.07,11.01,6.26,10.99,12.66-4.78-3.93-10.71-3.48-16.06-5.02-5.82-1.68-11.03-4.05-13.21-10.26-.56-1.6-1.54-1.74-2.82-1.68-10.09.52-18.78-3.3-27.18-8.39-6.47-3.92-12.6-8.93-20.89-8.41-.85.05-1.68-.43-1.77-1.18-.13-1.01.81-1.65,1.6-2.1,3.9-2.22,7.99-4.23,12.54-4.03,2.99.14,4.23-1.22,4.78-3.63,3.56-15.62,15.95-19.56,29.28-22.46,7.58-1.65,15.74-1.77,21.93-7.54.29.02.58.04.87.07Z"/>
    <path class="cls-1" d="m298.44,338.5c-6.96,3.19-8.05,10.1-10.01,16.3-2.08,6.59-3.71,13.29-6.68,19.61-2.18,4.65-5.57,8.43-9.29,11.34-3.5,2.74-8.21,5.09-13.83,2.94,6.68-4.15,7.8-10.69,9.42-17.16,1.96-7.82,3.9-15.66,8.57-22.58,3.76-5.58,8.55-9.06,15.09-10.27.69-.13,1.58.13,1.97-1.26-4.13-1.54-8.37-2.69-12-5.69-4.47-3.69-7.34-8.2-9.11-13.41-2.45-7.24-4.34-14.67-6.54-21.99-.98-3.27-2.52-6.28-4.69-8.93-.29-.54-.58-1.07-.87-1.61,13.54,1.15,20.26,9.89,24.12,21.75,2.08,6.39,4.06,12.82,6.03,19.24,1.36,4.43,3.9,7.91,7.93,10.26,0,.2,0,.4-.02.6-.02.28-.04.56-.07.84Z"/>
    <path class="cls-1" d="m104.12,388.56c-1.3-.74-2.44-1.07-3.12-1.81-6.97-7.62-16.71-8.25-25.86-9.95-9.89-1.83-20.01-3.03-29.18-7.13-10.8-4.82-17.54-13.69-20.64-25.19-.27-1.02-.49-2.05-.71-3.08-.02-.11.15-.26.44-.75,8.46,10.6,21.04,9.99,32.6,11.9,10.64,1.76,21.25,3.07,30.6,9.21,3.65,2.39,6.74,5.31,9.01,8.8,3.42,5.25,7.5,10.44,6.85,18Z"/>
    <path class="cls-1" d="m139.54,334.01c-1.31,4.72-3.19,9.65.02,14.11,4.4,6.1,6.23,13.4,10,19.86,5.21,8.93,10.11,18.64,10.21,29.33.09,9.79-2.05,19.35-9.04,27.03-.61.67-.97,1.81-2.06,1.41-1.1-.4-.81-1.59-.6-2.41,1.45-5.57-.62-10.42-2.68-15.42-2.41-5.84-6.32-10.94-8.71-16.57-3.58-8.46-7.49-16.94-8.42-26.49-1.14-11.66,2.48-21.34,9.73-30.04.34-.41,1.06-.51,1.6-.76,0,0-.06-.06-.06-.06Z"/>
    <path class="cls-1" d="m238.12,325.24c-8.52,3.37-16.99,3.2-25.44-.27-1.4-.58-2.87-.99-4.31-1.47-.03-1.53-.9-1.04-1.7-.71-5.94-4.22-12.35-7.46-19.4-9.38-1.61-.44-3.18-1.04-4.88-.5.3-.69.6-1.37.9-2.06,2.18-2.91,5.38-4.23,8.72-4.56,8.54-.84,16.87-.15,24.71,4,5.57,2.96,11.16,5.93,17.11,8.14,2.62.97,5.32,2.36,8.01,1.51,3.42-1.09,3.81.19,3.78,3.11-.1,8.29,5.38,14.23,9.31,20.73,4.2,6.95,7.9,13.97,8.3,22.27.31,6.46-1.85,12.11-5.72,17.18-.25.04-.5.07-.75.09.27-6.27-1.79-11.81-5.56-16.69-4.06-5.26-7.11-11.08-9.95-17.02-3.01-6.29-4.04-12.87-1.92-19.62.52-1.65.59-2.93-.28-4.32-.08-.4-.16-.8-.24-1.19-.23.25-.45.51-.68.76Z"/>
    <path class="cls-1" d="m46.4,801.93c7.82-6.18,9.88-14.88,11.46-23.91,2.23-12.75,3.22-25.85,9.85-37.46,5.85-10.23,14.46-16.29,27.55-18.08-9.8,7.6-9.89,17.88-11.42,27.54-1.97,12.44-2.83,25.21-10.33,35.98-6.54,9.4-15.72,14.66-27.12,15.93Z"/>
    <path class="cls-1" d="m94.8,715.21c3.77-2.37,7.57-1.5,10.77-3.36,7.25-4.2,13.28-9.85,19.2-15.6,9.21-8.95,18.54-17.67,31.71-20.21,8.61-1.66,16.98-.81,25.65,4.15-17.12,1.49-24.35,15.22-34.87,24.38-9.66,8.42-19.97,15.52-33.46,15.47-6.37-.02-12.17-2.66-19-4.85Z"/>
    <path class="cls-1" d="m380.31,390.97c-5.77-7.83-14.29-9.02-22.51-10.51-11.02-1.99-22.1-3.54-32.69-7.48-13.13-4.88-19.84-15.02-23.42-27.88-.25-.89-.22-1.62.52-1.99,1.32-.65,1.43.61,1.74,1.38,1.32,3.38,4.34,4.28,7.34,5.6,14.28,6.29,30.3,4.13,44.78,9.76,12.82,4.99,20.93,13.66,24.75,26.68.39,1.31.83,2.63-.52,4.44Z"/>
    <path class="cls-1" d="m215.98,464.83c-2.28,4.6-3.84,9.42-6.32,13.9-2.17,3.93-4.8,6.54-8.93,7.96-1.74.6-3.36,1.56-5,2.41-1.64.85-3.62,2.32-4.98.49-1.4-1.88,1.38-2.55,2.17-3.83,4.19-6.8,5.17-14.62,7.17-22.13,3.91-14.68,12.65-25.63,28.77-25.21-6.42,4.08-6.72,8.3-3.41,15.09,3.66,7.48,8.88,14.08,11.95,21.8,3.92,9.88,4.69,19.76-1.81,29.1-.51.74-.94,1.57-1.25,2.41-.29.76.09,2.15-1.43,1.59-.98-.37-1.31-1.23-.6-2.24,2.7-3.87.61-7.4-.89-10.89-3.52-8.2-9.4-15.12-12.62-23.57-.85-2.23-.05-5.11-2.82-6.88Z"/>
    <path class="cls-1" d="m39.96,716.14c11.15-2.11,18.26-8.66,25.72-15.72,8.97-8.49,17.88-17.88,30.11-21.89,8.42-2.76,17.21-2.71,25.78.15.87.29,1.68.77,2.51,1.19.52.26,1.19.4,1.22,1.69-11.11.17-17.39,8.36-24.36,15.35-8.2,8.23-16.42,16.37-27.25,21.21-11.36,5.08-22.24,3.15-33.73-1.99Z"/>
    <path class="cls-1" d="m129.46,524.77c.28-2.21-.67-4.22-.96-6.33-.9-6.66.71-12.68,5.67-18.61-1.42,8.75,3.42,14.17,7.99,19.53,5.17,6.07,10.2,12.42,13.3,19.58,2.2,5.1,1.29,11.41-.48,17.09-.87,2.8-.51,6.3-4.23,7.48.07-5.92-3.58-9.65-9.74-11.05-8.95-2.03-18.35-1.05-27.1-3.92-12.5-4.1-18.09-10-20.48-21.21,13.11,9.32,29.3,4.67,43.41,11.9-1.07-4.83-3.79-7.57-5.68-10.74,1.64-2.25.2-3.09-1.7-3.73Z"/>
    <path class="cls-1" d="m320.83,102.02c7.99-1.01,10.78-7.27,13.69-13.24,2.64-5.41,4.78-11.08,7.54-16.43,3.87-7.5,9.27-13.45,17.83-15.84,3.08-.86,6.13-.46,10.45-.73-8.24,3.89-10.29,10.97-13.09,17.53-1.7,3.98-3.24,8.03-5.15,11.91-4.06,8.29-10.12,14.36-20.21,16.65,12.93,3.51,18.54,13.12,23.11,23.7,1.53,3.55,3.03,7.11,4.52,10.67,1.92,4.58,4.78,8.49,9.15,11.63-6.86,2.08-17.22-2.28-22.41-8.77-4.42-5.53-6.93-12.02-9.55-18.46-1.4-3.43-2.81-6.86-4.35-10.23-2.23-4.9-5.52-8.47-11.54-8.4Z"/>
    <path class="cls-1" d="m188.5,679.18c-.01-6.39-3.14-11.3-7.05-16.07-5.82-7.1-11.95-14.09-14.12-23.43-1.69-7.27-1.05-14.17,3.22-21.57,1.74,11.42,9.69,18.09,15.53,25.97,6.39,8.61,9.06,17.67,6.68,28.17-.19.85-.21,1.98.21,2.65.53.84,1.27,0,1.91-.38,9.56-5.75,19.46-4.7,29.35-1.21,6.09,2.15,12.13,4.5,18,7.17,3.43,1.56,6.66,1.91,10.78-.08-5.43,8-15.57,11.43-24.71,9.73-7.51-1.4-14.1-5.08-21.13-7.63-5.37-1.94-10.69-2.92-16.33-2.19-.78-.38-1.56-.76-2.34-1.14Z"/>
    <path class="cls-1" d="m68.1,403.78c-4.88-5.45-8.03-11.72-8.82-19.42,6.35,8.11,15.78,8.87,24.62,10.53,7.05,1.33,14.23,2.34,21.35,3.09,5.85.62,10.39,3.42,15.19,5.92,2.66,1.39,4.76,3.9,7.86,4.6,2.79.63,1.52,3.4,2.73,4.91,2.4,3.01,3.75,6.64,5.43,10.08,1.06,2.15,1.7,4.26.91,6.94-3.48-2.37-6.85-4.7-10.27-6.96-2.84-1.88-6.42-1.97-9.45-2.38-9.59-1.3-19-2.53-28.34-5.68-6.67-2.26-13.12-4.23-18.5-8.86-.12-1.7-1.03-2.61-2.72-2.75Z"/>
    <path class="cls-1" d="m341.4,669.1c-8.1-1.29-13.21,3.97-18.57,8.57-4.87,4.18-9.5,8.64-15.19,11.77-.98.54-2.77.69-2.35,2.34.36,1.42,1.94,1.15,3.14,1.41,9.8,2.13,17.96,6.5,21.97,16.41.23.57.49,1.13.62,1.72.09.43-.03.91-.09,1.9-7.32-5.02-15.54-4.67-23.66-5.29-10.29-.78-20.45-2.19-27.76-11.04-3.36-4.06-4.99-8.63-6.57-14.09,5.15,5.65,10.28,6.52,16.14,2.43,5.88-4.1,11.37-8.75,17.05-13.14,11.22-8.67,23.44-10.5,35.36-3.09l-.07.1Z"/>
    <path class="cls-1" d="m177.56,620.45c5.33,4.72,11.82,5.29,18.18,5.59,5.25.24,10.49.42,15.65,1.38,10.96,2.03,18.83,8.03,23.35,19.29,1.16-3.83.44-7,1.33-10.04,3.22-10.99,12.32-15.69,21.44-19.97,6.06-2.85,12.06-5.67,17.58-9.46,1-.69,1.8-2.04,3.17-1.27,1.32.74.84,2.25.66,3.38-1.42,9-6.52,15.42-14.33,19.73-6.68,3.69-13.5,7.12-20.21,10.75-3.46,1.88-6.23,4.51-7.83,8.21-.77,1.79-1.59,2.51-3.27.73-4.86-5.17-11.51-5.19-17.85-5.92-7.9-.92-15.83-1.45-23.34-4.51-8.2-3.34-12.63-9.56-14.52-17.88Z"/>
    <path class="cls-1" d="m435.22,535.95c-1.01,7.02-5.51,11.6-11.12,15.12-4.79,3-10.19,4.22-15.91,4.44-7.41.28-14.83-.58-22.26.48-3.82.54-7.01,2.11-10.54,4.32-1.29-9.66-8.52-14.86-14.42-20.97-5.85-6.06-11.51-12.24-13.47-20.75-1.39-6.03-1.1-11.94,2.43-17.46.18,7.19,5.1,11.26,9.54,15.64,3.96,3.92,8.14,7.66,11.75,11.89,5.49,6.42,8.91,13.74,6.97,22.52,2.69.42,3.35-1.3,4.36-2.27,5.19-4.94,11.39-7.46,18.47-7.43,7.88.03,15.66-1.08,23.49-1.56,4.03-.25,7.48-1.65,10.64-4.02l.06.06Z"/>
    <path class="cls-1" d="m260.98,399.77c-8.51,1.28-15.56-1.84-20.89-6.64-4.57-4.12-7.39-10.39-9.34-16.59-1.6-5.09-3.22-10.18-4.7-15.31-1.06-3.67-2.85-4.8-6.41-2.75-6.59,3.8-13.14,7.63-20.31,10.38-10.61,4.07-20.79,3.16-29.82-5.83,10.33.69,17.91-4.72,26.01-9.28,9.71-5.46,20.6-7.06,31.13-3.57,7.67,2.54,13.06,8.63,16.21,16.62,2.92,7.42,5.4,14.97,8.08,22.46,1.7,4.73,4.52,8.63,10.05,10.49Z"/>
    <path class="cls-1" d="m161.66,610.19c4.83-6.71,10.74-10.02,19.3-10.38,10.97-.46,20.31,3.71,30.04,7.26,5.74,2.09,5.78,1.98,6.85-4.16,1.2-6.91,2.1-13.9,3.69-20.72,2.22-9.48,11.16-20.85,21.88-19.96-7.28,9.24-6.03,20.75-9.06,31.08-1.25,4.26-2.8,8.44-4.38,12.6-.91,2.41-3.18,3.58-5.08,5.16-9.14,7.62-19.18,9.12-30.45,5.76-4.96-1.48-9.94-2.53-14.8-4.61-5.51-2.35-11.55-4.39-18-2.04Z"/>
    <path class="cls-1" d="m338.48,388.93c7.04,7.45,16.57,8,25.8,9.27,12.01,1.65,24.07,3.14,34.77,9.43,9.4,5.52,14.4,14.17,16.58,24.63.11.5-.1,1.08-.24,2.23-6.79-9.06-16.69-9.51-25.98-11.23-10.3-1.91-20.8-3.07-30.44-7.51-11.3-5.21-19.49-13.21-22.01-25.95.5-.29,1-.57,1.51-.86Z"/>
    <path class="cls-1" d="m249.42,261.47c-1.96-6.13-7.55-6.99-12.57-8.37-7.9-2.18-15.98-3.61-23.75-6.43-6.73-2.44-16.69-14.57-16.58-21.23,0-.51.44-1.08.82-1.49.12-.13.94.09,1.07.34,3.45,6.65,10.31,6.73,16.26,8.12,7.48,1.74,15.04,3.05,23.23,6.97-5.64-11.95-8.44-23.21-.27-35.72.97,11.4,7.83,18.54,12.69,26.68,5.6,9.38,8.52,18.98,4.48,29.74-.72,1.9-1.45,3.76-3.33,4.83-.49-1.26.1-3.17-2.04-3.44Z"/>
    <path class="cls-1" d="m162.27,98.97c-8.83,5.67-9.01,14.85-9.53,23.48-.64,10.58-.44,21.24-2.96,31.6-3.44,14.11-12.92,22.65-26.29,27.29-.54.19-1.2.02-2.57.02,8.99-8.39,8.78-18.98,9.5-29.56.96-14.03,1.55-28.31,10.34-40.42,4.36-6.01,14.01-11.76,21.52-12.42Z"/>
    <path class="cls-1" d="m420.04,634.31c.59,9.84,7.38,15.61,13.98,21.41,9.05,7.97,18.67,15.33,25.27,25.71,6.89,10.83,5.56,22.15,2.38,33.67-.3-10.32-7.84-15.81-14.63-21.23-7.75-6.18-15.12-12.68-22.02-19.76-8.56-8.78-12.13-29.05-4.97-39.8Z"/>
    <path class="cls-1" d="m125.39,270.9c-18.55,9.31-33.13,4.36-46.44-8.23-6.72-6.35-12.67-13.49-20.02-19.2-3.85-2.99-8.21-4.27-13.49-4.8,13.9-6.44,27.13-5.12,39.06,3.55,7.54,5.47,13.86,12.26,20.6,18.62,5.49,5.17,11.21,10.27,20.29,10.07Z"/>
    <path class="cls-1" d="m424.19,192.65c-3.98,3.91-5.25,9.3-7.51,14.12-2.97,6.31-5.76,12.66-11.79,16.77-1.87,1.28-1.41,2.42.12,3.61,4.73,3.67,9.41,7.41,14.18,11.03,3.67,2.79,6.85,6.23,11.02,8.35,2.82,1.43,5.56,3.09,9.87,2.98-10.88,6.29-20.63,5.97-30.36-.04-7.08-4.37-12.61-10.65-19.27-15.55-2.82-2.07-5.45-4.59-9.41-4.13-.98.11-1.98-.33-2.05-1.37-.05-.78.84-1.12,1.65-1.33,2.51-.65,4.9-2.18,7.54-1.86,5.8.7,8.29-2.94,10.26-7.38,2.18-4.91,4-10.01,6.54-14.73,4.64-8.62,11.91-13.29,22.01-13.21-.25,1.27-1.42,1.47-2.13,2.13-.54-.16-.66.16-.69.59Z"/>
    <path class="cls-1" d="m202.57,69.08c-7.7,8.11-7.65,18.41-9.01,28.18-1.84,13.21-4.23,26.06-16.56,34.04-2.69,1.74-5.81,2.81-8.71,4.21-.86.41-1.47.12-1.99-.55-.57-.74.11-1.2.5-1.53,6.49-5.47,6.3-13.38,7.15-20.7.8-6.83,1.12-13.77,3.05-20.36,3.21-10.99,9.59-19.39,21.11-22.85.73-.22,1.48-.44,2.23-.54.59-.07,1.2.05,2.24.11Z"/>
    <path class="cls-1" d="m97.97,600.4c-1.63-4.87-5.39-7.22-9.74-8.57-9.47-2.94-19.12-5.12-28.92-6.76-11.79-1.97-22.89-14.05-24.45-26.29.26-.11.68-.39.76-.32,8.5,8,19.79,7.65,30.14,9.91,9.57,2.09,19.05,4.43,25.43,12.4,4.45,5.56,7.24,12.19,6.77,19.63Z"/>
    <path class="cls-1" d="m287.67,459.82c-2.14,13.6,5.61,22.77,9.93,32.99,3.45,8.16,5.43,16.39,4.64,25.2-.62,6.9-4.11,12.31-9.73,17.95,3.11-13.08-4.44-21.74-9-31.32-5.17-10.87-8.77-21.92-4.45-34,1.46-4.08,3.71-7.57,8.61-10.82Z"/>
    <path class="cls-1" d="m38.52,503.28c3.64,9.37,11.97,13.45,19.18,18.61,6.4,4.58,13.02,8.79,17.65,15.38,5.87,8.36,7.02,17.41,4.2,28.41-5.61-13.64-18.06-18.35-27.61-26.29-9.6-7.98-16.55-17.3-15.58-30.69.13-1.85.06-3.67,2.16-5.43Z"/>
    <path class="cls-1" d="m432.39,124.66c-12.55-4.79-19.12-14.52-22.3-27.05-1.85-7.29-3.63-14.6-5.59-21.86-1.27-4.69-3.46-8.89-8.44-12.37,8.03-.35,13.66,2.96,18.88,7.21,2.4,1.96,4.32,4.41,5.91,7.09.86,1.46,1.6,3.06,3.58,3.3,0,0,.05.02.05.02-.95,1.08-.73,2.35-.33,3.49,2.77,7.97,4.18,16.27,5.9,24.48,1.35,6.46,3.91,12.17,8.87,16.66-.93,0-1.86,0-2.79,0-1.24-.33-2.49-.66-3.73-.99Z"/>
    <path class="cls-1" d="m53.91,167.52c2.78,4.55,7.57,6.6,11.79,9.29,5.86,3.73,8.92,8.7,7.72,15.82-.29,0-.58.02-.87.04-3.74-4.15-8.78-6.59-13.04-10.03-3.79-3.06-7.18-6.62-7.89-12.06-3.61,7.08-4.45,14.19-1.19,22.32-9.48-4.84-13.09-12.29-14.08-21.59-.97-9.15,2.59-17.57,4.09-26.31.88-5.13,2.58-10.04-.69-15.31,6.5,1.67,12.33,10.02,12.43,17.12.09,6.37.01,12.75.01,19.12.09,1.04.7,1.53,1.71,1.58Z"/>
    <path class="cls-1" d="m394.37,509.07c6.24-2.21,8.99-7.68,11.84-12.94,3.96-7.3,7.09-15.04,11.88-21.9,6.86-9.84,16.1-14.85,28.17-14.47.02.56.03,1.12.04,1.68-4.99,2.28-7.5,6.74-9.82,11.32-3.63,7.16-6.48,14.68-10.69,21.57-7.23,11.83-17.68,17.19-31.43,16.34,0-.53,0-1.06,0-1.59Z"/>
    <path class="cls-1" d="m91.73,603.29c-8.78-3.41-16.5-.13-24.19,3.06-6.26,2.6-12.71,5.09-19.37,5.6-10.73.82-19.69-3.35-26.69-13.04,10.42,4.81,18.67-.19,27.45-3.24,11.53-4.01,23.41-6.89,35.1-.06,1.46.85,2.79,1.65,4.56,2,2.71.53,4.36,2.26,3.15,5.68Z"/>
    <path class="cls-1" d="m333.67,519.49c-1.24-8.92-8.06-12.97-14.52-17.32-7.03-4.75-14.38-9.06-19.67-16.01-5.94-7.81-6.93-16.31-4.23-25.52.06,6.45,4.38,9.83,8.99,13.16,6.43,4.64,13.7,7.93,19.71,13.31,7.8,6.97,12.93,14.64,10.91,25.66-.38,2.08-.05,4.29-.05,6.44-.38.09-.76.19-1.15.28Z"/>
    <path class="cls-1" d="m39.31,498.52c-4.84-4.09-10.18-7.48-14.74-12.04-7.36-7.37-8.83-15.86-7.08-26.76,5.68,12.3,17.85,15.12,26.47,22.4,3.85,3.25,7.35,6.91,11.03,10.35,2.08,1.94,1.93,4.78,2.37,7.11.95,5.05.59,10.27-.23,15.57-3.03-8.82-9.96-13.17-17.77-16.57l-.06-.06Z"/>
    <path class="cls-1" d="m418.64,462.43c3.97-5.76,4.68-11.71,4.46-17.72-.27-7.6.23-15.12,2.03-22.46,2.14-8.73,6.62-15.88,15.29-19.63.55-.24,1.12-.45,1.71-.57.25-.05.56.17.99.31-4.68,5.43-3.44,12.2-3.99,18.44-.61,6.88.09,13.84-1.13,20.73-1.74,9.79-7.38,16.41-16.09,20.66-.75.37-1.78.15-3.27.24Z"/>
    <path class="cls-1" d="m214.7,559.01c-6.35-7.17-14.68-8.43-23.03-10.28-12.23-2.71-23.16-7.95-28.33-20.59-.94-2.29-.88-4.99-1.5-8.82,7.76,9.51,18.41,9.75,27.84,12.84,4.05,1.32,9.09,1.63,12.02,3.86,4.02,3.05,8.23,6.85,10.41,11.99,1.43,3.38,2.89,6.69,2.58,11Z"/>
    <path class="cls-1" d="m220.38,563.27c-.11,8.19-3.84,13.53-9.04,17.99-6.49,5.55-14.54,7.07-22.65,8.67-6.94,1.37-14.55,1.13-20.15,6.69-.45.45-1.14.77-1.57.16-.3-.43-.42-1.25-.22-1.72,2.81-6.55,5.1-13.15,12.41-16.8,5.73-2.86,11.61-4.58,17.72-5.63,8.22-1.4,15.98-3.74,23.5-9.37Z"/>
    <path class="cls-1" d="m309.4,404.74c1.32-5.98-1.5-10.68-4.46-14.88-4.18-5.95-7.88-12.18-11.09-18.6-4.26-8.52-4.23-20.98,4.52-29.89-.79,10.69,5.86,17.83,10.45,25.87,3,5.25,5.63,10.63,6.94,16.58,1.6,7.23-1.16,16.64-6.37,20.93Z"/>
    <path class="cls-1" d="m323.68,343.4c8.15.41,13.86-3.92,19.9-7.47,5.22-3.07,10.07-6.76,15.94-8.73,7.12-2.39,14.23-1.76,21.41-.63,2.02.32,2.86,2.18,4.5,2.98.44.22.97,1.06.86,1.45-.2.74-.96,1.1-1.82,1.15-10.86.64-18.22,8.23-26.86,13.37-6.85,4.08-14.48,5.55-22.41,3.81-3.99-.87-8.02-1.89-11.52-5.95Z"/>
    <path class="cls-1" d="m203.68,264.45c11.29-.55,21.45,7.12,25.92,19.65,1.81,5.06,3.27,10.26,4.73,15.44,1.43,5.08,2.9,10.07,7.34,13.51.72.55,2.14,1.15,1.23,2.52-.71,1.06-1.92.86-2.98.67-10.25-1.81-17.05-7.88-20.96-17.32-2.7-6.51-4.24-13.38-5.94-20.2-1.43-5.7-3.89-10.9-9.33-14.26Z"/>
    <path class="cls-1" d="m15,345.23c3.31-.69,3.34-4.52,5.91-6.61.96,12.29,7.76,21.18,14.16,30.42,2.04,2.94,2.77,7.17,3.03,10.88.34,4.86.3,9.77-.48,14.73-.57,3.62-3.1,4.83-4.75,7.17.52-7.85-4.17-13.4-7.83-19.26-4.15-6.66-8.21-13.22-10.32-20.96-1.46-5.37.43-10.32.31-15.47,0-.32,0-.63.01-.95l-.04.05Z"/>
    <path class="cls-1" d="m169.23,329.42c-2.12-2.01-4.28-4-6.36-6.05-4.9-4.82-9.25-10.33-17.69-12.46,6.48-3.49,11.89-3.24,17.44-2.43,5.7.83,10.08,3.93,14.28,7.57,4.52,3.91,8.5,8.41,13.65,11.64,1.78,1.12,2.18,3.74,4.41,4.97,3.12,1.71,5.96,3.87,10.63,3.01-11.83,6.33-24.55,4.95-32.55-2.99-.52-1.96-1.7-3.15-3.81-3.25Z"/>
    <path class="cls-1" d="m262.56,248.29c-.26,7.15,4.64,11.18,9,15.57,6.14,6.18,13.17,11.51,17.94,18.99,4.67,7.32,3.99,15.05,1.96,23.14-3.15-8.74-10.64-13.52-17.15-18.64-4.36-3.43-7.34-7.53-10.37-11.72-6.21-8.61-5.53-17.9-1.37-27.33Z"/>
    <path class="cls-1" d="m47.17,341.1c7.84-.09,13.85-4.27,19.77-8.31,9.05-6.18,18.3-11.19,29.81-9.98,5.01.52,9.24,2.33,12.95,5.67-6.95-.49-12.09,3.28-17.32,6.7-10.08,6.59-20.03,13.17-33.05,11.86-4.94-.5-8.23-3.46-12.16-5.94Z"/>
    <path class="cls-1" d="m247.55,496.59c9.75-6.93,10.03-17.88,11.8-27.79,2.1-11.73,15.54-24.1,26.83-22.68-8.27,7.32-8.52,17.88-11.83,27.14-2.96,8.28-6.75,15.83-14.51,20.79-3.96,2.53-6.14,3.27-12.29,2.55Z"/>
    <path class="cls-1" d="m187.11,684.75c-3.09,4.13-2.07,8.28-.37,12.64,3.23,8.31,8.31,15.88,9.95,24.8,1.9,10.36-.32,19.43-9.35,27.6,3.25-12.42-4.17-21.04-7.4-30.74-3.91-11.73-5.99-22.96,3.61-33.08.84-.88.66-2.01.73-3.07.97,0,1.93,0,2.9-.01-.02.62-.04,1.24-.06,1.86Z"/>
    <path class="cls-1" d="m422.47,769.85c-8.59-7.32-11.58-15.32-10.68-25.21.65-7.14,3.02-13.63,5.41-20.26,2.48-6.89,6.26-13.91,1.96-21.7,6.48,5.02,10.95,10.88,11.45,19.4.52,8.79-2.31,16.65-5.49,24.55-1.66,4.13-2.88,8.44-4.46,12.6-1.28,3.39.71,6.23,1.8,10.62Z"/>
    <path class="cls-1" d="m145.02,180.77c-1.6-7.13,3.8-18.13,10.38-22.57,6.06-4.1,12.87-6.28,19.71-8.52,6.67-2.18,13.34-4.54,18.33-11.84-.36,12.22-4.94,20.23-14.49,25.19-3.55,1.84-7.2,3.54-10.91,5.02-8.15,3.24-16.74,5.61-23.02,12.72Z"/>
    <path class="cls-1" d="m246.42,405.08c-12.55,6.34-23.57,3.72-33.81-4.11-5.82-4.45-11.21-9.45-16.88-14.11-3.18-2.61-7.26-2.58-11.66-3.05,2.48-2.84,5.38-3.64,8.11-3.94,7.7-.85,15.49-.88,22.5,3.02,2.74,1.53,5.02,3.98,7.31,6.22,3.54,3.47,7.91,5.82,11.23,9.74,3.05,3.6,7.65,5.87,13.2,6.22Z"/>
    <path class="cls-1" d="m340.35,689.05c-4.16.4-8.36.67-10.78,4.92-.53.92-1.51,1.24-2.4.78-.9-.47-.24-1.23-.1-1.97.99-5.09,3.94-9.27,6.61-13.46,1.16-1.82,3.83-2.89,6.03-3.8,5.82-2.4,11.75-4.25,18.16-4.85,6.96-.65,14.09-1.14,20.52-4.48,1.46-.76,2.87-1.61,4.71-2.65-.9,5.77-3.58,10.05-7.44,13.72-8.22,7.8-18.94,8.45-29.26,10.18-1.84.31-3.67.41-5.3,1.42-.26.02-.51.08-.75.19Z"/>
    <path class="cls-1" d="m94.39,744.38c1.11,12.53,7.85,21.1,14.39,29.76,5.86,7.76,4.91,26.46-2.18,33.58.41-9.95-6.06-16.41-10.57-23.78-4.99-8.15-8.99-16.5-7.53-26.51.67-4.61,2.46-8.58,5.89-13.06Z"/>
    <path class="cls-1" d="m305.19,332.98c1.71-10.14-3.08-18.58-5.99-27.35-2.52-7.59-3.7-15.17-1.45-22.96,1.66-5.77,5.25-10.2,11.26-14.62-4.2,8.57-.94,15.41,1.14,22.25,2.36,7.79,5.43,15.43,5.08,23.75-.33,7.84-3.54,14.29-10.04,18.93Z"/>
    <path class="cls-1" d="m185.94,455.81c3.26-7.01-.44-13.02-2.51-19.06-2.28-6.66-5.55-13.02-7.04-19.93-1.77-8.18-.15-15.84,4.93-22.62.43-.58,1.16-1.1,1.85-1.27.67-.16,1,.56.98,1.23-.26,8.73,4.7,15.76,7.9,23.27,3.48,8.16,5.16,16.48,3.9,25.13-.86,5.9-5.79,9.38-10.02,13.26Z"/>
    <path class="cls-1" d="m411.02,717.48c-10.15-7.17-13.88-18.49-10.64-30.95,1.42-5.46,2.98-10.9,4.61-16.3,1.66-5.52,1.83-11.09.58-17.48,6.33,3.27,9.12,8.46,10.94,14.16,2.24,7.02.98,14.04-1.09,20.89-1.28,4.25-3.09,8.35-4.24,12.62-1.49,5.56-3.93,11.21-.15,17.06Z"/>
    <path class="cls-1" d="m187.85,687.76c5.31,8,14.15,9.11,22.06,11.73,8.02,2.66,15.72,5.57,21.35,12.32,4.1,4.91,6.11,10.43,5.83,18.07-7.56-9.46-18.28-10.59-27.61-14.51-9.38-3.94-17.38-9.09-20.73-19.48-.87-2.69-.38-5.33-.9-8.13Z"/>
    <path class="cls-1" d="m394.78,758.89c-6.95-5.23-14.92-4.84-22.64-5.31-7.35-.45-14.66-1.01-21.28-4.6-7.35-3.98-12.09-9.95-13.78-19.13,7.84,7.54,17.4,6.92,26.42,7.85,10.66,1.09,20.68,3.23,27.65,12.37,1.94,2.55,3.28,5.4,3.63,8.82Z"/>
    <path class="cls-1" d="m247.39,271.69c-.47,7.31,3.81,12.82,7.09,18.71,2.55,4.58,5.42,9.01,7.68,13.73,5.44,11.4,4.06,22.61-3.82,30.91,1.21-7.73-2.01-13.43-6.03-19.25-6.27-9.09-12.68-18.42-11.37-30.41.57-5.25,1.28-10.57,6.52-13.65l-.06-.05Z"/>
    <path class="cls-1" d="m271.01,747.53c9.34,7.74,11.86,17.68,8.21,29.65-1.63,5.34-4.26,10.24-6.6,15.28-2.78,6-5.84,12-4.6,19.23-6.26-4.15-9.8-15.84-8.15-23.68,1.76-8.4,5.62-15.9,9.08-23.58,2.33-5.16,3.45-10.44,2.07-16.89Z"/>
    <path class="cls-1" d="m204.23,528.02c-7.21-6.73-16.66-7.26-25.34-9.77-10.08-2.91-19.48-6.56-24.2-17.08-1.26-2.8-2.05-5.57-1.8-9.49,9.75,8.99,22.41,8.96,33.36,13.44,8.54,3.5,15.13,8.7,17.91,17.89.49,1.62.8,3.18.08,5.01Z"/>
    <path class="cls-1" d="m134.02,97.35c-.16,5.47-2.81,8.98-5.85,11.36-6.13,4.81-13.29,7.58-21.33,7.69-6.47.09-12.94.48-19.41.88-4.48.28-8.64,1.66-12.51,5.25,2.25-11.16,10.89-18.43,22.45-20.12,6.15-.9,12.29-.9,18.46-.85,6.15.05,12.36.56,18.19-4.21Z"/>
    <path class="cls-1" d="m304.19,336.95c.01-.3.02-.6.03-.89l.06-.06c6.25-.11,7.62-5.56,10.01-9.57,3.53-5.92,6.23-12.28,10.14-18.03,5.78-8.49,14.79-14.12,28.75-11.19-10.55,4.72-13.28,15.17-18.68,23.51-4.88,7.55-10.54,13.95-19.32,17.06-3.66,1.3-7.25.72-10.9.54-.03-.45-.06-.91-.1-1.37Z"/>
    <path class="cls-1" d="m169.25,697.42c-4.75,4.95-5.53,10.21-6.48,15.53-1.62,9.01-1,18.37-4.55,27.1-3.18,7.81-11.09,14.46-19.37,15.21,7.85-7.13,6.27-16.58,7.17-25.28.86-8.28,1.71-16.53,6.99-23.36,3.85-4.99,9.03-8.03,16.25-9.2Z"/>
    <path class="cls-1" d="m354.21,195.66c.09,8.18-3.74,13.11-8.94,17.15-5.86,4.55-12.93,6.57-19.97,8.19-8.21,1.89-16.63,2.95-23.45,9.21-.05-9.32,7.24-19.27,16.06-22.38,5.38-1.89,10.89-3.2,16.52-4.26,6.7-1.26,13.51-2.74,19.78-7.92Z"/>
    <path class="cls-1" d="m109.5,607.43c-1-12.38-9.07-19.22-14.91-27.64-5.4-7.78-9.67-17.2-6.23-27.55.76-2.29.32-5.29,3.36-7.02,1.6,9.79,8.58,16.01,13.92,23.21,5.54,7.46,9.92,15.11,8.98,25.01-.45,4.81-2,8.89-5.12,13.99Z"/>
    <path class="cls-1" d="m352.34,637.01c6.72-9.86,17.88-13.86,29.62-11.31,6.18,1.34,12.08,3.59,18.14,5.27,5.2,1.44,10.33,4.48,16.2.2-2.03,6.38-10.45,11.18-18.37,11.76-8.97.65-17.3-1.94-25.6-4.59-6.41-2.04-12.84-2.51-19.99-1.33Z"/>
    <path class="cls-1" d="m127.86,648.56c4.95,4.27,10.15,5.91,15.76,6.41,7.64.67,15.3,1.14,22.92,1.94,6.55.7,17.62,11.91,18.54,18.48.07.53-.23,1.11-.47,2.12-6.7-5.19-14.45-4.91-21.99-5.85-10.62-1.31-21.5-2.27-29.22-11.25-2.8-3.26-4.64-6.94-5.54-11.85Z"/>
    <path class="cls-1" d="m203.85,79.49c8.47-6.17,6.87-15.67,8.12-24.09,1.13-7.63,2.24-15.1,6.22-21.84,3.86-6.53,9.87-9.71,18.32-11.5-8.81,6.49-7.84,15.29-8.48,23.35-.46,5.72-1.16,11.31-2.83,16.78-2.69,8.85-9.03,14.1-17.25,17.48-1.14.47-2.36.6-4.11-.18Z"/>
    <path class="cls-1" d="m171.17,491.13c1.89-8.12-1.79-14.94-4.64-21.85-3.58-8.71-6.72-17.46-5.45-27.08.8-6.07,2.78-11.6,9.22-15.21-3.21,9.29,2.04,16.11,5.11,23.29,3.32,7.78,5.85,15.52,5.12,24.14-.6,7.07-4.16,12.24-9.37,16.7Z"/>
    <path class="cls-1" d="m147.75,197.59c-1.96.37-1.44,1.53-.93,2.77,3.3,7.95,6.49,15.96,9.91,23.85,1.45,3.35,3.63,6.31,6.96,8.46-6.05,1.86-10.91-.91-15.64-3.36-7.17-3.72-10.15-11.03-12.76-17.88-3.37-8.88-5.88-18.05-12.67-26.3,8.01.51,13.99,3.09,18.81,8.37,1.52,1.66,2.25,4.72,5.59,3.29.24.27.48.54.73.81Z"/>
    <path class="cls-1" d="m390.89,734.91c-14.09,1.05-22.81-5.66-28.48-17.35-2.69-5.55-5.44-11.07-8.26-16.55-2.04-3.98-4.68-7.5-8.87-9.92,11.51-2.71,21.26,2.52,27.84,14.92,2.53,4.76,5.13,9.6,6.73,14.71,1.55,4.95,7.51,11,11.04,14.2Z"/>
    <path class="cls-1" d="m239.16,650.23c3.63-7.37,10.38-9.39,17.73-10.1,10.44-1.01,19.41,3.87,28.72,7.44,5.34,2.05,10.52,5.52,16.93,3.09-4.08,4.92-8.97,8.36-15.44,8.94-7.02.63-13.76-.75-20.29-3.32-4.27-1.68-8.53-3.39-12.83-5-4.83-1.82-9.77-2.4-14.84-1.07h0Z"/>
    <path class="cls-1" d="m26.25,331.2c2.75-4.44,2.25-9.13.87-13.8-2.12-7.17-5.6-13.92-6.87-21.34-1.96-11.45-.44-22.42,10.68-29.16-3.58,11.1,2.74,19.98,4.88,29.65,2.84,12.88,3.59,25.12-7.75,34.76-.6-.03-1.2-.07-1.8-.1Z"/>
    <path class="cls-1" d="m304.26,576.98c-2.1,9.06-10.95,15.88-22.16,17.56-6.78,1.02-13.59.43-20.34.98-5.84.48-12,.31-16.82,4.92,2.43-8.7,7.27-15.06,16.04-17.95,9.19-3.02,18.68-1.7,28.06-1.92,5.33-.13,10.4-1.01,15.03-3.8l.2.2Z"/>
    <path class="cls-1" d="m28.04,333.82c4.64-1.63,6.73-5.69,9.03-9.52,3.09-5.15,5.3-10.76,8.43-15.93,6.11-10.08,14.25-15.89,26.52-14.37,1.37.17,2.78.02,4.44.33-8.43,2.46-11.2,9.93-14.96,16.43-3.4,5.88-6.92,11.58-11.45,16.73-6.22,7.05-13.93,8.95-22.78,8.09-.03-.46-.05-.93-.08-1.39.28-.12.57-.24.85-.37Z"/>
    <path class="cls-1" d="m345.91,99.62c7.24-6.29,22.87-6.55,31.82-.21,5.58,3.96,10.54,8.61,15.71,13.02,4.36,3.73,8.68,7.45,15.05,7.22-7.73,4.74-15.71,5.51-24.05,1.93-7.82-3.36-13.9-9.18-20.32-14.51-5.28-4.38-10.57-8.81-18.21-7.43,0,0,0-.01,0-.01Z"/>
    <path class="cls-1" d="m219.26,143.88c3.92,3.32,6.17,7.1,6.58,11.36.72,7.39.47,14.72-3.1,21.69-3.58,7-7.41,13.88-10.37,21.2-1.03,2.55-1.18,5.05-1.33,8.53-5.27-4.41-6.77-9.83-7.31-15.58-1-10.67,4.76-19.15,9.47-27.92,3.15-5.87,7.04-11.45,6.04-19.28Z"/>
    <path class="cls-1" d="m168.86,192.84c8.81-3.73,16.95-2.13,24.88,2.36,7.74,4.38,13.02,11.63,19.89,17.07,4.16,3.29,8.08,5.63,13.6,5.71-13.91,7.44-23.11,5.15-35.31-5.13-2.83-2.38-5.26-5.22-7.89-7.83-4.57-4.54-8.67-9.67-15.16-12.18Z"/>
    <path class="cls-1" d="m247.24,788.95c-1.8.58-3,1.75-3.54,3.58-7.47,6.69-17.03,9.16-25.97,12.88-3.58,1.49-7.12,2.96-9.87,5.85-.68.72-1.27,2.18-2.53,1.49-1.28-.71-.77-2.27-.62-3.38,1.12-7.9,5.44-13.97,11.8-18.37,6.94-4.8,14.84-7.8,22.85-10.4,3.77-1.23,6.7-3.63,9.35-6.47.56-.6.68-2.15,1.85-1.5.84.47,1.01,1.56.85,2.82-.63,4.76-2.21,9.19-4.17,13.51Z"/>
    <path class="cls-1" d="m321.56,47.14c3.86,3.43,5.94,7.48,6.5,11.79,1.04,7.9.39,15.75-4.08,22.8-2.48,3.92-4.77,7.95-7.23,11.88-3.32,5.29-6.47,10.6-5.36,17.35-7-8.13-8.11-17.25-4.8-27.08,2.49-7.39,6.95-13.77,10.81-20.45,2.8-4.84,4.61-9.93,4.16-16.29Z"/>
    <path class="cls-1" d="m272.1,679.84c-8.29-6.01-17.96-5.09-27.07-6.24-9.33-1.18-18.08-3.29-24.6-10.73-.31-.35-.78-.61-.95-1.01-.96-2.3-4.27-4.48-2.97-6.61,1.72-2.82,4.31.51,6.39,1.08,7.05,1.94,14.29,1.81,21.4,2.19,11.03.59,19.43,5.22,26.05,13.68,1.66,2.12,1.3,4.88,1.75,7.64Z"/>
    <path class="cls-1" d="m247.34,190.07c-1.26-8.97-6.8-15.86-11.21-23.32-4.5-7.62-8.18-15.49-7.35-24.83.41-4.63,2.03-8.51,5.05-13.03,1.49,11.91,9.24,19.88,14.3,29.17,5.95,10.92,7.07,21.16.22,31.82-.34.07-.67.13-1.01.2Z"/>
    <path class="cls-1" d="m218.8,694.58c8.87,3.03,17.07-.22,25.07-2.58,12.18-3.58,27.7-.14,34.23,8.65.85,1.15,2.67,2.39,1.4,3.96-1.04,1.29-2.03-.73-3.19-.87-4.46-.57-8.9-.68-13.35.05-7.73,1.26-15.36,3.61-23.26,3.22-8.98-.44-16.05-4.58-20.9-12.43Z"/>
    <path class="cls-1" d="m316.04,119.69c-6.58,10.59-1.59,20.27-.93,29.98.75,11.09.58,21.79-9.16,29.57-1.16.93-2.08,2.37-4.44,1.98,3.77-8.87.28-17.45-.71-26.18-1.29-11.41-1.61-22.68,8.29-31.17,1.71-1.47,3.44-2.88,6.94-4.18Z"/>
    <path class="cls-1" d="m159.04,23.77c-8.21,1.65-10.63,8.52-14.04,14.71-3.4,6.16-6.92,12.38-11.31,17.83-4.02,4.98-19.73,10.88-25.25,6.36,7.13-2.6,10.77-8.5,14.17-14.57,3.46-6.17,7.16-12.07,11.92-17.43,6.82-7.68,15.34-7.82,24.52-6.9Z"/>
    <path class="cls-1" d="m60.51,728.73c-7.39,2.36-10.61,8.3-14.41,13.67-3.73,5.28-6.6,11.59-11.39,15.6-7.53,6.31-16.47,10.53-27.21,6.21,9.77-.97,12.59-9.2,17.02-15.7,3.11-4.57,5.34-10.06,9.3-13.64,5.04-4.55,11.16-8.31,18.73-7.33,2.39.31,4.93-.67,7.96,1.2Z"/>
    <path class="cls-1" d="m365.5,428.76c4.1,8.34,12.58,10.98,19.84,15.15,6.76,3.88,13.22,7.96,17.2,15.04,3.02,5.36,3.29,11,2.39,18.27-4.12-9-11.74-11.96-18.51-15.95-9.15-5.4-17.91-11.03-21.15-22.19-.99-3.41-.31-6.73-.72-10.06.31-.08.63-.17.94-.25Z"/>
    <path class="cls-1" d="m66.63,695.98c-10.59-4.89-19.22.97-28.24,2.43-10.13,1.64-20.93-2.39-25.89-11.69,9.83,4.33,18.82-.32,27.96-1.71,9.56-1.46,20.9,1.76,25.01,8.22.31.49.46,1.09,1.15,2.76Z"/>
    <path class="cls-1" d="m49.95,472.24c-1.04-6.72-3.63-11.8-7.47-16.21-3.79-4.34-6.6-9.25-8.96-14.47-3.28-7.26-2.68-14.14,2.39-21.93.36,10.41,7.33,15.85,12.24,22.47,7.33,9.9,8.3,20.43,1.8,30.13Z"/>
    <path class="cls-1" d="m214.89,133.12c3.09-9.32-1.36-17.54-2.37-25.99-1.51-12.6.08-20.37,10.64-27.12-4.47,10.1,1.5,18.78,2.4,28.01.8,8.2-.86,15.53-5.69,22.04-1.08,1.45-3.29,2.06-4.98,3.05Z"/>
    <path class="cls-1" d="m305.51,572.52c-2.67-7.71-9.58-10.99-15.46-15.21-8.19-5.87-14.45-12.65-13.86-23.61.08-1.56.03-3.09,1.43-4.71,4.24,9.07,13.6,12.33,20.47,18.44,6.76,6.01,11.69,14.63,7.41,25.09Z"/>
    <path class="cls-1" d="m312.9,422.48c.72,10.81,7.57,16.65,13.16,22.95,5.79,6.52,6.99,22.86.92,29.07.04-9.56-7.6-14.73-11.77-21.81-3.38-5.74-6.74-11.36-6.48-18.35.15-3.93,1.79-7.28,4.16-11.85Z"/>
    <path class="cls-1" d="m105.21,636.35c-5.86-3.45-12.3-2.99-18.74-2.92-7,.07-14.22.71-20.5-3.31-4.65-2.98-8.6-6.73-10.14-13.43,4.49,4,9.16,4.11,13.94,4.08,6.77-.03,13.5.45,20.19,1.64,7.9,1.4,14.04,7,15.2,14.01l.06-.07Z"/>
    <path class="cls-1" d="m271.92,514.23c-6.83,6.41-5.92,14.65-6.72,22.21-1.17,11.02-4.75,19.98-16,24.1-.75.27-1.41.59-2.31,0,4.09-4.75,4.97-10.34,5.34-16.47.56-9.36.64-19.28,8.99-26,2.82-2.27,5.36-5.8,10.72-3.84Z"/>
    <path class="cls-1" d="m226.94,559.38c5.86-6.62,3.98-13.76,3.24-20.4-1.23-10.99-.11-20.89,8.84-28.57,1.44-1.23,1.4-1.27,4.73-.77-3.64,4.28-2.51,9.05-2.33,14,.34,9.27,2.22,18.71-2.61,27.75-2.59,4.86-6.55,6.28-11.87,7.98Z"/>
    <path class="cls-1" d="m457.21,650.32c3.46,5.03,7.94,9.66,6.51,17.12-4.24-5.86-10.75-7.31-16.74-9.74-7.21-2.92-14.19-6.17-18.06-13.59-1.9-3.64-2.65-7.41-1.91-11.29,7.76,9.51,20.08,10.97,29.93,16.78.03.26.11.5.27.71Z"/>
    <path class="cls-1" d="m450.21,374.03c-.47,3.65,0,7.79-4.77,9.22.71-6.9-4.66-11.01-7.57-16.19-3.51-6.24-7.74-12.05-7.44-19.75.07-1.66,1.29-3.18.45-4.88.1-.24.16-.49.19-.75,2.42-1.28,1.46-5.06,4.83-6.07-.62,7.7,4.61,12.91,8.19,18.7,3.81,6.16,6.76,12.31,6.11,19.72Z"/>
    <path class="cls-1" d="m112.59,458.43c4.5,5.24,10.85,5.02,16.43,6.77,6.44,2.02,13.01,3.37,18.02,8.67,3.42,3.61,4.73,7.65,5.39,12.31-3.33.5-3.84-2.91-6.15-3.73-4.74-1.68-9.53-3.14-14.42-4.33-8.57-2.08-15.52-6.32-19.22-14.77-.61-1.39-1.54-2.75-.05-4.92Z"/>
    <path class="cls-1" d="m28.61,171.7c-2.37,7.79,1.97,14.45,3.77,21.62,2.28,9.05,2.88,18-4.76,25.27-.33.31-.74.54-1.14.77-.11.06-.29-.01-.84-.06,1.91-8.03-2.68-14.84-4.31-22.25-2-9.13-2.1-17.52,5.03-24.61.53-.53,1.05-1.17,2.23-.74Z"/>
    <path class="cls-1" d="m87.95,97.23c5.75-2.64,8.65-7.75,11.42-12.87,2.8-5.18,6.1-9.9,10.39-13.95,4.16-3.92,9.11-3.59,14.82-3.13-5.68,4.2-8.43,9.91-10.96,15.56-3.82,8.52-10.25,13.38-19.04,15.55-2.25.56-4.5.69-6.63-1.15Z"/>
    <path class="cls-1" d="m151.24,58.99c-5.07,3.58-7.25,8.84-9.98,13.76-3.82,6.89-7.74,13.84-16.31,15.91-.89.22-1.79.63-2.68.6-1.89-.07-4.57,1.15-5.44-.81-.78-1.76,2.2-2.02,3.28-3.25,2.98-3.37,5.09-7.28,7.17-11.18,2.11-3.96,4.62-7.62,7.59-10.89,4.3-4.74,9.97-5.25,16.38-4.16Z"/>
    <path class="cls-1" d="m124.48,457.04c-6.75-6.4-15.83-6.15-23.45-9.44-6.54-2.82-11.33-7.15-13.32-14.15-.19-.67-.09-1.61.27-2.19.33-.53,1.12-.25,1.58.23,4.18,4.28,9.96,4.43,15.22,5.95,3.84,1.11,7.51,2.66,11.17,4.31,6.81,3.08,7.45,9.25,8.54,15.29Z"/>
    <path class="cls-1" d="m238.77,52.1c-1.05,5.58-.43,10.41.66,15.45,1.92,8.8,3.96,17.9-2.18,26.14-.46.61-.83,1.54-1.43,1.74-1.85.61-2.81,3.94-4.82,2.58-1.57-1.06,1.31-2.34,1.44-3.92.49-5.76-1.56-11.17-2.2-16.76-1.3-11.34-1.1-19.21,8.53-25.23Z"/>
    <path class="cls-1" d="m368.52,347.4c7.05-.54,11.5-5.05,16.55-8.32,6.63-4.3,13.51-7.08,21.53-5.05,2.07.52,4.02,1.43,6.22,3.3-10.52,1.84-17.44,9.92-26.99,13.04-6.37,2.08-11.58.51-17.3-2.97Z"/>
    <path class="cls-1" d="m395.15,535.41c4.27-.86,5.89-4.01,7.43-6.97,3.88-7.47,8.68-13.2,18.26-12.09,2.69.31,3.99-2.04,5.16-4.07,1.94-3.35,3.57-6.9,5.74-10.08,3.05-4.47,7.11-7.32,13.65-6.05-4.57,4.3-6.52,9.91-9.92,14.6-3.16,4.35-7.15,7.35-12.94,6.62-3.01-.38-5.09,1.06-6.67,3.34-1.67,2.42-3.13,4.98-4.74,7.44-3.66,5.61-8.3,9.28-15.98,7.27Z"/>
    <path class="cls-1" d="m294.53,129.2c.22-6.75-4.08-11.26-7.26-16.25-2.17-3.41-3.92-6.97-5.37-10.76-2.32-6.06-.25-10.99,3.5-16.7-.07,6.99,3.63,11.32,6.88,15.76,4.35,5.93,7.18,12.16,6.35,19.78-.35,3.22-1.35,5.89-4.09,8.17Z"/>
    <path class="cls-1" d="m42.37,294.9c3.99-3.06,4.32-6.26,4.34-9.84.02-5.06.4-10.16,1.1-15.18.97-6.99,6.6-12.64,13.27-13.67-4.86,6.71-3.25,14.54-4.06,21.83-.93,8.31-5.71,15.06-14.65,16.85Z"/>
    <path class="cls-1" d="m359.44,660.57c-6.8,5.07-14.31,4.94-21.2.44-5.82-3.8-10.68-9.23-17.8-10.96-.48-.12-1.08-.83-1.15-1.32-.14-1.07.83-.96,1.56-1.14,4.7-1.16,9.45-1.85,14.07,0,1.58.63,3.35-.51,4.67.88,2.33,4.36,7.08,5.96,10.48,9.12,2.56,2.38,5.76,3.54,9.38,2.99v-.02Z"/>
    <path class="cls-1" d="m136.27,723.6c-7.6,4.55-11.65,11.21-17.53,15.84-6.3,4.96-12.71,6.46-19.53,2.4,4.45-.99,7.38-3.93,10.28-6.93,2.37-2.45,4.88-4.76,7.18-7.27,5.29-5.78,11.78-5.35,19.59-4.04Z"/>
    <path class="cls-1" d="m123.61,368.84c-6.77-4.52-14.04-3.86-20.86-5.14-6.86-1.29-12.52-4.03-15.16-11.02-.24-.64-1.08-1.29-.21-2.05.35-.3.69-.51,1.18-.1,5.64,4.71,12.73,2.5,19.05,3.98,9.68,2.26,14.02,3.94,16,14.33Z"/>
    <path class="cls-1" d="m181.38,214.94c5.03.81,7.55,4.49,9.18,8.69,2.32,6,2.04,12.41,1.93,18.73-.06,3.76.38,7.34,3.44,10.25-6.43.12-11.86-6.67-12.57-12.78-.18-1.54-.19-3.09-1.16-4.41.34-6.85,1.1-13.73-.82-20.49Z"/>
    <path class="cls-1" d="m84.32,527.82c-1.45-5.48-5.96-8.79-9.97-11.74-5.54-4.08-8.63-9.31-10.81-15.37-.98-2.73,1.05-5.36,1.16-8.12.01-.29.65-.72,1.05-.8.72-.15,1.12.36,1.18,1.05.52,5.95,5.79,8.15,9.2,11.85,2.96,3.21,7.1,5.34,8.51,10,1.93,6.39,2.08,6.34-.34,13.13Z"/>
    <path class="cls-1" d="m402.72,373.08c-.62,0-1.25.01-1.87.02-2.94-4.94-7.98-5.03-12.84-5.62-6.47-.78-13.02-1.08-18.56-5.42-2.55-2-3.47-4.96-5.48-7.22-.27-.3-.16-1.25.12-1.64.46-.63,1.08-.18,1.57.21,4.53,3.6,10.17,3.59,15.35,3.69,9.76.19,16.54,3.96,20.11,13.17.39.99,1.06,1.87,1.61,2.81Z"/>
    <path class="cls-1" d="m51.53,671.73c-5.73-1.97-10.57-.42-15.43.63-4.25.92-8.36.36-12.01-1.77-2.48-1.45-3.94-.95-4.99,1.28-1.74,3.7-5.03,6.2-7.13,9.6-.38.62-.85,1.41-1.8,1.08-.96-.33-.66-1.26-.72-1.97-.46-5.14,2.87-8.56,5.69-12.14,1.33-1.69,2.74-3.19,2.56-5.9,3.02,3.62,6.88,3.16,10.37,2.46,4.31-.86,8.61-.84,12.88-.64,4.51.22,7.98,2.52,10.58,7.37Z"/>
    <path class="cls-1" d="m151.97,473.2c-2.85-8-10.53-11.36-15.56-17.22-3.09-3.6-4.86-7.71-5.2-12.43-.11-1.59.19-3.41,1.72-3.89,1.34-.42,1.52,1.59,2.34,2.41,3.32,3.31,6.13,7.25,11.13,8.34.7.15,1.72.52,1.9,1.04,2.5,6.88,8,13.23,3.66,21.75Z"/>
    <path class="cls-1" d="m359.44,660.57s0,.02,0,.02c-1.39-5.12-11.26-11.75-18.06-12.15,3.11-3.04,12.66-3.99,17.61-1.77,5.25,2.35,9.38,6.28,13.86,9.73,2.47,1.9,5.03,3.49,8.31,3.28.06.27.08.54.06.81-5.86,3.23-11.77,3.77-17.82.45-1.19-.65-2.57-1.09-3.96-.37Z"/>
    <path class="cls-1" d="m299.5,575.02c-4.11-4.05-9.18-3.8-14.26-3.77-10.66.05-17.39-3.98-20.54-12.13-.37-.96-.57-1.99-1.07-3.78,5.33,5.94,12.02,4.64,18.03,5.65,7.66,1.28,14.9,3.04,18.16,11.31.28.71.69,1.4-.33,2.73Z"/>
    <path class="cls-1" d="m179.47,235.26c-4.99-.95-10.63-7.36-10.98-12.72-.38-6.02-.46-12.06-.88-18.08-.16-2.34-.91-4.63-1.53-7.59,7.06,2.68,10.06,7.59,10.87,14.2-.21.76-.17,1.45.51,1.97.82,7.09-1.34,14.51,2.38,21.27-.12.31-.24.63-.37.94Z"/>
    <path class="cls-1" d="m21.34,52.5c4.73,1.34,8.22,5.92,8.53,11.49.29,5.09.1,10.17-1.5,15.06-1.26,3.85-1.81,7.69-.55,11.77-6.16-2.45-9.68-11.52-7.67-19.2,2.8-10.7,3-13.94,1.19-19.13Z"/>
    <path class="cls-1" d="m358.17,118.25c5.51,4.03,10.89,4.59,16.11,5.85,6.89,1.65,13.4,4.18,16.16,11.69.57,1.56,1.45,3.1.68,5.03-3.56-4.08-8.57-4.69-13.31-5.95-5.09-1.35-10.24-2.63-14.28-6.28-2.67-2.41-4.2-5.56-5.37-10.34Z"/>
    <path class="cls-1" d="m72.17,70.79c5.34-4.95,5.26-11.83,7.03-17.97,1.87-6.48,4.9-11.86,11.57-14.37.55-.21,1.21-.17,1.83-.17.29,0,.58.18,1.03.33-3.6,4.95-3.9,10.9-5.21,16.55-2.43,10.52-7.19,15.12-16.26,15.63Z"/>
    <path class="cls-1" d="m142.54,92.22c8.14-2.56,12.05-8.84,17.73-12.92,4.51-3.25,12.45-5.84,18.37-2.08-6.38,2.87-10.61,8.14-15.64,12.43-5.66,4.83-12.12,5.93-20.46,2.57Z"/>
    <path class="cls-1" d="m34.57,86.59c2.53-7.75-.47-15.14-1.64-22.6-.94-5.99,2.26-13.52,7.99-16.33-1.42,4.18-.57,7.93.76,11.75,1.92,5.51,1.67,11.35,1.05,16.97-.52,4.71-3.47,8.4-8.22,10.16l.05.05Z"/>
    <path class="cls-1" d="m111.17,489.91c-.73-6.29-5.28-9.5-9.01-13.28-3.93-3.98-7.31-8.14-8.29-13.97-.51-3.05.2-5.55,1.31-8.58,2.87,6.92,8.49,10.96,13.27,15.63,4.46,4.35,5.5,12.29,2.72,20.21Z"/>
    <path class="cls-1" d="m405.33,55.14c-6.5-1.25-9.84-4.33-11.91-8.88-1.87-4.11-2.68-8.52-2.85-13.02-.16-4.07-.66-8.01-3.27-11.38,5.92-.17,11.66,6.06,12.56,13.58.4,3.35.52,6.77,1.34,10.01.77,3.05,1.16,6.27,4.12,9.68Z"/>
    <path class="cls-1" d="m109.42,371.88c1.19,4.67,4.93,6.64,8.57,8.55,4.45,2.33,8.53,4.89,11.08,9.49,1.88,3.39,2.66,6.78,1.67,11.17-6.63-7.67-17.79-9.72-21.46-20.03-1.05-2.95-2.6-5.97.13-9.18Z"/>
    <path class="cls-1" d="m462.14,365.67c-2.3,3.39-4.45,6.94-8.6,8.43,2.97-7.91-.27-15.86.11-23.82.26-5.58,2.48-9.65,6.7-12.9.31-.24.83-.21,1.29-.31-1.45,9.64,1.57,19.08.5,28.6Z"/>
    <path class="cls-1" d="m207.03,52.56c-7.05,2.21-9.13,8.34-12.75,12.93-4.66,5.91-11.78,8.44-18.63,5.87,5.45-1.99,8.76-6.24,11.46-10.57,4.64-7.44,10.95-9.89,19.91-8.23Z"/>
    <path class="cls-1" d="m411.67,311.38c-7.87-.14-12.52,4.28-17.55,7.99-2.99,2.21-12.77,3.01-16.77-1.77,5.59-.29,9.34-4.11,13.63-6.83,6.09-3.87,15.12-4.06,20.68.62Z"/>
    <path class="cls-1" d="m45.71,551.43c-.33,1.12.79,2.96-.89,3.57-1.3.47-1.99-1.18-2.83-2-4.06-3.99-8-8.09-12.14-11.99-1.79-1.68-1.51-3.91-2.26-5.86-.86-2.23-.97-4.61.86-5.96,1.71-1.26,2.05,1.54,3.29,2.24,6.18,3.53,9.21,9.89,13.21,15.38.97,1.34.74,2.96.76,4.63Z"/>
    <path class="cls-1" d="m64.27,70.2c2.77-8.26-1.31-15.2-1.05-22.54.19-5.48,2.61-9.07,7.26-12.72-1.78,8.74,2,16.28,1.39,24.26-.39,5.1-2.91,7.99-7.6,11Z"/>
    <path class="cls-1" d="m183.41,177.82c4.69-3.67,5.6-9.02,8.04-13.48,1.4-2.55,2.69-5.2,4.69-7.29,2.52-2.63,5.6-4.24,9.8-3.2-3.09,5.14-5.62,10.52-8.03,15.95-1.79,4.03-5.27,6.29-8.94,8.3-1.77.97-3.45.7-5.56-.29Z"/>
    <path class="cls-1" d="m156.19,185.82c4.61-1.66,6.98-5.31,9.8-8.52,3.71-4.22,7.03-8.88,13.53-9.5,2.22-.21,3.76,1.42,6.11.41-4.42,3.89-8.08,7.7-11.05,12.12-3.89,5.79-11.59,8.17-18.38,5.48Z"/>
    <path class="cls-1" d="m206.2,300.98c-4.23-5.47-10.61-7.54-15.51-11.63-3.63-3.03-5.72-6.71-5.51-11.48.07-1.69,1.05-2.96,2.54-1.1,3.97,4.99,10.01,7.01,14.87,10.71,3.3,2.52,5.22,8.89,3.61,13.5Z"/>
    <path class="cls-1" d="m436.25,326.72c-5.42-3.92-10.19-1.07-14.88-.54-6.52.74-12.56.74-17.08-4.96-.41-.52-1.49-.88-.9-1.77.29-.44,1.14-.92,1.58-.8,6.84,1.84,13.52-1.25,20.36-.53,5.8.62,9.08,2.57,10.92,8.6Z"/>
    <path class="cls-1" d="m445.89,304.98c-6.77-.06-11.04,4.68-16.13,7.63-5.93,3.45-11.43,3.51-17.35-.47,5.96-1.21,10.31-4.85,14.98-7.87,6.07-3.93,13.07-3.82,18.5.71Z"/>
    <path class="cls-1" d="m111.07,322.53c6.34,2.4,11.14-.14,16.14-1.12,6.4-1.26,14.84-.25,17.91,7.51-6.2-3.16-11.76-.13-17.38.95-6.84,1.31-11.45-.17-16.67-7.34Z"/>
    <path class="cls-1" d="m138.52,731.57c-2.3,5.61-2.22,11.18-2.59,16.64-.47,6.98-4.25,11.71-12.07,13.69,5.99-5.94,2.83-13.32,4.52-19.81,1.29-4.95,4.74-9.78,10.14-10.51Z"/>
    <path class="cls-1" d="m39.71,3.08c5.1,3.77,10.5,6.6,15.54,9.98,5.25,3.53,6.73,8.78,6,16.23-4.21-7.59-12.02-9.03-17.05-14.24-3.24-3.36-4.96-7.11-4.49-11.97Z"/>
    <path class="cls-1" d="m124.14,337.52c-5.28-.14-8.65,2.08-11.92,5.14-5.53,5.18-14.57,5.82-20.8,1.66,6.07-1.76,10.36-6.05,15.56-8.8,5.24-2.78,13.27-2.08,17.15,2Z"/>
    <path class="cls-1" d="m125.7,157.3c-5.51-4.41-11.74-4.55-17.29-6.59-6.05-2.23-9.26-6.34-10.56-13.34,5.75,4.18,12.04,4.93,17.82,7.12,5.51,2.09,9.3,5.64,10.03,12.81Z"/>
    <path class="cls-1" d="m157.75,364.12c-2.58-3.73-4.98-6.83-8.84-8.95-6.25-3.44-9.69-13.82-6.6-19.45,3.19,5.41,8.46,8.49,12.32,12.98,3.83,4.45,6.12,9.32,3.12,15.41Z"/>
    <path class="cls-1" d="m218.63,744.99c-3.16-6.69-10.68-9.11-14.25-15.42-2.33-4.13-3.16-8.05-1.54-12.78,2.97,5.42,8.45,7.89,12.51,11.82,4.26,4.14,5.25,10.06,3.28,16.38Z"/>
    <path class="cls-1" d="m337.86,703.05c2.62,5.81,8.4,7.06,12.8,10.15,5.39,3.78,10.56,7.68,8.97,15.82-3.81-3.34-7.74-6.08-12.15-8.11-7.44-3.42-11.18-8.98-9.62-17.86Z"/>
    <path class="cls-1" d="m205,111.89c-4.14,3.6-4.52,8.98-6.83,13.42-3.68,7.1-10.29,12.16-16.55,10.22,4.88-2.88,6.69-7.81,8.26-12.75,2.23-6.97,7.94-11.33,15.12-10.89Z"/>
    <path class="cls-1" d="m128.11,30.56c-9.07,2.4-12.23,10.71-19.34,14.29-4.27,2.15-8.07,2.24-12.7-.34,6.47-2.51,10.58-7.31,15.09-11.72,4.46-4.36,9.91-4.81,16.95-2.24Z"/>
    <path class="cls-1" d="m188,301.16c-7.05-1.56-12.56.12-17.97,1.5-6.32,1.61-10.96-.51-15.14-4.92-.9-.95-1.34-1.91-.33-2.68,1.28-.98.9.94,1.61,1.26,1.67.73,3.26.49,4.94.11,4.92-1.14,9.81-2.57,14.93-2.39,4.68.16,8.43,2.05,11.96,7.13Z"/>
    <path class="cls-1" d="m145.2,561.82c-8.28,1.79-14.97,7.58-23.7,6.61-1.2-.13-2.42.09-3.58-.62-1.8-1.1-5.02-1.63-4.77-3.73.29-2.49,3.31-.7,5.05-1.2,5.41-1.55,10.4-4.53,16.19-4.83,3.87-.2,7.63-.13,10.81,3.77Z"/>
    <path class="cls-1" d="m71.98,230.09c-2.25-6.18-6.96-8.67-11.08-11.72-4.49-3.32-6.6-7.95-7.72-13.19-.3-1.41.32-2.63,1.66-3.81,2.35,4.49,6.75,6.6,10.46,9.5,5.94,4.65,8.93,10.38,6.68,19.22Z"/>
    <path class="cls-1" d="m436.12,125.65c.93,0,1.86,0,2.79,0,.37.23,1.65.08.91.81-3.45,3.38-4.74,7.86-6.56,12.08-2.57,5.96-6.36,10.53-13.11,11.9-1.11.22-2.08.56-3.17-.81,3.45-2.23,5.02-5.75,6.52-9.42,2-4.88,4.38-9.59,8.89-12.76,1.21-.68,2.84-.48,3.73-1.8Z"/>
    <path class="cls-1" d="m45.57,199.31c-.23,7.48,1.54,14.43,1.18,21.56-.17,3.28-1.46,5.92-2.88,8.63-.77,1.47-2.3,2.45-3.77,1.9-1.84-.69.02-2.07.06-3.14.17-5.1-1.13-10.06-1.3-15.09-.2-5.62.07-11.25,6.72-13.87Z"/>
    <path class="cls-1" d="m429.62,788.99c-4.96-5.09-6.25-14.43-2.86-19.81,2.48-3.93,4.11-8.09,5.14-12.62,3.95,2.47,5.4,7.06,3.75,12.58-1.14,3.81-2.62,7.54-4.22,11.19-1.12,2.56-2.16,5.07-1.81,8.66Z"/>
    <path class="cls-1" d="m401.83,399.05c5.21.73,8.87-2.01,12.99-3.07,5.71-1.47,11.39-2.91,17.03.22,1.33.74,2.79,1.34,3.09,3.46-7.16-1.32-12.74,3.33-19.2,4.65-5.21,1.06-9.95-.31-13.9-5.27Z"/>
    <path class="cls-1" d="m175.8,724.96c-3.31,5.09-2.67,10.36-2.76,15.54-.14,7.88-4.03,12.9-11.75,14.84,3.14-4.39,3.28-9.09,3.48-13.92.3-7.19,3.52-16.25,11.03-16.46Z"/>
    <path class="cls-1" d="m59.72,193.28c6.82,4.68,14.78,3.85,21.38,7.65,3.47,2,4.17,5.01,5.39,8.02.32.78.12,2.87-1.41,1.84-5.92-4.01-13.57-3.22-19.44-7.62-3.36-2.52-5.05-5.31-5.92-9.89Z"/>
    <path class="cls-1" d="m284.52,613.96c3.72-2.07,5.13-5.14,6.63-8.2,2.09-4.27,3.81-8.77,7.59-12,2.71-2.32,5.61-3.63,9.64-2.62-5.04,4.73-6.06,11.45-9.65,16.78-3.21,4.78-8.62,7.38-14.21,6.03Z"/>
    <path class="cls-1" d="m307.14,661.15c-6.37,2.41-9.74,8.23-14.58,12.33-4.89,4.15-10.25,5.97-16.8,2.46,6.21-.96,9.52-5.64,12.67-9.61,5.25-6.62,11.68-6.11,18.71-5.17Z"/>
    <path class="cls-1" d="m331.97,274.95c-3.38,5.44-2.85,11.44-3.59,17.14-.85,6.56-4.89,11.47-10.57,11.84,2.92-4.91,2.79-10.44,3.12-15.83.33-5.44,2.67-9.58,6.98-12.76,1.11-.82,2.22-.9,4.07-.39Z"/>
    <path class="cls-1" d="m397.25,717.02c3.2,9.86,12.3,16.9,10.06,28.1-.27,1.36-.54,2.65-1.95,3.61-3.22-6.81-8.01-12.61-10.41-19.77-1.47-4.37-.35-7.91,2.31-11.93Z"/>
    <path class="cls-1" d="m373.9,316.14c-5.02-.22-8.31,2.72-11.92,5-6.18,3.9-12.55,6.82-20.22,2.3,4.61-1.82,8.42-4.39,12.1-7.13,4.76-3.54,10.12-4.27,15.75-3.54,1.57.2,3.33.73,4.29,3.37Z"/>
    <path class="cls-1" d="m391.01,693.7c1.57-7.38-1.59-13.09-2.83-19.13-1.21-5.85.64-10.95,5.88-13.75-.09,7.53,3.5,14.28,3.17,21.83-.21,4.7-2.22,7.66-6.22,11.04Z"/>
    <path class="cls-1" d="m273.57,630.21c4.54-.69,8.3-2.43,12.03-4.13,4.87-2.21,9.93-1.91,14.99-1.67,1.15.05,2.31.81,3.36,1.43.73.42,1.77.93,1.38,2.06-.27.8-1.1,1.06-1.92,1.01-4.59-.3-8.24,2.36-12.03,4.18-5.51,2.65-12.57,2-17.82-2.88Z"/>
    <path class="cls-1" d="m384.19,686.12c3.33,9.81,11.68,17.13,9.04,28.02-.37,1.54-.81,3.31-3.17,3.95-.31-6.53-4.97-10.98-7.36-16.51-2.26-5.23-2.18-9.97,1.49-15.46Z"/>
    <path class="cls-1" d="m445.88,744.72c.94,6.53,4.82,10.63,6.95,15.55,2.41,5.56,3.13,11.05-.85,17.7-1.77-7.52-6.4-12.29-8.51-18.3-1.74-4.96-1.69-9.81,2.4-14.95Z"/>
    <path class="cls-1" d="m47.99,81.79c.95,8.14,5.36,15.04,4.25,22.99-.21,1.51.06,3.05-.76,4.5-.99,1.76-2.01,4.08-4.07,3.77-1.58-.24-.58-2.66-.78-4.09-.86-6.19-4.27-11.85-3.72-18.35.3-3.57,1.52-6.46,5.08-8.82Z"/>
    <path class="cls-1" d="m371.04,649.69c8.2-.57,14.9-4.83,22.77-4.19,4.6.37,7.94,1.76,11.09,6.36-7.28-2.11-13.18.95-19.21,2.52-5.9,1.53-10.11-.16-14.65-4.69Z"/>
    <path class="cls-1" d="m440.07,776.31c4.82,3.6,6.01,7.76,5.16,12.33-.86,4.64-2.09,9.27-3.8,13.65-.88,2.25,0,4.41-.52,6.72-5.32-4.77-6.37-9.07-4.95-15.48,1.22-5.5,3.94-10.58,4.11-17.22Z"/>
    <path class="cls-1" d="m30.28,93.02c4.66,1.8,6.77,5.03,6.99,9.27.27,5.21.47,10.47-1.24,15.56-.29.86-.36,1.79-.54,2.69-.33,1.58.92,4.13-.78,4.59-2.33.63-3.09-2.26-3.88-3.83-1.95-3.88-2.46-8.08-1.41-12.44,1.21-5.08,2.69-10.17.87-15.83Z"/>
    <path class="cls-1" d="m55.34,55.38c-.92,2.97-.04,5.44.94,8.09,1.68,4.57,3.65,9.07,3.45,14.2-.17,4.48-1.54,8.05-5.9,10.94,1.01-6.1-2.17-10.98-3.01-16.37-.97-6.24-1.5-12.4,4.52-16.86Z"/>
    <path class="cls-1" d="m238.6,28.3c1.27,3.69,3.04,6.67,5.4,9.37,4.18,4.76,6.19,10.29,5.26,16.7-.29,1.98-.72,3.92-3.33,5.32.4-6.39-4.4-9.9-7.06-14.5-2.58-4.45-2.74-9.02-2.6-13.81.04-1.42.99-2.19,2.32-3.07Z"/>
    <path class="cls-1" d="m116.61,132.28c-6.48-2.27-11.9-.38-17.26.23-6.48.74-12.22-1.31-15.37-6.88-.13-.22.02-.6.05-1.26,3.45,1.71,6.9,1.1,10.5.81,7.32-.59,15.22-2.66,20.84,4.69.34.45.53,1.01,1.24,2.41Z"/>
    <path class="cls-1" d="m250.74,468.74c-3.39-4.78-7.64-6.53-11.64-8.67-6.91-3.69-9.88-9.22-8.92-16.91,3.49,5.13,9.32,6.5,13.71,9.98,4.7,3.72,7.93,7.99,6.84,15.6Z"/>
    <path class="cls-1" d="m244.24,134.1c-.76-5.13-4.22-8.49-6.77-12.38-2.76-4.21-4.54-8.67-4.07-13.87.16-1.81.64-3.2,2.16-4.49,2.49,5.93,7.21,10.17,9.8,15.74,2.39,5.15,3.6,9.53-1.12,15Z"/>
    <path class="cls-1" d="m358.86,82.73c3.8.89,6.88-.77,9.99-2.63,5.15-3.08,10.2-6.49,16.72-5.67,1.39.18,2.75.26,4,.95.8.44,1.8.8,1.62,1.95-.17,1.03-1.15.86-1.86.85-2.17-.04-3.74,1.25-5.46,2.26-3.06,1.79-6.1,3.62-9.26,5.22-5.93,2.99-11.23,1.93-15.8-2.86l.06-.06Z"/>
    <path class="cls-1" d="m147.75,197.59c-.24-.27-.49-.54-.73-.81-2.31-4.14-5.82-8.1-1.88-13.68.93,5.44,5.32,7.15,8.74,9.73,5.54,4.19,10.28,8.82,9.83,16.54-.03.56.1,1.28-1.09,1.62-3.21-6.27-10.85-7.77-14.88-13.41Z"/>
    <path class="cls-1" d="m318.81,120.65c2.96,3.6,6.5,6.31,10.29,8.66,6.68,4.13,10.15,9.69,8.06,18-2.93-5.37-8.57-7.66-12.75-11.61-4.3-4.05-7.1-8.68-5.6-15.06Z"/>
    <path class="cls-1" d="m233.53,171.86c-2.1,5.61-.4,10.38.48,15.1,1.36,7.26-.28,13-7.33,17.84,1.88-7.71-1.33-14.42-.64-21.39.47-4.77,2.33-8.7,7.49-11.55Z"/>
    <path class="cls-1" d="m397.02,352.9c5.16,2.68,9.33,2.49,13.89,1.8,7.13-1.09,13.85.43,18.23,7.17.37.57,1.47.77.88,1.75-.31.5-.8.9-1.53.46-6.04-3.56-12.71-1.43-19.08-2.02-5.54-.52-9.63-2.84-12.39-9.16Z"/>
    <path class="cls-1" d="m385.91,490.11c-2.55-6.62-7.32-9.8-10.95-13.93-4.95-5.63-6.14-10.71-3.42-16.02,2.49,4.93,6.74,8.11,10.42,11.79,4.82,4.81,6.01,10.39,3.95,18.16Z"/>
    <path class="cls-1" d="m449.77,447.7c1.12-3.8-.69-6.89-2.35-10.07-2.49-4.78-5.4-9.42-4.91-15.2.23-2.69.79-5.14,3.24-7.24,1.77,5.55,5.01,10.22,6.84,15.47,2.1,6.01,2.66,12.13-2.68,17.14l-.14-.08Z"/>
    <path class="cls-1" d="m201.54,149.93c2.28-4.36.21-7.68-.03-11.11-.48-6.8-2.62-13.93,3.5-19.54.42-.38.97-.61,2.38-1.49-1.97,5.94.21,10.56,1.46,15.34,1.74,6.67-1.09,13.71-7.31,16.8Z"/>
    <path class="cls-1" d="m273.16,44.29c0,3.84,1.64,7.45,1.38,11.38-.2,3.09-1.26,5.67-3.1,8.01-.42.53-1.24,1.1-1.84,1.06-1.01-.06-.87-1.17-.78-1.84.66-4.81-1.4-9.09-2.82-13.4-2.14-6.49.08-11.33,4.76-15.55-.16,3.68-.81,7.46,2.4,10.35Z"/>
    <path class="cls-1" d="m17.34,277.61c-.83-5.31-3.42-8.97-5.64-12.81-3.15-5.45-5-10.96-.27-16.62,3.42,9.29,13.04,17.22,5.9,29.43Z"/>
    <path class="cls-1" d="m17.53,179.84c-3.62,7.1-1.12,16.43-8.44,22-1.11.84-2.46,2.17-3.59,1.57-1.71-.91.01-2.41.21-3.65.62-3.76,1.17-7.54,2.02-11.25.95-4.11,2.63-7.89,6.94-9.56.95-.37,2.46-.94,2.86.9Z"/>
    <path class="cls-1" d="m154.37,342.52c5.33,1.51,10.11.61,14.85.8,6.01.25,10.57,2.62,13.4,9.19-6.12-3.08-12.08-2.06-17.79-2.33-5.37-.25-8.12-2.64-10.46-7.67Z"/>
    <path class="cls-1" d="m348.8,580.88c2.82-5.22,1.52-10.18,2.7-14.79,1.38-5.41,3.57-9.77,9.72-11.42-3.59,5.36-1.42,11.63-3.29,17.23-1.41,4.23-3.28,7.88-9.13,8.98Z"/>
    <path class="cls-1" d="m383.49,542.67c2.59-5.86.72-11.22,2.49-16.27,1.32-3.76,2.99-7.08,6.41-9.25.59-.37,1.54-.69,2.11-.47.85.32.66,1.29.26,1.97-2.43,4.17-1.32,8.94-2.26,13.38-1.02,4.8-2.94,8.61-9.02,10.64Z"/>
    <path class="cls-1" d="m246.17,76.65c4.33-4.91,3.99-10.35,5.73-15.09,1.31-3.57,2.78-6.9,6.42-8.68.8-.39,1.61-.99,2.92-.05-3.63,8.3-.84,20.32-15.07,23.82Z"/>
    <path class="cls-1" d="m85.71,67.59c5.08-2.05,7.12-5.9,9.34-9.53,3.21-5.23,7.53-7.92,14.32-6.53-5.58,3.84-6.4,11.2-12.23,14.53-3.2,1.82-6.65,2.38-11.42,1.53Z"/>
    <path class="cls-1" d="m129.32,527.38c-1.59,1.76-3.23,3.04-5.55,1.03-2.48-2.14-5.75-1.94-8.67-2.64-6.32-1.51-8.76-3.86-9.68-10.32,0,0,.34,0,.34,0h.34c2.57,1.36,5.11,2.59,8.11,3.03,5.56.82,10.09,3.93,14.33,7.47.26.47.53.95.79,1.42Z"/>
    <path class="cls-1" d="m143,495.54c-4.32-3.42-9.45-3.3-13.96-4.95-5.74-2.1-7.69-4.12-8.14-10.35,3.98,2.88,8.45,3.53,12.8,4.65,5.79,1.49,9.07,5.31,9.31,10.64Z"/>
    <path class="cls-1" d="m196.33,108.58c3.6-3.28,2.67-7.22,2.74-10.97.08-4.67.59-9.18,4.6-12.41.84-.68,1.59-1.7,2.79-1.19,1.74.73.3,1.89.07,2.68-1.18,4.07-.83,8.23-.95,12.37-.15,5.15-3.46,8.72-9.24,9.52Z"/>
    <path class="cls-1" d="m373.69,91.24c5.08-4.78,10.82-3.24,16.4-1.45,3.62,1.17,6.67,4.04,11,3.37-2.95,4.16-8.51,5.09-14.48,2.51-4.09-1.76-8.02-4.05-12.73-3.62-.03-.28-.09-.56-.19-.83Z"/>
    <path class="cls-1" d="m47.37,246.71c-2.83,4.91-1.32,9.76-1.64,14.44-.33,4.68-1.7,8.6-7.27,10.65,2.4-5.55.27-10.66.7-15.77.45-5.29,2.91-8.71,8.22-9.33Z"/>
    <path class="cls-1" d="m79.42,272.22c-5.69,3.46-5.91,10.2-10.91,13.42-.9.58-1.63,1.55-2.6,1.84-2.06.62-4.44,3.27-6.17,1.13-1.63-2.02,1.89-2.79,2.75-4.38,1.31-2.41,2.92-4.65,4.32-7.01,2.61-4.39,6.26-6.5,12.6-5Z"/>
    <path class="cls-1" d="m436.14,140.52c3.91-5.31,9.48-5.21,15.06-4.3,3.72.61,7.32,1.91,11.38,1.66-3.2,4.55-7.68,6.28-12.47,5.11-4.31-1.05-8.46-2.99-13.07-2.27-.29-.09-.59-.16-.9-.19Z"/>
    <path class="cls-1" d="m147.84,333.08c-.12-.22-.15-.45-.09-.7.12-.13.24-.26.35-.4,7.38.05,14.75.11,22.13.16.29.31.58.62.87.93,1.29,4.17-.68,4.8-4.41,4.82-4.08.02-8.15,1.01-12.23,1.58-.31-.89.65-3.01-1.79-1.86-.89.15-1.54-.13-1.88-1.01-.29-1.76-1.44-2.79-2.95-3.52Z"/>
    <path class="cls-1" d="m100.12,290.09c-4.59-.2-8.75,1.21-13.03,1.95-4.8.84-9.02-.61-12.85-5.8,9.3,1.82,18.51-5.37,25.88,3.84Z"/>
    <path class="cls-1" d="m428.14,210.54c-3.33,3.06-4.79,6.83-6.95,10.12-1.86,2.82-4.49,4.53-7.42,5.95-1.07.52-2.1.67-2.91-.31-.89-1.07.34-1.53.78-2.23,1.55-2.44,3.2-4.83,4.59-7.36,2.53-4.6,5.98-7.31,11.91-6.17Z"/>
    <path class="cls-1" d="m424.48,81.01s-.05-.02-.05-.02c-2.19-5.41-1.81-11.5-4.44-16.8,0,0,.04-.28.04-.28,5.3.92,7.28,4.87,8.23,9.46.68,3.28.96,6.65,2.24,10.18-2.88.4-4.12-1.89-6.03-2.54Z"/>
    <path class="cls-1" d="m440.63,99.6c6.09.31,7.02,4.43,8.08,8.15,1.03,3.61.81,7.51,2.82,11.34-4.77-.85-6.44-4.02-7.98-7.67-1.53-3.62-.01-7.77-2.92-11.83Z"/>
    <path class="cls-1" d="m417.94,64.07c-.57,2.65-1.8,3.58-4.06,1.5-3.25-2.98-4.56-6.83-4.69-11.1-.07-2.27.2-4.55-1.56-6.53,4.32.03,6.95,2.74,7.81,7.96.27,1.66.21,3.38.24,5.07.03,1.53.21,2.85,2.26,2.54.05.19.05.37,0,.56Z"/>
    <path class="cls-1" d="m423.12,126.86c.3,10.72-11.91,9.28-14.7,16.58-1.74-6.81.14-8.94,14.7-16.58Z"/>
    <path class="cls-1" d="m79.83,20.37c-6.93-2.07-15.43,1.03-20.01-7.37,7.74-1.82,18.18,1.9,20.01,7.37Z"/>
    <path class="cls-1" d="m41.81,28.3c5.52,5.16,16.64,3.49,16.88,14.99-5.32-5.67-16.63-3.78-16.88-14.99Z"/>
    <path class="cls-1" d="m53.59,28.3c-7.78-2.93-16.92.5-20.9-10.02,6.68,4.44,16.31-.41,20.9,10.02Z"/>
    <path class="cls-1" d="m437.74,100.74c-8.61-5.31-3.89-13.34-4.74-21.08,8.52,6.03,3.33,14.27,4.74,21.08Z"/>
    <path class="cls-1" d="m6.66,46.98c3.11,6.02,13.66,7.87,9.81,18.29-3.36-6.43-12.65-8.84-9.81-18.29Z"/>
    <path class="cls-1" d="m414.16,347.21c-1.15-.19-2.14-.16-2.93-.55-.92-.45-2.41-.6-2.5-1.79-.1-1.35,1.44-1.15,2.28-1.67,4.56-2.79,9.53-3.79,14.78-4.1,1.3-.08,2.29.09,2.57,1.15.35,1.3-1.07,1.19-1.85,1.47-4.3,1.54-7.96,4.6-12.36,5.48Z"/>
    <path class="cls-1" d="m445.44,347.09c1.34-3.75,1.03-7.66.8-11.48-.23-4,1.81-6.14,5.5-8.45-1.01,4.44-.64,8.2-.77,11.95-.13,3.81-1.41,6.92-5.58,7.92l.05.05Z"/>
    <path class="cls-1" d="m24.38,267.9c0-4.16,0-7.86,0-11.56,0-1.39.04-2.73.87-3.98.7-1.07,1.26-2.29,2.8-1.8,1.43.46.9,1.82.87,2.79-.16,5.17,1.57,10.97-4.54,14.56Z"/>
    <path class="cls-1" d="m31.07,54.57c-2.95-6.17-8.75-10.46-5.46-18.81,2.03,6.7,9.48,10.35,5.46,18.81Z"/>
    <path class="cls-1" d="m273.16,44.29c-3.21-2.89-2.55-6.67-2.4-10.35.05-1.04.77-1.24,1.61-1.29,1.64,1.13,2.03,2.79,2.01,4.65-.02,1.34-.21,2.81,1.85,2.77.19,2.29-2.39,2.56-3.06,4.22Z"/>
    <path class="cls-1" d="m187.18,682.89c-.97,0-1.93,0-2.9.01-1.9-1.38-.72-2.86.21-3.84,1.59-1.67,2.16.02,2.75,1.21.42-.36.84-.73,1.25-1.09.78.38,1.56.76,2.34,1.14-.66.59-1.33,1.17-1.99,1.75-.56.27-1.12.54-1.67.81Z"/>
    <path class="cls-1" d="m27.19,334.19c.03.46.05.93.08,1.39-1.97-.5-3.86,2.67-5.88.15-.97-1.28-2.38-.53-3.58-.76-.03-.27-.07-.54-.13-.8.71-.19,1.54-.18,1.92-1.01,2.08,1.13,4.34.73,6.55.8.35.08.7.15,1.04.23Z"/>
    <path class="cls-1" d="m453.81,742.34c3.22.66,3.12,3.77,4.73,5.71-1.87,1.3-2.32-.57-3.32-.86-.81-1.52-1.68-3.02-1.41-4.84Z"/>
    <path class="cls-1" d="m394.37,509.07c0,.53,0,1.06,0,1.59-3.55.25-6.92-.64-10.29-1.59,0-.36-.01-.72-.02-1.08,3.34,1.3,6.86.86,10.31,1.08Z"/>
    <path class="cls-1" d="m450.02,590.71c.01.89.02,1.78.04,2.67-1.64,0-3.28,0-5.07,0,.95-2.68,3.06-2.54,5.03-2.67Z"/>
    <path class="cls-1" d="m446.3,461.43c-.01-.56-.03-1.12-.04-1.68,2.52-.03,5.03-.06,7.55-.09.04.5.08,1,.12,1.5-2.54.09-5.08.17-7.63.26Z"/>
    <path class="cls-1" d="m304.19,336.95c.03.46.06.91.1,1.37-1.93.78-3.84,1.97-5.85.18.03-.28.05-.56.07-.84.28-.24.57-.48.85-.71,1.61,0,3.22,0,4.83,0Z"/>
    <path class="cls-1" d="m295.1,187.97c-.16-.83-.31-1.67-.47-2.5.86-1.06,2.23-2.61,3.09-1.03.67,1.24-.9,2.93-2.62,3.53Z"/>
    <path class="cls-1" d="m457.92,177.74c-.45-.68-.9-1.37-1.35-2.05.96-3.01,2.56-.35,3.85-.43,0,1.67-1.18,2.15-2.5,2.48Z"/>
    <path class="cls-1" d="m171.1,333.07c-.29-.31-.58-.62-.87-.93-.33-.91-.67-1.81-1-2.72,2.11.1,3.29,1.29,3.81,3.25-.65.13-1.29.27-1.94.4Z"/>
    <path class="cls-1" d="m129.32,527.38c-.26-.47-.53-.95-.79-1.42.31-.4.62-.79.93-1.19,1.9.63,3.34,1.48,1.7,3.73-.61-.37-1.22-.74-1.83-1.12Z"/>
    <path class="cls-1" d="m307.79,636.56c-.62.59-1.24,1.17-1.86,1.76-1.64-.2-3.23-.53-4.7-1.76h6.56Z"/>
    <path class="cls-1" d="m451.87,787.2c-.59,0-1.18,0-1.77,0,0-1.75-.39-3.62,1.77-5.11v5.11Z"/>
    <path class="cls-1" d="m249.42,261.47c2.15.27,1.55,2.17,2.04,3.44-.03.79-.24,1.71-1.01,1.81-.99.14-1.3-.68-.74-1.44,1.04-1.41-.84-2.51-.29-3.82Z"/>
    <path class="cls-1" d="m381.22,660.48c.02-.27,0-.54-.06-.81.99.08,2.21-.34,2.66,1.01.19.57.1,1.28-.68,1.36-1.08.1-1.5-.77-1.92-1.56Z"/>
    <path class="cls-1" d="m183.28,310.85c-.3.69-.6,1.37-.9,2.06-.63.46-1.58,1.95-1.97.74-.63-1.95,1.04-2.72,2.87-2.8Z"/>
    <path class="cls-1" d="m27.19,334.19c-.35-.08-.7-.15-1.04-.23-.34-.93-1.43-1.9.11-2.76.6.03,1.2.07,1.8.1,0,.84,0,1.68-.01,2.52-.28.12-.57.24-.85.37Z"/>
    <path class="cls-1" d="m147.84,333.08c1.51.73,2.66,1.76,2.95,3.52-2.78.34-2.78-1.66-2.95-3.52Z"/>
    <path class="cls-1" d="m136.79,618.7c.3.04.6.05.88.13,1.12.33,1.83,1.04,1.74,2.26-.03.32-.51.89-.73.87-1.32-.13-.74-1.85-1.79-2.27-.03-.33-.06-.66-.1-.99Z"/>
    <path class="cls-1" d="m68.1,403.78c1.69.14,2.6,1.05,2.72,2.75-1.84,0-2.78-.88-2.72-2.75Z"/>
    <path class="cls-1" d="m140.56,332.88c.07-1.24.84-1.82,1.97-1.89.2-.01.65.59.61.85-.21,1.46-1.38,1.2-2.37,1.21l-.21-.16Z"/>
    <path class="cls-1" d="m436.12,125.65c-.89,1.33-2.53,1.12-3.73,1.8,0-.93,0-1.86,0-2.79,1.24.33,2.49.66,3.73.99Z"/>
    <path class="cls-1" d="m215.84,690.28c1.12.63,1.93,1.43,1.64,2.93-2.25,0-1.42-1.76-1.74-2.83l.1-.1Z"/>
    <path class="cls-1" d="m338.48,388.93c-.5.29-1,.57-1.51.86-.42-.72-1.81-1.46-.77-2.25,1.27-.97,1.74.53,2.28,1.39Z"/>
    <path class="cls-1" d="m403.51,192.65c-.29-.03-.58-.05-.87-.07.15-.95.39-1.86,1.63-1.61.3.06.5.59.74.9-.5.26-1,.52-1.51.78Z"/>
    <path class="cls-1" d="m356.42,194.4c-.4.2-.76.53-1.13.54-.81.04-.93-.62-.76-1.19.09-.29.57-.47.87-.7.24.31.47.63,1.01,1.35Z"/>
    <path class="cls-1" d="m189.4,559.19c-.98.26-1.96.51-2.95.77.48-1.12,1.02-2.38,2.37-2.42,1.02-.03.94.89.58,1.65Z"/>
    <path class="cls-1" d="m152.67,337.6c2.44-1.15,1.47.97,1.79,1.86-1.06-.18-1.43-1.01-1.79-1.86Z"/>
    <path class="cls-1" d="m187.18,682.89c.56-.27,1.12-.54,1.67-.81.01,1.28.02,2.55-1.74,2.67.02-.62.04-1.24.06-1.86Z"/>
    <path class="cls-1" d="m254.09,45.54c.26,0,.51.06.75.15,0,1.33-.67,2.22-1.82,2.8l-.1-.09c.08-1.08-.04-2.24,1.16-2.86Z"/>
    <path class="cls-1" d="m221.26,559.01c.77-.29.95.17.9.59-.04.37-.28.85-.58,1.01-.48.26-.86-.14-.81-.62.04-.37.35-.72.49-.98Z"/>
    <path class="cls-1" d="m341.47,668.99c.76-.03,1.57-.18,2.11.52.12.16.01.74-.11.79-1.15.44-1.63-.37-2.07-1.21,0,0,.07-.1.07-.1Z"/>
    <path class="cls-1" d="m304.22,336.06c-.65-.25-1.56-.18-1.52-1.25,0-.11.19-.3.3-.31,1.06-.06,1.01.85,1.27,1.5,0,0-.06.06-.06.06Z"/>
    <path class="cls-1" d="m443.38,384.34c0,.59,0,1.19,0,1.78-1.15-.06-1.67-.71-1.71-1.82.57.01,1.14.03,1.71.04Z"/>
    <path class="cls-1" d="m436.14,140.52c.31.04.6.1.9.19-.15.7-.26,1.69-1.26,1.14-.68-.37-.17-.99.36-1.33Z"/>
    <path class="cls-1" d="m11.34,455.55c.07-1.1.79-1.48,1.77-1.57l.11.11c-.08.94-.42,1.67-1.49,1.77,0,0-.3-.04-.3-.04l-.09-.28Z"/>
    <path class="cls-1" d="m459.94,644.66c.44.03.88.06,1.31.09-.54.81-.95,2.17-2.16,1.5-.59-.33.4-1.11.84-1.59Z"/>
    <path class="cls-1" d="m244.57,194.45c.16-.66.17-1.45,1.18-1.37.11,0,.28.18.29.29.09,1-.71,1.02-1.37,1.18l-.1-.1Z"/>
    <path class="cls-1" d="m239.15,650.22c-.2.67-.15,1.55-1.21,1.52-.11,0-.3-.2-.3-.3-.03-1.06.85-1.01,1.52-1.2,0,0,0,0,0,0Z"/>
    <path class="cls-1" d="m25.96,119.7c-.24,0-.45-.05-.66-.17-.1-.85-.21-1.71-.32-2.64,1.91.5.88,1.83.98,2.81Z"/>
    <path class="cls-1" d="m373.69,91.24c.1.27.17.54.19.83-.34.54-.96,1.12-1.34.44-.59-1.03.45-1.11,1.15-1.27Z"/>
    <path class="cls-1" d="m178.52,213.06c-.35,0-.71-.01-1.06-.02-.68-.53-.71-1.22-.51-1.97,1.02.27,1.65.85,1.57,1.99Z"/>
    <path class="cls-1" d="m260.45,285.8c.29.54.58,1.07.87,1.61-.96.07-2.02-.03-2.21-1.07-.13-.71.78-.58,1.34-.54Z"/>
    <path class="cls-1" d="m310.73,772.14c.26.04.53.05.79.04,0,1.26-.01,2.52-.02,3.77,0,0-.42-.04-.42-.04,0,0-.42.03-.42.04.02-1.27.04-2.54.06-3.82Z"/>
    <path class="cls-1" d="m447.81,412.85c-.11.26-.22.52-.33.78-.26-.11-.66-.17-.73-.35-.07-.19.18-.5.29-.76.26.11.52.22.78.34Z"/>
    <path class="cls-1" d="m53.91,167.52c-1.01-.05-1.62-.54-1.71-1.58,1.17-.12,1.84.3,1.71,1.58Z"/>
    <path class="cls-1" d="m440.75,130.31c.31.06.62.13.93.19-.06,1.15-.74,1.64-1.81,1.73l-.11-.11c.07-.74.25-1.43.99-1.81Z"/>
    <path class="cls-1" d="m247.34,190.07c.34-.07.67-.13,1.01-.2-.08.79-.25,1.52-1.17,1.71-.26.05-.56-.08-.84-.13.33-.46.67-.92,1-1.38Z"/>
    <path class="cls-1" d="m290.24,456.88c-.16.67-.19,1.45-1.19,1.36-.11,0-.28-.18-.29-.29-.09-1,.7-1.03,1.36-1.19l.12.12Z"/>
    <path class="cls-1" d="m281.02,413.12c.07-.57.13-1.15.2-1.72.87.32.47,1.12.64,1.71-.28,0-.56.01-.84.01Z"/>
    <path class="cls-1" d="m206.67,322.79c.8-.33,1.67-.82,1.7.71-.7.08-1.37.1-1.7-.71Z"/>
    <path class="cls-1" d="m365.5,428.76c-.31.08-.63.17-.94.25.06-.67,0-1.68.88-1.57.84.11.11.85.06,1.32Z"/>
    <path class="cls-1" d="m256.74,383.34c.25-.03.5-.06.75-.09-.17,1.08-.9,1.69-1.8,2.15,0,0-.11-.1-.11-.1.18-.78.29-1.6,1.16-1.96Z"/>
    <path class="cls-1" d="m397.55,515.78c-.02-.26-.07-.52-.04-.77.01-.08.32-.21.35-.18.16.16.27.37.4.56-.24.13-.48.26-.72.39Z"/>
    <path class="cls-1" d="m279.51,597.96c.13.27.34.52.33.75-.01.23-.25.45-.39.68-.12-.24-.34-.48-.33-.72,0-.23.24-.46.39-.71Z"/>
    <path class="cls-1" d="m453.74,63.36c-.67-.14-1.34-.29-2.01-.43.08-.12.14-.31.25-.35.79-.25,1.38.07,1.82.72l-.06.06Z"/>
    <path class="cls-1" d="m72.56,192.67c.29-.02.58-.03.87-.04,0,.67,0,1.35,0,2.02-.17.01-.33.02-.5.04-.12-.67-.24-1.35-.36-2.02Z"/>
    <path class="cls-1" d="m151.67,566.79c-.14.36-.29.73-.43,1.09-.17-.34-.33-.69-.5-1.03.31-.02.62-.04.93-.06Z"/>
    <path class="cls-1" d="m344.03,520.04c.34-.22.69-.44,1.04-.64.01,0,.15.21.24.33-.4.14-.8.27-1.19.41l-.09-.1Z"/>
    <path class="cls-1" d="m445.39,347.04c-.3.22-.61.44-.91.66-.15-.95.7-.31.96-.61,0,0-.05-.05-.05-.05Z"/>
    <path class="cls-1" d="m270.67,194.51c-.17-.83.06-1.51.76-2.01.19.16.38.31.57.46-.27.67-.54,1.34-1.36,1.51l.03.03Z"/>
    <path class="cls-1" d="m455.66,406.51c.78.34,1.56.69,2.34,1.03-.71.08-1.42.16-2.12.24-.07-.42-.14-.85-.21-1.27Z"/>
    <path class="cls-1" d="m172.88,337.83c-.19.1-.36.2-.53.29-.06-.24-.15-.47-.16-.71,0-.07.21-.15.32-.23.12.22.25.44.37.66Z"/>
    <path class="cls-1" d="m264.11,51.93c-.11-.09-.22-.18-.32-.27.12-.07.25-.2.37-.19.11,0,.22.16.33.25-.12.07-.25.14-.37.2Z"/>
    <path class="cls-1" d="m430.5,190.54c-.11-.09-.22-.18-.32-.27.12-.07.25-.2.37-.19.11,0,.22.16.33.25-.12.07-.25.14-.37.2Z"/>
    <path class="cls-1" d="m147.76,332.38c-.41-.2-1.38-.05-1.01-.79.27-.53.99-.14,1.36.38-.11.14-.22.27-.34.4Z"/>
    <path class="cls-1" d="m270.64,194.48c-.3.25-.59.49-.89.74-.1-.17-.2-.34-.31-.52.41-.06.82-.13,1.22-.19,0,0-.03-.03-.03-.03Z"/>
    <path class="cls-1" d="m374.32,562.53c.07.12.2.25.19.37,0,.11-.16.22-.25.33.02-.23.04-.47.06-.7Z"/>
    <path class="cls-1" d="m417.94,64.07c.05-.19.05-.37,0-.56.75-.1,1.51-.3,2.1.41,0,0-.04.28-.04.28-.69-.04-1.37-.08-2.06-.13Z"/>
    <path class="cls-1" d="m288.39,13.8c.26.1.52.1.77,0-.1.44.34,1.15-.54,1.17-.07,0-.15-.76-.23-1.17Z"/>
    <path class="cls-1" d="m10.36,457.75c-.27-1,.39-1.59.98-2.2,0,0,.09.28.09.28,0,0,.29.04.3.04-.45.63-.9,1.27-1.36,1.9,0,0-.01-.01-.01-.01Z"/>
    <path class="cls-1" d="m363.57,554.28c-.11-.09-.22-.18-.32-.27.12-.07.25-.2.37-.19.11,0,.22.16.33.25-.12.07-.25.14-.37.2Z"/>
    <path class="cls-1" d="m394.05,78.24c-.09.11-.18.22-.27.32-.07-.12-.2-.25-.19-.37,0-.11.16-.22.25-.33.07.12.14.25.2.37Z"/>
    <path class="cls-1" d="m238.12,325.24c.23-.25.45-.51.68-.76.08.4.16.79.24,1.19-.31-.14-.61-.29-.92-.43Z"/>
    <path class="cls-1" d="m382.07,542.97c.04-.09.08-.25.13-.25.13,0,.26.05.39.09-.04.09-.08.25-.13.26-.13,0-.26-.06-.4-.09Z"/>
    <path class="cls-1" d="m394.63,13.58c-.12.07-.25.2-.37.19-.12,0-.22-.16-.33-.25.23.02.47.04.7.06Z"/>
    <path class="cls-1" d="m358.8,82.8c-.36-.11-.73-.22-1.09-.32.07-.11.2-.32.21-.31.32.18.63.38.94.57,0,0-.06.06-.06.06Z"/>
    <path class="cls-1" d="m457.21,650.32c-.15-.22-.24-.45-.27-.71.53.04,1.07.07,1.61.1-.23.69-.83.56-1.34.61Z"/>
    <path class="cls-1" d="m414.47,464.85c.04-.12.08-.33.12-.33.13,0,.26.07.4.12-.04.12-.08.33-.12.33-.13,0-.26-.07-.4-.12Z"/>
    <path class="cls-1" d="m290.22,85.61c.22.29.46.57.65.88.01.02-.28.23-.43.35-.1-.39-.21-.77-.31-1.16,0,0,.09-.08.09-.08Z"/>
    <path class="cls-1" d="m33.64,135.91c.05-.4.1-.8.15-1.2.18.09.35.17.53.26-.24.3-.48.6-.72.9,0,0,.05.04.05.04Z"/>
    <path class="cls-1" d="m293.45,90.88c.07.12.2.25.19.37,0,.11-.16.22-.25.33.02-.23.04-.47.06-.7Z"/>
    <path class="cls-1" d="m326.14,477.51c-.1.02-.24.09-.28.05-.08-.06-.09-.2-.14-.31.16-.03.32-.06.49-.09-.02.12-.04.23-.07.35Z"/>
    <path class="cls-1" d="m415.92,530.54c-.19.41-.15,1.31-.79.94-.52-.3-.04-.92.45-1.22,0,0,.34.28.34.28Z"/>
    <path class="cls-1" d="m344.04,100.5c.43-.71,1.11-.89,1.87-.88,0,0,0,.01,0,.01-.38.74-1.07.89-1.8.94l-.07-.07Z"/>
    <path class="cls-1" d="m14.73,279.12c-.14-.2-.22-.42-.25-.67.54.03,1.08.05,1.62.08-.24.69-.84.55-1.37.59Z"/>
    <path class="cls-1" d="m438.31,690.08c.1,0,.24-.01.28.04.06.08.06.22.08.33-.16-.02-.32-.03-.48-.05.04-.11.08-.21.12-.32Z"/>
    <path class="cls-1" d="m247.45,271.74c.05-.4.1-.81.15-1.21.17.09.35.18.52.26-.24.3-.49.6-.73.9,0,0,.06.05.06.05Z"/>
    <path class="cls-1" d="m344.11,520.14c-.39.67-1.01.86-1.73.83,0,0-.12-.09-.12-.09.59-.28,1.18-.57,1.76-.85,0,0,.09.1.09.1Z"/>
    <path class="cls-1" d="m424.19,192.65c.03-.43.15-.75.69-.59-.17.26-.4.46-.69.59Z"/>
    <path class="cls-1" d="m431.07,341.67c-.02.26-.09.51-.19.75-.19-.13-.39-.25-.59-.38.26-.13.51-.25.77-.38Z"/>
    <path class="cls-1" d="m106.09,515.45h-.34s-.34,0-.34,0c.09-.2.19-.4.28-.6.13.2.26.4.39.6Z"/>
    <path class="cls-1" d="m359.8,12.09c.39-.84.76-.7,1.12.02-.37,0-.75-.01-1.12-.02Z"/>
    <path class="cls-1" d="m39.37,498.57c-.16.14-.32.28-.48.42.14-.16.28-.32.42-.48,0,0,.06.06.06.06Z"/>
    <path class="cls-1" d="m313.45,113.5c.11.15.23.29.34.44-.15-.11-.29-.23-.44-.34,0,0,.1-.1.1-.1Z"/>
    <path class="cls-1" d="m313.35,113.6c-.12-.09-.24-.18-.36-.26.15.06.3.11.46.17,0,0-.1.1-.1.1Z"/>
    <path class="cls-1" d="m344.11,100.58c-.08.12-.17.24-.25.37.06-.15.12-.29.18-.44,0,0,.07.07.07.07Z"/>
    <path class="cls-1" d="m342.38,520.97c-.37.32-.75.64-1.12.96,0,0,.06.06.06.06.31-.37.63-.73.94-1.1,0,0,.12.08.12.08Z"/>
    <path class="cls-1" d="m215.75,690.38c-.12-.09-.24-.18-.36-.27.15.06.31.11.46.17,0,0-.1.1-.1.1Z"/>
    <path class="cls-1" d="m340.35,689.05c.24-.11.49-.17.75-.19-.12.26-.24.51-.37.77-.13-.2-.25-.39-.38-.59Z"/>
    <path class="cls-1" d="m359.1,13.05c.25-.33.49-.65.74-.98-.25.33-.49.65-.74.98Z"/>
    <path class="cls-1" d="m179.83,234.32c.35.38.7.75,1.06,1.13-.47-.06-.95-.13-1.43-.19.12-.31.24-.63.37-.94Z"/>
    <path class="cls-1" d="m439.87,132.23c-.09.12-.18.24-.27.36.05-.15.11-.31.16-.46,0,0,.11.11.11.11Z"/>
    <path class="cls-1" d="m34.52,86.54c-.04.13-.09.26-.13.39.06-.11.12-.23.19-.34,0,0-.05-.05-.05-.05Z"/>
    <path class="cls-1" d="m435.16,535.88c.18-.14.35-.28.53-.41-.15.16-.31.32-.46.48,0,0-.06-.06-.06-.06Z"/>
    <path class="cls-1" d="m98.59,215.92c.33.24.66.48.98.72-.33-.24-.66-.48-.98-.72Z"/>
    <path class="cls-1" d="m290.12,456.77c.15-.11.3-.22.45-.33-.11.15-.22.3-.33.45,0,0-.12-.12-.12-.12Z"/>
    <path class="cls-1" d="m181.43,214.98c-.3-.31-.61-.62-.91-.94.51.12.98.26.91.94Z"/>
    <path class="cls-1" d="m105.15,636.42c.17.12.35.23.52.35-.1,0-.23.02-.28-.03-.09-.1-.12-.25-.18-.38,0,0-.06.07-.06.07Z"/>
    <path class="cls-1" d="m13.11,453.98l.28-.36c-.05.16-.11.32-.16.48,0,0-.11-.11-.11-.11Z"/>
    <path class="cls-1" d="m449.18,448.5c-.15.11-.29.23-.44.34.11-.15.23-.29.34-.44,0,0,.1.1.1.1Z"/>
    <path class="cls-1" d="m449.91,447.79c-.24.24-.49.48-.73.72,0,0-.1-.1-.1-.1.23-.24.46-.47.69-.7,0,0,.14.09.14.09Z"/>
    <path class="cls-1" d="m453.8,63.3c.12.08.25.16.37.25-.14-.06-.29-.12-.43-.19,0,0,.06-.06.06-.06Z"/>
    <path class="cls-1" d="m409.1,385.19c.3.21.61.42.91.63-.3-.21-.61-.42-.91-.63Z"/>
    <path class="cls-1" d="m344.13,55.82c.11.15.23.3.34.44-.15-.11-.3-.23-.45-.34l.11-.11Z"/>
    <path class="cls-1" d="m344.02,55.93c-.25-.26-.5-.52-.74-.78,0,0,.09-.06.1-.06.25.25.5.49.75.74,0,0-.11.11-.11.11Z"/>
    <path class="cls-1" d="m140.77,333.05c-.41.32-.82.64-1.22.96,0,0,.06.06.06.06.32-.39.64-.79.96-1.18,0,0,.21.16.21.16Z"/>
    <path class="cls-1" d="m244.66,194.55c-.09.12-.18.24-.27.36.06-.15.11-.3.17-.46,0,0,.1.1.1.1Z"/>
    <path class="cls-1" d="m299.36,336.95c-.28.24-.57.48-.85.71.01-.2.02-.4.02-.6.27-.12.54-.16.83-.11Z"/>
    <path class="cls-1" d="m253.03,48.49c-.09.12-.17.24-.26.36.06-.15.11-.3.17-.46,0,0,.09.09.09.09Z"/>
    <path class="cls-1" d="m455.75,407.72c-.53,1.02-.83.34-1.14-.16.38.05.76.11,1.14.16Z"/>
    <path class="cls-1" d="m304.06,576.78c.16-.19.32-.37.48-.56.5.47.12.62-.28.76,0,0-.2-.2-.2-.2Z"/>
    <path class="cls-1" d="m15.04,345.18c0,.32,0,.63-.01.95-.27,0-.55,0-.82,0,.03-.54.1-1.03.83-.96Z"/>
    <path class="cls-1" d="m443.49,394.49c.3.22.61.44.91.65-.3-.22-.61-.44-.91-.65Z"/>
    <path class="cls-1" d="m454.65,595.43c.3.21.6.41.9.62-.3-.21-.6-.41-.9-.62Z"/>
    <path class="cls-1" d="m254.89,386.17c-.14.12-.29.23-.43.35.12-.14.23-.29.35-.43l.09.08Z"/>
    <path class="cls-1" d="m183.25,571.16c.22-.26.44-.51.66-.77.12.55-.2.71-.66.77Z"/>
    <path class="cls-1" d="m254.81,386.08c.26-.26.52-.53.77-.79,0,0,.11.1.11.1-.27.26-.53.52-.79.77,0,0-.08-.08-.08-.08Z"/>
    <path class="cls-1" d="m466.01,605.74c1.24.14,2.89-.72,3.35,1.3.07.29-.4.99-.62,1-1.5.02-2.66-.53-2.84-2.24,0,0,.11-.06.11-.06Z"/>
  </g>
</svg>