<?xml version="1.0" encoding="UTF-8"?>
<svg id="Layer_2" data-name="Layer 2" xmlns="http://www.w3.org/2000/svg" viewBox="0 0 210.1 83.71">
  <defs>
    <style>
      .cls-1 {
        fill: #1ea3d8;
        stroke: #473851;
        stroke-miterlimit: 10;
        stroke-width: 2px;
      }
    </style>
  </defs>
  <g id="Layer_2-2" data-name="Layer 2">
    <g id="sCR8He.tif">
      <g>
        <path class="cls-1" d="m145.03,49.11c.59.16,1.22-.01,1.81-.34.72-.4,1.41-.88,2.11-1.32.89-.55,1.22-1.49,1.62-2.37.18-.39.37-.83.68-1.09.28-.24.74-.38,1.11-.36.45.03.68.45.69.91,0,.66-.02,1.32-.05,1.99-.03.61.12.74.67.49,1.58-.72,2.72-1.88,3.4-3.48.2-.48.36-.97.55-1.45.24-.62.74-.64,1.29-.57.59.08.69.53.65.96-.13,1.28-.32,2.55-.49,3.82-.02.16-.05.32-.09.59.74-.13,1.42-.24,2.1-.38,1.48-.31,2.97-.62,4.44-.98.68-.17,1.33-.47,2-.69.39-.13.48-.37.45-.76-.2-2.29-.38-4.59-.54-6.88-.02-.25.03-.56.16-.77,2.22-3.57,4.47-7.13,6.79-10.83.07.86.12,1.58.18,2.3.31,4.16.63,8.31.94,12.47.15,2.01.31,4.01.42,6.02.03.57.24.72.77.59,2.08-.5,4.16-.98,6.24-1.49.21-.05.46-.24.54-.43.92-2.06,1.82-4.13,2.72-6.21.52-1.2.24-2.46.19-3.69-.12-2.65-.3-5.3-.46-7.95-.26-4.14-.55-8.28-.78-12.42-.03-.44.11-.95.34-1.33,2.15-3.52,4.33-7.03,6.51-10.53.05-.08.12-.15.28-.34.05.94.1,1.76.14,2.57.27,4.72.52,9.44.81,14.16.2,3.21.46,6.41.65,9.62.07,1.18.05,2.36.04,3.55,0,.25-.12.53-.27.73-.41.54-.87,1.05-1.4,1.68.28.02.46.05.65.06,1.02.04,2.04.04,3.05.11,1.8.13,3.07,1.51,2.8,3.27-.37,2.41-.8,4.84-2.05,7-1.65,2.85-3.76,5.27-6.62,6.96-2.73,1.6-5.61,2.91-8.64,3.81-3.24.96-6.52,1.82-9.8,2.63-1.13.28-1.6,1.1-2.13,1.93-.08.12-.13.25-.2.38,0,.01-.04.02-.07.03-.45-.51.38-1.46-.59-1.76.25-2.18.1-4.31-.15-6.53-.26.15-.41.21-.53.32-2.49,2.1-5.46,3.17-8.54,4.06-2.59.75-5.15,1.6-7.73,2.4-.15.05-.31.08-.64.16.25-.49.43-.85.65-1.29-.99.31-1.9.61-2.83.89-.61.18-1.22.42-1.85-.03-.12-.09-.44.03-.63.11-1.13.48-2.24.98-3.37,1.47-1.26.54-2.48.43-3.62-.33-.32-.21-.56-.21-.91-.09-2.26.83-4.58,1.5-6.97,1.87-1.07.16-1.77.48-2.18,1.76-1.89,5.88-5.5,10.59-10.39,14.35-2.01,1.54-4.31,2.5-6.72,3.19-3.15.89-6.38,1.07-9.63.92-2.49-.12-4.97-.34-7.46-.52-.27-.02-.54-.07-.78-.17-.59-.24-.92-.71-.97-1.34-.06-.69.37-1.14.9-1.45,1.08-.62,2.18-1.21,3.29-1.78,4.64-2.36,9.54-4.08,14.38-5.97,2.65-1.04,5.29-2.1,7.85-3.33,1.27-.61,2.35-1.62,3.49-2.47.2-.15.43-.59.36-.67-.21-.26-.54-.56-.85-.59-.8-.09-1.62,0-2.43-.06-1.45-.11-2.75-.54-3.75-1.7-1.01-1.17-1.14-2.53-.66-3.86.66-1.83,1.57-3.56,2.32-5.36.7-1.65,1.51-3.22,2.62-4.64,1.59-2.03,2.99-2.31,5.15-.91,1.37.89,2.35,2.16,3.06,3.61.22.45.45.66.94.56,2.36-.46,4.76-.8,7.08-1.42,1.33-.36,2.57-1.13,3.8-1.8.82-.45,1.32-1.24,1.68-2.11.21-.51.53-.96,1.13-.89.6.06.85.56.94,1.1.13.75.22,1.5.34,2.34Z"/>
        <path class="cls-1" d="m45.97,46.86c.98,2.19,1.85,4.34,2.31,6.62,1.61,7.92-.59,14.46-6.97,19.59-4.57,3.67-9.78,6.01-15.31,7.71-1.56.48-3.15.96-4.76,1.23-2.71.45-5.46.71-8.2.46-2.57-.23-5.09-.84-7.3-2.28-2.57-1.67-4.23-3.94-4.52-7.07-.05-.58-.19-1.15-.21-1.72-.11-3.15.81-6.08,2.18-8.85,1.25-2.52,2.7-4.95,4.1-7.39.3-.53.74-1,1.2-1.42.51-.47,1.17-.48,1.6-.14.43.33.57.98.28,1.58-.59,1.23-1.25,2.44-1.83,3.67-.78,1.66-1.34,3.39-1.5,5.24-.22,2.57.64,4.21,3.02,5.74,1.64,1.05,3.49,1.4,5.39,1.58,3,.28,5.99.12,8.93-.5,3.52-.74,6.97-1.73,10.33-3.03,1.99-.77,3.97-1.6,5.94-2.43.88-.37.95-.48.68-1.43-.64-2.27-1.35-4.52-2-6.79-.07-.25-.02-.62.12-.84,2.02-3.02,4.06-6.02,6.1-9.02.11-.16.25-.31.41-.5Z"/>
        <path class="cls-1" d="m72.02,82.63c-2.75-.21-5.51-.36-8.26-.65-.95-.1-1.91-.42-2.79-.82-1.58-.72-1.74-2.19-.34-3.22.87-.65,1.85-1.22,2.87-1.59,3.39-1.23,6.83-2.35,10.23-3.54,2.31-.81,4.67-1.53,6.9-2.52,2.6-1.15,5.12-2.5,7.27-4.41,1.42-1.27,2.52-2.8,3.3-4.55.23-.52.84-.84,1.44-.73.61.11,1.05.53,1.04,1.14,0,.55-.07,1.12-.19,1.66-.92,3.92-2.32,7.66-4.38,11.13-1.5,2.51-3.62,4.42-6.26,5.71-.73.36-1.47.67-2.21,1-2.03.9-4.19,1.14-6.38,1.26-.75.04-1.49,0-2.24,0,0,.04,0,.09,0,.13Z"/>
        <path class="cls-1" d="m64.6,29.34c.09,1.43.17,2.81.26,4.19.27,3.93.56,7.86.81,11.79.26,3.93.48,7.87.73,11.8.11,1.78.24,3.56.33,5.34.02.31-.05.68-.21.95-2.18,3.53-4.38,7.05-6.58,10.56-.03.04-.09.06-.16.1-.14-1.92-.29-3.81-.41-5.7-.27-4.35-.53-8.69-.8-13.04-.15-2.46-.32-4.92-.48-7.39-.16-2.34-.34-4.67-.47-7.01-.02-.33.07-.72.24-.99,2.17-3.49,4.36-6.96,6.54-10.44.03-.04.09-.07.19-.15Z"/>
        <path class="cls-1" d="m202.15,74.26c-.04-.59-.08-1-.1-1.41-.22-3.58-.42-7.16-.65-10.74-.25-3.87-.55-7.73-.81-11.6-.21-3.14-.41-6.29-.58-9.44-.02-.4.11-.88.32-1.22,1.96-3.15,3.95-6.28,5.93-9.42.22-.35.39-.72.62-1.16.06.15.11.22.12.31.31,4.55.62,9.1.92,13.65.25,3.87.48,7.74.72,11.61.16,2.5.32,5.01.46,7.51.02.35-.05.77-.23,1.06-2.19,3.57-4.4,7.12-6.72,10.84Z"/>
        <path class="cls-1" d="m139.67,44.64c0-.49,0-.97,0-1.46-.02-1.56-.05-3.11-.05-4.67,0-.23.08-.5.2-.7,1.58-2.68,3.11-5.39,4.8-8,1.68-2.59,3.42-5.17,5.92-7.08.65-.5,1.39-.91,2.14-1.25,1.51-.69,2.96-.47,4.29.5,1.67,1.21,2.87,2.81,3.76,4.64.08.17.08.46-.02.62-1.23,2.06-2.46,4.13-3.75,6.15-.52.82-1.16,1.57-1.79,2.31-.75.87-1.62.81-2.24-.16-.45-.7-.81-1.45-1.23-2.16-.13-.23-.31-.44-.49-.64-.87-.9-1.46-.98-2.53-.31-1.63,1.02-2.73,2.55-3.75,4.11-1.35,2.06-2.6,4.19-3.9,6.29-.39.62-.82,1.21-1.24,1.82-.04,0-.09-.02-.13-.02Z"/>
        <path class="cls-1" d="m35.06,38.05c-1.73,3.36-3.42,6.59-5.04,9.85-.31.63-.67.9-1.34,1.02-3.36.61-6.72,1.29-10.08,1.93-1.53.29-3.06.54-4.59.81-.17.03-.36.03-.61.04.74-1.45,1.44-2.83,2.14-4.21.99-1.94,1.99-3.87,2.95-5.82.27-.54.62-.87,1.25-.98,2.96-.51,5.92-1.05,8.88-1.58,1.9-.34,3.8-.67,5.7-1,.2-.03.41-.04.73-.06Z"/>
        <path class="cls-1" d="m170.26,23.71c-.29-.25-.56-.46-.81-.7-1.83-1.72-3.66-3.44-5.5-5.16-.22-.21-.29-.34-.07-.61,1.76-2.18,3.51-4.36,5.26-6.55.44-.55.9-1.09,1.33-1.64.23-.3.43-.33.71-.06,1.96,1.83,3.92,3.66,5.88,5.47.26.24.23.44.03.69-2,2.49-4,4.98-6,7.47-.27.34-.53.68-.83,1.08Z"/>
      </g>
    </g>
  </g>
</svg>