<?xml version="1.0" encoding="UTF-8"?>
<svg id="Layer_2" data-name="Layer 2" xmlns="http://www.w3.org/2000/svg" viewBox="0 0 53.76 55.21">
  <defs>
    <style>
      .cls-1 {
        fill: #d6c3e5;
        stroke: #3e3146;
        stroke-miterlimit: 10;
        stroke-width: .5px;
      }
    </style>
  </defs>
  <g id="Layer_2-2" data-name="Layer 2">
    <g id="Layer_1-2" data-name="Layer 1-2">
      <g id="yHn8V0.tif">
        <path class="cls-1" d="m12.58,5.85c.42.06,1.08.1,1.73.23,2.41.47,4.19-.46,5.56-2.41.48-.69.95-1.37,1.57-1.95,1.84-1.76,4.04-1.95,6.16-.51.7.47,1.29,1.05,1.87,1.66,1.63,1.7,3.54,2.09,5.71,1.22,1.17-.47,2.36-.87,3.64-.7,2.51.33,4.14,2.15,4.41,5.07.26,2.75,1.68,4.38,4.27,5.15,4.72,1.41,5.87,4.11,3.6,8.48-1.18,2.27-1.06,4.34.6,6.31.95,1.13,1.7,2.37,1.81,3.92.11,1.68-.55,2.99-1.82,4.01-.55.44-1.15.78-1.79,1.07-2.43,1.11-3.47,3.08-3.49,5.69,0,.39.03.77.03,1.16,0,3.45-2.72,5.77-6.07,5.03-2.96-.65-5.26.05-6.83,2.78-.29.5-.71.95-1.13,1.36-1.8,1.79-3.91,2.01-6.06.67-.66-.41-1.22-.92-1.73-1.5-1.72-1.92-3.78-2.32-6.14-1.39-.98.38-1.96.62-3.03.64-2.09.04-3.4-1.01-4.24-2.79-.37-.79-.57-1.65-.67-2.52-.31-2.52-1.62-4.16-4.09-4.83-1.04-.28-2.05-.67-2.94-1.3-1.58-1.13-2.2-2.76-1.8-4.67.2-.97.56-1.87,1.03-2.73,1.18-2.18.98-4.22-.61-6.12-.56-.67-1.06-1.38-1.4-2.19-.88-2.05-.48-4.04,1.14-5.55.54-.5,1.14-.92,1.81-1.22,2.59-1.14,3.8-3.13,3.71-5.96-.02-.49,0-.98.03-1.47.2-2.96,2.04-4.67,5.2-4.64h-.02Z"/>
      </g>
    </g>
  </g>
</svg>