<?xml version="1.0" encoding="UTF-8"?>
<svg id="Layer_2" data-name="Layer 2" xmlns="http://www.w3.org/2000/svg" viewBox="0 0 83.38 39.42">
  <g id="Layer_1-2" data-name="Layer 1">
    <g>
      <path d="M21.02,27.65l-1.55,4.21-.76,.65-3.38,.36-.58-5.8c-.41,.86-.91,1.79-1.51,2.79-.6,1-1.1,1.71-1.51,2.14-1.3,1.44-2.87,2.16-4.72,2.16-1.08,0-2.35-.27-3.8-.81-1.45-.54-2.53-1.13-3.22-1.78,2.38-.67,4.87-1.51,7.47-2.5,2.6-1,4.58-1.87,5.92-2.61l4-4.86,.68,.54,.5,5.15,2.23-.25,.22,.61Z"/>
      <path d="M18.65,36.07l6.52-1.76-.72,3.71-6.41,1.4,.61-3.35Zm7.02-12.92c-.34,3.19-1.12,6.04-2.34,8.53-1.1,.34-2.64,.61-4.61,.83l2.09-5.47c1.2-.14,2.17-.32,2.92-.54,.34-1.32,.6-2.45,.79-3.38l1.15,.04Z"/>
      <path d="M45.4,21.46l-1.55,4.21-.76,.65-1.91,.18c-.65,2.23-1.64,4.1-2.99,5.62-1.34,1.51-3,2.27-4.97,2.27-1.06,0-2.32-.28-3.78-.85s-2.5-1.15-3.1-1.75c2.21-.65,4.6-1.46,7.18-2.43,2.58-.97,4.63-1.87,6.14-2.68l1.84-3.74c.36-.72,.72-1.21,1.08-1.46,.36-.25,.96-.43,1.8-.52l.79-.11,.22,.61Zm-6.77-4.32l3.35-2.23,.5,.83c.67,1.1,1.24,1.94,1.69,2.52l-3.02,1.98c-.84-.65-1.68-1.68-2.52-3.1Z"/>
      <path d="M51.26,16.6c.79,.36,1.41,.78,1.85,1.26,.44,.48,.67,.9,.67,1.26,0,.96-.33,2.03-.99,3.2-.66,1.18-1.42,2.09-2.29,2.74-.77,.29-1.68,.52-2.74,.7-1.06,.18-2.63,.37-4.72,.56l2.09-5.47,1.04-.11h.07v-.18c0-.36,.18-1.06,.54-2.09,.36-1.03,.63-1.7,.83-2.02,.26-.38,.58-.6,.94-.65l.04,.14c.98,.07,1.87,.29,2.66,.65Zm.94-11.72c.22,2.53,.32,4.95,.32,7.25,0,.72-.16,1.75-.49,3.08-.32,1.33-.71,2.37-1.17,3.11-.5,.86-1.14,1.55-1.91,2.05-.77,.5-1.6,.8-2.48,.9l2.09-5.47,1.19-.14c-.14-1.44-.46-3.19-.95-5.24-.49-2.05-.99-3.82-1.49-5.31,.58-1.01,1.25-1.98,2.02-2.92,.77-.94,1.49-1.67,2.16-2.2,.26,.72,.5,2.35,.72,4.88Z"/>
      <path d="M57.71,33.37c.02-2.3-.04-5.09-.18-8.37-.14-3.28-.34-6.19-.58-8.73,.67-.82,1.43-1.6,2.27-2.34,.84-.74,1.6-1.3,2.27-1.66,.14,.53,.22,1.57,.22,3.13,0,2.14-.11,4.67-.32,7.61-.22,2.94-.4,4.67-.54,5.2l-2.34,5.44-.79-.29Z"/>
      <path d="M82.35,28.44c-.68,1.7-1.65,3.09-2.9,4.16-1.25,1.07-2.65,1.6-4.21,1.6-1.08,0-2.33-.27-3.74-.81-1.42-.54-2.46-1.13-3.13-1.78,1.9-.55,4.01-1.25,6.35-2.11,2.34-.85,4.27-1.63,5.78-2.32l-.22-1.26h-1.69c-.91,0-1.64-.14-2.2-.41-.55-.28-.83-.67-.83-1.17,0-.6,.32-1.4,.97-2.41,.65-1.01,1.42-1.9,2.3-2.68,.89-.78,1.66-1.17,2.3-1.17s1.18,.47,1.6,1.4,.63,2.15,.63,3.64c0,1.85-.34,3.62-1.03,5.33Z"/>
    </g>
  </g>
</svg>