<?xml version="1.0" encoding="UTF-8"?>
<svg id="Layer_2" data-name="Layer 2" xmlns="http://www.w3.org/2000/svg" viewBox="0 0 15.69 19.98">
  <defs>
    <style>
      .cls-1 {
        fill: #fefefe;
      }

      .cls-2 {
        fill: #e18a56;
      }

      .cls-3 {
        fill: #4295cb;
      }
    </style>
  </defs>
  <g id="Layer_1-2" data-name="Layer 1">
    <g>
      <path class="cls-1" d="M7.91,12.07s.1,0,.14-.03c.1-.07,.21-.11,.32-.17,.17-.1,.34-.19,.51-.27,.13-.06,.26-.11,.38-.18,.2-.12,.42-.23,.62-.35,.15-.09,.31-.17,.46-.27,.18-.11,.35-.22,.52-.33,.15-.09,.29-.19,.44-.28,.21-.14,.41-.29,.61-.45,.22-.16,.44-.32,.64-.49,.21-.17,.41-.36,.63-.52,.23-.17,.42-.37,.63-.57,.42-.4,.82-.82,1.2-1.27,.2-.24,.39-.48,.59-.72,.06-.07,.05-.15,0-.21-.12-.14-.24-.29-.35-.43-.28-.34-.57-.66-.87-.98-.29-.31-.59-.6-.89-.88-.3-.28-.6-.54-.92-.79-.24-.19-.47-.38-.72-.56-.24-.18-.49-.35-.74-.51-.23-.15-.46-.3-.69-.46-.09-.06-.19-.09-.28-.15-.2-.15-.43-.26-.65-.39-.11-.07-.24-.12-.35-.19-.37-.21-.76-.39-1.13-.59-.08-.04-.15-.04-.23,.02-.12,.09-.24,.15-.36,.24-.14,.1-.3,.16-.43,.26-.2,.16-.44,.26-.64,.42-.17,.14-.38,.23-.56,.36-.25,.18-.51,.35-.76,.53-.17,.12-.36,.24-.52,.37-.19,.15-.39,.29-.59,.44-.23,.17-.46,.35-.69,.53-.42,.34-.84,.68-1.25,1.03-.39,.34-.78,.69-1.15,1.05-.24,.23-.45,.47-.7,.69-.08,.07-.07,.15,.02,.22,.12,.09,.24,.18,.36,.27,.19,.15,.38,.3,.57,.44,.24,.19,.49,.36,.73,.55,.27,.22,.56,.4,.81,.64,.14,.14,.33,.22,.48,.34,.17,.14,.36,.27,.54,.41,.3,.22,.58,.45,.87,.67,.29,.22,.58,.43,.87,.65,.34,.26,.68,.53,1.03,.8,.47,.36,.94,.71,1.4,1.08,.04,.03,.08,.04,.12,.04ZM.02,11.45h0c0,.8,0,1.6,0,2.4,0,.11,.06,.18,.14,.24,.02,.02,.05,.03,.07,.05,.23,.18,.45,.36,.68,.53,.25,.19,.49,.39,.75,.57,.13,.09,.25,.19,.37,.28,.25,.18,.49,.37,.74,.55,.31,.24,.63,.46,.92,.71,.21,.18,.44,.35,.66,.53,.19,.15,.38,.28,.57,.43,.25,.19,.5,.39,.75,.58,.23,.18,.47,.36,.7,.54,.33,.26,.67,.51,1,.77,.14,.11,.28,.21,.42,.31,.08,.05,.15,.07,.23,.01,.12-.1,.27-.13,.4-.2,.2-.11,.4-.19,.6-.29,.19-.1,.37-.21,.56-.3,.24-.12,.48-.26,.71-.4,.29-.18,.59-.36,.87-.56,.31-.21,.61-.42,.92-.64,.24-.17,.46-.37,.69-.55,.41-.32,.79-.68,1.16-1.04,.25-.24,.48-.5,.72-.75,.21-.23,.39-.47,.59-.7,.1-.11,.19-.23,.28-.35,.07-.09,.16-.19,.13-.32,0-.05-.01-.09-.01-.14,0-1.25,0-2.51,0-3.76,0-.33-.03-.67,.03-1,0-.04,0-.08-.04-.1-.04-.02-.07,0-.1,.03-.02,.02-.04,.04-.05,.06-.03,.09-.1,.16-.15,.23-.27,.34-.55,.67-.85,.98-.27,.29-.56,.57-.84,.84-.12,.11-.25,.21-.37,.31-.05,.04-.09,.09-.14,.13-.17,.15-.37,.26-.52,.44-.02,.03-.05,.06-.08,.08-.13,.04-.21,.14-.31,.22-.12,.09-.23,.2-.35,.29-.14,.11-.29,.19-.43,.3-.14,.11-.29,.21-.44,.3-.14,.09-.29,.17-.42,.26-.24,.16-.5,.31-.76,.45-.17,.09-.34,.18-.5,.28-.21,.12-.43,.22-.64,.33-.21,.11-.42,.19-.62,.31-.1,.06-.22,.06-.3-.02-.15-.15-.33-.25-.48-.4-.2-.19-.43-.34-.65-.51-.28-.22-.57-.43-.86-.65-.31-.24-.62-.47-.93-.71-.22-.17-.43-.33-.65-.5-.25-.19-.49-.38-.74-.57-.18-.14-.36-.28-.55-.42-.17-.13-.35-.26-.52-.4-.18-.14-.37-.28-.56-.42-.18-.14-.37-.28-.55-.42-.23-.18-.46-.35-.69-.53-.14-.11-.28-.2-.4-.32-.04-.04-.09-.05-.14-.02-.05,.02-.05,.08-.04,.12,0,.06,.02,.11,.02,.17,0,.79,0,1.59,0,2.38Z"/>
      <path class="cls-2" d="M7.91,12.07s-.09,0-.12-.04c-.46-.37-.93-.72-1.4-1.08-.34-.26-.68-.53-1.03-.8-.29-.22-.58-.43-.87-.65-.29-.22-.58-.45-.87-.67-.18-.13-.37-.26-.54-.41-.15-.13-.34-.2-.48-.34-.24-.25-.54-.43-.81-.64-.24-.19-.48-.37-.73-.55-.19-.15-.38-.3-.57-.44-.12-.09-.24-.18-.36-.27-.09-.07-.1-.15-.02-.22,.25-.21,.47-.46,.7-.69,.38-.36,.76-.7,1.15-1.05,.41-.36,.83-.7,1.25-1.03,.23-.18,.45-.36,.69-.53,.2-.15,.39-.29,.59-.44,.17-.13,.35-.25,.52-.37,.25-.18,.51-.35,.76-.53,.18-.13,.39-.22,.56-.36,.2-.16,.44-.27,.64-.42,.13-.1,.29-.17,.43-.26,.12-.08,.25-.15,.36-.24,.07-.06,.15-.06,.23-.02,.38,.2,.76,.38,1.13,.59,.11,.07,.24,.12,.35,.19,.21,.13,.44,.24,.65,.39,.09,.06,.19,.09,.28,.15,.23,.15,.46,.3,.69,.46,.25,.17,.5,.34,.74,.51,.25,.18,.48,.37,.72,.56,.32,.25,.63,.52,.92,.79,.3,.29,.61,.57,.89,.88,.3,.32,.59,.65,.87,.98,.12,.14,.24,.28,.35,.43,.05,.07,.07,.14,0,.21-.2,.24-.39,.48-.59,.72-.37,.45-.78,.87-1.2,1.27-.2,.2-.4,.4-.63,.57-.22,.17-.42,.35-.63,.52-.21,.17-.43,.33-.64,.49-.2,.15-.4,.31-.61,.45-.15,.09-.29,.19-.44,.28-.17,.11-.35,.22-.52,.33-.15,.09-.31,.18-.46,.27-.2,.12-.41,.23-.62,.35-.12,.07-.25,.12-.38,.18-.17,.08-.35,.17-.51,.27-.1,.06-.22,.1-.32,.17-.04,.03-.09,.04-.14,.03Z"/>
      <path class="cls-3" d="M.02,11.45c0-.79,0-1.59,0-2.38,0-.06-.01-.11-.02-.17,0-.05-.01-.1,.04-.12,.05-.02,.1-.01,.14,.02,.12,.12,.27,.22,.4,.32,.23,.18,.46,.35,.69,.53,.18,.14,.37,.28,.55,.42,.18,.14,.38,.27,.56,.42,.17,.14,.35,.27,.52,.4,.18,.14,.36,.28,.55,.42,.25,.19,.49,.38,.74,.57,.22,.17,.43,.33,.65,.5,.31,.24,.62,.47,.93,.71,.28,.22,.57,.43,.86,.65,.22,.17,.45,.32,.65,.51,.15,.15,.34,.25,.48,.4,.08,.08,.2,.09,.3,.02,.2-.12,.42-.2,.62-.31,.21-.11,.43-.21,.64-.33,.17-.09,.33-.18,.5-.28,.26-.14,.51-.29,.76-.45,.14-.09,.28-.17,.42-.26,.15-.1,.3-.19,.44-.3,.14-.11,.29-.19,.43-.3,.12-.09,.23-.2,.35-.29,.1-.08,.18-.18,.31-.22,.03-.01,.06-.05,.08-.08,.15-.18,.35-.29,.52-.44,.05-.04,.09-.09,.14-.13,.12-.1,.26-.2,.37-.31,.28-.28,.57-.55,.84-.84,.3-.31,.58-.64,.85-.98,.06-.07,.12-.14,.15-.23,0-.02,.03-.04,.05-.06,.03-.03,.06-.05,.1-.03,.04,.02,.05,.06,.04,.1-.06,.33-.03,.67-.03,1,0,1.25,0,2.51,0,3.76,0,.05,0,.09,.01,.14,.02,.13-.06,.23-.13,.32-.09,.12-.18,.24-.28,.35-.2,.23-.39,.48-.59,.7-.23,.25-.47,.51-.72,.75-.37,.36-.76,.71-1.16,1.04-.23,.18-.45,.38-.69,.55-.3,.22-.61,.44-.92,.64-.29,.19-.58,.37-.87,.56-.23,.14-.47,.28-.71,.4-.19,.1-.37,.21-.56,.3-.2,.1-.4,.19-.6,.29-.13,.07-.28,.11-.4,.2-.08,.06-.15,.04-.23-.01-.15-.1-.29-.2-.42-.31-.33-.26-.67-.51-1-.77-.23-.18-.47-.36-.7-.54-.25-.19-.5-.39-.75-.58-.19-.14-.38-.28-.57-.43-.22-.17-.45-.34-.66-.53-.3-.25-.61-.48-.92-.71-.24-.19-.49-.38-.74-.55-.13-.09-.24-.2-.37-.28-.26-.18-.5-.38-.75-.57-.23-.17-.45-.35-.68-.53-.02-.02-.05-.03-.07-.05-.08-.06-.14-.13-.14-.24,0-.8,0-1.6,0-2.4h0Z"/>
    </g>
  </g>
</svg>