<?xml version="1.0" encoding="UTF-8"?>
<svg id="Layer_2" data-name="Layer 2" xmlns="http://www.w3.org/2000/svg" viewBox="0 0 56.04 30.49">
  <g id="Layer_1-2" data-name="Layer 1">
    <g>
      <path d="M11.65,17.45c.31,.86,.47,1.66,.47,2.42,0,1.27-.31,2.52-.94,3.76s-1.46,2.24-2.5,3c-1.05,.77-2.16,1.15-3.34,1.15-.87,0-1.64-.25-2.32-.73-.68-.49-1.13-1.11-1.35-1.87,.09-1.09,.38-2.43,.87-4.01-.87,.38-1.66,.78-2.37,1.2-.11-.85-.17-1.69-.17-2.54,0-1.22,.1-2.2,.3-2.94,.85-.58,2.03-1.1,3.54-1.55,1.51-.46,2.84-.68,3.97-.68,1.25,0,2.15,.28,2.71,.83,.44,.45,.82,1.1,1.13,1.95Zm-7.58-7.6l6.04-1.64-.67,3.44-5.94,1.3,.57-3.11Zm4.71,11.92c1-.62,1.62-1.34,1.87-2.14-.36-.09-.78-.13-1.27-.13-1.45,0-3.24,.37-5.38,1.1-.13,.51-.23,1.02-.3,1.54,.44,.38,1.07,.57,1.87,.57,1.13,0,2.2-.31,3.21-.93Z"/>
      <path d="M29.82,15.33l-1.44,3.91-.7,.6-1.54,.17c-.27,1.4-.74,2.7-1.42,3.89-.68,1.19-1.53,2.14-2.54,2.84-1.01,.7-2.13,1.05-3.36,1.05-1,0-2.16-.25-3.47-.75s-2.28-1.05-2.91-1.65c1.76-.51,3.72-1.16,5.89-1.95,2.17-.79,3.96-1.51,5.36-2.15l-.2-1.17h-1.57c-.85,0-1.53-.13-2.04-.38-.51-.26-.77-.62-.77-1.08,0-.56,.3-1.3,.9-2.24,.6-.94,1.31-1.76,2.14-2.49,.82-.72,1.54-1.08,2.14-1.08,.4,0,.76,.2,1.07,.6,.31,.4,.56,.96,.73,1.67l3.51-.33,.2,.57Z"/>
      <path d="M46.79,16.4l-1.44,3.91-.7,.6-.97,.1c-.18-1.09-.46-1.85-.85-2.29-.39-.43-.87-.65-1.45-.65-1.11,0-2.33,.63-3.64,1.89-1.31,1.26-2.48,2.86-3.51,4.79-1.02,1.94-1.69,3.85-2,5.74h-.77l-1.5-10.89-2.3,.23,1.94-5.08,3.67-.4,.67,8.58c.44-1.58,1.17-3.12,2.17-4.62,1-1.5,2.12-2.73,3.34-3.69,1.22-.96,2.37-1.44,3.44-1.44,.67,0,1.21,.21,1.62,.63,.41,.42,.7,1.13,.85,2.14l1.24-.13,.2,.57Z"/>
      <path d="M54.42,7.81c.39,.85,.58,1.93,.58,3.24,0,1.09-.22,2.37-.65,3.82-.43,1.46-.94,2.58-1.52,3.36-.45,.56-1.25,1.07-2.42,1.54-1.17,.47-2.66,.8-4.46,1l-1.3,.13,1.94-5.08,2.07-.2c1.31-.16,2.55-.38,3.71-.67l-.13-1.13h-1.67c-.85,0-1.53-.13-2.04-.38-.51-.26-.77-.62-.77-1.09,0-.53,.32-1.27,.97-2.2,.65-.93,1.38-1.77,2.2-2.5,.82-.74,1.49-1.1,2-1.1,.6,0,1.1,.42,1.49,1.27Zm-4.42-6.18l6.04-1.64-.67,3.44-5.94,1.3,.57-3.11Z"/>
    </g>
  </g>
</svg>