<?xml version="1.0" encoding="UTF-8"?>
<svg id="Layer_2" data-name="Layer 2" xmlns="http://www.w3.org/2000/svg" viewBox="0 0 97.88 36.68">
  <g id="Layer_1-2" data-name="Layer 1">
    <g>
      <path d="M.76,29.59c.02-2.3-.04-5.09-.18-8.37-.14-3.28-.34-6.19-.58-8.73,.67-.82,1.43-1.6,2.27-2.34,.84-.74,1.6-1.3,2.27-1.66,.14,.53,.22,1.57,.22,3.13,0,2.14-.11,4.67-.32,7.61-.22,2.94-.4,4.67-.54,5.2l-2.34,5.44-.79-.29Z"/>
      <path d="M14.9,12.56l7.16-2.92,.11,1.26-7.06,2.52-.22-.86Zm.14,2.16l7.16-2.92,.11,1.26-7.06,2.52-.22-.86Z"/>
      <path d="M24.95,23.87l-1.55,4.21-.76,.65-3.38,.36-.58-5.8c-.41,.86-.91,1.79-1.51,2.79-.6,1-1.1,1.71-1.51,2.14-1.3,1.44-2.87,2.16-4.72,2.16-1.08,0-2.35-.27-3.8-.81-1.45-.54-2.53-1.13-3.22-1.78,2.38-.67,4.87-1.51,7.47-2.5,2.6-1,4.58-1.87,5.92-2.61l4-4.86,.68,.54,.5,5.15,2.23-.25,.22,.61Z"/>
      <path d="M36.54,27.29l-9.29,.97c-.29,1.42-.55,3.22-.79,5.4l-1.08-.04,.18-1.62c.07-1.01,.2-2.22,.4-3.64l-3.31,.36,2.09-5.47,2.48-.29c1.01-2.86,2.39-5.04,4.14-6.55,1.75-1.51,3.7-2.27,5.83-2.27,.65,0,1.22,.07,1.73,.2s.89,.31,1.15,.52c-.43,3.98-1.61,8.12-3.53,12.42Zm-7.88,5.47l3.35-2.23,.5,.83c.67,1.1,1.24,1.94,1.69,2.52l-3.02,1.98c-.84-.65-1.68-1.68-2.52-3.1Zm2.52-12.31c-.94,.55-1.69,1.33-2.27,2.34l6.8-.76c.12-.55,.24-1.28,.36-2.2-.5-.14-1.07-.22-1.69-.22-1.2,0-2.27,.28-3.2,.83Z"/>
      <path d="M55.3,24.77l-1.55,4.21-.76,.65-3.46,.36c-.02-2.35-.14-5.23-.34-8.62-.2-3.4-.43-6.41-.67-9.05,.67-.82,1.43-1.6,2.27-2.34,.84-.74,1.6-1.3,2.27-1.66,.12,.48,.18,1.24,.18,2.27,.02,1.85-.1,4.33-.36,7.43s-.5,5.26-.72,6.46l2.92-.32,.22,.61Z"/>
      <path d="M56.52,13.39l7.16-2.92,.11,1.26-7.06,2.52-.22-.86Zm.14,2.16l7.16-2.92,.11,1.26-7.06,2.52-.22-.86Z"/>
      <path d="M63.54,23.9l-1.55,4.21-.76,.65-3.96,.4,.43-1.48c-.82,1.06-2.39,1.7-4.72,1.94l2.09-5.47c1.68-.17,3.02-.52,4.03-1.04l.79-2.63,1.15,.11-.65,2.99,2.92-.29,.22,.61Zm-9.36,9.68l3.35-2.23,.5,.83c.67,1.1,1.24,1.94,1.69,2.52l-3.02,1.98c-.84-.65-1.68-1.68-2.52-3.1Z"/>
      <path d="M61.17,32.33l6.52-1.76-.72,3.71-6.41,1.4,.61-3.35Zm7.02-12.92c-.34,3.19-1.12,6.04-2.34,8.53-1.1,.34-2.64,.61-4.61,.83l2.09-5.47c1.2-.14,2.17-.32,2.92-.54,.34-1.32,.6-2.45,.79-3.38l1.15,.04Z"/>
      <path d="M87.91,17.68l-1.55,4.21-.76,.65-1.91,.18c-.65,2.23-1.64,4.1-2.99,5.62-1.34,1.51-3,2.27-4.97,2.27-1.06,0-2.32-.28-3.78-.85-1.46-.56-2.5-1.15-3.1-1.75,2.21-.65,4.6-1.46,7.18-2.43,2.58-.97,4.63-1.87,6.14-2.68l1.84-3.74c.36-.72,.72-1.21,1.08-1.46s.96-.43,1.8-.52l.79-.11,.22,.61Z"/>
      <path d="M96.14,8.42c.42,.91,.63,2.08,.63,3.49,0,1.18-.23,2.55-.7,4.12-.47,1.57-1.01,2.78-1.64,3.62-.48,.6-1.35,1.15-2.61,1.66s-2.86,.86-4.81,1.08l-1.4,.14,2.09-5.47,2.23-.22c1.42-.17,2.75-.41,4-.72l-.14-1.22h-1.8c-.91,0-1.64-.14-2.2-.41-.55-.28-.83-.67-.83-1.17,0-.58,.35-1.37,1.04-2.38s1.49-1.91,2.38-2.7,1.61-1.19,2.16-1.19c.65,0,1.18,.46,1.6,1.37Zm-4.77-6.66l6.52-1.76-.72,3.71-6.41,1.4,.61-3.35Z"/>
    </g>
  </g>
</svg>