<svg width="232" height="109" viewBox="0 0 232 109" fill="none" xmlns="http://www.w3.org/2000/svg">
<mask id="path-1-outside-1_3_9" maskUnits="userSpaceOnUse" x="0" y="-0.071991" width="232" height="109" fill="black">
<rect fill="white" y="-0.071991" width="232" height="109"/>
<path d="M36.456 33.996L44.004 21.96C44.072 23.252 44.174 25.19 44.31 27.774C44.514 30.358 44.718 33.282 44.922 36.546C45.126 39.742 45.33 42.972 45.534 46.236C45.738 49.5 45.908 52.526 46.044 55.314C46.248 58.102 46.384 60.346 46.452 62.046C46.588 63.746 46.656 64.596 46.656 64.596C46.656 68.948 45.942 73.232 44.514 77.448C43.086 81.596 41.114 85.472 38.598 89.076C36.49 92.136 33.974 94.686 31.05 96.726C28.194 98.766 25.236 100.228 22.176 101.112C19.184 101.928 16.328 102.132 13.608 101.724C10.888 101.316 8.576 100.194 6.672 98.358C4.836 96.454 3.646 93.836 3.102 90.504C2.558 87.104 2.932 82.922 4.224 77.958C5.584 72.926 8.134 67.01 11.874 60.21C12.282 59.394 12.69 59.088 13.098 59.292C13.506 59.428 13.472 60.108 12.996 61.332C12.384 62.76 11.602 64.392 10.65 66.228C9.698 68.064 8.814 69.968 7.998 71.94C7.25 73.912 6.774 75.85 6.57 77.754C6.366 79.658 6.638 81.392 7.386 82.956C8.134 84.52 9.596 85.778 11.772 86.73C17.416 87.75 22.584 87.444 27.276 85.812C32.036 84.112 36.048 81.902 39.312 79.182L36.456 33.996ZM61.6261 101.702C58.3621 102.314 55.0981 102.926 51.8341 103.538C48.5701 104.15 45.3061 104.762 42.0421 105.374L48.1621 93.236C51.4261 92.624 54.6901 92.012 57.9541 91.4C61.2181 90.788 64.4821 90.176 67.7461 89.564L61.6261 101.702ZM60.6659 78.48C60.3939 78.548 60.2579 78.378 60.2579 77.97C60.3259 77.494 60.3939 77.086 60.4619 76.746C58.8979 77.426 56.8579 78.038 54.3419 78.582C51.8259 79.126 49.2419 79.602 46.5899 80.01C44.0059 80.418 41.7279 80.724 39.7559 80.928L41.8979 67.974C42.5099 67.906 43.7679 67.77 45.6719 67.566C47.6439 67.362 49.8539 67.09 52.3019 66.75C54.7499 66.41 57.0959 66.036 59.3399 65.628C61.6519 65.152 63.4879 64.608 64.8479 63.996C66.1399 63.452 67.1939 62.67 68.0099 61.65C68.8939 60.562 69.5059 59.576 69.8459 58.692C70.1179 58.148 70.2879 58.216 70.3559 58.896C70.4239 59.508 70.3899 59.882 70.2539 60.018C69.7779 61.582 69.0979 63.486 68.2139 65.73C67.3979 67.906 66.3779 70.116 65.1539 72.36C63.9299 74.604 62.4679 76.644 60.7679 78.48H60.6659ZM118.423 57.202C118.423 55.91 117.811 54.89 116.587 54.142C115.431 53.326 114.105 52.918 112.609 52.918C112.133 52.918 111.657 52.952 111.181 53.02C110.705 53.088 110.263 53.258 109.855 53.53C107.475 54.822 105.333 56.42 103.429 58.324C101.593 60.228 99.7566 62.098 97.9206 63.934C101.525 63.186 104.993 62.404 108.325 61.588C111.725 60.772 114.887 59.65 117.811 58.222C118.219 58.018 118.423 57.678 118.423 57.202ZM84.6606 77.296C83.7086 77.296 82.7906 77.194 81.9066 76.99C81.0906 76.786 80.6826 76.31 80.6826 75.562C80.6826 75.154 80.7166 74.848 80.7846 74.644C79.4246 75.188 77.4186 75.766 74.7666 76.378C72.1826 76.99 69.5306 77.534 66.8106 78.01C64.0906 78.418 61.8126 78.724 59.9766 78.928L62.2206 65.464C74.8006 64.648 82.6206 63.39 85.6806 61.69C87.6526 60.602 89.1146 58.936 90.0666 56.692C90.2706 56.488 90.4066 56.386 90.4746 56.386C90.5426 56.386 90.5766 56.556 90.5766 56.896C90.5766 57.576 90.5426 57.984 90.4746 58.12C90.2026 58.936 89.8286 59.956 89.3526 61.18C88.8766 62.336 88.2646 63.73 87.5166 65.362L87.6186 65.464C89.8626 65.26 91.9706 64.954 93.9426 64.546C96.8666 61.146 99.8246 57.814 102.817 54.55C105.877 51.286 109.039 48.124 112.303 45.064C113.187 44.248 114.479 43.5 116.179 42.82C117.879 42.072 119.681 41.698 121.585 41.698C123.557 41.698 125.223 42.412 126.583 43.84C128.011 45.268 128.725 46.934 128.725 48.838C128.725 50.062 128.453 51.184 127.909 52.204C126.209 55.536 124.271 58.528 122.095 61.18C119.987 63.764 117.369 66.042 114.241 68.014C112.541 69.102 110.739 70.122 108.835 71.074C106.931 72.026 104.959 72.876 102.919 73.624C101.831 73.896 100.437 74.27 98.7366 74.746C97.1046 75.154 95.4386 75.562 93.7386 75.97C92.0386 76.378 90.5086 76.684 89.1486 76.888C88.3326 77.024 87.5506 77.126 86.8026 77.194C86.0546 77.262 85.3406 77.296 84.6606 77.296ZM137.026 101.112C133.286 101.792 129.444 102.064 125.5 101.928C121.624 101.724 117.816 101.452 114.076 101.112C113.736 101.044 113.566 100.84 113.566 100.5C113.566 100.092 113.702 99.82 113.974 99.684C119.278 96.692 124.922 94.074 130.906 91.83C136.89 89.586 142.806 87.274 148.654 84.894C150.218 84.282 151.646 83.5 152.938 82.548C154.23 81.596 155.386 80.542 156.406 79.386C156.746 79.046 156.78 78.468 156.508 77.652C156.304 76.768 156.032 76.088 155.692 75.612C154.06 75.952 152.292 76.054 150.388 75.918C148.552 75.714 147.192 75.136 146.308 74.184C145.56 73.3 145.22 72.314 145.288 71.226C145.356 70.07 145.628 68.982 146.104 67.962C147.26 65.718 148.314 63.44 149.266 61.128C150.286 58.816 151.612 56.742 153.244 54.906C153.992 54.022 154.944 53.784 156.1 54.192C157.324 54.6 158.242 55.11 158.854 55.722C161.506 58.374 163.036 61.536 163.444 65.208C163.852 68.812 163.41 72.552 162.118 76.428C160.894 80.304 158.99 83.976 156.406 87.444C153.89 90.912 150.932 93.904 147.532 96.42C144.2 98.868 140.698 100.432 137.026 101.112ZM185.54 41.702C182.276 42.314 179.012 42.926 175.748 43.538C172.484 44.15 169.22 44.762 165.956 45.374L172.076 33.236C175.34 32.624 178.604 32.012 181.868 31.4C185.132 30.788 188.396 30.176 191.66 29.564L185.54 41.702ZM177.906 73.48C177.634 73.548 177.498 73.378 177.498 72.97C177.566 72.494 177.634 72.086 177.702 71.746C176.138 72.426 174.098 73.038 171.582 73.582C169.066 74.126 166.482 74.602 163.83 75.01C161.246 75.418 158.968 75.724 156.996 75.928L159.138 62.974C159.75 62.906 161.008 62.77 162.912 62.566C164.884 62.362 167.094 62.09 169.542 61.75C171.99 61.41 174.336 61.036 176.58 60.628C178.892 60.152 180.728 59.608 182.088 58.996C183.38 58.452 184.434 57.67 185.25 56.65C186.134 55.562 186.746 54.576 187.086 53.692C187.358 53.148 187.528 53.216 187.596 53.896C187.664 54.508 187.63 54.882 187.494 55.018C187.018 56.582 186.338 58.486 185.454 60.73C184.638 62.906 183.618 65.116 182.394 67.36C181.17 69.604 179.708 71.644 178.008 73.48H177.906ZM202.003 55.364C202.003 50.808 201.901 46.694 201.697 43.022C201.493 39.282 201.255 35.508 200.983 31.7C200.711 27.824 200.439 23.404 200.167 18.44L207.715 6.404L209.551 40.37C209.687 42.342 209.619 44.314 209.347 46.286C209.143 48.19 208.837 49.89 208.429 51.386C206.457 59.138 202.037 64.85 195.169 68.522C192.721 69.814 186.737 71.616 177.217 73.928L177.319 73.52L179.563 60.77C182.555 60.294 185.139 59.886 187.315 59.546C189.559 59.138 191.429 58.764 192.925 58.424C195.985 57.676 199.011 56.656 202.003 55.364ZM218.63 43.89L226.178 31.854L229.034 75.204L221.486 87.24L218.63 43.89Z"/>
</mask>
<path d="M36.456 33.996L44.004 21.96C44.072 23.252 44.174 25.19 44.31 27.774C44.514 30.358 44.718 33.282 44.922 36.546C45.126 39.742 45.33 42.972 45.534 46.236C45.738 49.5 45.908 52.526 46.044 55.314C46.248 58.102 46.384 60.346 46.452 62.046C46.588 63.746 46.656 64.596 46.656 64.596C46.656 68.948 45.942 73.232 44.514 77.448C43.086 81.596 41.114 85.472 38.598 89.076C36.49 92.136 33.974 94.686 31.05 96.726C28.194 98.766 25.236 100.228 22.176 101.112C19.184 101.928 16.328 102.132 13.608 101.724C10.888 101.316 8.576 100.194 6.672 98.358C4.836 96.454 3.646 93.836 3.102 90.504C2.558 87.104 2.932 82.922 4.224 77.958C5.584 72.926 8.134 67.01 11.874 60.21C12.282 59.394 12.69 59.088 13.098 59.292C13.506 59.428 13.472 60.108 12.996 61.332C12.384 62.76 11.602 64.392 10.65 66.228C9.698 68.064 8.814 69.968 7.998 71.94C7.25 73.912 6.774 75.85 6.57 77.754C6.366 79.658 6.638 81.392 7.386 82.956C8.134 84.52 9.596 85.778 11.772 86.73C17.416 87.75 22.584 87.444 27.276 85.812C32.036 84.112 36.048 81.902 39.312 79.182L36.456 33.996ZM61.6261 101.702C58.3621 102.314 55.0981 102.926 51.8341 103.538C48.5701 104.15 45.3061 104.762 42.0421 105.374L48.1621 93.236C51.4261 92.624 54.6901 92.012 57.9541 91.4C61.2181 90.788 64.4821 90.176 67.7461 89.564L61.6261 101.702ZM60.6659 78.48C60.3939 78.548 60.2579 78.378 60.2579 77.97C60.3259 77.494 60.3939 77.086 60.4619 76.746C58.8979 77.426 56.8579 78.038 54.3419 78.582C51.8259 79.126 49.2419 79.602 46.5899 80.01C44.0059 80.418 41.7279 80.724 39.7559 80.928L41.8979 67.974C42.5099 67.906 43.7679 67.77 45.6719 67.566C47.6439 67.362 49.8539 67.09 52.3019 66.75C54.7499 66.41 57.0959 66.036 59.3399 65.628C61.6519 65.152 63.4879 64.608 64.8479 63.996C66.1399 63.452 67.1939 62.67 68.0099 61.65C68.8939 60.562 69.5059 59.576 69.8459 58.692C70.1179 58.148 70.2879 58.216 70.3559 58.896C70.4239 59.508 70.3899 59.882 70.2539 60.018C69.7779 61.582 69.0979 63.486 68.2139 65.73C67.3979 67.906 66.3779 70.116 65.1539 72.36C63.9299 74.604 62.4679 76.644 60.7679 78.48H60.6659ZM118.423 57.202C118.423 55.91 117.811 54.89 116.587 54.142C115.431 53.326 114.105 52.918 112.609 52.918C112.133 52.918 111.657 52.952 111.181 53.02C110.705 53.088 110.263 53.258 109.855 53.53C107.475 54.822 105.333 56.42 103.429 58.324C101.593 60.228 99.7566 62.098 97.9206 63.934C101.525 63.186 104.993 62.404 108.325 61.588C111.725 60.772 114.887 59.65 117.811 58.222C118.219 58.018 118.423 57.678 118.423 57.202ZM84.6606 77.296C83.7086 77.296 82.7906 77.194 81.9066 76.99C81.0906 76.786 80.6826 76.31 80.6826 75.562C80.6826 75.154 80.7166 74.848 80.7846 74.644C79.4246 75.188 77.4186 75.766 74.7666 76.378C72.1826 76.99 69.5306 77.534 66.8106 78.01C64.0906 78.418 61.8126 78.724 59.9766 78.928L62.2206 65.464C74.8006 64.648 82.6206 63.39 85.6806 61.69C87.6526 60.602 89.1146 58.936 90.0666 56.692C90.2706 56.488 90.4066 56.386 90.4746 56.386C90.5426 56.386 90.5766 56.556 90.5766 56.896C90.5766 57.576 90.5426 57.984 90.4746 58.12C90.2026 58.936 89.8286 59.956 89.3526 61.18C88.8766 62.336 88.2646 63.73 87.5166 65.362L87.6186 65.464C89.8626 65.26 91.9706 64.954 93.9426 64.546C96.8666 61.146 99.8246 57.814 102.817 54.55C105.877 51.286 109.039 48.124 112.303 45.064C113.187 44.248 114.479 43.5 116.179 42.82C117.879 42.072 119.681 41.698 121.585 41.698C123.557 41.698 125.223 42.412 126.583 43.84C128.011 45.268 128.725 46.934 128.725 48.838C128.725 50.062 128.453 51.184 127.909 52.204C126.209 55.536 124.271 58.528 122.095 61.18C119.987 63.764 117.369 66.042 114.241 68.014C112.541 69.102 110.739 70.122 108.835 71.074C106.931 72.026 104.959 72.876 102.919 73.624C101.831 73.896 100.437 74.27 98.7366 74.746C97.1046 75.154 95.4386 75.562 93.7386 75.97C92.0386 76.378 90.5086 76.684 89.1486 76.888C88.3326 77.024 87.5506 77.126 86.8026 77.194C86.0546 77.262 85.3406 77.296 84.6606 77.296ZM137.026 101.112C133.286 101.792 129.444 102.064 125.5 101.928C121.624 101.724 117.816 101.452 114.076 101.112C113.736 101.044 113.566 100.84 113.566 100.5C113.566 100.092 113.702 99.82 113.974 99.684C119.278 96.692 124.922 94.074 130.906 91.83C136.89 89.586 142.806 87.274 148.654 84.894C150.218 84.282 151.646 83.5 152.938 82.548C154.23 81.596 155.386 80.542 156.406 79.386C156.746 79.046 156.78 78.468 156.508 77.652C156.304 76.768 156.032 76.088 155.692 75.612C154.06 75.952 152.292 76.054 150.388 75.918C148.552 75.714 147.192 75.136 146.308 74.184C145.56 73.3 145.22 72.314 145.288 71.226C145.356 70.07 145.628 68.982 146.104 67.962C147.26 65.718 148.314 63.44 149.266 61.128C150.286 58.816 151.612 56.742 153.244 54.906C153.992 54.022 154.944 53.784 156.1 54.192C157.324 54.6 158.242 55.11 158.854 55.722C161.506 58.374 163.036 61.536 163.444 65.208C163.852 68.812 163.41 72.552 162.118 76.428C160.894 80.304 158.99 83.976 156.406 87.444C153.89 90.912 150.932 93.904 147.532 96.42C144.2 98.868 140.698 100.432 137.026 101.112ZM185.54 41.702C182.276 42.314 179.012 42.926 175.748 43.538C172.484 44.15 169.22 44.762 165.956 45.374L172.076 33.236C175.34 32.624 178.604 32.012 181.868 31.4C185.132 30.788 188.396 30.176 191.66 29.564L185.54 41.702ZM177.906 73.48C177.634 73.548 177.498 73.378 177.498 72.97C177.566 72.494 177.634 72.086 177.702 71.746C176.138 72.426 174.098 73.038 171.582 73.582C169.066 74.126 166.482 74.602 163.83 75.01C161.246 75.418 158.968 75.724 156.996 75.928L159.138 62.974C159.75 62.906 161.008 62.77 162.912 62.566C164.884 62.362 167.094 62.09 169.542 61.75C171.99 61.41 174.336 61.036 176.58 60.628C178.892 60.152 180.728 59.608 182.088 58.996C183.38 58.452 184.434 57.67 185.25 56.65C186.134 55.562 186.746 54.576 187.086 53.692C187.358 53.148 187.528 53.216 187.596 53.896C187.664 54.508 187.63 54.882 187.494 55.018C187.018 56.582 186.338 58.486 185.454 60.73C184.638 62.906 183.618 65.116 182.394 67.36C181.17 69.604 179.708 71.644 178.008 73.48H177.906ZM202.003 55.364C202.003 50.808 201.901 46.694 201.697 43.022C201.493 39.282 201.255 35.508 200.983 31.7C200.711 27.824 200.439 23.404 200.167 18.44L207.715 6.404L209.551 40.37C209.687 42.342 209.619 44.314 209.347 46.286C209.143 48.19 208.837 49.89 208.429 51.386C206.457 59.138 202.037 64.85 195.169 68.522C192.721 69.814 186.737 71.616 177.217 73.928L177.319 73.52L179.563 60.77C182.555 60.294 185.139 59.886 187.315 59.546C189.559 59.138 191.429 58.764 192.925 58.424C195.985 57.676 199.011 56.656 202.003 55.364ZM218.63 43.89L226.178 31.854L229.034 75.204L221.486 87.24L218.63 43.89Z" fill="#1EA3D8"/>
<path d="M36.456 33.996L34.7616 32.9334L34.4193 33.4792L34.46 34.1222L36.456 33.996ZM44.004 21.96L46.0012 21.8549L45.6689 15.5407L42.3096 20.8974L44.004 21.96ZM44.31 27.774L42.3128 27.8791L42.3141 27.9053L42.3162 27.9314L44.31 27.774ZM44.922 36.546L42.9259 36.6708L42.9261 36.6734L44.922 36.546ZM45.534 46.236L43.5379 46.3608L43.5379 46.3608L45.534 46.236ZM46.044 55.314L44.0464 55.4115L44.0476 55.4357L44.0493 55.46L46.044 55.314ZM46.452 62.046L44.4536 62.1259L44.4552 62.1658L44.4584 62.2055L46.452 62.046ZM46.656 64.596H48.656V64.5161L48.6496 64.4365L46.656 64.596ZM44.514 77.448L46.4051 78.099L46.4083 78.0896L44.514 77.448ZM38.598 89.076L36.9581 87.9311L36.951 87.9414L38.598 89.076ZM31.05 96.726L29.9056 95.0858L29.8965 95.0921L29.8875 95.0985L31.05 96.726ZM22.176 101.112L22.7022 103.042L22.7167 103.038L22.7311 103.033L22.176 101.112ZM13.608 101.724L13.3113 103.702L13.3113 103.702L13.608 101.724ZM6.672 98.358L5.23231 99.7463L5.25755 99.7725L5.28373 99.7977L6.672 98.358ZM3.102 90.504L1.12711 90.82L1.12813 90.8263L3.102 90.504ZM4.224 77.958L2.29327 77.4362L2.29084 77.4452L2.28848 77.4542L4.224 77.958ZM11.874 60.21L13.6264 61.1738L13.6453 61.1395L13.6629 61.1044L11.874 60.21ZM13.098 59.292L12.2036 61.0809L12.3307 61.1444L12.4655 61.1894L13.098 59.292ZM12.996 61.332L14.8343 62.1198L14.8477 62.0886L14.86 62.0569L12.996 61.332ZM10.65 66.228L8.87449 65.3074L8.87449 65.3074L10.65 66.228ZM7.998 71.94L6.14997 71.1753L6.13857 71.2028L6.12801 71.2307L7.998 71.94ZM6.57 77.754L4.58138 77.5409L4.58138 77.5409L6.57 77.754ZM11.772 86.73L10.9704 88.5623L11.1854 88.6564L11.4163 88.6981L11.772 86.73ZM27.276 85.812L27.933 87.701L27.9409 87.6983L27.9487 87.6955L27.276 85.812ZM39.312 79.182L40.5924 80.7185L41.372 80.0687L41.308 79.0558L39.312 79.182ZM38.1504 35.0586L45.6984 23.0226L42.3096 20.8974L34.7616 32.9334L38.1504 35.0586ZM42.0068 22.0651C42.0748 23.3571 42.1768 25.2951 42.3128 27.8791L46.3072 27.6689C46.1712 25.0849 46.0692 23.1469 46.0012 21.8549L42.0068 22.0651ZM42.3162 27.9314C42.5192 30.5022 42.7224 33.415 42.9259 36.6708L46.9181 36.4212C46.7136 33.149 46.5088 30.2138 46.3038 27.6166L42.3162 27.9314ZM42.9261 36.6734C43.13 39.8685 43.334 43.0976 43.5379 46.3608L47.5301 46.1113C47.3261 42.8464 47.122 39.6155 46.9179 36.4186L42.9261 36.6734ZM43.5379 46.3608C43.7414 49.6172 43.9109 52.6339 44.0464 55.4115L48.0416 55.2166C47.9051 52.4181 47.7346 49.3829 47.5301 46.1113L43.5379 46.3608ZM44.0493 55.46C44.2526 58.238 44.3869 60.4574 44.4536 62.1259L48.4504 61.9661C48.3811 60.2346 48.2434 57.966 48.0387 55.1681L44.0493 55.46ZM44.4584 62.2055C44.4586 62.2088 44.4589 62.2121 44.4592 62.2154C44.4594 62.2188 44.4597 62.2221 44.46 62.2254C44.4602 62.2287 44.4605 62.232 44.4608 62.2353C44.461 62.2386 44.4613 62.2419 44.4615 62.2452C44.4618 62.2485 44.4621 62.2518 44.4623 62.2551C44.4626 62.2583 44.4629 62.2616 44.4631 62.2649C44.4634 62.2682 44.4637 62.2715 44.4639 62.2747C44.4642 62.278 44.4644 62.2813 44.4647 62.2846C44.465 62.2878 44.4652 62.2911 44.4655 62.2944C44.4657 62.2976 44.466 62.3009 44.4663 62.3041C44.4665 62.3074 44.4668 62.3106 44.467 62.3139C44.4673 62.3171 44.4676 62.3204 44.4678 62.3236C44.4681 62.3269 44.4683 62.3301 44.4686 62.3333C44.4689 62.3366 44.4691 62.3398 44.4694 62.343C44.4696 62.3463 44.4699 62.3495 44.4702 62.3527C44.4704 62.3559 44.4707 62.3592 44.4709 62.3624C44.4712 62.3656 44.4714 62.3688 44.4717 62.372C44.472 62.3752 44.4722 62.3784 44.4725 62.3816C44.4727 62.3848 44.473 62.388 44.4732 62.3912C44.4735 62.3944 44.4737 62.3976 44.474 62.4008C44.4743 62.404 44.4745 62.4072 44.4748 62.4104C44.475 62.4136 44.4753 62.4168 44.4755 62.4199C44.4758 62.4231 44.476 62.4263 44.4763 62.4295C44.4765 62.4326 44.4768 62.4358 44.477 62.439C44.4773 62.4421 44.4776 62.4453 44.4778 62.4484C44.4781 62.4516 44.4783 62.4548 44.4786 62.4579C44.4788 62.4611 44.4791 62.4642 44.4793 62.4674C44.4796 62.4705 44.4798 62.4736 44.4801 62.4768C44.4803 62.4799 44.4806 62.4831 44.4808 62.4862C44.4811 62.4893 44.4813 62.4924 44.4816 62.4956C44.4818 62.4987 44.4821 62.5018 44.4823 62.5049C44.4826 62.5081 44.4828 62.5112 44.4831 62.5143C44.4833 62.5174 44.4836 62.5205 44.4838 62.5236C44.4841 62.5267 44.4843 62.5298 44.4846 62.5329C44.4848 62.536 44.4851 62.5391 44.4853 62.5422C44.4856 62.5453 44.4858 62.5484 44.4861 62.5515C44.4863 62.5546 44.4865 62.5577 44.4868 62.5607C44.487 62.5638 44.4873 62.5669 44.4875 62.57C44.4878 62.573 44.488 62.5761 44.4883 62.5792C44.4885 62.5822 44.4888 62.5853 44.489 62.5884C44.4892 62.5914 44.4895 62.5945 44.4897 62.5975C44.49 62.6006 44.4902 62.6036 44.4905 62.6067C44.4907 62.6097 44.491 62.6128 44.4912 62.6158C44.4914 62.6189 44.4917 62.6219 44.4919 62.6249C44.4922 62.628 44.4924 62.631 44.4927 62.634C44.4929 62.6371 44.4931 62.6401 44.4934 62.6431C44.4936 62.6461 44.4939 62.6492 44.4941 62.6522C44.4943 62.6552 44.4946 62.6582 44.4948 62.6612C44.4951 62.6642 44.4953 62.6672 44.4956 62.6702C44.4958 62.6732 44.496 62.6762 44.4963 62.6792C44.4965 62.6822 44.4967 62.6852 44.497 62.6882C44.4972 62.6912 44.4975 62.6942 44.4977 62.6972C44.4979 62.7001 44.4982 62.7031 44.4984 62.7061C44.4987 62.7091 44.4989 62.7121 44.4991 62.715C44.4994 62.718 44.4996 62.721 44.4998 62.7239C44.5001 62.7269 44.5003 62.7298 44.5006 62.7328C44.5008 62.7358 44.501 62.7387 44.5013 62.7417C44.5015 62.7446 44.5017 62.7476 44.502 62.7505C44.5022 62.7535 44.5024 62.7564 44.5027 62.7593C44.5029 62.7623 44.5031 62.7652 44.5034 62.7681C44.5036 62.7711 44.5039 62.774 44.5041 62.7769C44.5043 62.7798 44.5046 62.7828 44.5048 62.7857C44.505 62.7886 44.5053 62.7915 44.5055 62.7944C44.5057 62.7973 44.506 62.8002 44.5062 62.8032C44.5064 62.8061 44.5066 62.809 44.5069 62.8119C44.5071 62.8148 44.5073 62.8177 44.5076 62.8205C44.5078 62.8234 44.508 62.8263 44.5083 62.8292C44.5085 62.8321 44.5087 62.835 44.509 62.8379C44.5092 62.8407 44.5094 62.8436 44.5097 62.8465C44.5099 62.8494 44.5101 62.8522 44.5103 62.8551C44.5106 62.858 44.5108 62.8608 44.511 62.8637C44.5113 62.8665 44.5115 62.8694 44.5117 62.8723C44.5119 62.8751 44.5122 62.878 44.5124 62.8808C44.5126 62.8837 44.5129 62.8865 44.5131 62.8893C44.5133 62.8922 44.5135 62.895 44.5138 62.8978C44.514 62.9007 44.5142 62.9035 44.5144 62.9063C44.5147 62.9092 44.5149 62.912 44.5151 62.9148C44.5153 62.9176 44.5156 62.9205 44.5158 62.9233C44.516 62.9261 44.5162 62.9289 44.5165 62.9317C44.5167 62.9345 44.5169 62.9373 44.5171 62.9401C44.5174 62.9429 44.5176 62.9457 44.5178 62.9485C44.518 62.9513 44.5183 62.9541 44.5185 62.9569C44.5187 62.9597 44.5189 62.9625 44.5192 62.9652C44.5194 62.968 44.5196 62.9708 44.5198 62.9736C44.52 62.9764 44.5203 62.9791 44.5205 62.9819C44.5207 62.9847 44.5209 62.9874 44.5211 62.9902C44.5214 62.993 44.5216 62.9957 44.5218 62.9985C44.522 63.0012 44.5223 63.004 44.5225 63.0067C44.5227 63.0095 44.5229 63.0122 44.5231 63.015C44.5233 63.0177 44.5236 63.0205 44.5238 63.0232C44.524 63.0259 44.5242 63.0287 44.5244 63.0314C44.5247 63.0341 44.5249 63.0368 44.5251 63.0396C44.5253 63.0423 44.5255 63.045 44.5258 63.0477C44.526 63.0504 44.5262 63.0532 44.5264 63.0559C44.5266 63.0586 44.5268 63.0613 44.5271 63.064C44.5273 63.0667 44.5275 63.0694 44.5277 63.0721C44.5279 63.0748 44.5281 63.0775 44.5283 63.0802C44.5286 63.0829 44.5288 63.0856 44.529 63.0882C44.5292 63.0909 44.5294 63.0936 44.5296 63.0963C44.5299 63.099 44.5301 63.1016 44.5303 63.1043C44.5305 63.107 44.5307 63.1097 44.5309 63.1123C44.5311 63.115 44.5313 63.1176 44.5316 63.1203C44.5318 63.123 44.532 63.1256 44.5322 63.1283C44.5324 63.1309 44.5326 63.1336 44.5328 63.1362C44.533 63.1389 44.5333 63.1415 44.5335 63.1441C44.5337 63.1468 44.5339 63.1494 44.5341 63.1521C44.5343 63.1547 44.5345 63.1573 44.5347 63.1599C44.5349 63.1626 44.5351 63.1652 44.5354 63.1678C44.5356 63.1704 44.5358 63.1731 44.536 63.1757C44.5362 63.1783 44.5364 63.1809 44.5366 63.1835C44.5368 63.1861 44.537 63.1887 44.5372 63.1913C44.5374 63.1939 44.5377 63.1965 44.5379 63.1991C44.5381 63.2017 44.5383 63.2043 44.5385 63.2069C44.5387 63.2095 44.5389 63.212 44.5391 63.2146C44.5393 63.2172 44.5395 63.2198 44.5397 63.2224C44.5399 63.2249 44.5401 63.2275 44.5403 63.2301C44.5405 63.2326 44.5407 63.2352 44.541 63.2378C44.5412 63.2403 44.5414 63.2429 44.5416 63.2454C44.5418 63.248 44.542 63.2505 44.5422 63.2531C44.5424 63.2556 44.5426 63.2582 44.5428 63.2607C44.543 63.2633 44.5432 63.2658 44.5434 63.2684C44.5436 63.2709 44.5438 63.2734 44.544 63.2759C44.5442 63.2785 44.5444 63.281 44.5446 63.2835C44.5448 63.286 44.545 63.2886 44.5452 63.2911C44.5454 63.2936 44.5456 63.2961 44.5458 63.2986C44.546 63.3011 44.5462 63.3036 44.5464 63.3061C44.5466 63.3086 44.5468 63.3111 44.547 63.3136C44.5472 63.3161 44.5474 63.3186 44.5476 63.3211C44.5478 63.3236 44.548 63.3261 44.5482 63.3286C44.5484 63.3311 44.5486 63.3335 44.5488 63.336C44.549 63.3385 44.5492 63.341 44.5494 63.3434C44.5496 63.3459 44.5498 63.3484 44.55 63.3508C44.5502 63.3533 44.5504 63.3558 44.5506 63.3582C44.5508 63.3607 44.551 63.3631 44.5512 63.3656C44.5514 63.368 44.5516 63.3705 44.5518 63.3729C44.552 63.3754 44.5522 63.3778 44.5524 63.3803C44.5525 63.3827 44.5527 63.3851 44.5529 63.3876C44.5531 63.39 44.5533 63.3924 44.5535 63.3949C44.5537 63.3973 44.5539 63.3997 44.5541 63.4021C44.5543 63.4045 44.5545 63.407 44.5547 63.4094C44.5549 63.4118 44.5551 63.4142 44.5553 63.4166C44.5555 63.419 44.5556 63.4214 44.5558 63.4238C44.556 63.4262 44.5562 63.4286 44.5564 63.431C44.5566 63.4334 44.5568 63.4358 44.557 63.4382C44.5572 63.4405 44.5574 63.4429 44.5576 63.4453C44.5577 63.4477 44.5579 63.4501 44.5581 63.4524C44.5583 63.4548 44.5585 63.4572 44.5587 63.4596C44.5589 63.4619 44.5591 63.4643 44.5593 63.4666C44.5595 63.469 44.5596 63.4714 44.5598 63.4737C44.56 63.4761 44.5602 63.4784 44.5604 63.4808C44.5606 63.4831 44.5608 63.4855 44.561 63.4878C44.5611 63.4901 44.5613 63.4925 44.5615 63.4948C44.5617 63.4972 44.5619 63.4995 44.5621 63.5018C44.5623 63.5041 44.5624 63.5065 44.5626 63.5088C44.5628 63.5111 44.563 63.5134 44.5632 63.5157C44.5634 63.5181 44.5636 63.5204 44.5637 63.5227C44.5639 63.525 44.5641 63.5273 44.5643 63.5296C44.5645 63.5319 44.5647 63.5342 44.5649 63.5365C44.565 63.5388 44.5652 63.5411 44.5654 63.5434C44.5656 63.5457 44.5658 63.5479 44.566 63.5502C44.5661 63.5525 44.5663 63.5548 44.5665 63.5571C44.5667 63.5593 44.5669 63.5616 44.567 63.5639C44.5672 63.5662 44.5674 63.5684 44.5676 63.5707C44.5678 63.5729 44.5679 63.5752 44.5681 63.5775C44.5683 63.5797 44.5685 63.582 44.5687 63.5842C44.5689 63.5865 44.569 63.5887 44.5692 63.591C44.5694 63.5932 44.5696 63.5954 44.5697 63.5977C44.5699 63.5999 44.5701 63.6022 44.5703 63.6044C44.5705 63.6066 44.5706 63.6088 44.5708 63.6111C44.571 63.6133 44.5712 63.6155 44.5714 63.6177C44.5715 63.6199 44.5717 63.6222 44.5719 63.6244C44.5721 63.6266 44.5722 63.6288 44.5724 63.631C44.5726 63.6332 44.5728 63.6354 44.5729 63.6376C44.5731 63.6398 44.5733 63.642 44.5735 63.6442C44.5736 63.6464 44.5738 63.6486 44.574 63.6508C44.5742 63.6529 44.5743 63.6551 44.5745 63.6573C44.5747 63.6595 44.5749 63.6617 44.575 63.6638C44.5752 63.666 44.5754 63.6682 44.5756 63.6703C44.5757 63.6725 44.5759 63.6747 44.5761 63.6768C44.5763 63.679 44.5764 63.6811 44.5766 63.6833C44.5768 63.6854 44.5769 63.6876 44.5771 63.6897C44.5773 63.6919 44.5775 63.694 44.5776 63.6962C44.5778 63.6983 44.578 63.7005 44.5781 63.7026C44.5783 63.7047 44.5785 63.7068 44.5787 63.709C44.5788 63.7111 44.579 63.7132 44.5792 63.7153C44.5793 63.7175 44.5795 63.7196 44.5797 63.7217C44.5798 63.7238 44.58 63.7259 44.5802 63.728C44.5803 63.7301 44.5805 63.7322 44.5807 63.7343C44.5808 63.7364 44.581 63.7385 44.5812 63.7406C44.5814 63.7427 44.5815 63.7448 44.5817 63.7469C44.5819 63.749 44.582 63.7511 44.5822 63.7532C44.5824 63.7552 44.5825 63.7573 44.5827 63.7594C44.5829 63.7615 44.583 63.7636 44.5832 63.7656C44.5833 63.7677 44.5835 63.7698 44.5837 63.7718C44.5838 63.7739 44.584 63.7759 44.5842 63.778C44.5843 63.78 44.5845 63.7821 44.5847 63.7841C44.5848 63.7862 44.585 63.7882 44.5852 63.7903C44.5853 63.7923 44.5855 63.7944 44.5856 63.7964C44.5858 63.7984 44.586 63.8005 44.5861 63.8025C44.5863 63.8045 44.5865 63.8066 44.5866 63.8086C44.5868 63.8106 44.5869 63.8126 44.5871 63.8146C44.5873 63.8167 44.5874 63.8187 44.5876 63.8207C44.5877 63.8227 44.5879 63.8247 44.5881 63.8267C44.5882 63.8287 44.5884 63.8307 44.5885 63.8327C44.5887 63.8347 44.5889 63.8367 44.589 63.8387C44.5892 63.8407 44.5893 63.8427 44.5895 63.8447C44.5897 63.8466 44.5898 63.8486 44.59 63.8506C44.5901 63.8526 44.5903 63.8546 44.5905 63.8565C44.5906 63.8585 44.5908 63.8605 44.5909 63.8624C44.5911 63.8644 44.5912 63.8664 44.5914 63.8683C44.5916 63.8703 44.5917 63.8722 44.5919 63.8742C44.592 63.8761 44.5922 63.8781 44.5923 63.88C44.5925 63.882 44.5926 63.8839 44.5928 63.8859C44.593 63.8878 44.5931 63.8897 44.5933 63.8917C44.5934 63.8936 44.5936 63.8955 44.5937 63.8974C44.5939 63.8994 44.594 63.9013 44.5942 63.9032C44.5943 63.9051 44.5945 63.9071 44.5946 63.909C44.5948 63.9109 44.595 63.9128 44.5951 63.9147C44.5953 63.9166 44.5954 63.9185 44.5956 63.9204C44.5957 63.9223 44.5959 63.9242 44.596 63.9261C44.5962 63.928 44.5963 63.9299 44.5965 63.9318C44.5966 63.9337 44.5968 63.9355 44.5969 63.9374C44.5971 63.9393 44.5972 63.9412 44.5974 63.943C44.5975 63.9449 44.5977 63.9468 44.5978 63.9487C44.598 63.9505 44.5981 63.9524 44.5983 63.9543C44.5984 63.9561 44.5986 63.958 44.5987 63.9598C44.5989 63.9617 44.599 63.9635 44.5992 63.9654C44.5993 63.9672 44.5995 63.9691 44.5996 63.9709C44.5998 63.9728 44.5999 63.9746 44.6 63.9764C44.6002 63.9783 44.6003 63.9801 44.6005 63.9819C44.6006 63.9838 44.6008 63.9856 44.6009 63.9874C44.6011 63.9892 44.6012 63.991 44.6014 63.9929C44.6015 63.9947 44.6017 63.9965 44.6018 63.9983C44.6019 64.0001 44.6021 64.0019 44.6022 64.0037C44.6024 64.0055 44.6025 64.0073 44.6027 64.0091C44.6028 64.0109 44.6029 64.0127 44.6031 64.0145C44.6032 64.0163 44.6034 64.0181 44.6035 64.0199C44.6037 64.0216 44.6038 64.0234 44.6039 64.0252C44.6041 64.027 44.6042 64.0287 44.6044 64.0305C44.6045 64.0323 44.6047 64.0341 44.6048 64.0358C44.6049 64.0376 44.6051 64.0393 44.6052 64.0411C44.6054 64.0429 44.6055 64.0446 44.6056 64.0464C44.6058 64.0481 44.6059 64.0499 44.6061 64.0516C44.6062 64.0534 44.6063 64.0551 44.6065 64.0568C44.6066 64.0586 44.6068 64.0603 44.6069 64.062C44.607 64.0638 44.6072 64.0655 44.6073 64.0672C44.6074 64.0689 44.6076 64.0707 44.6077 64.0724C44.6079 64.0741 44.608 64.0758 44.6081 64.0775C44.6083 64.0792 44.6084 64.081 44.6085 64.0827C44.6087 64.0844 44.6088 64.0861 44.609 64.0878C44.6091 64.0895 44.6092 64.0912 44.6094 64.0929C44.6095 64.0945 44.6096 64.0962 44.6098 64.0979C44.6099 64.0996 44.61 64.1013 44.6102 64.103C44.6103 64.1046 44.6104 64.1063 44.6106 64.108C44.6107 64.1097 44.6108 64.1113 44.611 64.113C44.6111 64.1147 44.6112 64.1163 44.6114 64.118C44.6115 64.1197 44.6116 64.1213 44.6118 64.123C44.6119 64.1246 44.612 64.1263 44.6122 64.1279C44.6123 64.1296 44.6124 64.1312 44.6126 64.1329C44.6127 64.1345 44.6128 64.1361 44.613 64.1378C44.6131 64.1394 44.6132 64.141 44.6133 64.1427C44.6135 64.1443 44.6136 64.1459 44.6137 64.1475C44.6139 64.1492 44.614 64.1508 44.6141 64.1524C44.6143 64.154 44.6144 64.1556 44.6145 64.1572C44.6146 64.1588 44.6148 64.1604 44.6149 64.162C44.615 64.1636 44.6152 64.1652 44.6153 64.1668C44.6154 64.1684 44.6155 64.17 44.6157 64.1716C44.6158 64.1732 44.6159 64.1748 44.616 64.1764C44.6162 64.1779 44.6163 64.1795 44.6164 64.1811C44.6165 64.1827 44.6167 64.1842 44.6168 64.1858C44.6169 64.1874 44.617 64.189 44.6172 64.1905C44.6173 64.1921 44.6174 64.1936 44.6175 64.1952C44.6177 64.1968 44.6178 64.1983 44.6179 64.1999C44.618 64.2014 44.6182 64.203 44.6183 64.2045C44.6184 64.206 44.6185 64.2076 44.6187 64.2091C44.6188 64.2107 44.6189 64.2122 44.619 64.2137C44.6192 64.2152 44.6193 64.2168 44.6194 64.2183C44.6195 64.2198 44.6196 64.2213 44.6198 64.2229C44.6199 64.2244 44.62 64.2259 44.6201 64.2274C44.6202 64.2289 44.6204 64.2304 44.6205 64.2319C44.6206 64.2334 44.6207 64.2349 44.6208 64.2364C44.621 64.2379 44.6211 64.2394 44.6212 64.2409C44.6213 64.2424 44.6214 64.2439 44.6216 64.2454C44.6217 64.2469 44.6218 64.2483 44.6219 64.2498C44.622 64.2513 44.6222 64.2528 44.6223 64.2542C44.6224 64.2557 44.6225 64.2572 44.6226 64.2587C44.6227 64.2601 44.6229 64.2616 44.623 64.263C44.6231 64.2645 44.6232 64.266 44.6233 64.2674C44.6234 64.2689 44.6236 64.2703 44.6237 64.2718C44.6238 64.2732 44.6239 64.2746 44.624 64.2761C44.6241 64.2775 44.6243 64.279 44.6244 64.2804C44.6245 64.2818 44.6246 64.2833 44.6247 64.2847C44.6248 64.2861 44.6249 64.2875 44.625 64.289C44.6252 64.2904 44.6253 64.2918 44.6254 64.2932C44.6255 64.2946 44.6256 64.296 44.6257 64.2974C44.6258 64.2988 44.626 64.3003 44.6261 64.3017C44.6262 64.3031 44.6263 64.3045 44.6264 64.3058C44.6265 64.3072 44.6266 64.3086 44.6267 64.31C44.6268 64.3114 44.627 64.3128 44.6271 64.3142C44.6272 64.3156 44.6273 64.3169 44.6274 64.3183C44.6275 64.3197 44.6276 64.3211 44.6277 64.3224C44.6278 64.3238 44.6279 64.3252 44.6281 64.3265C44.6282 64.3279 44.6283 64.3292 44.6284 64.3306C44.6285 64.3319 44.6286 64.3333 44.6287 64.3346C44.6288 64.336 44.6289 64.3373 44.629 64.3387C44.6291 64.34 44.6292 64.3414 44.6293 64.3427C44.6295 64.344 44.6296 64.3454 44.6297 64.3467C44.6298 64.348 44.6299 64.3494 44.63 64.3507C44.6301 64.352 44.6302 64.3533 44.6303 64.3546C44.6304 64.356 44.6305 64.3573 44.6306 64.3586C44.6307 64.3599 44.6308 64.3612 44.6309 64.3625C44.631 64.3638 44.6311 64.3651 44.6312 64.3664C44.6313 64.3677 44.6315 64.369 44.6316 64.3703C44.6317 64.3716 44.6318 64.3729 44.6319 64.3741C44.632 64.3754 44.6321 64.3767 44.6322 64.378C44.6323 64.3793 44.6324 64.3805 44.6325 64.3818C44.6326 64.3831 44.6327 64.3843 44.6328 64.3856C44.6329 64.3869 44.633 64.3881 44.6331 64.3894C44.6332 64.3907 44.6333 64.3919 44.6334 64.3932C44.6335 64.3944 44.6336 64.3957 44.6337 64.3969C44.6338 64.3981 44.6339 64.3994 44.634 64.4006C44.6341 64.4019 44.6342 64.4031 44.6343 64.4043C44.6344 64.4056 44.6345 64.4068 44.6346 64.408C44.6347 64.4092 44.6348 64.4105 44.6349 64.4117C44.635 64.4129 44.6351 64.4141 44.6352 64.4153C44.6353 64.4165 44.6354 64.4178 44.6355 64.419C44.6355 64.4202 44.6356 64.4214 44.6357 64.4226C44.6358 64.4238 44.6359 64.425 44.636 64.4262C44.6361 64.4274 44.6362 64.4285 44.6363 64.4297C44.6364 64.4309 44.6365 64.4321 44.6366 64.4333C44.6367 64.4345 44.6368 64.4356 44.6369 64.4368C44.637 64.438 44.6371 64.4392 44.6372 64.4403C44.6373 64.4415 44.6373 64.4427 44.6374 64.4438C44.6375 64.445 44.6376 64.4461 44.6377 64.4473C44.6378 64.4484 44.6379 64.4496 44.638 64.4507C44.6381 64.4519 44.6382 64.453 44.6383 64.4542C44.6384 64.4553 44.6384 64.4565 44.6385 64.4576C44.6386 64.4587 44.6387 64.4599 44.6388 64.461C44.6389 64.4621 44.639 64.4632 44.6391 64.4644C44.6392 64.4655 44.6393 64.4666 44.6394 64.4677C44.6394 64.4688 44.6395 64.4699 44.6396 64.4711C44.6397 64.4722 44.6398 64.4733 44.6399 64.4744C44.64 64.4755 44.6401 64.4766 44.6401 64.4777C44.6402 64.4788 44.6403 64.4799 44.6404 64.4809C44.6405 64.482 44.6406 64.4831 44.6407 64.4842C44.6408 64.4853 44.6408 64.4864 44.6409 64.4874C44.641 64.4885 44.6411 64.4896 44.6412 64.4907C44.6413 64.4917 44.6414 64.4928 44.6414 64.4939C44.6415 64.4949 44.6416 64.496 44.6417 64.497C44.6418 64.4981 44.6419 64.4992 44.6419 64.5002C44.642 64.5013 44.6421 64.5023 44.6422 64.5034C44.6423 64.5044 44.6424 64.5054 44.6425 64.5065C44.6425 64.5075 44.6426 64.5085 44.6427 64.5096C44.6428 64.5106 44.6429 64.5116 44.6429 64.5127C44.643 64.5137 44.6431 64.5147 44.6432 64.5157C44.6433 64.5167 44.6434 64.5178 44.6434 64.5188C44.6435 64.5198 44.6436 64.5208 44.6437 64.5218C44.6438 64.5228 44.6438 64.5238 44.6439 64.5248C44.644 64.5258 44.6441 64.5268 44.6442 64.5278C44.6442 64.5288 44.6443 64.5298 44.6444 64.5308C44.6445 64.5317 44.6446 64.5327 44.6446 64.5337C44.6447 64.5347 44.6448 64.5357 44.6449 64.5366C44.6449 64.5376 44.645 64.5386 44.6451 64.5395C44.6452 64.5405 44.6453 64.5415 44.6453 64.5424C44.6454 64.5434 44.6455 64.5443 44.6456 64.5453C44.6456 64.5462 44.6457 64.5472 44.6458 64.5481C44.6459 64.5491 44.6459 64.55 44.646 64.551C44.6461 64.5519 44.6462 64.5529 44.6462 64.5538C44.6463 64.5547 44.6464 64.5557 44.6465 64.5566C44.6465 64.5575 44.6466 64.5584 44.6467 64.5594C44.6468 64.5603 44.6468 64.5612 44.6469 64.5621C44.647 64.563 44.647 64.5639 44.6471 64.5648C44.6472 64.5657 44.6473 64.5667 44.6473 64.5676C44.6474 64.5685 44.6475 64.5694 44.6476 64.5702C44.6476 64.5711 44.6477 64.572 44.6478 64.5729C44.6478 64.5738 44.6479 64.5747 44.648 64.5756C44.648 64.5765 44.6481 64.5773 44.6482 64.5782C44.6483 64.5791 44.6483 64.58 44.6484 64.5808C44.6485 64.5817 44.6485 64.5826 44.6486 64.5834C44.6487 64.5843 44.6487 64.5851 44.6488 64.586C44.6489 64.5869 44.649 64.5877 44.649 64.5886C44.6491 64.5894 44.6492 64.5903 44.6492 64.5911C44.6493 64.5919 44.6494 64.5928 44.6494 64.5936C44.6495 64.5945 44.6496 64.5953 44.6496 64.5961C44.6497 64.597 44.6498 64.5978 44.6498 64.5986C44.6499 64.5994 44.65 64.6002 44.65 64.6011C44.6501 64.6019 44.6501 64.6027 44.6502 64.6035C44.6503 64.6043 44.6503 64.6051 44.6504 64.6059C44.6505 64.6067 44.6505 64.6075 44.6506 64.6083C44.6507 64.6091 44.6507 64.6099 44.6508 64.6107C44.6509 64.6115 44.6509 64.6123 44.651 64.6131C44.651 64.6139 44.6511 64.6146 44.6512 64.6154C44.6512 64.6162 44.6513 64.617 44.6514 64.6177C44.6514 64.6185 44.6515 64.6193 44.6515 64.6201C44.6516 64.6208 44.6517 64.6216 44.6517 64.6223C44.6518 64.6231 44.6518 64.6239 44.6519 64.6246C44.652 64.6254 44.652 64.6261 44.6521 64.6269C44.6521 64.6276 44.6522 64.6283 44.6523 64.6291C44.6523 64.6298 44.6524 64.6306 44.6524 64.6313C44.6525 64.632 44.6526 64.6327 44.6526 64.6335C44.6527 64.6342 44.6527 64.6349 44.6528 64.6356C44.6528 64.6364 44.6529 64.6371 44.653 64.6378C44.653 64.6385 44.6531 64.6392 44.6531 64.6399C44.6532 64.6406 44.6532 64.6413 44.6533 64.642C44.6534 64.6427 44.6534 64.6434 44.6535 64.6441C44.6535 64.6448 44.6536 64.6455 44.6536 64.6462C44.6537 64.6469 44.6537 64.6476 44.6538 64.6483C44.6538 64.6489 44.6539 64.6496 44.654 64.6503C44.654 64.651 44.6541 64.6516 44.6541 64.6523C44.6542 64.653 44.6542 64.6536 44.6543 64.6543C44.6543 64.655 44.6544 64.6556 44.6544 64.6563C44.6545 64.6569 44.6545 64.6576 44.6546 64.6582C44.6546 64.6589 44.6547 64.6595 44.6547 64.6602C44.6548 64.6608 44.6548 64.6614 44.6549 64.6621C44.6549 64.6627 44.655 64.6633 44.6551 64.664C44.6551 64.6646 44.6552 64.6652 44.6552 64.6658C44.6553 64.6665 44.6553 64.6671 44.6553 64.6677C44.6554 64.6683 44.6554 64.6689 44.6555 64.6695C44.6555 64.6702 44.6556 64.6708 44.6556 64.6714C44.6557 64.672 44.6557 64.6726 44.6558 64.6732C44.6558 64.6738 44.6559 64.6744 44.6559 64.6749C44.656 64.6755 44.656 64.6761 44.6561 64.6767C44.6561 64.6773 44.6562 64.6779 44.6562 64.6784C44.6563 64.679 44.6563 64.6796 44.6563 64.6802C44.6564 64.6807 44.6564 64.6813 44.6565 64.6819C44.6565 64.6824 44.6566 64.683 44.6566 64.6836C44.6567 64.6841 44.6567 64.6847 44.6568 64.6852C44.6568 64.6858 44.6568 64.6863 44.6569 64.6869C44.6569 64.6874 44.657 64.6879 44.657 64.6885C44.6571 64.689 44.6571 64.6896 44.6571 64.6901C44.6572 64.6906 44.6572 64.6911 44.6573 64.6917C44.6573 64.6922 44.6574 64.6927 44.6574 64.6932C44.6574 64.6938 44.6575 64.6943 44.6575 64.6948C44.6576 64.6953 44.6576 64.6958 44.6576 64.6963C44.6577 64.6968 44.6577 64.6973 44.6578 64.6978C44.6578 64.6983 44.6578 64.6988 44.6579 64.6993C44.6579 64.6998 44.658 64.7003 44.658 64.7008C44.658 64.7013 44.6581 64.7017 44.6581 64.7022C44.6581 64.7027 44.6582 64.7032 44.6582 64.7037C44.6583 64.7041 44.6583 64.7046 44.6583 64.7051C44.6584 64.7055 44.6584 64.706 44.6584 64.7065C44.6585 64.7069 44.6585 64.7074 44.6586 64.7078C44.6586 64.7083 44.6586 64.7087 44.6587 64.7092C44.6587 64.7096 44.6587 64.7101 44.6588 64.7105C44.6588 64.711 44.6588 64.7114 44.6589 64.7118C44.6589 64.7123 44.6589 64.7127 44.659 64.7131C44.659 64.7136 44.6591 64.714 44.6591 64.7144C44.6591 64.7148 44.6592 64.7152 44.6592 64.7157C44.6592 64.7161 44.6593 64.7165 44.6593 64.7169C44.6593 64.7173 44.6593 64.7177 44.6594 64.7181C44.6594 64.7185 44.6594 64.7189 44.6595 64.7193C44.6595 64.7197 44.6595 64.7201 44.6596 64.7205C44.6596 64.7209 44.6596 64.7213 44.6597 64.7216C44.6597 64.722 44.6597 64.7224 44.6598 64.7228C44.6598 64.7231 44.6598 64.7235 44.6598 64.7239C44.6599 64.7243 44.6599 64.7246 44.6599 64.725C44.66 64.7254 44.66 64.7257 44.66 64.7261C44.66 64.7264 44.6601 64.7268 44.6601 64.7271C44.6601 64.7275 44.6602 64.7278 44.6602 64.7282C44.6602 64.7285 44.6602 64.7289 44.6603 64.7292C44.6603 64.7295 44.6603 64.7299 44.6603 64.7302C44.6604 64.7305 44.6604 64.7309 44.6604 64.7312C44.6605 64.7315 44.6605 64.7318 44.6605 64.7321C44.6605 64.7325 44.6606 64.7328 44.6606 64.7331C44.6606 64.7334 44.6606 64.7337 44.6607 64.734C44.6607 64.7343 44.6607 64.7346 44.6607 64.7349C44.6608 64.7352 44.6608 64.7355 44.6608 64.7358C44.6608 64.7361 44.6608 64.7364 44.6609 64.7367C44.6609 64.7369 44.6609 64.7372 44.6609 64.7375C44.661 64.7378 44.661 64.7381 44.661 64.7383C44.661 64.7386 44.661 64.7389 44.6611 64.7391C44.6611 64.7394 44.6611 64.7397 44.6611 64.7399C44.6611 64.7402 44.6612 64.7404 44.6612 64.7407C44.6612 64.741 44.6612 64.7412 44.6612 64.7415C44.6613 64.7417 44.6613 64.7419 44.6613 64.7422C44.6613 64.7424 44.6613 64.7427 44.6614 64.7429C44.6614 64.7431 44.6614 64.7434 44.6614 64.7436C44.6614 64.7438 44.6615 64.744 44.6615 64.7443C44.6615 64.7445 44.6615 64.7447 44.6615 64.7449C44.6615 64.7451 44.6616 64.7453 44.6616 64.7455C44.6616 64.7457 44.6616 64.7459 44.6616 64.7461C44.6616 64.7463 44.6617 64.7465 44.6617 64.7467C44.6617 64.7469 44.6617 64.7471 44.6617 64.7473C44.6617 64.7475 44.6617 64.7477 44.6618 64.7479C44.6618 64.7481 44.6618 64.7482 44.6618 64.7484C44.6618 64.7486 44.6618 64.7488 44.6618 64.7489C44.6619 64.7491 44.6619 64.7493 44.6619 64.7494C44.6619 64.7496 44.6619 64.7497 44.6619 64.7499C44.6619 64.75 44.6619 64.7502 44.662 64.7504C44.662 64.7505 44.662 64.7506 44.662 64.7508C44.662 64.7509 44.662 64.7511 44.662 64.7512C44.662 64.7513 44.6621 64.7515 44.6621 64.7516C44.6621 64.7517 44.6621 64.7519 44.6621 64.752C44.6621 64.7521 44.6621 64.7522 44.6621 64.7523C44.6621 64.7525 44.6621 64.7526 44.6621 64.7527C44.6622 64.7528 44.6622 64.7529 44.6622 64.753C44.6622 64.7531 44.6622 64.7532 44.6622 64.7533C44.6622 64.7534 44.6622 64.7535 44.6622 64.7536C44.6622 64.7537 44.6622 64.7538 44.6622 64.7539C44.6622 64.7539 44.6623 64.754 44.6623 64.7541C44.6623 64.7542 44.6623 64.7542 44.6623 64.7543C44.6623 64.7544 44.6623 64.7545 44.6623 64.7545C44.6623 64.7546 44.6623 64.7547 44.6623 64.7547C44.6623 64.7548 44.6623 64.7548 44.6623 64.7549C44.6623 64.7549 44.6623 64.755 44.6623 64.755C44.6623 64.7551 44.6623 64.7551 44.6623 64.7551C44.6623 64.7552 44.6624 64.7552 44.6624 64.7553C44.6624 64.7553 44.6624 64.7553 44.6624 64.7553C44.6624 64.7554 44.6624 64.7554 44.6624 64.7554C44.6624 64.7554 44.6624 64.7554 44.6624 64.7555C44.6624 64.7555 44.6624 64.7555 44.6624 64.7555C44.6624 64.7555 44.6624 64.7555 46.656 64.596C48.6496 64.4365 48.6496 64.4365 48.6496 64.4365C48.6496 64.4365 48.6496 64.4365 48.6496 64.4365C48.6496 64.4365 48.6496 64.4364 48.6496 64.4364C48.6496 64.4364 48.6496 64.4364 48.6496 64.4364C48.6496 64.4363 48.6496 64.4363 48.6496 64.4363C48.6496 64.4362 48.6496 64.4362 48.6496 64.4362C48.6496 64.4361 48.6496 64.4361 48.6496 64.436C48.6496 64.436 48.6496 64.4359 48.6496 64.4359C48.6496 64.4358 48.6496 64.4358 48.6496 64.4357C48.6496 64.4357 48.6496 64.4356 48.6496 64.4355C48.6496 64.4355 48.6495 64.4354 48.6495 64.4353C48.6495 64.4353 48.6495 64.4352 48.6495 64.4351C48.6495 64.435 48.6495 64.435 48.6495 64.4349C48.6495 64.4348 48.6495 64.4347 48.6495 64.4346C48.6495 64.4345 48.6495 64.4344 48.6495 64.4343C48.6495 64.4342 48.6494 64.4341 48.6494 64.434C48.6494 64.4339 48.6494 64.4338 48.6494 64.4337C48.6494 64.4336 48.6494 64.4335 48.6494 64.4334C48.6494 64.4332 48.6494 64.4331 48.6494 64.433C48.6493 64.4329 48.6493 64.4328 48.6493 64.4326C48.6493 64.4325 48.6493 64.4324 48.6493 64.4322C48.6493 64.4321 48.6493 64.432 48.6493 64.4318C48.6492 64.4317 48.6492 64.4315 48.6492 64.4314C48.6492 64.4312 48.6492 64.4311 48.6492 64.4309C48.6492 64.4308 48.6492 64.4306 48.6491 64.4304C48.6491 64.4303 48.6491 64.4301 48.6491 64.4299C48.6491 64.4298 48.6491 64.4296 48.6491 64.4294C48.6491 64.4292 48.649 64.4291 48.649 64.4289C48.649 64.4287 48.649 64.4285 48.649 64.4283C48.649 64.4281 48.6489 64.428 48.6489 64.4278C48.6489 64.4276 48.6489 64.4274 48.6489 64.4272C48.6489 64.427 48.6489 64.4268 48.6488 64.4266C48.6488 64.4263 48.6488 64.4261 48.6488 64.4259C48.6488 64.4257 48.6488 64.4255 48.6487 64.4253C48.6487 64.4251 48.6487 64.4248 48.6487 64.4246C48.6487 64.4244 48.6486 64.4241 48.6486 64.4239C48.6486 64.4237 48.6486 64.4234 48.6486 64.4232C48.6485 64.423 48.6485 64.4227 48.6485 64.4225C48.6485 64.4222 48.6485 64.422 48.6485 64.4217C48.6484 64.4215 48.6484 64.4212 48.6484 64.421C48.6484 64.4207 48.6483 64.4204 48.6483 64.4202C48.6483 64.4199 48.6483 64.4196 48.6483 64.4194C48.6482 64.4191 48.6482 64.4188 48.6482 64.4185C48.6482 64.4183 48.6482 64.418 48.6481 64.4177C48.6481 64.4174 48.6481 64.4171 48.6481 64.4168C48.648 64.4165 48.648 64.4162 48.648 64.4159C48.648 64.4156 48.6479 64.4153 48.6479 64.415C48.6479 64.4147 48.6479 64.4144 48.6478 64.4141C48.6478 64.4138 48.6478 64.4135 48.6478 64.4132C48.6477 64.4128 48.6477 64.4125 48.6477 64.4122C48.6477 64.4119 48.6476 64.4115 48.6476 64.4112C48.6476 64.4109 48.6476 64.4105 48.6475 64.4102C48.6475 64.4099 48.6475 64.4095 48.6474 64.4092C48.6474 64.4088 48.6474 64.4085 48.6474 64.4082C48.6473 64.4078 48.6473 64.4074 48.6473 64.4071C48.6473 64.4067 48.6472 64.4064 48.6472 64.406C48.6472 64.4056 48.6471 64.4053 48.6471 64.4049C48.6471 64.4045 48.647 64.4042 48.647 64.4038C48.647 64.4034 48.647 64.403 48.6469 64.4027C48.6469 64.4023 48.6469 64.4019 48.6468 64.4015C48.6468 64.4011 48.6468 64.4007 48.6467 64.4003C48.6467 64.3999 48.6467 64.3995 48.6466 64.3991C48.6466 64.3987 48.6466 64.3983 48.6465 64.3979C48.6465 64.3975 48.6465 64.3971 48.6464 64.3967C48.6464 64.3963 48.6464 64.3958 48.6463 64.3954C48.6463 64.395 48.6463 64.3946 48.6462 64.3941C48.6462 64.3937 48.6462 64.3933 48.6461 64.3928C48.6461 64.3924 48.6461 64.392 48.646 64.3915C48.646 64.3911 48.646 64.3907 48.6459 64.3902C48.6459 64.3898 48.6459 64.3893 48.6458 64.3889C48.6458 64.3884 48.6457 64.3879 48.6457 64.3875C48.6457 64.387 48.6456 64.3866 48.6456 64.3861C48.6456 64.3856 48.6455 64.3852 48.6455 64.3847C48.6454 64.3842 48.6454 64.3837 48.6454 64.3832C48.6453 64.3828 48.6453 64.3823 48.6453 64.3818C48.6452 64.3813 48.6452 64.3808 48.6451 64.3803C48.6451 64.3798 48.6451 64.3793 48.645 64.3788C48.645 64.3783 48.6449 64.3778 48.6449 64.3773C48.6449 64.3768 48.6448 64.3763 48.6448 64.3758C48.6447 64.3753 48.6447 64.3748 48.6447 64.3743C48.6446 64.3737 48.6446 64.3732 48.6445 64.3727C48.6445 64.3722 48.6444 64.3716 48.6444 64.3711C48.6444 64.3706 48.6443 64.37 48.6443 64.3695C48.6442 64.369 48.6442 64.3684 48.6441 64.3679C48.6441 64.3673 48.6441 64.3668 48.644 64.3662C48.644 64.3657 48.6439 64.3651 48.6439 64.3646C48.6438 64.364 48.6438 64.3635 48.6437 64.3629C48.6437 64.3623 48.6437 64.3618 48.6436 64.3612C48.6436 64.3606 48.6435 64.36 48.6435 64.3595C48.6434 64.3589 48.6434 64.3583 48.6433 64.3577C48.6433 64.3571 48.6432 64.3566 48.6432 64.356C48.6431 64.3554 48.6431 64.3548 48.643 64.3542C48.643 64.3536 48.643 64.353 48.6429 64.3524C48.6429 64.3518 48.6428 64.3512 48.6428 64.3506C48.6427 64.35 48.6427 64.3493 48.6426 64.3487C48.6426 64.3481 48.6425 64.3475 48.6425 64.3469C48.6424 64.3462 48.6424 64.3456 48.6423 64.345C48.6423 64.3444 48.6422 64.3437 48.6422 64.3431C48.6421 64.3425 48.6421 64.3418 48.642 64.3412C48.642 64.3405 48.6419 64.3399 48.6419 64.3392C48.6418 64.3386 48.6417 64.3379 48.6417 64.3373C48.6416 64.3366 48.6416 64.336 48.6415 64.3353C48.6415 64.3346 48.6414 64.334 48.6414 64.3333C48.6413 64.3326 48.6413 64.332 48.6412 64.3313C48.6412 64.3306 48.6411 64.33 48.6411 64.3293C48.641 64.3286 48.6409 64.3279 48.6409 64.3272C48.6408 64.3265 48.6408 64.3258 48.6407 64.3251C48.6407 64.3245 48.6406 64.3238 48.6406 64.3231C48.6405 64.3224 48.6404 64.3217 48.6404 64.3209C48.6403 64.3202 48.6403 64.3195 48.6402 64.3188C48.6402 64.3181 48.6401 64.3174 48.64 64.3167C48.64 64.3159 48.6399 64.3152 48.6399 64.3145C48.6398 64.3138 48.6398 64.313 48.6397 64.3123C48.6396 64.3116 48.6396 64.3108 48.6395 64.3101C48.6395 64.3094 48.6394 64.3086 48.6393 64.3079C48.6393 64.3071 48.6392 64.3064 48.6392 64.3056C48.6391 64.3049 48.639 64.3041 48.639 64.3034C48.6389 64.3026 48.6389 64.3018 48.6388 64.3011C48.6387 64.3003 48.6387 64.2995 48.6386 64.2988C48.6386 64.298 48.6385 64.2972 48.6384 64.2964C48.6384 64.2957 48.6383 64.2949 48.6382 64.2941C48.6382 64.2933 48.6381 64.2925 48.6381 64.2917C48.638 64.2909 48.6379 64.2901 48.6379 64.2893C48.6378 64.2886 48.6377 64.2878 48.6377 64.2869C48.6376 64.2861 48.6375 64.2853 48.6375 64.2845C48.6374 64.2837 48.6373 64.2829 48.6373 64.2821C48.6372 64.2813 48.6371 64.2804 48.6371 64.2796C48.637 64.2788 48.637 64.278 48.6369 64.2771C48.6368 64.2763 48.6368 64.2755 48.6367 64.2746C48.6366 64.2738 48.6365 64.273 48.6365 64.2721C48.6364 64.2713 48.6363 64.2704 48.6363 64.2696C48.6362 64.2687 48.6361 64.2679 48.6361 64.267C48.636 64.2662 48.6359 64.2653 48.6359 64.2644C48.6358 64.2636 48.6357 64.2627 48.6357 64.2618C48.6356 64.261 48.6355 64.2601 48.6355 64.2592C48.6354 64.2584 48.6353 64.2575 48.6352 64.2566C48.6352 64.2557 48.6351 64.2548 48.635 64.2539C48.635 64.2531 48.6349 64.2522 48.6348 64.2513C48.6347 64.2504 48.6347 64.2495 48.6346 64.2486C48.6345 64.2477 48.6345 64.2468 48.6344 64.2459C48.6343 64.2449 48.6342 64.244 48.6342 64.2431C48.6341 64.2422 48.634 64.2413 48.6339 64.2404C48.6339 64.2394 48.6338 64.2385 48.6337 64.2376C48.6336 64.2367 48.6336 64.2357 48.6335 64.2348C48.6334 64.2339 48.6333 64.2329 48.6333 64.232C48.6332 64.2311 48.6331 64.2301 48.633 64.2292C48.633 64.2282 48.6329 64.2273 48.6328 64.2263C48.6327 64.2254 48.6327 64.2244 48.6326 64.2234C48.6325 64.2225 48.6324 64.2215 48.6324 64.2206C48.6323 64.2196 48.6322 64.2186 48.6321 64.2176C48.632 64.2167 48.632 64.2157 48.6319 64.2147C48.6318 64.2137 48.6317 64.2128 48.6317 64.2118C48.6316 64.2108 48.6315 64.2098 48.6314 64.2088C48.6313 64.2078 48.6313 64.2068 48.6312 64.2058C48.6311 64.2048 48.631 64.2038 48.6309 64.2028C48.6309 64.2018 48.6308 64.2008 48.6307 64.1998C48.6306 64.1988 48.6305 64.1978 48.6305 64.1967C48.6304 64.1957 48.6303 64.1947 48.6302 64.1937C48.6301 64.1927 48.63 64.1916 48.63 64.1906C48.6299 64.1896 48.6298 64.1885 48.6297 64.1875C48.6296 64.1865 48.6295 64.1854 48.6295 64.1844C48.6294 64.1833 48.6293 64.1823 48.6292 64.1812C48.6291 64.1802 48.629 64.1791 48.629 64.1781C48.6289 64.177 48.6288 64.1759 48.6287 64.1749C48.6286 64.1738 48.6285 64.1728 48.6284 64.1717C48.6284 64.1706 48.6283 64.1695 48.6282 64.1685C48.6281 64.1674 48.628 64.1663 48.6279 64.1652C48.6278 64.1641 48.6278 64.1631 48.6277 64.162C48.6276 64.1609 48.6275 64.1598 48.6274 64.1587C48.6273 64.1576 48.6272 64.1565 48.6271 64.1554C48.6271 64.1543 48.627 64.1532 48.6269 64.1521C48.6268 64.151 48.6267 64.1499 48.6266 64.1487C48.6265 64.1476 48.6264 64.1465 48.6263 64.1454C48.6263 64.1443 48.6262 64.1431 48.6261 64.142C48.626 64.1409 48.6259 64.1397 48.6258 64.1386C48.6257 64.1375 48.6256 64.1363 48.6255 64.1352C48.6254 64.1341 48.6253 64.1329 48.6253 64.1318C48.6252 64.1306 48.6251 64.1295 48.625 64.1283C48.6249 64.1272 48.6248 64.126 48.6247 64.1248C48.6246 64.1237 48.6245 64.1225 48.6244 64.1213C48.6243 64.1202 48.6242 64.119 48.6241 64.1178C48.624 64.1167 48.624 64.1155 48.6239 64.1143C48.6238 64.1131 48.6237 64.1119 48.6236 64.1108C48.6235 64.1096 48.6234 64.1084 48.6233 64.1072C48.6232 64.106 48.6231 64.1048 48.623 64.1036C48.6229 64.1024 48.6228 64.1012 48.6227 64.1C48.6226 64.0988 48.6225 64.0976 48.6224 64.0964C48.6223 64.0951 48.6222 64.0939 48.6221 64.0927C48.622 64.0915 48.6219 64.0903 48.6218 64.089C48.6217 64.0878 48.6216 64.0866 48.6215 64.0854C48.6214 64.0841 48.6213 64.0829 48.6212 64.0816C48.6211 64.0804 48.621 64.0792 48.6209 64.0779C48.6208 64.0767 48.6207 64.0754 48.6206 64.0742C48.6205 64.0729 48.6204 64.0717 48.6203 64.0704C48.6202 64.0692 48.6201 64.0679 48.62 64.0666C48.6199 64.0654 48.6198 64.0641 48.6197 64.0628C48.6196 64.0616 48.6195 64.0603 48.6194 64.059C48.6193 64.0577 48.6192 64.0564 48.6191 64.0552C48.619 64.0539 48.6189 64.0526 48.6188 64.0513C48.6187 64.05 48.6186 64.0487 48.6185 64.0474C48.6184 64.0461 48.6183 64.0448 48.6182 64.0435C48.6181 64.0422 48.618 64.0409 48.6179 64.0396C48.6178 64.0383 48.6177 64.037 48.6176 64.0357C48.6175 64.0343 48.6174 64.033 48.6172 64.0317C48.6171 64.0304 48.617 64.029 48.6169 64.0277C48.6168 64.0264 48.6167 64.0251 48.6166 64.0237C48.6165 64.0224 48.6164 64.021 48.6163 64.0197C48.6162 64.0184 48.6161 64.017 48.616 64.0157C48.6159 64.0143 48.6157 64.013 48.6156 64.0116C48.6155 64.0103 48.6154 64.0089 48.6153 64.0075C48.6152 64.0062 48.6151 64.0048 48.615 64.0034C48.6149 64.0021 48.6148 64.0007 48.6147 63.9993C48.6145 63.9979 48.6144 63.9966 48.6143 63.9952C48.6142 63.9938 48.6141 63.9924 48.614 63.991C48.6139 63.9896 48.6138 63.9883 48.6137 63.9869C48.6136 63.9855 48.6134 63.9841 48.6133 63.9827C48.6132 63.9813 48.6131 63.9799 48.613 63.9785C48.6129 63.9771 48.6128 63.9756 48.6127 63.9742C48.6125 63.9728 48.6124 63.9714 48.6123 63.97C48.6122 63.9686 48.6121 63.9671 48.612 63.9657C48.6119 63.9643 48.6117 63.9628 48.6116 63.9614C48.6115 63.96 48.6114 63.9585 48.6113 63.9571C48.6112 63.9557 48.6111 63.9542 48.6109 63.9528C48.6108 63.9513 48.6107 63.9499 48.6106 63.9484C48.6105 63.947 48.6104 63.9455 48.6102 63.9441C48.6101 63.9426 48.61 63.9411 48.6099 63.9397C48.6098 63.9382 48.6097 63.9367 48.6095 63.9353C48.6094 63.9338 48.6093 63.9323 48.6092 63.9308C48.6091 63.9294 48.6089 63.9279 48.6088 63.9264C48.6087 63.9249 48.6086 63.9234 48.6085 63.9219C48.6083 63.9204 48.6082 63.9189 48.6081 63.9174C48.608 63.9159 48.6079 63.9144 48.6077 63.9129C48.6076 63.9114 48.6075 63.9099 48.6074 63.9084C48.6073 63.9069 48.6071 63.9054 48.607 63.9039C48.6069 63.9024 48.6068 63.9008 48.6067 63.8993C48.6065 63.8978 48.6064 63.8963 48.6063 63.8947C48.6062 63.8932 48.606 63.8917 48.6059 63.8901C48.6058 63.8886 48.6057 63.8871 48.6056 63.8855C48.6054 63.884 48.6053 63.8824 48.6052 63.8809C48.6051 63.8793 48.6049 63.8778 48.6048 63.8762C48.6047 63.8747 48.6046 63.8731 48.6044 63.8715C48.6043 63.87 48.6042 63.8684 48.6041 63.8668C48.6039 63.8653 48.6038 63.8637 48.6037 63.8621C48.6036 63.8605 48.6034 63.859 48.6033 63.8574C48.6032 63.8558 48.603 63.8542 48.6029 63.8526C48.6028 63.851 48.6027 63.8494 48.6025 63.8478C48.6024 63.8463 48.6023 63.8447 48.6022 63.8431C48.602 63.8414 48.6019 63.8398 48.6018 63.8382C48.6016 63.8366 48.6015 63.835 48.6014 63.8334C48.6013 63.8318 48.6011 63.8302 48.601 63.8285C48.6009 63.8269 48.6007 63.8253 48.6006 63.8237C48.6005 63.822 48.6003 63.8204 48.6002 63.8188C48.6001 63.8171 48.6 63.8155 48.5998 63.8139C48.5997 63.8122 48.5996 63.8106 48.5994 63.8089C48.5993 63.8073 48.5992 63.8056 48.599 63.804C48.5989 63.8023 48.5988 63.8007 48.5986 63.799C48.5985 63.7974 48.5984 63.7957 48.5982 63.794C48.5981 63.7924 48.598 63.7907 48.5978 63.789C48.5977 63.7873 48.5976 63.7857 48.5974 63.784C48.5973 63.7823 48.5972 63.7806 48.597 63.7789C48.5969 63.7773 48.5968 63.7756 48.5966 63.7739C48.5965 63.7722 48.5964 63.7705 48.5962 63.7688C48.5961 63.7671 48.5959 63.7654 48.5958 63.7637C48.5957 63.762 48.5955 63.7603 48.5954 63.7585C48.5953 63.7568 48.5951 63.7551 48.595 63.7534C48.5948 63.7517 48.5947 63.75 48.5946 63.7482C48.5944 63.7465 48.5943 63.7448 48.5942 63.7431C48.594 63.7413 48.5939 63.7396 48.5937 63.7378C48.5936 63.7361 48.5935 63.7344 48.5933 63.7326C48.5932 63.7309 48.593 63.7291 48.5929 63.7274C48.5928 63.7256 48.5926 63.7239 48.5925 63.7221C48.5923 63.7204 48.5922 63.7186 48.5921 63.7168C48.5919 63.7151 48.5918 63.7133 48.5916 63.7115C48.5915 63.7098 48.5914 63.708 48.5912 63.7062C48.5911 63.7044 48.5909 63.7027 48.5908 63.7009C48.5906 63.6991 48.5905 63.6973 48.5904 63.6955C48.5902 63.6937 48.5901 63.6919 48.5899 63.6901C48.5898 63.6883 48.5896 63.6865 48.5895 63.6847C48.5893 63.6829 48.5892 63.6811 48.5891 63.6793C48.5889 63.6775 48.5888 63.6757 48.5886 63.6739C48.5885 63.6721 48.5883 63.6702 48.5882 63.6684C48.588 63.6666 48.5879 63.6648 48.5877 63.6629C48.5876 63.6611 48.5875 63.6593 48.5873 63.6575C48.5872 63.6556 48.587 63.6538 48.5869 63.6519C48.5867 63.6501 48.5866 63.6482 48.5864 63.6464C48.5863 63.6446 48.5861 63.6427 48.586 63.6408C48.5858 63.639 48.5857 63.6371 48.5855 63.6353C48.5854 63.6334 48.5852 63.6315 48.5851 63.6297C48.5849 63.6278 48.5848 63.6259 48.5846 63.6241C48.5845 63.6222 48.5843 63.6203 48.5842 63.6184C48.584 63.6166 48.5839 63.6147 48.5837 63.6128C48.5836 63.6109 48.5834 63.609 48.5833 63.6071C48.5831 63.6052 48.583 63.6033 48.5828 63.6014C48.5827 63.5995 48.5825 63.5976 48.5824 63.5957C48.5822 63.5938 48.5821 63.5919 48.5819 63.59C48.5818 63.5881 48.5816 63.5862 48.5815 63.5842C48.5813 63.5823 48.5811 63.5804 48.581 63.5785C48.5808 63.5765 48.5807 63.5746 48.5805 63.5727C48.5804 63.5707 48.5802 63.5688 48.5801 63.5669C48.5799 63.5649 48.5798 63.563 48.5796 63.561C48.5794 63.5591 48.5793 63.5571 48.5791 63.5552C48.579 63.5532 48.5788 63.5513 48.5787 63.5493C48.5785 63.5474 48.5783 63.5454 48.5782 63.5434C48.578 63.5415 48.5779 63.5395 48.5777 63.5375C48.5776 63.5356 48.5774 63.5336 48.5772 63.5316C48.5771 63.5296 48.5769 63.5277 48.5768 63.5257C48.5766 63.5237 48.5764 63.5217 48.5763 63.5197C48.5761 63.5177 48.576 63.5157 48.5758 63.5137C48.5757 63.5117 48.5755 63.5097 48.5753 63.5077C48.5752 63.5057 48.575 63.5037 48.5748 63.5017C48.5747 63.4997 48.5745 63.4977 48.5744 63.4957C48.5742 63.4936 48.574 63.4916 48.5739 63.4896C48.5737 63.4876 48.5736 63.4856 48.5734 63.4835C48.5732 63.4815 48.5731 63.4795 48.5729 63.4774C48.5727 63.4754 48.5726 63.4733 48.5724 63.4713C48.5723 63.4693 48.5721 63.4672 48.5719 63.4652C48.5718 63.4631 48.5716 63.4611 48.5714 63.459C48.5713 63.457 48.5711 63.4549 48.5709 63.4528C48.5708 63.4508 48.5706 63.4487 48.5704 63.4466C48.5703 63.4446 48.5701 63.4425 48.5699 63.4404C48.5698 63.4383 48.5696 63.4363 48.5694 63.4342C48.5693 63.4321 48.5691 63.43 48.5689 63.4279C48.5688 63.4258 48.5686 63.4238 48.5684 63.4217C48.5683 63.4196 48.5681 63.4175 48.5679 63.4154C48.5678 63.4133 48.5676 63.4112 48.5674 63.4091C48.5673 63.4069 48.5671 63.4048 48.5669 63.4027C48.5668 63.4006 48.5666 63.3985 48.5664 63.3964C48.5663 63.3942 48.5661 63.3921 48.5659 63.39C48.5657 63.3879 48.5656 63.3857 48.5654 63.3836C48.5652 63.3815 48.5651 63.3793 48.5649 63.3772C48.5647 63.3751 48.5645 63.3729 48.5644 63.3708C48.5642 63.3686 48.564 63.3665 48.5639 63.3643C48.5637 63.3622 48.5635 63.36 48.5633 63.3578C48.5632 63.3557 48.563 63.3535 48.5628 63.3514C48.5626 63.3492 48.5625 63.347 48.5623 63.3448C48.5621 63.3427 48.562 63.3405 48.5618 63.3383C48.5616 63.3361 48.5614 63.334 48.5613 63.3318C48.5611 63.3296 48.5609 63.3274 48.5607 63.3252C48.5606 63.323 48.5604 63.3208 48.5602 63.3186C48.56 63.3164 48.5599 63.3142 48.5597 63.312C48.5595 63.3098 48.5593 63.3076 48.5591 63.3054C48.559 63.3032 48.5588 63.301 48.5586 63.2988C48.5584 63.2965 48.5583 63.2943 48.5581 63.2921C48.5579 63.2899 48.5577 63.2876 48.5575 63.2854C48.5574 63.2832 48.5572 63.2809 48.557 63.2787C48.5568 63.2765 48.5567 63.2742 48.5565 63.272C48.5563 63.2697 48.5561 63.2675 48.5559 63.2652C48.5558 63.263 48.5556 63.2607 48.5554 63.2585C48.5552 63.2562 48.555 63.254 48.5548 63.2517C48.5547 63.2494 48.5545 63.2472 48.5543 63.2449C48.5541 63.2426 48.5539 63.2404 48.5538 63.2381C48.5536 63.2358 48.5534 63.2335 48.5532 63.2312C48.553 63.229 48.5528 63.2267 48.5527 63.2244C48.5525 63.2221 48.5523 63.2198 48.5521 63.2175C48.5519 63.2152 48.5517 63.2129 48.5516 63.2106C48.5514 63.2083 48.5512 63.206 48.551 63.2037C48.5508 63.2014 48.5506 63.1991 48.5505 63.1968C48.5503 63.1944 48.5501 63.1921 48.5499 63.1898C48.5497 63.1875 48.5495 63.1852 48.5493 63.1828C48.5492 63.1805 48.549 63.1782 48.5488 63.1758C48.5486 63.1735 48.5484 63.1712 48.5482 63.1688C48.548 63.1665 48.5478 63.1641 48.5477 63.1618C48.5475 63.1594 48.5473 63.1571 48.5471 63.1547C48.5469 63.1524 48.5467 63.15 48.5465 63.1477C48.5463 63.1453 48.5461 63.1429 48.546 63.1406C48.5458 63.1382 48.5456 63.1358 48.5454 63.1335C48.5452 63.1311 48.545 63.1287 48.5448 63.1263C48.5446 63.124 48.5444 63.1216 48.5442 63.1192C48.5441 63.1168 48.5439 63.1144 48.5437 63.112C48.5435 63.1096 48.5433 63.1072 48.5431 63.1048C48.5429 63.1024 48.5427 63.1 48.5425 63.0976C48.5423 63.0952 48.5421 63.0928 48.5419 63.0904C48.5418 63.088 48.5416 63.0856 48.5414 63.0831C48.5412 63.0807 48.541 63.0783 48.5408 63.0759C48.5406 63.0734 48.5404 63.071 48.5402 63.0686C48.54 63.0662 48.5398 63.0637 48.5396 63.0613C48.5394 63.0588 48.5392 63.0564 48.539 63.054C48.5388 63.0515 48.5386 63.0491 48.5384 63.0466C48.5382 63.0442 48.538 63.0417 48.5379 63.0393C48.5377 63.0368 48.5375 63.0343 48.5373 63.0319C48.5371 63.0294 48.5369 63.0269 48.5367 63.0245C48.5365 63.022 48.5363 63.0195 48.5361 63.017C48.5359 63.0146 48.5357 63.0121 48.5355 63.0096C48.5353 63.0071 48.5351 63.0046 48.5349 63.0021C48.5347 62.9997 48.5345 62.9972 48.5343 62.9947C48.5341 62.9922 48.5339 62.9897 48.5337 62.9872C48.5335 62.9847 48.5333 62.9822 48.5331 62.9796C48.5329 62.9771 48.5327 62.9746 48.5325 62.9721C48.5323 62.9696 48.5321 62.9671 48.5319 62.9645C48.5317 62.962 48.5315 62.9595 48.5313 62.957C48.5311 62.9544 48.5309 62.9519 48.5307 62.9494C48.5305 62.9468 48.5303 62.9443 48.5301 62.9418C48.5298 62.9392 48.5296 62.9367 48.5294 62.9341C48.5292 62.9316 48.529 62.929 48.5288 62.9265C48.5286 62.9239 48.5284 62.9213 48.5282 62.9188C48.528 62.9162 48.5278 62.9137 48.5276 62.9111C48.5274 62.9085 48.5272 62.906 48.527 62.9034C48.5268 62.9008 48.5266 62.8982 48.5264 62.8956C48.5262 62.8931 48.526 62.8905 48.5257 62.8879C48.5255 62.8853 48.5253 62.8827 48.5251 62.8801C48.5249 62.8775 48.5247 62.8749 48.5245 62.8723C48.5243 62.8697 48.5241 62.8671 48.5239 62.8645C48.5237 62.8619 48.5235 62.8593 48.5232 62.8567C48.523 62.8541 48.5228 62.8515 48.5226 62.8488C48.5224 62.8462 48.5222 62.8436 48.522 62.841C48.5218 62.8383 48.5216 62.8357 48.5214 62.8331C48.5211 62.8304 48.5209 62.8278 48.5207 62.8252C48.5205 62.8225 48.5203 62.8199 48.5201 62.8172C48.5199 62.8146 48.5197 62.8119 48.5195 62.8093C48.5192 62.8066 48.519 62.804 48.5188 62.8013C48.5186 62.7987 48.5184 62.796 48.5182 62.7933C48.518 62.7907 48.5178 62.788 48.5175 62.7853C48.5173 62.7827 48.5171 62.78 48.5169 62.7773C48.5167 62.7746 48.5165 62.7719 48.5163 62.7693C48.516 62.7666 48.5158 62.7639 48.5156 62.7612C48.5154 62.7585 48.5152 62.7558 48.515 62.7531C48.5147 62.7504 48.5145 62.7477 48.5143 62.745C48.5141 62.7423 48.5139 62.7396 48.5137 62.7369C48.5134 62.7342 48.5132 62.7315 48.513 62.7287C48.5128 62.726 48.5126 62.7233 48.5124 62.7206C48.5121 62.7179 48.5119 62.7151 48.5117 62.7124C48.5115 62.7097 48.5113 62.7069 48.511 62.7042C48.5108 62.7015 48.5106 62.6987 48.5104 62.696C48.5102 62.6932 48.51 62.6905 48.5097 62.6877C48.5095 62.685 48.5093 62.6822 48.5091 62.6795C48.5089 62.6767 48.5086 62.674 48.5084 62.6712C48.5082 62.6684 48.508 62.6657 48.5077 62.6629C48.5075 62.6601 48.5073 62.6574 48.5071 62.6546C48.5069 62.6518 48.5066 62.649 48.5064 62.6463C48.5062 62.6435 48.506 62.6407 48.5057 62.6379C48.5055 62.6351 48.5053 62.6323 48.5051 62.6295C48.5049 62.6267 48.5046 62.6239 48.5044 62.6211C48.5042 62.6183 48.504 62.6155 48.5037 62.6127C48.5035 62.6099 48.5033 62.6071 48.5031 62.6043C48.5028 62.6015 48.5026 62.5987 48.5024 62.5958C48.5022 62.593 48.5019 62.5902 48.5017 62.5874C48.5015 62.5845 48.5012 62.5817 48.501 62.5789C48.5008 62.576 48.5006 62.5732 48.5003 62.5704C48.5001 62.5675 48.4999 62.5647 48.4997 62.5618C48.4994 62.559 48.4992 62.5561 48.499 62.5533C48.4987 62.5504 48.4985 62.5476 48.4983 62.5447C48.4981 62.5418 48.4978 62.539 48.4976 62.5361C48.4974 62.5332 48.4971 62.5304 48.4969 62.5275C48.4967 62.5246 48.4965 62.5218 48.4962 62.5189C48.496 62.516 48.4958 62.5131 48.4955 62.5102C48.4953 62.5073 48.4951 62.5045 48.4948 62.5016C48.4946 62.4987 48.4944 62.4958 48.4941 62.4929C48.4939 62.49 48.4937 62.4871 48.4934 62.4842C48.4932 62.4813 48.493 62.4784 48.4927 62.4754C48.4925 62.4725 48.4923 62.4696 48.492 62.4667C48.4918 62.4638 48.4916 62.4609 48.4913 62.4579C48.4911 62.455 48.4909 62.4521 48.4906 62.4492C48.4904 62.4462 48.4902 62.4433 48.4899 62.4403C48.4897 62.4374 48.4895 62.4345 48.4892 62.4315C48.489 62.4286 48.4888 62.4256 48.4885 62.4227C48.4883 62.4197 48.4881 62.4168 48.4878 62.4138C48.4876 62.4109 48.4873 62.4079 48.4871 62.4049C48.4869 62.402 48.4866 62.399 48.4864 62.396C48.4862 62.3931 48.4859 62.3901 48.4857 62.3871C48.4854 62.3841 48.4852 62.3812 48.485 62.3782C48.4847 62.3752 48.4845 62.3722 48.4843 62.3692C48.484 62.3662 48.4838 62.3632 48.4835 62.3602C48.4833 62.3572 48.4831 62.3542 48.4828 62.3512C48.4826 62.3482 48.4823 62.3452 48.4821 62.3422C48.4818 62.3392 48.4816 62.3362 48.4814 62.3332C48.4811 62.3302 48.4809 62.3272 48.4806 62.3241C48.4804 62.3211 48.4802 62.3181 48.4799 62.3151C48.4797 62.312 48.4794 62.309 48.4792 62.306C48.4789 62.3029 48.4787 62.2999 48.4785 62.2968C48.4782 62.2938 48.478 62.2908 48.4777 62.2877C48.4775 62.2847 48.4772 62.2816 48.477 62.2786C48.4768 62.2755 48.4765 62.2724 48.4763 62.2694C48.476 62.2663 48.4758 62.2633 48.4755 62.2602C48.4753 62.2571 48.475 62.2541 48.4748 62.251C48.4745 62.2479 48.4743 62.2448 48.4741 62.2418C48.4738 62.2387 48.4736 62.2356 48.4733 62.2325C48.4731 62.2294 48.4728 62.2263 48.4726 62.2232C48.4723 62.2201 48.4721 62.217 48.4718 62.2139C48.4716 62.2108 48.4713 62.2077 48.4711 62.2046C48.4708 62.2015 48.4706 62.1984 48.4703 62.1953C48.4701 62.1922 48.4698 62.1891 48.4696 62.186C48.4693 62.1828 48.4691 62.1797 48.4688 62.1766C48.4686 62.1735 48.4683 62.1703 48.4681 62.1672C48.4678 62.1641 48.4676 62.1609 48.4673 62.1578C48.4671 62.1547 48.4668 62.1515 48.4666 62.1484C48.4663 62.1452 48.4661 62.1421 48.4658 62.1389C48.4656 62.1358 48.4653 62.1326 48.4651 62.1295C48.4648 62.1263 48.4646 62.1231 48.4643 62.12C48.4641 62.1168 48.4638 62.1136 48.4635 62.1105C48.4633 62.1073 48.463 62.1041 48.4628 62.1009C48.4625 62.0978 48.4623 62.0946 48.462 62.0914C48.4618 62.0882 48.4615 62.085 48.4613 62.0818C48.461 62.0787 48.4607 62.0755 48.4605 62.0723C48.4602 62.0691 48.46 62.0659 48.4597 62.0627C48.4595 62.0595 48.4592 62.0562 48.459 62.053C48.4587 62.0498 48.4584 62.0466 48.4582 62.0434C48.4579 62.0402 48.4577 62.037 48.4574 62.0337C48.4572 62.0305 48.4569 62.0273 48.4566 62.0241C48.4564 62.0208 48.4561 62.0176 48.4559 62.0144C48.4556 62.0111 48.4553 62.0079 48.4551 62.0046C48.4548 62.0014 48.4546 61.9982 48.4543 61.9949C48.454 61.9917 48.4538 61.9884 48.4535 61.9852C48.4533 61.9819 48.453 61.9786 48.4527 61.9754C48.4525 61.9721 48.4522 61.9688 48.452 61.9656C48.4517 61.9623 48.4514 61.959 48.4512 61.9558C48.4509 61.9525 48.4506 61.9492 48.4504 61.9459C48.4501 61.9426 48.4499 61.9394 48.4496 61.9361C48.4493 61.9328 48.4491 61.9295 48.4488 61.9262C48.4485 61.9229 48.4483 61.9196 48.448 61.9163C48.4478 61.913 48.4475 61.9097 48.4472 61.9064C48.447 61.9031 48.4467 61.8998 48.4464 61.8965C48.4462 61.8932 48.4459 61.8898 48.4456 61.8865L44.4584 62.2055ZM44.656 64.596C44.656 68.7248 43.9793 72.7923 42.6197 76.8064L46.4083 78.0896C47.9047 73.6717 48.656 69.1712 48.656 64.596H44.656ZM42.6229 76.797C41.2554 80.7692 39.3681 84.479 36.9581 87.9312L40.2379 90.2209C42.8599 86.465 44.9166 82.4228 46.4051 78.099L42.6229 76.797ZM36.951 87.9414C34.9731 90.8125 32.6249 93.1886 29.9056 95.0858L32.1944 98.3663C35.3231 96.1834 38.0069 93.4595 40.245 90.2106L36.951 87.9414ZM29.8875 95.0985C27.1972 97.0202 24.4422 98.3755 21.6209 99.1906L22.7311 103.033C26.0298 102.08 29.1908 100.512 32.2125 98.3535L29.8875 95.0985ZM21.6498 99.1825C18.8915 99.9347 16.317 100.108 13.9047 99.7461L13.3113 103.702C16.339 104.156 19.4765 103.921 22.7022 103.042L21.6498 99.1825ZM13.9047 99.7461C11.5782 99.3972 9.6527 98.4539 8.06027 96.9183L5.28373 99.7977C7.4993 101.934 10.1978 103.235 13.3113 103.702L13.9047 99.7461ZM8.11169 96.9697C6.62701 95.4301 5.57243 93.2232 5.07587 90.1817L1.12813 90.8263C1.71957 94.4488 3.04499 97.4779 5.23231 99.7463L8.11169 96.9697ZM5.07688 90.188C4.59256 87.161 4.90611 83.2775 6.15952 78.4618L2.28848 77.4542C0.95789 82.5665 0.523443 87.047 1.12712 90.82L5.07688 90.188ZM6.15473 78.4798C7.45824 73.6568 9.92977 67.895 13.6264 61.1738L10.1216 59.2462C6.33823 66.125 3.70977 72.1952 2.29327 77.4362L6.15473 78.4798ZM13.6629 61.1044C13.73 60.9702 13.7768 60.8984 13.7975 60.87C13.8214 60.8371 13.7892 60.8911 13.686 60.9685C13.5758 61.0512 13.3572 61.1795 13.0401 61.2192C12.708 61.2607 12.4146 61.1864 12.2036 61.0809L13.9924 57.5032C13.5774 57.2956 13.08 57.1831 12.5439 57.2501C12.0228 57.3152 11.6002 57.5328 11.286 57.7685C10.7082 58.2019 10.3348 58.8162 10.0851 59.3156L13.6629 61.1044ZM12.4655 61.1894C12.2687 61.1238 12.064 61.0122 11.8807 60.8446C11.699 60.6784 11.5785 60.4941 11.503 60.3293C11.43 60.17 11.4016 60.0356 11.39 59.953C11.3784 59.8702 11.3804 59.8169 11.381 59.8041C11.3819 59.7857 11.3801 59.8421 11.3382 59.9985C11.2983 60.1475 11.2327 60.3482 11.132 60.6071L14.86 62.0569C15.1176 61.3946 15.3425 60.6744 15.376 60.0039C15.393 59.6646 15.3714 59.1692 15.1393 58.6627C14.873 58.0818 14.3833 57.6122 13.7305 57.3946L12.4655 61.1894ZM11.1577 60.5442C10.5701 61.9153 9.81081 63.5016 8.87449 65.3074L12.4255 67.1486C13.3932 65.2824 14.1979 63.6048 14.8343 62.1198L11.1577 60.5442ZM8.87449 65.3074C7.89527 67.1959 6.9872 69.152 6.14997 71.1753L9.84603 72.7047C10.6408 70.784 11.5007 68.9321 12.4255 67.1486L8.87449 65.3074ZM6.12801 71.2307C5.3255 73.3464 4.80531 75.4509 4.58138 77.5409L8.55862 77.9671C8.74269 76.2491 9.1745 74.4776 9.868 72.6493L6.12801 71.2307ZM4.58138 77.5409C4.34213 79.774 4.65726 81.8859 5.58173 83.8189L9.19027 82.0931C8.61874 80.8981 8.38987 79.5421 8.55862 77.9671L4.58138 77.5409ZM5.58173 83.8189C6.60243 85.9531 8.51759 87.4892 10.9704 88.5623L12.5736 84.8977C10.6744 84.0668 9.66557 83.0869 9.19027 82.0931L5.58173 83.8189ZM11.4163 88.6981C17.3462 89.7698 22.8686 89.4625 27.933 87.701L26.619 83.923C22.2994 85.4255 17.4858 85.7302 12.1277 84.7619L11.4163 88.6981ZM27.9487 87.6955C32.8891 85.931 37.1171 83.6145 40.5924 80.7185L38.0316 77.6456C34.9789 80.1895 31.1829 82.293 26.6033 83.9285L27.9487 87.6955ZM41.308 79.0558L38.452 33.8698L34.46 34.1222L37.316 79.3082L41.308 79.0558ZM61.6261 101.702L61.9947 103.668L62.9667 103.485L63.4119 102.602L61.6261 101.702ZM42.0421 105.374L40.2563 104.474L38.4353 108.085L42.4107 107.34L42.0421 105.374ZM48.1621 93.236L47.7935 91.2703L46.8215 91.4525L46.3763 92.3356L48.1621 93.236ZM57.9541 91.4L58.3227 93.3658L58.3227 93.3658L57.9541 91.4ZM67.7461 89.564L69.5319 90.4644L71.3529 86.8529L67.3775 87.5983L67.7461 89.564ZM61.2575 99.7363C57.9935 100.348 54.7295 100.96 51.4655 101.572L52.2027 105.504C55.4667 104.892 58.7307 104.28 61.9947 103.668L61.2575 99.7363ZM51.4655 101.572C48.2015 102.184 44.9375 102.796 41.6735 103.408L42.4107 107.34C45.6747 106.728 48.9387 106.116 52.2027 105.504L51.4655 101.572ZM43.8279 106.274L49.9479 94.1364L46.3763 92.3356L40.2563 104.474L43.8279 106.274ZM48.5307 95.2018C51.7947 94.5898 55.0587 93.9778 58.3227 93.3658L57.5855 89.4343C54.3215 90.0463 51.0575 90.6583 47.7935 91.2703L48.5307 95.2018ZM58.3227 93.3658C61.5867 92.7538 64.8507 92.1418 68.1147 91.5298L67.3775 87.5983C64.1135 88.2103 60.8495 88.8223 57.5855 89.4343L58.3227 93.3658ZM65.9603 88.6636L59.8403 100.802L63.4119 102.602L69.5319 90.4644L65.9603 88.6636ZM60.6659 78.48V76.48H60.4197L60.1808 76.5397L60.6659 78.48ZM60.2579 77.97L58.278 77.6872L58.2579 77.8279V77.97H60.2579ZM60.4619 76.746L62.423 77.1382L63.1734 73.3862L59.6644 74.9119L60.4619 76.746ZM54.3419 78.582L53.9192 76.6272L53.9192 76.6272L54.3419 78.582ZM46.5899 80.01L46.2857 78.0333L46.2779 78.0345L46.5899 80.01ZM39.7559 80.928L37.7827 80.6017L37.3552 83.187L39.9617 82.9174L39.7559 80.928ZM41.8979 67.974L41.677 65.9862L40.1717 66.1535L39.9247 67.6477L41.8979 67.974ZM45.6719 67.566L45.4661 65.5766L45.4588 65.5774L45.6719 67.566ZM52.3019 66.75L52.0267 64.769L52.0267 64.769L52.3019 66.75ZM59.3399 65.628L59.6976 67.5957L59.7204 67.5916L59.7432 67.5869L59.3399 65.628ZM64.8479 63.996L64.0717 62.1527L64.0493 62.1622L64.0271 62.1722L64.8479 63.996ZM68.0099 61.65L66.4576 60.3888L66.4529 60.3947L66.4481 60.4006L68.0099 61.65ZM69.8459 58.692L68.057 57.7976L68.0138 57.8839L67.9792 57.9741L69.8459 58.692ZM70.3559 58.896L68.3658 59.095L68.3669 59.106L68.3681 59.1169L70.3559 58.896ZM70.2539 60.018L68.8396 58.6038L68.4861 58.9573L68.3405 59.4357L70.2539 60.018ZM68.2139 65.73L66.353 64.997L66.347 65.0123L66.3412 65.0278L68.2139 65.73ZM65.1539 72.36L63.3981 71.4023L63.3981 71.4023L65.1539 72.36ZM60.7679 78.48V80.48H61.6417L62.2354 79.8388L60.7679 78.48ZM60.1808 76.5397C60.3293 76.5026 60.6166 76.4571 60.9724 76.5461C61.3621 76.6435 61.6924 76.8676 61.9216 77.1541C62.1278 77.4119 62.2026 77.6559 62.2302 77.7733C62.2454 77.8378 62.2519 77.8877 62.2548 77.9177C62.2578 77.9481 62.2579 77.9665 62.2579 77.97H58.2579C58.2579 78.2829 58.2875 79.0147 58.7981 79.6529C59.0953 80.0244 59.5106 80.3037 60.0023 80.4267C60.4601 80.5411 60.8664 80.4914 61.1509 80.4203L60.1808 76.5397ZM62.2378 78.2529C62.3024 77.8006 62.3644 77.4311 62.423 77.1382L58.5007 76.3538C58.4233 76.7409 58.3494 77.1874 58.278 77.6872L62.2378 78.2529ZM59.6644 74.9119C58.2654 75.5201 56.3645 76.0985 53.9192 76.6272L54.7645 80.5368C57.3512 79.9776 59.5303 79.3319 61.2593 78.5801L59.6644 74.9119ZM53.9192 76.6272C51.4441 77.1623 48.8997 77.6311 46.2857 78.0333L46.894 81.9868C49.584 81.5729 52.2076 81.0897 54.7645 80.5368L53.9192 76.6272ZM46.2779 78.0345C43.7188 78.4386 41.4775 78.7392 39.5501 78.9386L39.9617 82.9174C41.9783 82.7088 44.2929 82.3975 46.9018 81.9855L46.2779 78.0345ZM41.7291 81.2543L43.8711 68.3003L39.9247 67.6477L37.7827 80.6017L41.7291 81.2543ZM42.1187 69.9618C42.7261 69.8943 43.9802 69.7587 45.8849 69.5546L45.4588 65.5774C43.5555 65.7813 42.2936 65.9177 41.677 65.9862L42.1187 69.9618ZM45.8777 69.5554C47.8776 69.3485 50.1113 69.0735 52.577 68.731L52.0267 64.769C49.5964 65.1066 47.4101 65.3755 45.4661 65.5766L45.8777 69.5554ZM52.577 68.731C55.0504 68.3875 57.424 68.0091 59.6976 67.5957L58.9821 63.6603C56.7677 64.0629 54.4494 64.4325 52.0267 64.769L52.577 68.731ZM59.7432 67.5869C62.1261 67.0963 64.1208 66.5164 65.6686 65.8199L64.0271 62.1722C62.8549 62.6997 61.1777 63.2077 58.9366 63.6691L59.7432 67.5869ZM65.624 65.8393C67.2001 65.1756 68.5322 64.1987 69.5716 62.8994L66.4481 60.4006C65.8555 61.1413 65.0796 61.7284 64.0717 62.1527L65.624 65.8393ZM69.5621 62.9112C70.5214 61.7305 71.2701 60.5604 71.7126 59.41L67.9792 57.9741C67.7417 58.5916 67.2663 59.3936 66.4576 60.3888L69.5621 62.9112ZM71.6347 59.5864C71.678 59.4998 71.6381 59.607 71.4963 59.7597C71.4599 59.7989 70.6466 60.6768 69.4346 60.192C68.9399 59.9941 68.6739 59.6543 68.5624 59.4837C68.446 59.3057 68.396 59.1578 68.3799 59.1072C68.3476 59.0057 68.3541 58.9778 68.3658 59.095L72.3459 58.697C72.3237 58.4742 72.2834 58.1828 72.1916 57.8944C72.1457 57.7502 72.0628 57.528 71.9103 57.2947C71.7626 57.0689 71.4574 56.6929 70.9201 56.4781C69.6231 55.9593 68.7121 56.8796 68.5652 57.0379C68.3129 57.3095 68.1497 57.6122 68.057 57.7976L71.6347 59.5864ZM68.3681 59.1169C68.3954 59.3624 68.3892 59.4586 68.3896 59.4544C68.39 59.45 68.3969 59.3664 68.4394 59.2389C68.4796 59.1182 68.5846 58.8588 68.8396 58.6038L71.6681 61.4322C72.2622 60.8381 72.3484 60.0892 72.3731 59.8166C72.4075 59.4384 72.3843 59.0416 72.3436 58.6751L68.3681 59.1169ZM68.3405 59.4357C67.8854 60.9311 67.2258 62.7816 66.353 64.997L70.0747 66.4631C70.97 64.1904 71.6703 62.233 72.1672 60.6003L68.3405 59.4357ZM66.3412 65.0278C65.5612 67.1078 64.5816 69.2326 63.3981 71.4023L66.9097 73.3177C68.1742 70.9995 69.2345 68.7042 70.0865 66.4323L66.3412 65.0278ZM63.3981 71.4023C62.2515 73.5043 60.8856 75.4091 59.3003 77.1212L62.2354 79.8388C64.0501 77.8789 65.6082 75.7037 66.9097 73.3177L63.3981 71.4023ZM60.7679 76.48H60.6659V80.48H60.7679V76.48ZM116.587 54.142L115.433 55.7759L115.487 55.8141L115.544 55.8486L116.587 54.142ZM111.181 53.02L111.463 54.9999L111.463 54.9999L111.181 53.02ZM109.855 53.53L110.809 55.2877L110.888 55.2444L110.964 55.1941L109.855 53.53ZM103.429 58.324L102.014 56.9098L102.001 56.9227L101.989 56.9357L103.429 58.324ZM97.9206 63.934L96.5063 62.5198L91.7738 67.2524L98.327 65.8923L97.9206 63.934ZM108.325 61.588L107.858 59.6432L107.849 59.6454L108.325 61.588ZM117.811 58.222L118.688 60.0191L118.697 60.015L118.705 60.0109L117.811 58.222ZM81.9066 76.99L81.4215 78.9303L81.4391 78.9347L81.4568 78.9388L81.9066 76.99ZM80.7846 74.644L82.6819 75.2765L84.0456 71.1855L80.0418 72.7871L80.7846 74.644ZM74.7666 76.378L74.3168 74.4292L74.3056 74.4318L74.7666 76.378ZM66.8106 78.01L67.1072 79.9879L67.1313 79.9843L67.1553 79.9801L66.8106 78.01ZM59.9766 78.928L58.0038 78.5992L57.569 81.2078L60.1974 80.9158L59.9766 78.928ZM62.2206 65.464L62.0911 63.4682L60.5085 63.5709L60.2478 65.1352L62.2206 65.464ZM85.6806 61.69L84.7144 59.9388L84.7093 59.9417L85.6806 61.69ZM90.0666 56.692L88.6523 55.2778L88.3773 55.5528L88.2254 55.9109L90.0666 56.692ZM90.4746 58.12L88.6857 57.2256L88.6221 57.3527L88.5772 57.4876L90.4746 58.12ZM89.3526 61.18L91.2019 61.9415L91.2094 61.9233L91.2166 61.9049L89.3526 61.18ZM87.5166 65.362L85.6984 64.5287L85.119 65.7929L86.1024 66.7762L87.5166 65.362ZM87.6186 65.464L86.2044 66.8782L86.8667 67.5406L87.7996 67.4558L87.6186 65.464ZM93.9426 64.546L94.3478 66.5045L95.0148 66.3665L95.4589 65.8501L93.9426 64.546ZM102.817 54.55L101.357 53.1821L101.35 53.1903L101.342 53.1986L102.817 54.55ZM112.303 45.064L110.946 43.5944L110.94 43.5996L110.935 43.6049L112.303 45.064ZM116.179 42.82L116.921 44.677L116.953 44.6643L116.984 44.6506L116.179 42.82ZM126.583 43.84L125.134 45.2193L125.151 45.237L125.168 45.2542L126.583 43.84ZM127.909 52.204L126.144 51.2628L126.135 51.2789L126.127 51.2951L127.909 52.204ZM122.095 61.18L120.548 59.9114L120.545 59.9158L122.095 61.18ZM114.241 68.014L113.174 66.3221L113.162 66.3295L114.241 68.014ZM108.835 71.074L107.94 69.2852L107.94 69.2852L108.835 71.074ZM102.919 73.624L103.404 75.5643L103.507 75.5384L103.607 75.5018L102.919 73.624ZM98.7366 74.746L99.2216 76.6863L99.2488 76.6795L99.2758 76.6719L98.7366 74.746ZM93.7386 75.97L94.2053 77.9148L94.2053 77.9148L93.7386 75.97ZM89.1486 76.888L88.8519 74.9101L88.8358 74.9125L88.8198 74.9152L89.1486 76.888ZM120.423 57.202C120.423 55.1261 119.37 53.4988 117.629 52.4354L115.544 55.8486C116.252 56.2812 116.423 56.694 116.423 57.202H120.423ZM117.74 52.5081C116.227 51.4398 114.493 50.918 112.609 50.918V54.918C113.717 54.918 114.635 55.2122 115.433 55.7759L117.74 52.5081ZM112.609 50.918C112.037 50.918 111.466 50.9589 110.898 51.0401L111.463 54.9999C111.847 54.9452 112.228 54.918 112.609 54.918V50.918ZM110.898 51.0401C110.12 51.1512 109.397 51.4316 108.745 51.8659L110.964 55.1941C111.129 55.0844 111.289 55.0248 111.463 54.9999L110.898 51.0401ZM108.9 51.7723C106.352 53.1555 104.055 54.869 102.014 56.9098L104.843 59.7382C106.61 57.971 108.597 56.4885 110.809 55.2877L108.9 51.7723ZM101.989 56.9357C100.161 58.8312 98.3336 60.6925 96.5063 62.5198L99.3348 65.3482C101.18 63.5035 103.024 61.6248 104.868 59.7123L101.989 56.9357ZM98.327 65.8923C101.953 65.1398 105.444 64.3526 108.8 63.5306L107.849 59.6454C104.541 60.4554 101.097 61.2322 97.5141 61.9757L98.327 65.8923ZM108.791 63.5328C112.323 62.6852 115.624 61.5158 118.688 60.0191L116.933 56.4249C114.149 57.7842 111.126 58.8588 107.858 59.6432L108.791 63.5328ZM118.705 60.0109C119.197 59.7649 119.659 59.386 119.985 58.843C120.307 58.305 120.423 57.7295 120.423 57.202H116.423C116.423 57.1505 116.436 56.983 116.555 56.785C116.676 56.582 116.832 56.4751 116.916 56.4332L118.705 60.0109ZM84.6606 75.296C83.8525 75.296 83.0857 75.2096 82.3563 75.0412L81.4568 78.9388C82.4954 79.1785 83.5647 79.296 84.6606 79.296V75.296ZM82.3916 75.0497C82.2507 75.0145 82.3627 75.01 82.5071 75.1784C82.5784 75.2616 82.628 75.3544 82.6564 75.4396C82.6833 75.5201 82.6826 75.5676 82.6826 75.562H78.6826C78.6826 76.3168 78.8978 77.1139 79.47 77.7816C80.0224 78.426 80.7465 78.7615 81.4215 78.9303L82.3916 75.0497ZM82.6826 75.562C82.6826 75.4097 82.6891 75.3079 82.6958 75.2474C82.6991 75.2182 82.7015 75.2062 82.7011 75.2084C82.7008 75.2097 82.6959 75.2345 82.6819 75.2765L78.8872 74.0116C78.715 74.5282 78.6826 75.0956 78.6826 75.562H82.6826ZM80.0418 72.7871C78.8258 73.2735 76.9382 73.8243 74.3168 74.4292L75.2163 78.3268C77.8989 77.7077 80.0234 77.1026 81.5273 76.501L80.0418 72.7871ZM74.3056 74.4318C71.7616 75.0344 69.1484 75.5705 66.4658 76.0399L67.1553 79.9801C69.9127 79.4975 72.6035 78.9456 75.2275 78.3242L74.3056 74.4318ZM66.5139 76.0321C63.8082 76.438 61.5574 76.7401 59.7557 76.9402L60.1974 80.9158C62.0677 80.708 64.3729 80.398 67.1072 79.9879L66.5139 76.0321ZM61.9494 79.2568L64.1934 65.7928L60.2478 65.1352L58.0038 78.5992L61.9494 79.2568ZM62.35 67.4598C68.6709 67.0498 73.8406 66.5262 77.8382 65.8831C81.7614 65.252 84.7893 64.4731 86.6518 63.4383L84.7093 59.9417C83.5118 60.607 81.0998 61.307 77.2029 61.9339C73.3805 62.5488 68.3502 63.0622 62.0911 63.4682L62.35 67.4598ZM86.6467 63.4412C89.0438 62.1186 90.7962 60.0931 91.9077 57.4731L88.2254 55.9109C87.4329 57.7789 86.2613 59.0854 84.7144 59.9389L86.6467 63.4412ZM91.4808 58.1062C91.5551 58.0319 91.5635 58.0311 91.5216 58.0625C91.5014 58.0777 91.4254 58.1339 91.3052 58.194C91.2426 58.2253 91.1458 58.2689 91.0206 58.3064C90.8982 58.3432 90.7096 58.386 90.4746 58.386V54.386C90.0044 54.386 89.6551 54.5469 89.5164 54.6163C89.3452 54.7019 89.2098 54.7964 89.1216 54.8625C88.9437 54.9959 88.7821 55.1481 88.6523 55.2778L91.4808 58.1062ZM90.4746 58.386C89.4975 58.386 88.9722 57.7269 88.8042 57.4469C88.6423 57.177 88.5979 56.9459 88.5899 56.9057C88.5669 56.7909 88.5766 56.7577 88.5766 56.896H92.5766C92.5766 56.6944 92.5692 56.4061 92.5122 56.1213C92.4872 55.9961 92.4216 55.7012 92.2342 55.3889C92.0407 55.0664 91.4856 54.386 90.4746 54.386V58.386ZM88.5766 56.896C88.5766 57.2116 88.5684 57.4212 88.558 57.5459C88.5527 57.6089 88.5492 57.6209 88.5534 57.5984C88.5558 57.586 88.563 57.5493 88.5785 57.4963C88.5925 57.4482 88.6241 57.3487 88.6857 57.2256L92.2634 59.0144C92.4054 58.7305 92.4611 58.4629 92.4849 58.3356C92.5146 58.1772 92.5324 58.0192 92.5442 57.8781C92.5678 57.5948 92.5766 57.2604 92.5766 56.896H88.5766ZM88.5772 57.4876C88.3194 58.2609 87.9582 59.2476 87.4886 60.4551L91.2166 61.9049C91.699 60.6644 92.0857 59.6112 92.3719 58.7525L88.5772 57.4876ZM87.5032 60.4185C87.0404 61.5425 86.4398 62.9112 85.6984 64.5287L89.3347 66.1953C90.0893 64.5488 90.7127 63.1295 91.2019 61.9415L87.5032 60.4185ZM86.1024 66.7762L86.2044 66.8782L89.0328 64.0498L88.9308 63.9478L86.1024 66.7762ZM87.7996 67.4558C90.1102 67.2457 92.2937 66.9295 94.3478 66.5045L93.5374 62.5875C91.6475 62.9785 89.6149 63.2743 87.4375 63.4722L87.7996 67.4558ZM95.4589 65.8501C98.3693 62.4659 101.313 59.1497 104.291 55.9015L101.342 53.1986C98.3358 56.4783 95.3638 59.8261 92.4262 63.2419L95.4589 65.8501ZM104.276 55.9179C107.306 52.6853 110.438 49.5537 113.67 46.5231L110.935 43.6049C107.639 46.6943 104.447 49.8868 101.357 53.1821L104.276 55.9179ZM113.659 46.5336C114.296 45.946 115.342 45.3088 116.921 44.677L115.436 40.9631C113.615 41.6913 112.077 42.55 110.946 43.5944L113.659 46.5336ZM116.984 44.6506C118.424 44.0172 119.951 43.698 121.585 43.698V39.698C119.41 39.698 117.333 40.1268 115.373 40.9894L116.984 44.6506ZM121.585 43.698C123.009 43.698 124.152 44.1877 125.134 45.2193L128.031 42.4607C126.293 40.6363 124.104 39.698 121.585 39.698V43.698ZM125.168 45.2542C126.247 46.3324 126.725 47.4991 126.725 48.838H130.725C130.725 46.3689 129.775 44.2036 127.997 42.4258L125.168 45.2542ZM126.725 48.838C126.725 49.7536 126.524 50.5496 126.144 51.2628L129.673 53.1452C130.381 51.8184 130.725 50.3704 130.725 48.838H126.725ZM126.127 51.2951C124.487 54.5105 122.625 57.38 120.548 59.9114L123.641 62.4486C125.916 59.6761 127.931 56.5615 129.69 53.1129L126.127 51.2951ZM120.545 59.9158C118.588 62.3148 116.139 64.4531 113.174 66.3222L115.307 69.7059C118.599 67.6309 121.385 65.2132 123.644 62.4443L120.545 59.9158ZM113.162 66.3295C111.525 67.3775 109.785 68.363 107.94 69.2852L109.729 72.8629C111.693 71.8811 113.556 70.8265 115.319 69.6986L113.162 66.3295ZM107.94 69.2852C106.104 70.203 104.201 71.0235 102.23 71.7463L103.607 75.5018C105.716 74.7285 107.757 73.849 109.729 72.8629L107.94 69.2852ZM102.433 71.6837C101.32 71.9621 99.9064 72.3415 98.1973 72.8201L99.2758 76.6719C100.967 76.1985 102.341 75.83 103.404 75.5643L102.433 71.6837ZM98.2515 72.8057C96.6258 73.2121 94.9659 73.6186 93.2718 74.0252L94.2053 77.9148C95.9112 77.5054 97.5833 77.0959 99.2216 76.6863L98.2515 72.8057ZM93.2718 74.0252C91.6138 74.4232 90.1419 74.7166 88.8519 74.9101L89.4452 78.8659C90.8752 78.6514 92.4634 78.3328 94.2053 77.9148L93.2718 74.0252ZM88.8198 74.9152C88.0479 75.0439 87.3154 75.1391 86.6215 75.2022L86.9836 79.1858C87.7858 79.1129 88.6172 79.0042 89.4774 78.8608L88.8198 74.9152ZM86.6215 75.2022C85.9276 75.2653 85.2742 75.296 84.6606 75.296V79.296C85.4069 79.296 86.1816 79.2587 86.9836 79.1858L86.6215 75.2022ZM137.026 101.112L137.384 103.08L137.391 103.079L137.026 101.112ZM125.5 101.928L125.395 103.925L125.413 103.926L125.431 103.927L125.5 101.928ZM114.076 101.112L113.684 103.073L113.789 103.094L113.895 103.104L114.076 101.112ZM113.974 99.684L114.869 101.473L114.914 101.451L114.957 101.426L113.974 99.684ZM130.906 91.83L130.204 89.9573L130.204 89.9574L130.906 91.83ZM148.654 84.894L147.926 83.0315L147.913 83.0364L147.9 83.0415L148.654 84.894ZM152.938 82.548L151.752 80.9379L151.752 80.9379L152.938 82.548ZM156.406 79.386L154.992 77.9718L154.948 78.0159L154.907 78.0628L156.406 79.386ZM156.508 77.652L154.56 78.1017L154.581 78.1943L154.611 78.2845L156.508 77.652ZM155.692 75.612L157.32 74.4495L156.562 73.388L155.284 73.654L155.692 75.612ZM150.388 75.918L150.168 77.9058L150.207 77.9101L150.246 77.9129L150.388 75.918ZM146.308 74.184L144.782 75.4759L144.811 75.5111L144.843 75.5449L146.308 74.184ZM145.288 71.226L147.285 71.3508L147.285 71.3434L145.288 71.226ZM146.104 67.962L144.326 67.0461L144.309 67.0808L144.292 67.1162L146.104 67.962ZM149.266 61.128L147.437 60.3207L147.427 60.3435L147.417 60.3665L149.266 61.128ZM153.244 54.906L154.739 56.2347L154.755 56.2165L154.771 56.1979L153.244 54.906ZM156.1 54.192L155.435 56.078L155.451 56.0838L155.468 56.0894L156.1 54.192ZM163.444 65.208L161.457 65.4289L161.457 65.433L163.444 65.208ZM162.118 76.428L160.221 75.7956L160.216 75.8106L160.211 75.8257L162.118 76.428ZM156.406 87.444L154.803 86.249L154.795 86.2593L154.788 86.2696L156.406 87.444ZM147.532 96.42L148.717 98.0318L148.722 98.0277L147.532 96.42ZM136.669 99.1443C133.075 99.7977 129.376 100.06 125.569 99.9292L125.431 103.927C129.513 104.068 133.498 103.786 137.384 103.08L136.669 99.1443ZM125.606 99.9308C121.754 99.7281 117.971 99.4578 114.257 99.1202L113.895 103.104C117.661 103.446 121.495 103.72 125.395 103.925L125.606 99.9308ZM114.469 99.1508C114.608 99.1788 114.944 99.2839 115.23 99.6276C115.521 99.976 115.566 100.336 115.566 100.5H111.566C111.566 101.004 111.697 101.636 112.157 102.188C112.614 102.736 113.204 102.977 113.684 103.073L114.469 99.1508ZM115.566 100.5C115.566 100.505 115.567 100.665 115.457 100.884C115.332 101.135 115.12 101.347 114.869 101.473L113.08 97.8952C111.897 98.4867 111.566 99.6365 111.566 100.5H115.566ZM114.957 101.426C120.167 98.4871 125.717 95.9122 131.609 93.7027L130.204 89.9574C124.128 92.2358 118.39 94.8969 112.992 97.9421L114.957 101.426ZM131.609 93.7027C137.61 91.4523 143.543 89.1335 149.408 86.7465L147.9 83.0415C142.07 85.4145 136.171 87.7198 130.204 89.9573L131.609 93.7027ZM149.383 86.7565C151.103 86.0837 152.686 85.2186 154.125 84.1581L151.752 80.9379C150.607 81.7814 149.334 82.4803 147.926 83.0315L149.383 86.7565ZM154.125 84.1581C155.526 83.1253 156.788 81.976 157.906 80.7092L154.907 78.0628C153.984 79.108 152.934 80.0667 151.752 80.9379L154.125 84.1581ZM157.821 80.8002C159.024 79.5964 158.723 77.9702 158.406 77.0196L154.611 78.2845C154.653 78.4117 154.674 78.5008 154.684 78.556C154.693 78.612 154.688 78.6164 154.69 78.5801C154.693 78.5417 154.703 78.451 154.752 78.3318C154.803 78.2074 154.883 78.0811 154.992 77.9718L157.821 80.8002ZM158.457 77.2023C158.223 76.1881 157.873 75.2245 157.32 74.4495L154.065 76.7745C154.191 76.9515 154.386 77.3479 154.56 78.1017L158.457 77.2023ZM155.284 73.654C153.857 73.9514 152.277 74.0478 150.531 73.9231L150.246 77.9129C152.308 78.0602 154.263 77.9526 156.1 77.57L155.284 73.654ZM150.609 73.9302C149.051 73.7571 148.217 73.3007 147.774 72.8231L144.843 75.5449C146.167 76.9713 148.054 77.6709 150.168 77.9058L150.609 73.9302ZM147.835 72.8921C147.398 72.3751 147.251 71.8894 147.285 71.3508L143.292 71.1012C143.19 72.7386 143.723 74.225 144.782 75.4759L147.835 72.8921ZM147.285 71.3434C147.339 70.4323 147.551 69.5922 147.917 68.8078L144.292 67.1162C143.706 68.3718 143.374 69.7077 143.292 71.1086L147.285 71.3434ZM147.882 68.8779C149.064 66.584 150.142 64.2545 151.116 61.8895L147.417 60.3665C146.487 62.6255 145.457 64.852 144.326 67.0461L147.882 68.8779ZM151.096 61.9353C152.035 59.8079 153.249 57.9109 154.739 56.2347L151.75 53.5773C149.976 55.5731 148.538 57.8241 147.437 60.3207L151.096 61.9353ZM154.771 56.1979C154.925 56.0166 155.004 56.0048 155.004 56.0048C155.015 56.0022 155.134 55.972 155.435 56.078L156.766 52.306C155.91 52.004 154.976 51.8888 154.034 52.1242C153.082 52.3622 152.312 52.9114 151.718 53.6141L154.771 56.1979ZM155.468 56.0894C156.53 56.4434 157.129 56.8249 157.44 57.1362L160.269 54.3078C159.356 53.3951 158.119 52.7566 156.733 52.2946L155.468 56.0894ZM157.44 57.1362C159.776 59.4724 161.1 62.2156 161.457 65.4289L165.432 64.9871C164.973 60.8564 163.236 57.2756 160.269 54.3078L157.44 57.1362ZM161.457 65.433C161.828 68.7135 161.433 72.1604 160.221 75.7956L164.016 77.0605C165.388 72.9436 165.876 68.9105 165.432 64.983L161.457 65.433ZM160.211 75.8257C159.059 79.4753 157.262 82.9487 154.803 86.249L158.01 88.639C160.719 85.0033 162.73 81.1327 164.026 77.0303L160.211 75.8257ZM154.788 86.2696C152.39 89.5742 149.576 92.4195 146.343 94.8123L148.722 98.0277C152.289 95.3885 155.391 92.2498 158.025 88.6185L154.788 86.2696ZM146.348 94.8082C143.233 97.097 140.007 98.526 136.662 99.1454L137.391 103.079C141.39 102.338 145.168 100.639 148.717 98.0318L146.348 94.8082ZM185.54 41.702L185.909 43.6678L186.881 43.4855L187.326 42.6024L185.54 41.702ZM165.956 45.374L164.17 44.4736L162.349 48.0851L166.325 47.3398L165.956 45.374ZM172.076 33.236L171.708 31.2703L170.736 31.4525L170.29 32.3356L172.076 33.236ZM181.868 31.4L182.237 33.3658L182.237 33.3658L181.868 31.4ZM191.66 29.564L193.446 30.4644L195.267 26.8529L191.292 27.5983L191.66 29.564ZM185.172 39.7363C181.908 40.3483 178.644 40.9603 175.38 41.5723L176.117 45.5038C179.381 44.8918 182.645 44.2798 185.909 43.6678L185.172 39.7363ZM175.38 41.5723C172.116 42.1843 168.852 42.7963 165.588 43.4083L166.325 47.3398C169.589 46.7278 172.853 46.1158 176.117 45.5038L175.38 41.5723ZM167.742 46.2744L173.862 34.1364L170.29 32.3356L164.17 44.4736L167.742 46.2744ZM172.445 35.2018C175.709 34.5898 178.973 33.9778 182.237 33.3658L181.5 29.4343C178.236 30.0463 174.972 30.6583 171.708 31.2703L172.445 35.2018ZM182.237 33.3658C185.501 32.7538 188.765 32.1418 192.029 31.5298L191.292 27.5983C188.028 28.2103 184.764 28.8223 181.5 29.4343L182.237 33.3658ZM189.874 28.6636L183.754 40.8016L187.326 42.6024L193.446 30.4644L189.874 28.6636ZM177.906 73.48V71.48H177.66L177.421 71.5397L177.906 73.48ZM177.498 72.97L175.518 72.6872L175.498 72.8279V72.97H177.498ZM177.702 71.746L179.663 72.1382L180.414 68.3862L176.905 69.9119L177.702 71.746ZM171.582 73.582L171.159 71.6272L171.159 71.6272L171.582 73.582ZM163.83 75.01L163.526 73.0333L163.518 73.0345L163.83 75.01ZM156.996 75.928L155.023 75.6017L154.595 78.187L157.202 77.9174L156.996 75.928ZM159.138 62.974L158.917 60.9862L157.412 61.1535L157.165 62.6477L159.138 62.974ZM162.912 62.566L162.706 60.5766L162.699 60.5774L162.912 62.566ZM169.542 61.75L169.267 59.769L169.267 59.769L169.542 61.75ZM176.58 60.628L176.938 62.5957L176.961 62.5916L176.983 62.5869L176.58 60.628ZM182.088 58.996L181.312 57.1527L181.29 57.1622L181.267 57.1722L182.088 58.996ZM185.25 56.65L183.698 55.3888L183.693 55.3947L183.688 55.4006L185.25 56.65ZM187.086 53.692L185.297 52.7976L185.254 52.8839L185.219 52.9741L187.086 53.692ZM187.596 53.896L185.606 54.095L185.607 54.106L185.608 54.1169L187.596 53.896ZM187.494 55.018L186.08 53.6038L185.726 53.9573L185.581 54.4357L187.494 55.018ZM185.454 60.73L183.593 59.997L183.587 60.0123L183.581 60.0278L185.454 60.73ZM182.394 67.36L180.638 66.4023L180.638 66.4023L182.394 67.36ZM178.008 73.48V75.48H178.882L179.476 74.8388L178.008 73.48ZM177.421 71.5397C177.57 71.5026 177.857 71.4571 178.213 71.5461C178.602 71.6435 178.933 71.8676 179.162 72.1541C179.368 72.4119 179.443 72.6559 179.47 72.7733C179.486 72.8378 179.492 72.8877 179.495 72.9177C179.498 72.9481 179.498 72.9665 179.498 72.97H175.498C175.498 73.2829 175.528 74.0147 176.038 74.6529C176.336 75.0244 176.751 75.3037 177.243 75.4267C177.7 75.5411 178.107 75.4914 178.391 75.4203L177.421 71.5397ZM179.478 73.2529C179.543 72.8006 179.605 72.4311 179.663 72.1382L175.741 71.3538C175.664 71.7409 175.59 72.1874 175.518 72.6872L179.478 73.2529ZM176.905 69.9119C175.506 70.5201 173.605 71.0985 171.159 71.6272L172.005 75.5368C174.591 74.9776 176.771 74.3319 178.5 73.5801L176.905 69.9119ZM171.159 71.6272C168.684 72.1623 166.14 72.6311 163.526 73.0333L164.134 76.9868C166.824 76.5729 169.448 76.0897 172.005 75.5368L171.159 71.6272ZM163.518 73.0345C160.959 73.4386 158.718 73.7392 156.79 73.9386L157.202 77.9174C159.218 77.7088 161.533 77.3975 164.142 76.9855L163.518 73.0345ZM158.969 76.2543L161.111 63.3003L157.165 62.6477L155.023 75.6017L158.969 76.2543ZM159.359 64.9618C159.966 64.8943 161.22 64.7587 163.125 64.5546L162.699 60.5774C160.796 60.7813 159.534 60.9177 158.917 60.9862L159.359 64.9618ZM163.118 64.5554C165.118 64.3485 167.352 64.0735 169.817 63.731L169.267 59.769C166.837 60.1066 164.65 60.3755 162.706 60.5766L163.118 64.5554ZM169.817 63.731C172.291 63.3875 174.664 63.0091 176.938 62.5957L176.222 58.6603C174.008 59.0629 171.69 59.4325 169.267 59.769L169.817 63.731ZM176.983 62.5869C179.366 62.0963 181.361 61.5164 182.909 60.8199L181.267 57.1722C180.095 57.6997 178.418 58.2077 176.177 58.6691L176.983 62.5869ZM182.864 60.8393C184.44 60.1756 185.772 59.1987 186.812 57.8994L183.688 55.4006C183.096 56.1413 182.32 56.7284 181.312 57.1527L182.864 60.8393ZM186.802 57.9112C187.762 56.7305 188.51 55.5604 188.953 54.41L185.219 52.9741C184.982 53.5916 184.507 54.3936 183.698 55.3888L186.802 57.9112ZM188.875 54.5864C188.918 54.4998 188.878 54.607 188.737 54.7597C188.7 54.7989 187.887 55.6768 186.675 55.192C186.18 54.9941 185.914 54.6543 185.803 54.4837C185.686 54.3057 185.636 54.1578 185.62 54.1072C185.588 54.0057 185.594 53.9778 185.606 54.095L189.586 53.697C189.564 53.4742 189.524 53.1828 189.432 52.8944C189.386 52.7502 189.303 52.528 189.151 52.2947C189.003 52.0689 188.698 51.6929 188.16 51.4781C186.863 50.9593 185.952 51.8796 185.805 52.0379C185.553 52.3095 185.39 52.6122 185.297 52.7976L188.875 54.5864ZM185.608 54.1169C185.636 54.3624 185.629 54.4586 185.63 54.4544C185.63 54.45 185.637 54.3664 185.68 54.2389C185.72 54.1182 185.825 53.8588 186.08 53.6038L188.908 56.4322C189.502 55.8381 189.589 55.0892 189.613 54.8166C189.648 54.4384 189.625 54.0416 189.584 53.6751L185.608 54.1169ZM185.581 54.4357C185.126 55.9311 184.466 57.7816 183.593 59.997L187.315 61.4631C188.21 59.1904 188.911 57.233 189.407 55.6003L185.581 54.4357ZM183.581 60.0278C182.801 62.1078 181.822 64.2326 180.638 66.4023L184.15 68.3177C185.414 65.9995 186.475 63.7042 187.327 61.4323L183.581 60.0278ZM180.638 66.4023C179.492 68.5043 178.126 70.4091 176.541 72.1212L179.476 74.8388C181.29 72.8789 182.848 70.7037 184.15 68.3177L180.638 66.4023ZM178.008 71.48H177.906V75.48H178.008V71.48ZM202.003 55.364L202.796 57.2001L204.003 56.6789V55.364H202.003ZM201.697 43.022L199.7 43.1309L199.7 43.1329L201.697 43.022ZM200.983 31.7L198.988 31.84L198.988 31.8425L200.983 31.7ZM200.167 18.44L198.472 17.3774L198.135 17.9154L198.17 18.5494L200.167 18.44ZM207.715 6.404L209.712 6.29605L209.371 -0.0021025L206.02 5.34142L207.715 6.404ZM209.551 40.37L207.554 40.478L207.555 40.4928L207.556 40.5076L209.551 40.37ZM209.347 46.286L207.366 46.0127L207.361 46.0428L207.358 46.0729L209.347 46.286ZM208.429 51.386L206.499 50.8598L206.495 50.8763L206.491 50.8929L208.429 51.386ZM195.169 68.522L196.102 70.2908L196.112 70.2857L195.169 68.522ZM177.217 73.928L175.277 73.4429L174.474 76.6522L177.689 75.8715L177.217 73.928ZM177.319 73.52L179.259 74.0051L179.276 73.9364L179.289 73.8667L177.319 73.52ZM179.563 60.77L179.249 58.7948L177.84 59.0189L177.593 60.4233L179.563 60.77ZM187.315 59.546L187.624 61.522L187.648 61.5182L187.673 61.5137L187.315 59.546ZM192.925 58.424L193.368 60.3743L193.384 60.3707L193.4 60.3668L192.925 58.424ZM204.003 55.364C204.003 50.7793 203.9 46.6275 203.694 42.9111L199.7 43.1329C199.901 46.7605 200.003 50.8367 200.003 55.364H204.003ZM203.694 42.9131C203.489 39.1617 203.25 35.3765 202.978 31.5575L198.988 31.8425C199.259 35.6395 199.496 39.4023 199.7 43.1309L203.694 42.9131ZM202.978 31.56C202.707 27.6965 202.435 23.287 202.164 18.3306L198.17 18.5494C198.442 23.521 198.715 27.9515 198.988 31.84L202.978 31.56ZM201.861 19.5026L209.409 7.46658L206.02 5.34142L198.472 17.3774L201.861 19.5026ZM205.718 6.51195L207.554 40.478L211.548 40.2621L209.712 6.29605L205.718 6.51195ZM207.556 40.5076C207.682 42.3416 207.619 44.1759 207.366 46.0127L211.328 46.5593C211.619 44.4521 211.692 42.3425 211.546 40.2324L207.556 40.5076ZM207.358 46.0729C207.163 47.8947 206.874 49.487 206.499 50.8598L210.358 51.9122C210.8 50.293 211.123 48.4853 211.335 46.4991L207.358 46.0729ZM206.491 50.8929C204.653 58.1171 200.583 63.3592 194.226 66.7583L196.112 70.2857C203.49 66.3408 208.261 60.1589 210.367 51.8791L206.491 50.8929ZM194.235 66.7532C193.197 67.3014 191.251 68.0292 188.268 68.9275C185.324 69.8139 181.487 70.8328 176.745 71.9845L177.689 75.8715C182.467 74.7112 186.381 73.6731 189.421 72.7576C192.422 71.8538 194.693 71.0346 196.102 70.2908L194.235 66.7532ZM179.157 74.4131L179.259 74.0051L175.379 73.0349L175.277 73.4429L179.157 74.4131ZM179.289 73.8667L181.533 61.1167L177.593 60.4233L175.349 73.1733L179.289 73.8667ZM179.877 62.7452C182.868 62.2694 185.45 61.8617 187.624 61.522L187.006 57.57C184.828 57.9104 182.242 58.3187 179.249 58.7948L179.877 62.7452ZM187.673 61.5137C189.933 61.1028 191.834 60.723 193.368 60.3743L192.482 56.4737C191.024 56.805 189.185 57.1732 186.957 57.5783L187.673 61.5137ZM193.4 60.3668C196.572 59.5913 199.704 58.535 202.796 57.2001L201.21 53.5279C198.317 54.777 195.397 55.7607 192.45 56.4812L193.4 60.3668ZM218.63 43.89L216.935 42.8274L216.591 43.3757L216.634 44.0215L218.63 43.89ZM226.178 31.854L228.173 31.7225L227.767 25.5552L224.483 30.7914L226.178 31.854ZM229.034 75.204L230.728 76.2666L231.072 75.7183L231.029 75.0725L229.034 75.204ZM221.486 87.24L219.49 87.3715L219.896 93.5388L223.18 88.3026L221.486 87.24ZM220.324 44.9526L227.872 32.9166L224.483 30.7914L216.935 42.8274L220.324 44.9526ZM224.182 31.9855L227.038 75.3355L231.029 75.0725L228.173 31.7225L224.182 31.9855ZM227.339 74.1414L219.791 86.1774L223.18 88.3026L230.728 76.2666L227.339 74.1414ZM223.481 87.1085L220.625 43.7585L216.634 44.0215L219.49 87.3715L223.481 87.1085Z" fill="#473851" mask="url(#path-1-outside-1_3_9)"/>
</svg>
