<?xml version="1.0" encoding="UTF-8"?>
<svg id="Layer_2" data-name="Layer 2" xmlns="http://www.w3.org/2000/svg" viewBox="0 0 53.1 27.43">
  <g id="Layer_1-2" data-name="Layer 1">
    <g>
      <path d="M18.72,14l-1.55,4.21-.76,.65-1.66,.18c-.29,1.51-.8,2.91-1.53,4.19-.73,1.28-1.64,2.3-2.74,3.06-1.09,.76-2.3,1.13-3.62,1.13-1.08,0-2.33-.27-3.74-.81-1.42-.54-2.46-1.13-3.13-1.78,1.9-.55,4.01-1.25,6.35-2.11,2.34-.85,4.27-1.63,5.78-2.32l-.22-1.26h-1.69c-.91,0-1.64-.14-2.2-.41s-.83-.67-.83-1.17c0-.6,.32-1.4,.97-2.41,.65-1.01,1.42-1.9,2.3-2.68,.89-.78,1.66-1.17,2.3-1.17,.43,0,.82,.22,1.15,.65s.6,1.03,.79,1.8l3.78-.36,.22,.61Z"/>
      <path d="M26.96,13.14l-1.55,4.21-.76,.65-3.96,.4,.43-1.48c-.82,1.06-2.39,1.7-4.72,1.94l2.09-5.47c1.68-.17,3.02-.52,4.03-1.04l.79-2.63,1.15,.11-.65,2.99,2.92-.29,.22,.61Zm-9.32,9.22l6.52-1.76-.72,3.71-6.41,1.4,.61-3.35Z"/>
      <path d="M35.21,12.28l-1.55,4.21-.76,.65-3.96,.4,.43-1.48c-.82,1.06-2.39,1.7-4.72,1.94l2.09-5.47c1.68-.17,3.02-.52,4.03-1.04l.79-2.63,1.15,.11-.65,2.99,2.92-.29,.22,.61ZM28.94,2.23l3.35-2.23,.5,.83c.67,1.1,1.24,1.94,1.69,2.52l-3.02,1.98c-.84-.65-1.68-1.68-2.52-3.1Z"/>
      <path d="M43.45,11.41l-1.55,4.21-.76,.65-3.96,.4,.43-1.48c-.82,1.06-2.39,1.7-4.72,1.94l2.09-5.47c1.68-.17,3.02-.52,4.03-1.04l.79-2.63,1.15,.11-.65,2.99,2.92-.29,.22,.61Zm-9.32,9.22l6.52-1.76-.72,3.71-6.41,1.4,.61-3.35Z"/>
      <path d="M52.16,5.09c.62,.32,.94,.71,.94,1.17,0,1.18-.19,2.33-.58,3.47-.38,1.14-.89,2.14-1.53,2.99-.64,.85-1.3,1.47-2,1.85-2.02,.79-4.63,1.36-7.85,1.69l2.09-5.47,1.01-.11c.48-.05,.84-.1,1.08-.14-.14-.29-.22-.55-.22-.79,0-.53,.2-1.3,.59-2.32,.4-1.02,.8-1.67,1.21-1.96,.36-.26,.81-.47,1.35-.63,.54-.16,1.11-.23,1.71-.23,.84,0,1.57,.16,2.2,.49Z"/>
    </g>
  </g>
</svg>