<svg width="399" height="403" viewBox="0 0 399 403" fill="none" xmlns="http://www.w3.org/2000/svg">
<g filter="url(#filter0_d_3_47)">
<path d="M165.52 22.0926C186.294 9.01229 212.73 9.01229 233.503 22.0926V22.0926C243.487 28.3793 255.021 31.774 266.819 31.8993V31.8993C291.339 32.1598 313.584 46.5306 323.981 68.7385V68.7385C328.988 79.4335 336.876 88.5754 346.733 95.0781V95.0781C367.228 108.599 378.191 132.723 374.964 157.064V157.064C373.41 168.783 375.121 180.751 379.906 191.561V191.561C389.855 214.039 386.103 240.259 370.231 259.029V259.029C362.601 268.052 357.602 279.053 355.802 290.732V290.732C352.065 314.976 334.763 335.046 311.306 342.225V342.225C300.021 345.68 289.893 352.212 282.083 361.061V361.061C265.852 379.45 240.476 386.942 216.875 380.263V380.263C205.522 377.05 193.501 377.05 182.148 380.263V380.263C158.547 386.942 133.171 379.45 116.94 361.061V361.061C109.13 352.212 99.0026 345.68 87.7171 342.225V342.225C64.2606 335.046 46.9581 314.976 43.2209 290.732V290.732C41.4207 279.053 36.422 268.052 28.7922 259.029V259.029C12.9198 240.259 9.16818 214.039 19.1176 191.561V191.561C23.9026 180.751 25.6133 168.783 24.0594 157.064V157.064C20.8322 132.723 31.7952 108.599 52.2904 95.0781V95.0781C62.1477 88.5754 70.0354 79.4335 75.0423 68.7385V68.7385C85.439 46.5306 107.685 32.1598 132.204 31.8993V31.8993C144.002 31.774 155.536 28.3793 165.52 22.0926V22.0926Z" fill="#A483D0"/>
<path d="M132.279 38.8989C145.371 38.7598 158.17 34.9928 169.25 28.0162C187.744 16.3711 211.279 16.3711 229.773 28.0162C240.853 34.9928 253.652 38.7598 266.744 38.8989C288.564 39.1307 308.38 51.9245 317.641 71.7065C323.194 83.5668 331.94 93.7052 342.878 100.921C361.127 112.96 370.9 134.454 368.025 156.144C366.302 169.137 368.197 182.404 373.505 194.394C382.37 214.424 379.026 237.788 364.886 254.509C356.421 264.52 350.88 276.718 348.884 289.665C345.554 311.266 330.135 329.142 309.257 335.532C296.733 339.365 285.499 346.612 276.835 356.429C262.381 372.805 239.785 379.471 218.781 373.527C206.182 369.962 192.841 369.962 180.242 373.527C159.239 379.471 136.642 372.805 122.189 356.429C113.525 346.612 102.29 339.365 89.7658 335.532C68.8887 329.142 53.4689 311.266 50.1392 289.665C48.1434 276.718 42.6026 264.52 34.1374 254.509C19.9976 237.788 16.6528 214.424 25.5186 194.394C30.8258 182.404 32.7215 169.137 30.9987 156.143C28.1229 134.454 37.896 112.96 56.1451 100.921C67.0835 93.7052 75.8295 83.5668 81.3819 71.7065C90.6429 51.9246 110.46 39.1307 132.279 38.8989Z" stroke="#9B51E0" stroke-width="14"/>
</g>
<mask id="path-3-outside-1_3_47" maskUnits="userSpaceOnUse" x="100.716" y="106.976" width="210" height="196" fill="black">
<rect fill="white" x="100.716" y="106.976" width="210" height="196"/>
<path d="M145.994 146.01C145.994 159.678 146.81 166.716 148.34 170.388C149.666 171.816 152.012 172.938 153.848 173.142C155.582 167.94 156.5 159.78 156.5 146.622C156.5 132.954 155.684 125.916 154.256 122.244C152.93 120.816 150.482 119.694 148.646 119.49C146.912 124.692 145.994 132.852 145.994 146.01ZM135.692 148.866C135.692 135.402 137.018 125.61 139.466 119.49C142.016 116.226 147.014 112.656 150.686 111.84C155.174 111.84 160.376 113.778 162.824 116.328C165.272 121.122 166.802 129.792 166.802 143.766C166.802 157.23 165.476 167.022 163.028 173.142C160.58 176.406 155.582 179.976 151.91 180.792C147.32 180.792 142.118 178.854 139.772 176.304C137.222 171.51 135.692 162.84 135.692 148.866ZM172.472 147.336L171.452 135.912C172.778 134.28 175.94 131.73 177.878 131.016H181.346V141.624H182.06C182.774 137.85 183.692 133.566 184.406 131.424C185.63 130.812 187.67 130.302 189.098 130.302C190.016 130.302 191.036 130.404 191.852 130.608C191.75 133.566 191.24 139.074 190.73 142.44H185.732L181.958 151.11V179.976H174.614C173.696 179.568 172.88 178.854 172.472 178.14V147.336ZM210.813 130.71L209.793 113.472C211.119 111.84 214.281 109.29 216.219 108.576H220.197V165.9L221.523 177.936C220.095 178.752 217.137 179.976 215.097 180.384H212.343L211.425 171.408H210.609C209.589 174.672 208.161 178.242 207.345 179.976C206.529 180.384 205.101 180.69 203.367 180.69C200.103 180.69 197.247 179.568 195.513 177.936C193.881 173.346 192.861 164.574 192.861 156.72C192.861 148.968 193.575 142.95 194.901 138.36C197.553 134.586 202.347 131.22 205.713 130.2C207.447 130.2 209.589 130.404 210.813 130.71ZM210.711 163.248V139.992C209.079 138.36 206.223 137.136 204.183 136.83C203.265 141.216 202.755 146.52 202.755 153.66C202.755 161.616 203.163 167.532 204.183 171.306C204.591 171.612 205.203 171.714 205.611 171.714L210.711 163.248ZM241.445 172.224C243.179 170.694 246.035 167.838 247.667 166.002C248.891 167.124 250.523 169.266 251.237 170.592C247.769 174.978 243.791 178.956 240.731 180.792C236.345 180.588 231.143 178.548 228.593 176.202C226.553 171.612 225.431 164.574 225.431 155.802C225.431 148.152 226.349 142.542 227.879 138.36C230.429 134.586 235.427 131.016 239.099 130.2C243.791 130.2 248.075 131.628 250.727 134.076C251.237 136.626 251.441 139.788 251.441 142.848C251.441 145.5 251.339 148.254 251.033 151.008C249.197 153.252 245.525 156.414 242.873 157.74H235.325C235.325 162.228 235.937 167.022 236.957 170.082C238.181 171.102 240.017 171.918 241.445 172.224ZM235.325 150.804H241.445C241.649 149.172 241.853 146.622 241.853 144.48C241.853 142.746 241.751 140.604 241.547 138.972C240.527 137.646 238.283 136.83 236.753 136.83C236.039 139.89 235.325 145.398 235.325 150.804ZM256.741 147.336L255.721 135.912C257.047 134.28 260.209 131.73 262.147 131.016H265.615V141.624H266.329C267.043 137.85 267.961 133.566 268.675 131.424C269.899 130.812 271.939 130.302 273.367 130.302C274.285 130.302 275.305 130.404 276.121 130.608C276.019 133.566 275.509 139.074 274.999 142.44H270.001L266.227 151.11V179.976H258.883C257.965 179.568 257.149 178.854 256.741 178.14V147.336ZM103.647 237.096L102.729 218.328C105.279 216.696 110.991 214.554 114.459 213.84C120.273 213.84 126.495 215.982 129.759 218.43C131.901 223.632 133.431 232.2 133.431 245.766C133.431 259.23 132.105 268.818 129.657 274.938C127.617 277.488 122.721 280.956 119.355 282.18C115.377 282.18 109.665 282.078 105.789 281.976C104.871 281.568 104.055 280.854 103.647 280.14V237.096ZM113.439 221.49V260.658C113.439 264.738 113.337 269.838 113.133 273C115.173 273.816 118.845 274.53 120.783 274.53C122.109 269.838 123.129 261.78 123.129 248.622C123.129 235.26 122.313 228.12 121.191 224.754C119.559 223.122 116.091 221.694 113.439 221.49ZM153.689 274.224C155.423 272.694 158.279 269.838 159.911 268.002C161.135 269.124 162.767 271.266 163.481 272.592C160.013 276.978 156.035 280.956 152.975 282.792C148.589 282.588 143.387 280.548 140.837 278.202C138.797 273.612 137.675 266.574 137.675 257.802C137.675 250.152 138.593 244.542 140.123 240.36C142.673 236.586 147.671 233.016 151.343 232.2C156.035 232.2 160.319 233.628 162.971 236.076C163.481 238.626 163.685 241.788 163.685 244.848C163.685 247.5 163.583 250.254 163.277 253.008C161.441 255.252 157.769 258.414 155.117 259.74H147.569C147.569 264.228 148.181 269.022 149.201 272.082C150.425 273.102 152.261 273.918 153.689 274.224ZM147.569 252.804H153.689C153.893 251.172 154.097 248.622 154.097 246.48C154.097 244.746 153.995 242.604 153.791 240.972C152.771 239.646 150.527 238.83 148.997 238.83C148.283 241.89 147.569 247.398 147.569 252.804ZM177.971 210.576V281.976H170.627C169.709 281.568 168.893 280.854 168.383 280.14V238.932L167.465 215.472C168.791 213.84 171.953 211.29 173.891 210.576H177.971ZM194.011 233.016V281.976H186.667C185.749 281.568 184.933 280.854 184.525 280.14V249.336L183.505 237.912C184.831 236.28 187.993 233.73 189.931 233.016H194.011ZM188.707 228.324L184.219 227.712C183.913 224.244 183.913 218.838 184.117 215.982C185.443 214.962 187.687 213.942 189.523 213.534L194.011 214.146C194.419 217.716 194.419 223.02 194.113 225.876C192.787 226.896 190.543 228.018 188.707 228.324ZM216.066 244.338V236.076C217.8 234.75 220.656 233.424 222.696 233.016H226.164L220.758 276.264C219.228 278.508 215.556 281.67 213.21 282.792C210.048 282.792 205.764 281.058 203.724 279.12L199.746 246.378L197.502 236.892C199.236 235.464 202.296 233.73 204.54 233.016H208.11L211.986 273.204C212.292 273.408 212.802 273.612 213.312 273.714L216.066 244.338ZM244.234 274.224C245.968 272.694 248.824 269.838 250.456 268.002C251.68 269.124 253.312 271.266 254.026 272.592C250.558 276.978 246.58 280.956 243.52 282.792C239.134 282.588 233.932 280.548 231.382 278.202C229.342 273.612 228.22 266.574 228.22 257.802C228.22 250.152 229.138 244.542 230.668 240.36C233.218 236.586 238.216 233.016 241.888 232.2C246.58 232.2 250.864 233.628 253.516 236.076C254.026 238.626 254.23 241.788 254.23 244.848C254.23 247.5 254.128 250.254 253.822 253.008C251.986 255.252 248.314 258.414 245.662 259.74H238.114C238.114 264.228 238.726 269.022 239.746 272.082C240.97 273.102 242.806 273.918 244.234 274.224ZM238.114 252.804H244.234C244.438 251.172 244.642 248.622 244.642 246.48C244.642 244.746 244.54 242.604 244.336 240.972C243.316 239.646 241.072 238.83 239.542 238.83C238.828 241.89 238.114 247.398 238.114 252.804ZM259.531 249.336L258.511 237.912C259.837 236.28 262.999 233.73 264.937 233.016H268.405V243.624H269.119C269.833 239.85 270.751 235.566 271.465 233.424C272.689 232.812 274.729 232.302 276.157 232.302C277.075 232.302 278.095 232.404 278.911 232.608C278.809 235.566 278.299 241.074 277.789 244.44H272.791L269.017 253.11V281.976H261.673C260.755 281.568 259.939 280.854 259.531 280.14V249.336ZM291.917 300.948L288.959 299.418L292.835 282.18H292.529C289.673 281.772 286.919 280.446 285.287 278.712L282.023 246.48L279.779 236.892C281.513 235.464 284.573 233.73 286.817 233.016H290.387L293.651 273.204L294.365 273.714L298.139 244.338L298.649 236.076C300.281 234.75 303.239 233.424 305.279 233.016H308.747L300.485 285.24L299.261 296.664C297.119 298.602 294.059 300.234 291.917 300.948Z"/>
</mask>
<path d="M145.994 146.01C145.994 159.678 146.81 166.716 148.34 170.388C149.666 171.816 152.012 172.938 153.848 173.142C155.582 167.94 156.5 159.78 156.5 146.622C156.5 132.954 155.684 125.916 154.256 122.244C152.93 120.816 150.482 119.694 148.646 119.49C146.912 124.692 145.994 132.852 145.994 146.01ZM135.692 148.866C135.692 135.402 137.018 125.61 139.466 119.49C142.016 116.226 147.014 112.656 150.686 111.84C155.174 111.84 160.376 113.778 162.824 116.328C165.272 121.122 166.802 129.792 166.802 143.766C166.802 157.23 165.476 167.022 163.028 173.142C160.58 176.406 155.582 179.976 151.91 180.792C147.32 180.792 142.118 178.854 139.772 176.304C137.222 171.51 135.692 162.84 135.692 148.866ZM172.472 147.336L171.452 135.912C172.778 134.28 175.94 131.73 177.878 131.016H181.346V141.624H182.06C182.774 137.85 183.692 133.566 184.406 131.424C185.63 130.812 187.67 130.302 189.098 130.302C190.016 130.302 191.036 130.404 191.852 130.608C191.75 133.566 191.24 139.074 190.73 142.44H185.732L181.958 151.11V179.976H174.614C173.696 179.568 172.88 178.854 172.472 178.14V147.336ZM210.813 130.71L209.793 113.472C211.119 111.84 214.281 109.29 216.219 108.576H220.197V165.9L221.523 177.936C220.095 178.752 217.137 179.976 215.097 180.384H212.343L211.425 171.408H210.609C209.589 174.672 208.161 178.242 207.345 179.976C206.529 180.384 205.101 180.69 203.367 180.69C200.103 180.69 197.247 179.568 195.513 177.936C193.881 173.346 192.861 164.574 192.861 156.72C192.861 148.968 193.575 142.95 194.901 138.36C197.553 134.586 202.347 131.22 205.713 130.2C207.447 130.2 209.589 130.404 210.813 130.71ZM210.711 163.248V139.992C209.079 138.36 206.223 137.136 204.183 136.83C203.265 141.216 202.755 146.52 202.755 153.66C202.755 161.616 203.163 167.532 204.183 171.306C204.591 171.612 205.203 171.714 205.611 171.714L210.711 163.248ZM241.445 172.224C243.179 170.694 246.035 167.838 247.667 166.002C248.891 167.124 250.523 169.266 251.237 170.592C247.769 174.978 243.791 178.956 240.731 180.792C236.345 180.588 231.143 178.548 228.593 176.202C226.553 171.612 225.431 164.574 225.431 155.802C225.431 148.152 226.349 142.542 227.879 138.36C230.429 134.586 235.427 131.016 239.099 130.2C243.791 130.2 248.075 131.628 250.727 134.076C251.237 136.626 251.441 139.788 251.441 142.848C251.441 145.5 251.339 148.254 251.033 151.008C249.197 153.252 245.525 156.414 242.873 157.74H235.325C235.325 162.228 235.937 167.022 236.957 170.082C238.181 171.102 240.017 171.918 241.445 172.224ZM235.325 150.804H241.445C241.649 149.172 241.853 146.622 241.853 144.48C241.853 142.746 241.751 140.604 241.547 138.972C240.527 137.646 238.283 136.83 236.753 136.83C236.039 139.89 235.325 145.398 235.325 150.804ZM256.741 147.336L255.721 135.912C257.047 134.28 260.209 131.73 262.147 131.016H265.615V141.624H266.329C267.043 137.85 267.961 133.566 268.675 131.424C269.899 130.812 271.939 130.302 273.367 130.302C274.285 130.302 275.305 130.404 276.121 130.608C276.019 133.566 275.509 139.074 274.999 142.44H270.001L266.227 151.11V179.976H258.883C257.965 179.568 257.149 178.854 256.741 178.14V147.336ZM103.647 237.096L102.729 218.328C105.279 216.696 110.991 214.554 114.459 213.84C120.273 213.84 126.495 215.982 129.759 218.43C131.901 223.632 133.431 232.2 133.431 245.766C133.431 259.23 132.105 268.818 129.657 274.938C127.617 277.488 122.721 280.956 119.355 282.18C115.377 282.18 109.665 282.078 105.789 281.976C104.871 281.568 104.055 280.854 103.647 280.14V237.096ZM113.439 221.49V260.658C113.439 264.738 113.337 269.838 113.133 273C115.173 273.816 118.845 274.53 120.783 274.53C122.109 269.838 123.129 261.78 123.129 248.622C123.129 235.26 122.313 228.12 121.191 224.754C119.559 223.122 116.091 221.694 113.439 221.49ZM153.689 274.224C155.423 272.694 158.279 269.838 159.911 268.002C161.135 269.124 162.767 271.266 163.481 272.592C160.013 276.978 156.035 280.956 152.975 282.792C148.589 282.588 143.387 280.548 140.837 278.202C138.797 273.612 137.675 266.574 137.675 257.802C137.675 250.152 138.593 244.542 140.123 240.36C142.673 236.586 147.671 233.016 151.343 232.2C156.035 232.2 160.319 233.628 162.971 236.076C163.481 238.626 163.685 241.788 163.685 244.848C163.685 247.5 163.583 250.254 163.277 253.008C161.441 255.252 157.769 258.414 155.117 259.74H147.569C147.569 264.228 148.181 269.022 149.201 272.082C150.425 273.102 152.261 273.918 153.689 274.224ZM147.569 252.804H153.689C153.893 251.172 154.097 248.622 154.097 246.48C154.097 244.746 153.995 242.604 153.791 240.972C152.771 239.646 150.527 238.83 148.997 238.83C148.283 241.89 147.569 247.398 147.569 252.804ZM177.971 210.576V281.976H170.627C169.709 281.568 168.893 280.854 168.383 280.14V238.932L167.465 215.472C168.791 213.84 171.953 211.29 173.891 210.576H177.971ZM194.011 233.016V281.976H186.667C185.749 281.568 184.933 280.854 184.525 280.14V249.336L183.505 237.912C184.831 236.28 187.993 233.73 189.931 233.016H194.011ZM188.707 228.324L184.219 227.712C183.913 224.244 183.913 218.838 184.117 215.982C185.443 214.962 187.687 213.942 189.523 213.534L194.011 214.146C194.419 217.716 194.419 223.02 194.113 225.876C192.787 226.896 190.543 228.018 188.707 228.324ZM216.066 244.338V236.076C217.8 234.75 220.656 233.424 222.696 233.016H226.164L220.758 276.264C219.228 278.508 215.556 281.67 213.21 282.792C210.048 282.792 205.764 281.058 203.724 279.12L199.746 246.378L197.502 236.892C199.236 235.464 202.296 233.73 204.54 233.016H208.11L211.986 273.204C212.292 273.408 212.802 273.612 213.312 273.714L216.066 244.338ZM244.234 274.224C245.968 272.694 248.824 269.838 250.456 268.002C251.68 269.124 253.312 271.266 254.026 272.592C250.558 276.978 246.58 280.956 243.52 282.792C239.134 282.588 233.932 280.548 231.382 278.202C229.342 273.612 228.22 266.574 228.22 257.802C228.22 250.152 229.138 244.542 230.668 240.36C233.218 236.586 238.216 233.016 241.888 232.2C246.58 232.2 250.864 233.628 253.516 236.076C254.026 238.626 254.23 241.788 254.23 244.848C254.23 247.5 254.128 250.254 253.822 253.008C251.986 255.252 248.314 258.414 245.662 259.74H238.114C238.114 264.228 238.726 269.022 239.746 272.082C240.97 273.102 242.806 273.918 244.234 274.224ZM238.114 252.804H244.234C244.438 251.172 244.642 248.622 244.642 246.48C244.642 244.746 244.54 242.604 244.336 240.972C243.316 239.646 241.072 238.83 239.542 238.83C238.828 241.89 238.114 247.398 238.114 252.804ZM259.531 249.336L258.511 237.912C259.837 236.28 262.999 233.73 264.937 233.016H268.405V243.624H269.119C269.833 239.85 270.751 235.566 271.465 233.424C272.689 232.812 274.729 232.302 276.157 232.302C277.075 232.302 278.095 232.404 278.911 232.608C278.809 235.566 278.299 241.074 277.789 244.44H272.791L269.017 253.11V281.976H261.673C260.755 281.568 259.939 280.854 259.531 280.14V249.336ZM291.917 300.948L288.959 299.418L292.835 282.18H292.529C289.673 281.772 286.919 280.446 285.287 278.712L282.023 246.48L279.779 236.892C281.513 235.464 284.573 233.73 286.817 233.016H290.387L293.651 273.204L294.365 273.714L298.139 244.338L298.649 236.076C300.281 234.75 303.239 233.424 305.279 233.016H308.747L300.485 285.24L299.261 296.664C297.119 298.602 294.059 300.234 291.917 300.948Z" fill="white"/>
<path d="M148.34 170.388L147.417 170.773L147.486 170.938L147.607 171.069L148.34 170.388ZM153.848 173.142L153.738 174.136L154.541 174.225L154.797 173.459L153.848 173.142ZM154.256 122.244L155.188 121.882L155.119 121.704L154.989 121.564L154.256 122.244ZM148.646 119.49L148.757 118.496L147.953 118.407L147.698 119.174L148.646 119.49ZM139.466 119.49L138.678 118.875L138.591 118.987L138.538 119.119L139.466 119.49ZM150.686 111.84V110.84H150.576L150.469 110.864L150.686 111.84ZM162.824 116.328L163.715 115.874L163.648 115.742L163.546 115.636L162.824 116.328ZM163.028 173.142L163.828 173.742L163.908 173.637L163.957 173.514L163.028 173.142ZM151.91 180.792V181.792H152.02L152.127 181.769L151.91 180.792ZM139.772 176.304L138.889 176.774L138.949 176.887L139.036 176.981L139.772 176.304ZM144.994 146.01C144.994 152.86 145.198 158.074 145.598 162.048C145.997 166.011 146.596 168.802 147.417 170.773L149.263 170.004C148.554 168.302 147.98 165.739 147.588 161.848C147.198 157.968 146.994 152.829 146.994 146.01H144.994ZM147.607 171.069C149.104 172.681 151.675 173.907 153.738 174.136L153.959 172.148C152.349 171.97 150.228 170.952 149.073 169.708L147.607 171.069ZM154.797 173.459C156.585 168.093 157.5 159.795 157.5 146.622H155.5C155.5 159.766 154.579 167.787 152.9 172.826L154.797 173.459ZM157.5 146.622C157.5 132.978 156.694 125.755 155.188 121.882L153.324 122.607C154.674 126.078 155.5 132.93 155.5 146.622H157.5ZM154.989 121.564C154.217 120.733 153.159 120.028 152.076 119.507C150.991 118.985 149.81 118.614 148.757 118.496L148.536 120.484C149.318 120.571 150.28 120.862 151.209 121.309C152.14 121.757 152.969 122.328 153.523 122.925L154.989 121.564ZM147.698 119.174C145.909 124.539 144.994 132.838 144.994 146.01H146.994C146.994 132.867 147.915 124.845 149.595 119.807L147.698 119.174ZM136.692 148.866C136.692 135.434 138.02 125.799 140.395 119.862L138.538 119.119C136.017 125.422 134.692 135.371 134.692 148.866H136.692ZM140.254 120.106C141.454 118.571 143.26 116.929 145.224 115.57C147.198 114.204 149.243 113.185 150.903 112.817L150.469 110.864C148.457 111.311 146.168 112.485 144.087 113.925C141.996 115.371 140.029 117.146 138.678 118.875L140.254 120.106ZM150.686 112.84C152.796 112.84 155.101 113.298 157.173 114.066C159.256 114.838 161.018 115.891 162.103 117.021L163.546 115.636C162.182 114.215 160.12 113.025 157.868 112.19C155.604 111.352 153.064 110.84 150.686 110.84V112.84ZM161.934 116.783C164.266 121.351 165.802 129.814 165.802 143.766H167.802C167.802 129.771 166.278 120.893 163.715 115.874L161.934 116.783ZM165.802 143.766C165.802 157.199 164.475 166.834 162.1 172.771L163.957 173.514C166.478 167.211 167.802 157.262 167.802 143.766H165.802ZM162.228 172.542C161.084 174.068 159.308 175.706 157.357 177.065C155.398 178.428 153.353 179.447 151.693 179.816L152.127 181.769C154.139 181.321 156.429 180.147 158.5 178.706C160.578 177.259 162.525 175.48 163.828 173.742L162.228 172.542ZM151.91 179.792C149.747 179.792 147.416 179.334 145.347 178.567C143.265 177.795 141.536 176.745 140.508 175.627L139.036 176.981C140.354 178.414 142.4 179.608 144.652 180.442C146.918 181.282 149.484 181.792 151.91 181.792V179.792ZM140.655 175.835C138.23 171.275 136.692 162.823 136.692 148.866H134.692C134.692 162.858 136.215 171.746 138.889 176.774L140.655 175.835ZM172.472 147.336H173.472V147.292L173.468 147.247L172.472 147.336ZM171.452 135.912L170.676 135.282L170.42 135.597L170.456 136.001L171.452 135.912ZM177.878 131.016V130.016H177.7L177.532 130.078L177.878 131.016ZM181.346 131.016H182.346V130.016H181.346V131.016ZM181.346 141.624H180.346V142.624H181.346V141.624ZM182.06 141.624V142.624H182.889L183.043 141.81L182.06 141.624ZM184.406 131.424L183.959 130.53L183.588 130.715L183.457 131.108L184.406 131.424ZM191.852 130.608L192.851 130.643L192.879 129.834L192.094 129.638L191.852 130.608ZM190.73 142.44V143.44H191.59L191.719 142.59L190.73 142.44ZM185.732 142.44V141.44H185.077L184.815 142.041L185.732 142.44ZM181.958 151.11L181.041 150.711L180.958 150.902V151.11H181.958ZM181.958 179.976V180.976H182.958V179.976H181.958ZM174.614 179.976L174.208 180.89L174.402 180.976H174.614V179.976ZM172.472 178.14H171.472V178.406L171.604 178.636L172.472 178.14ZM173.468 147.247L172.448 135.823L170.456 136.001L171.476 147.425L173.468 147.247ZM172.228 136.543C172.826 135.807 173.884 134.814 175.049 133.91C176.225 132.997 177.402 132.257 178.224 131.955L177.532 130.078C176.416 130.489 175.043 131.382 173.822 132.33C172.59 133.287 171.404 134.385 170.676 135.282L172.228 136.543ZM177.878 132.016H181.346V130.016H177.878V132.016ZM180.346 131.016V141.624H182.346V131.016H180.346ZM181.346 142.624H182.06V140.624H181.346V142.624ZM183.043 141.81C183.758 138.027 184.665 133.808 185.355 131.741L183.457 131.108C182.719 133.324 181.79 137.674 181.077 141.438L183.043 141.81ZM184.853 132.319C185.946 131.772 187.833 131.302 189.098 131.302V129.302C187.507 129.302 185.314 129.852 183.959 130.53L184.853 132.319ZM189.098 131.302C189.955 131.302 190.891 131.399 191.609 131.578L192.094 129.638C191.181 129.41 190.077 129.302 189.098 129.302V131.302ZM190.853 130.574C190.752 133.491 190.246 138.961 189.741 142.291L191.719 142.59C192.234 139.188 192.748 133.641 192.851 130.643L190.853 130.574ZM190.73 141.44H185.732V143.44H190.73V141.44ZM184.815 142.041L181.041 150.711L182.875 151.509L186.649 142.839L184.815 142.041ZM180.958 151.11V179.976H182.958V151.11H180.958ZM181.958 178.976H174.614V180.976H181.958V178.976ZM175.02 179.063C174.265 178.727 173.627 178.146 173.34 177.644L171.604 178.636C172.133 179.563 173.126 180.41 174.208 180.89L175.02 179.063ZM173.472 178.14V147.336H171.472V178.14H173.472ZM210.813 130.71L210.57 131.68L211.892 132.011L211.811 130.651L210.813 130.71ZM209.793 113.472L209.017 112.842L208.772 113.143L208.795 113.531L209.793 113.472ZM216.219 108.576V107.576H216.04L215.873 107.638L216.219 108.576ZM220.197 108.576H221.197V107.576H220.197V108.576ZM220.197 165.9H219.197V165.955L219.203 166.01L220.197 165.9ZM221.523 177.936L222.019 178.805L222.589 178.479L222.517 177.827L221.523 177.936ZM215.097 180.384V181.384H215.196L215.293 181.365L215.097 180.384ZM212.343 180.384L211.348 180.486L211.44 181.384H212.343V180.384ZM211.425 171.408L212.42 171.307L212.328 170.408H211.425V171.408ZM210.609 171.408V170.408H209.874L209.654 171.11L210.609 171.408ZM207.345 179.976L207.792 180.871L208.102 180.716L208.25 180.402L207.345 179.976ZM195.513 177.936L194.571 178.271L194.652 178.499L194.827 178.665L195.513 177.936ZM194.901 138.36L194.083 137.785L193.986 137.922L193.94 138.083L194.901 138.36ZM205.713 130.2V129.2H205.565L205.423 129.243L205.713 130.2ZM210.711 163.248L211.567 163.764L211.711 163.526V163.248H210.711ZM210.711 139.992H211.711V139.578L211.418 139.285L210.711 139.992ZM204.183 136.83L204.331 135.841L203.397 135.701L203.204 136.625L204.183 136.83ZM204.183 171.306L203.217 171.567L203.307 171.9L203.583 172.106L204.183 171.306ZM205.611 171.714V172.714H206.176L206.467 172.23L205.611 171.714ZM211.811 130.651L210.791 113.413L208.795 113.531L209.815 130.769L211.811 130.651ZM210.569 114.103C211.167 113.367 212.225 112.374 213.39 111.47C214.566 110.557 215.743 109.817 216.565 109.515L215.873 107.638C214.757 108.049 213.384 108.942 212.163 109.89C210.931 110.847 209.745 111.945 209.017 112.842L210.569 114.103ZM216.219 109.576H220.197V107.576H216.219V109.576ZM219.197 108.576V165.9H221.197V108.576H219.197ZM219.203 166.01L220.529 178.046L222.517 177.827L221.191 165.791L219.203 166.01ZM221.027 177.068C219.674 177.841 216.817 179.021 214.901 179.404L215.293 181.365C217.457 180.932 220.516 179.664 222.019 178.805L221.027 177.068ZM215.097 179.384H212.343V181.384H215.097V179.384ZM213.338 180.283L212.42 171.307L210.43 171.51L211.348 180.486L213.338 180.283ZM211.425 170.408H210.609V172.408H211.425V170.408ZM209.654 171.11C208.647 174.334 207.235 177.861 206.44 179.551L208.25 180.402C209.086 178.624 210.531 175.011 211.563 171.707L209.654 171.11ZM206.898 179.082C206.271 179.395 205.014 179.69 203.367 179.69V181.69C205.188 181.69 206.787 181.373 207.792 180.871L206.898 179.082ZM203.367 179.69C200.312 179.69 197.716 178.637 196.198 177.208L194.827 178.665C196.777 180.5 199.893 181.69 203.367 181.69V179.69ZM196.455 177.601C194.88 173.172 193.861 164.536 193.861 156.72H191.861C191.861 164.613 192.881 173.52 194.571 178.271L196.455 177.601ZM193.861 156.72C193.861 149.021 194.571 143.105 195.862 138.638L193.94 138.083C192.579 142.796 191.861 148.916 191.861 156.72H193.861ZM195.719 138.935C196.969 137.156 198.747 135.445 200.633 134.052C202.525 132.655 204.462 131.624 206.003 131.157L205.423 129.243C203.597 129.796 201.455 130.959 199.445 132.443C197.43 133.932 195.484 135.79 194.083 137.785L195.719 138.935ZM205.713 131.2C207.401 131.2 209.454 131.401 210.57 131.68L211.055 129.74C209.724 129.407 207.493 129.2 205.713 129.2V131.2ZM211.711 163.248V139.992H209.711V163.248H211.711ZM211.418 139.285C209.606 137.474 206.539 136.173 204.331 135.841L204.034 137.819C205.906 138.1 208.551 139.247 210.004 140.699L211.418 139.285ZM203.204 136.625C202.268 141.098 201.755 146.474 201.755 153.66H203.755C203.755 146.566 204.262 141.335 205.162 137.035L203.204 136.625ZM201.755 153.66C201.755 161.617 202.159 167.652 203.217 171.567L205.148 171.045C204.166 167.412 203.755 161.616 203.755 153.66H201.755ZM203.583 172.106C204.24 172.599 205.107 172.714 205.611 172.714V170.714C205.482 170.714 205.309 170.697 205.139 170.655C204.964 170.611 204.846 170.554 204.783 170.506L203.583 172.106ZM206.467 172.23L211.567 163.764L209.854 162.732L204.754 171.198L206.467 172.23ZM241.445 172.224L241.235 173.202L241.728 173.308L242.106 172.974L241.445 172.224ZM247.667 166.002L248.342 165.265L247.594 164.579L246.919 165.338L247.667 166.002ZM251.237 170.592L252.021 171.213L252.429 170.697L252.117 170.118L251.237 170.592ZM240.731 180.792L240.684 181.791L240.986 181.805L241.245 181.65L240.731 180.792ZM228.593 176.202L227.679 176.608L227.763 176.798L227.916 176.938L228.593 176.202ZM227.879 138.36L227.05 137.8L226.982 137.902L226.94 138.017L227.879 138.36ZM239.099 130.2V129.2H238.989L238.882 129.224L239.099 130.2ZM250.727 134.076L251.707 133.88L251.644 133.562L251.405 133.342L250.727 134.076ZM251.033 151.008L251.807 151.642L251.994 151.413L252.027 151.119L251.033 151.008ZM242.873 157.74V158.74H243.109L243.32 158.635L242.873 157.74ZM235.325 157.74V156.74H234.325V157.74H235.325ZM236.957 170.082L236.008 170.399L236.098 170.668L236.316 170.851L236.957 170.082ZM235.325 150.804H234.325V151.804H235.325V150.804ZM241.445 150.804V151.804H242.327L242.437 150.928L241.445 150.804ZM241.547 138.972L242.539 138.848L242.505 138.578L242.339 138.363L241.547 138.972ZM236.753 136.83V135.83H235.959L235.779 136.603L236.753 136.83ZM242.106 172.974C243.872 171.416 246.757 168.531 248.414 166.667L246.919 165.338C245.312 167.146 242.485 169.973 240.783 171.474L242.106 172.974ZM246.991 166.739C248.129 167.783 249.693 169.835 250.356 171.066L252.117 170.118C251.352 168.698 249.652 166.466 248.342 165.265L246.991 166.739ZM250.452 169.972C247.007 174.329 243.119 178.193 240.216 179.935L241.245 181.65C244.462 179.72 248.53 175.628 252.021 171.213L250.452 169.972ZM240.777 179.793C238.709 179.697 236.418 179.165 234.33 178.367C232.234 177.565 230.421 176.525 229.27 175.466L227.916 176.938C229.315 178.225 231.377 179.379 233.616 180.235C235.864 181.094 238.366 181.683 240.684 181.791L240.777 179.793ZM229.506 175.796C227.549 171.393 226.431 164.518 226.431 155.802H224.431C224.431 164.631 225.556 171.832 227.679 176.608L229.506 175.796ZM226.431 155.802C226.431 148.225 227.341 142.741 228.818 138.704L226.94 138.017C225.356 142.344 224.431 148.08 224.431 155.802H226.431ZM228.707 138.92C229.903 137.151 231.699 135.395 233.654 133.981C235.617 132.562 237.659 131.545 239.316 131.177L238.882 129.224C236.867 129.672 234.574 130.848 232.482 132.361C230.382 133.879 228.405 135.796 227.05 137.8L228.707 138.92ZM239.099 131.2C243.617 131.2 247.631 132.58 250.048 134.811L251.405 133.342C248.518 130.677 243.964 129.2 239.099 129.2V131.2ZM249.746 134.272C250.238 136.732 250.441 139.822 250.441 142.848H252.441C252.441 139.755 252.235 136.52 251.707 133.88L249.746 134.272ZM250.441 142.848C250.441 145.476 250.34 148.191 250.039 150.898L252.027 151.119C252.338 148.318 252.441 145.525 252.441 142.848H250.441ZM250.259 150.375C248.492 152.534 244.926 155.596 242.425 156.846L243.32 158.635C246.124 157.233 249.901 153.97 251.807 151.642L250.259 150.375ZM242.873 156.74H235.325V158.74H242.873V156.74ZM234.325 157.74C234.325 162.29 234.942 167.201 236.008 170.399L237.905 169.766C236.931 166.844 236.325 162.166 236.325 157.74H234.325ZM236.316 170.851C237.681 171.987 239.67 172.867 241.235 173.202L241.654 171.247C240.363 170.97 238.681 170.217 237.597 169.314L236.316 170.851ZM235.325 151.804H241.445V149.804H235.325V151.804ZM242.437 150.928C242.645 149.265 242.853 146.672 242.853 144.48H240.853C240.853 146.572 240.652 149.08 240.452 150.68L242.437 150.928ZM242.853 144.48C242.853 142.718 242.749 140.532 242.539 138.848L240.554 139.096C240.752 140.676 240.853 142.775 240.853 144.48H242.853ZM242.339 138.363C241.687 137.514 240.701 136.891 239.728 136.482C238.749 136.071 237.674 135.83 236.753 135.83V137.83C237.361 137.83 238.173 137.998 238.953 138.326C239.74 138.657 240.387 139.104 240.754 139.582L242.339 138.363ZM235.779 136.603C235.046 139.744 234.325 145.329 234.325 150.804H236.325C236.325 145.468 237.031 140.037 237.727 137.058L235.779 136.603ZM256.741 147.336H257.741V147.292L257.738 147.247L256.741 147.336ZM255.721 135.912L254.945 135.282L254.689 135.597L254.725 136.001L255.721 135.912ZM262.147 131.016V130.016H261.969L261.802 130.078L262.147 131.016ZM265.615 131.016H266.615V130.016H265.615V131.016ZM265.615 141.624H264.615V142.624H265.615V141.624ZM266.329 141.624V142.624H267.158L267.312 141.81L266.329 141.624ZM268.675 131.424L268.228 130.53L267.858 130.715L267.727 131.108L268.675 131.424ZM276.121 130.608L277.121 130.643L277.149 129.834L276.364 129.638L276.121 130.608ZM274.999 142.44V143.44H275.859L275.988 142.59L274.999 142.44ZM270.001 142.44V141.44H269.346L269.085 142.041L270.001 142.44ZM266.227 151.11L265.311 150.711L265.227 150.902V151.11H266.227ZM266.227 179.976V180.976H267.227V179.976H266.227ZM258.883 179.976L258.477 180.89L258.671 180.976H258.883V179.976ZM256.741 178.14H255.741V178.406L255.873 178.636L256.741 178.14ZM257.738 147.247L256.718 135.823L254.725 136.001L255.745 147.425L257.738 147.247ZM256.498 136.543C257.095 135.807 258.154 134.814 259.318 133.91C260.494 132.997 261.671 132.257 262.493 131.955L261.802 130.078C260.686 130.489 259.313 131.382 258.092 132.33C256.859 133.287 255.674 134.385 254.945 135.282L256.498 136.543ZM262.147 132.016H265.615V130.016H262.147V132.016ZM264.615 131.016V141.624H266.615V131.016H264.615ZM265.615 142.624H266.329V140.624H265.615V142.624ZM267.312 141.81C268.028 138.027 268.935 133.808 269.624 131.741L267.727 131.108C266.988 133.324 266.059 137.674 265.347 141.438L267.312 141.81ZM269.123 132.319C270.215 131.772 272.103 131.302 273.367 131.302V129.302C271.776 129.302 269.584 129.852 268.228 130.53L269.123 132.319ZM273.367 131.302C274.225 131.302 275.16 131.399 275.879 131.578L276.364 129.638C275.451 129.41 274.346 129.302 273.367 129.302V131.302ZM275.122 130.574C275.021 133.491 274.515 138.961 274.011 142.291L275.988 142.59C276.504 139.188 277.017 133.641 277.121 130.643L275.122 130.574ZM274.999 141.44H270.001V143.44H274.999V141.44ZM269.085 142.041L265.311 150.711L267.144 151.509L270.918 142.839L269.085 142.041ZM265.227 151.11V179.976H267.227V151.11H265.227ZM266.227 178.976H258.883V180.976H266.227V178.976ZM259.29 179.063C258.535 178.727 257.896 178.146 257.61 177.644L255.873 178.636C256.403 179.563 257.396 180.41 258.477 180.89L259.29 179.063ZM257.741 178.14V147.336H255.741V178.14H257.741ZM103.647 237.096H104.647V237.072L104.645 237.047L103.647 237.096ZM102.729 218.328L102.19 217.486L101.702 217.798L101.73 218.377L102.729 218.328ZM114.459 213.84V212.84H114.357L114.257 212.861L114.459 213.84ZM129.759 218.43L130.683 218.05L130.579 217.795L130.359 217.63L129.759 218.43ZM129.657 274.938L130.438 275.563L130.53 275.447L130.585 275.31L129.657 274.938ZM119.355 282.18V283.18H119.531L119.696 283.12L119.355 282.18ZM105.789 281.976L105.383 282.89L105.564 282.971L105.762 282.976L105.789 281.976ZM103.647 280.14H102.647V280.406L102.778 280.636L103.647 280.14ZM113.439 221.49L113.515 220.493L112.439 220.41V221.49H113.439ZM113.133 273L112.135 272.936L112.088 273.66L112.761 273.929L113.133 273ZM120.783 274.53V275.53H121.539L121.745 274.802L120.783 274.53ZM121.191 224.754L122.139 224.438L122.065 224.214L121.898 224.047L121.191 224.754ZM104.645 237.047L103.727 218.279L101.73 218.377L102.648 237.145L104.645 237.047ZM103.268 219.171C104.455 218.41 106.445 217.496 108.605 216.675C110.756 215.857 112.996 215.162 114.66 214.82L114.257 212.861C112.453 213.232 110.104 213.965 107.894 214.805C105.694 215.642 103.552 216.614 102.19 217.486L103.268 219.171ZM114.459 214.84C120.083 214.84 126.088 216.927 129.159 219.23L130.359 217.63C126.901 215.037 120.462 212.84 114.459 212.84V214.84ZM128.834 218.811C130.903 223.836 132.431 232.252 132.431 245.766H134.431C134.431 232.149 132.898 223.429 130.683 218.05L128.834 218.811ZM132.431 245.766C132.431 259.196 131.104 268.628 128.728 274.567L130.585 275.31C133.106 269.008 134.431 259.264 134.431 245.766H132.431ZM128.876 274.314C127.939 275.484 126.29 276.926 124.427 278.239C122.567 279.55 120.582 280.67 119.013 281.241L119.696 283.12C121.493 282.467 123.639 281.241 125.579 279.874C127.515 278.51 129.334 276.942 130.438 275.563L128.876 274.314ZM119.355 281.18C115.389 281.18 109.686 281.079 105.815 280.977L105.762 282.976C109.643 283.078 115.365 283.18 119.355 283.18V281.18ZM106.195 281.063C105.44 280.727 104.802 280.146 104.515 279.644L102.778 280.636C103.308 281.563 104.301 282.41 105.383 282.89L106.195 281.063ZM104.647 280.14V237.096H102.647V280.14H104.647ZM112.439 221.49V260.658H114.439V221.49H112.439ZM112.439 260.658C112.439 264.73 112.337 269.806 112.135 272.936L114.131 273.065C114.337 269.871 114.439 264.746 114.439 260.658H112.439ZM112.761 273.929C113.861 274.369 115.355 274.766 116.801 275.052C118.245 275.338 119.72 275.53 120.783 275.53V273.53C119.908 273.53 118.578 273.365 117.19 273.09C115.806 272.816 114.445 272.448 113.504 272.072L112.761 273.929ZM121.745 274.802C123.108 269.978 124.129 261.813 124.129 248.622H122.129C122.129 261.748 121.109 269.698 119.82 274.258L121.745 274.802ZM124.129 248.622C124.129 235.272 123.319 227.978 122.139 224.438L120.242 225.071C121.306 228.263 122.129 235.248 122.129 248.622H124.129ZM121.898 224.047C120.956 223.105 119.551 222.278 118.083 221.664C116.606 221.046 114.97 220.605 113.515 220.493L113.362 222.487C114.559 222.579 115.984 222.954 117.311 223.509C118.648 224.068 119.794 224.772 120.484 225.461L121.898 224.047ZM153.689 274.224L153.479 275.202L153.972 275.308L154.35 274.974L153.689 274.224ZM159.911 268.002L160.587 267.265L159.838 266.579L159.163 267.338L159.911 268.002ZM163.481 272.592L164.265 273.213L164.673 272.697L164.361 272.118L163.481 272.592ZM152.975 282.792L152.928 283.791L153.23 283.805L153.489 283.65L152.975 282.792ZM140.837 278.202L139.923 278.608L140.007 278.798L140.16 278.938L140.837 278.202ZM140.123 240.36L139.294 239.8L139.226 239.902L139.184 240.017L140.123 240.36ZM151.343 232.2V231.2H151.233L151.126 231.224L151.343 232.2ZM162.971 236.076L163.951 235.88L163.888 235.562L163.649 235.342L162.971 236.076ZM163.277 253.008L164.051 253.642L164.238 253.413L164.271 253.119L163.277 253.008ZM155.117 259.74V260.74H155.353L155.564 260.635L155.117 259.74ZM147.569 259.74V258.74H146.569V259.74H147.569ZM149.201 272.082L148.252 272.399L148.342 272.668L148.561 272.851L149.201 272.082ZM147.569 252.804H146.569V253.804H147.569V252.804ZM153.689 252.804V253.804H154.572L154.681 252.928L153.689 252.804ZM153.791 240.972L154.783 240.848L154.749 240.578L154.583 240.363L153.791 240.972ZM148.997 238.83V237.83H148.203L148.023 238.603L148.997 238.83ZM154.35 274.974C156.117 273.416 159.001 270.531 160.658 268.667L159.163 267.338C157.557 269.146 154.729 271.973 153.027 273.474L154.35 274.974ZM159.235 268.739C160.373 269.783 161.937 271.835 162.6 273.066L164.361 272.118C163.597 270.698 161.896 268.466 160.587 267.265L159.235 268.739ZM162.696 271.972C159.252 276.329 155.364 280.193 152.46 281.935L153.489 283.65C156.706 281.72 160.774 277.628 164.265 273.213L162.696 271.972ZM153.021 281.793C150.954 281.697 148.662 281.165 146.574 280.367C144.478 279.565 142.665 278.525 141.514 277.466L140.16 278.938C141.559 280.225 143.621 281.379 145.86 282.235C148.108 283.094 150.61 283.683 152.928 283.791L153.021 281.793ZM141.751 277.796C139.794 273.393 138.675 266.518 138.675 257.802H136.675C136.675 266.631 137.8 273.832 139.923 278.608L141.751 277.796ZM138.675 257.802C138.675 250.225 139.585 244.741 141.062 240.704L139.184 240.017C137.601 244.344 136.675 250.08 136.675 257.802H138.675ZM140.951 240.92C142.147 239.151 143.943 237.395 145.898 235.981C147.861 234.562 149.903 233.545 151.56 233.177L151.126 231.224C149.111 231.672 146.818 232.848 144.726 234.361C142.627 235.879 140.649 237.796 139.294 239.8L140.951 240.92ZM151.343 233.2C155.861 233.2 159.875 234.58 162.293 236.811L163.649 235.342C160.762 232.677 156.209 231.2 151.343 231.2V233.2ZM161.99 236.272C162.482 238.732 162.685 241.822 162.685 244.848H164.685C164.685 241.755 164.479 238.52 163.951 235.88L161.99 236.272ZM162.685 244.848C162.685 247.476 162.584 250.191 162.283 252.898L164.271 253.119C164.582 250.318 164.685 247.525 164.685 244.848H162.685ZM162.503 252.375C160.736 254.534 157.17 257.596 154.67 258.846L155.564 260.635C158.368 259.233 162.146 255.97 164.051 253.642L162.503 252.375ZM155.117 258.74H147.569V260.74H155.117V258.74ZM146.569 259.74C146.569 264.29 147.186 269.201 148.252 272.399L150.149 271.766C149.175 268.844 148.569 264.166 148.569 259.74H146.569ZM148.561 272.851C149.925 273.987 151.914 274.867 153.479 275.202L153.898 273.247C152.607 272.97 150.925 272.217 149.841 271.314L148.561 272.851ZM147.569 253.804H153.689V251.804H147.569V253.804ZM154.681 252.928C154.889 251.265 155.097 248.672 155.097 246.48H153.097C153.097 248.572 152.897 251.08 152.697 252.68L154.681 252.928ZM155.097 246.48C155.097 244.718 154.994 242.532 154.783 240.848L152.799 241.096C152.996 242.676 153.097 244.775 153.097 246.48H155.097ZM154.583 240.363C153.931 239.514 152.945 238.891 151.973 238.482C150.993 238.071 149.918 237.83 148.997 237.83V239.83C149.606 239.83 150.417 239.998 151.198 240.326C151.985 240.657 152.631 241.104 152.998 241.582L154.583 240.363ZM148.023 238.603C147.29 241.744 146.569 247.329 146.569 252.804H148.569C148.569 247.468 149.276 242.037 149.971 239.058L148.023 238.603ZM177.971 210.576H178.971V209.576H177.971V210.576ZM177.971 281.976V282.976H178.971V281.976H177.971ZM170.627 281.976L170.221 282.89L170.415 282.976H170.627V281.976ZM168.383 280.14H167.383V280.461L167.569 280.722L168.383 280.14ZM168.383 238.932H169.383V238.913L169.382 238.893L168.383 238.932ZM167.465 215.472L166.689 214.842L166.451 215.134L166.466 215.511L167.465 215.472ZM173.891 210.576V209.576H173.713L173.545 209.638L173.891 210.576ZM176.971 210.576V281.976H178.971V210.576H176.971ZM177.971 280.976H170.627V282.976H177.971V280.976ZM171.033 281.063C170.291 280.733 169.612 280.14 169.197 279.559L167.569 280.722C168.175 281.569 169.127 282.404 170.221 282.89L171.033 281.063ZM169.383 280.14V238.932H167.383V280.14H169.383ZM169.382 238.893L168.464 215.433L166.466 215.511L167.384 238.971L169.382 238.893ZM168.241 216.103C168.839 215.367 169.897 214.374 171.062 213.47C172.238 212.557 173.415 211.817 174.237 211.515L173.545 209.638C172.429 210.049 171.056 210.942 169.835 211.89C168.603 212.847 167.417 213.945 166.689 214.842L168.241 216.103ZM173.891 211.576H177.971V209.576H173.891V211.576ZM194.011 233.016H195.011V232.016H194.011V233.016ZM194.011 281.976V282.976H195.011V281.976H194.011ZM186.667 281.976L186.261 282.89L186.454 282.976H186.667V281.976ZM184.525 280.14H183.525V280.406L183.656 280.636L184.525 280.14ZM184.525 249.336H185.525V249.292L185.521 249.247L184.525 249.336ZM183.505 237.912L182.729 237.282L182.473 237.597L182.509 238.001L183.505 237.912ZM189.931 233.016V232.016H189.752L189.585 232.078L189.931 233.016ZM188.707 228.324L188.572 229.315L188.722 229.336L188.871 229.311L188.707 228.324ZM184.219 227.712L183.223 227.8L183.293 228.595L184.084 228.703L184.219 227.712ZM184.117 215.982L183.507 215.19L183.151 215.463L183.119 215.911L184.117 215.982ZM189.523 213.534L189.658 212.543L189.48 212.519L189.306 212.558L189.523 213.534ZM194.011 214.146L195.004 214.033L194.916 213.261L194.146 213.155L194.011 214.146ZM194.113 225.876L194.722 226.669L195.061 226.408L195.107 225.983L194.113 225.876ZM193.011 233.016V281.976H195.011V233.016H193.011ZM194.011 280.976H186.667V282.976H194.011V280.976ZM187.073 281.063C186.318 280.727 185.68 280.146 185.393 279.644L183.656 280.636C184.186 281.563 185.179 282.41 186.261 282.89L187.073 281.063ZM185.525 280.14V249.336H183.525V280.14H185.525ZM185.521 249.247L184.501 237.823L182.509 238.001L183.529 249.425L185.521 249.247ZM184.281 238.543C184.878 237.807 185.937 236.814 187.102 235.91C188.277 234.997 189.455 234.257 190.276 233.955L189.585 232.078C188.469 232.489 187.096 233.382 185.875 234.33C184.643 235.287 183.457 236.385 182.729 237.282L184.281 238.543ZM189.931 234.016H194.011V232.016H189.931V234.016ZM188.842 227.333L184.354 226.721L184.084 228.703L188.572 229.315L188.842 227.333ZM185.215 227.624C184.914 224.212 184.914 218.86 185.114 216.054L183.119 215.911C182.912 218.817 182.912 224.276 183.223 227.8L185.215 227.624ZM184.726 216.775C185.924 215.853 188.031 214.89 189.74 214.511L189.306 212.558C187.343 212.994 184.961 214.071 183.507 215.19L184.726 216.775ZM189.388 214.525L193.876 215.137L194.146 213.155L189.658 212.543L189.388 214.525ZM193.017 214.26C193.417 217.76 193.416 222.99 193.118 225.77L195.107 225.983C195.421 223.05 195.42 217.673 195.004 214.033L193.017 214.26ZM193.503 225.084C192.277 226.027 190.183 227.065 188.542 227.338L188.871 229.311C190.903 228.972 193.296 227.766 194.722 226.669L193.503 225.084ZM216.066 244.338L217.061 244.432L217.066 244.385V244.338H216.066ZM216.066 236.076L215.458 235.282L215.066 235.582V236.076H216.066ZM222.696 233.016V232.016H222.597L222.5 232.036L222.696 233.016ZM226.164 233.016L227.156 233.14L227.297 232.016H226.164V233.016ZM220.758 276.264L221.584 276.828L221.72 276.628L221.75 276.388L220.758 276.264ZM213.21 282.792V283.792H213.437L213.641 283.694L213.21 282.792ZM203.724 279.12L202.731 279.241L202.774 279.598L203.035 279.845L203.724 279.12ZM199.746 246.378L200.739 246.258L200.732 246.202L200.719 246.148L199.746 246.378ZM197.502 236.892L196.866 236.12L196.385 236.516L196.529 237.123L197.502 236.892ZM204.54 233.016V232.016H204.385L204.237 232.063L204.54 233.016ZM208.11 233.016L209.105 232.92L209.018 232.016H208.11V233.016ZM211.986 273.204L210.99 273.3L211.036 273.773L211.431 274.036L211.986 273.204ZM213.312 273.714L213.116 274.695L214.204 274.913L214.307 273.808L213.312 273.714ZM217.066 244.338V236.076H215.066V244.338H217.066ZM216.673 236.871C218.295 235.631 221.012 234.373 222.892 233.997L222.5 232.036C220.3 232.476 217.305 233.87 215.458 235.282L216.673 236.871ZM222.696 234.016H226.164V232.016H222.696V234.016ZM225.172 232.892L219.766 276.14L221.75 276.388L227.156 233.14L225.172 232.892ZM219.932 275.701C219.235 276.722 218.007 278.009 216.636 279.192C215.264 280.377 213.837 281.384 212.778 281.89L213.641 283.694C214.929 283.079 216.51 281.944 217.943 280.706C219.378 279.467 220.75 278.051 221.584 276.828L219.932 275.701ZM213.21 281.792C211.79 281.792 210.056 281.398 208.411 280.752C206.763 280.105 205.308 279.246 204.413 278.395L203.035 279.845C204.179 280.932 205.886 281.909 207.681 282.614C209.479 283.32 211.467 283.792 213.21 283.792V281.792ZM204.717 279L200.739 246.258L198.753 246.499L202.731 279.241L204.717 279ZM200.719 246.148L198.475 236.662L196.529 237.123L198.773 246.609L200.719 246.148ZM198.138 237.664C199.782 236.31 202.731 234.641 204.843 233.969L204.237 232.063C201.86 232.819 198.689 234.619 196.866 236.12L198.138 237.664ZM204.54 234.016H208.11V232.016H204.54V234.016ZM207.114 233.112L210.99 273.3L212.981 273.108L209.105 232.92L207.114 233.112ZM211.431 274.036C211.869 274.328 212.508 274.573 213.116 274.695L213.508 272.734C213.095 272.651 212.715 272.488 212.541 272.372L211.431 274.036ZM214.307 273.808L217.061 244.432L215.07 244.245L212.316 273.621L214.307 273.808ZM244.234 274.224L244.024 275.202L244.517 275.308L244.895 274.974L244.234 274.224ZM250.456 268.002L251.131 267.265L250.383 266.579L249.708 267.338L250.456 268.002ZM254.026 272.592L254.81 273.213L255.218 272.697L254.906 272.118L254.026 272.592ZM243.52 282.792L243.473 283.791L243.775 283.805L244.034 283.65L243.52 282.792ZM231.382 278.202L230.468 278.608L230.552 278.798L230.705 278.938L231.382 278.202ZM230.668 240.36L229.839 239.8L229.771 239.902L229.729 240.017L230.668 240.36ZM241.888 232.2V231.2H241.778L241.671 231.224L241.888 232.2ZM253.516 236.076L254.496 235.88L254.433 235.562L254.194 235.342L253.516 236.076ZM253.822 253.008L254.596 253.642L254.783 253.413L254.816 253.119L253.822 253.008ZM245.662 259.74V260.74H245.898L246.109 260.635L245.662 259.74ZM238.114 259.74V258.74H237.114V259.74H238.114ZM239.746 272.082L238.797 272.399L238.887 272.668L239.106 272.851L239.746 272.082ZM238.114 252.804H237.114V253.804H238.114V252.804ZM244.234 252.804V253.804H245.117L245.226 252.928L244.234 252.804ZM244.336 240.972L245.328 240.848L245.294 240.578L245.128 240.363L244.336 240.972ZM239.542 238.83V237.83H238.748L238.568 238.603L239.542 238.83ZM244.895 274.974C246.661 273.416 249.546 270.531 251.203 268.667L249.708 267.338C248.102 269.146 245.274 271.973 243.572 273.474L244.895 274.974ZM249.78 268.739C250.918 269.783 252.482 271.835 253.145 273.066L254.906 272.118C254.141 270.698 252.441 268.466 251.131 267.265L249.78 268.739ZM253.241 271.972C249.797 276.329 245.909 280.193 243.005 281.935L244.034 283.65C247.251 281.72 251.319 277.628 254.81 273.213L253.241 271.972ZM243.566 281.793C241.499 281.697 239.207 281.165 237.119 280.367C235.023 279.565 233.21 278.525 232.059 277.466L230.705 278.938C232.104 280.225 234.166 281.379 236.405 282.235C238.653 283.094 241.155 283.683 243.473 283.791L243.566 281.793ZM232.296 277.796C230.339 273.393 229.22 266.518 229.22 257.802H227.22C227.22 266.631 228.345 273.832 230.468 278.608L232.296 277.796ZM229.22 257.802C229.22 250.225 230.13 244.741 231.607 240.704L229.729 240.017C228.145 244.344 227.22 250.08 227.22 257.802H229.22ZM231.496 240.92C232.692 239.151 234.488 237.395 236.443 235.981C238.406 234.562 240.448 233.545 242.105 233.177L241.671 231.224C239.656 231.672 237.363 232.848 235.271 234.361C233.171 235.879 231.194 237.796 229.839 239.8L231.496 240.92ZM241.888 233.2C246.406 233.2 250.42 234.58 252.837 236.811L254.194 235.342C251.307 232.677 246.753 231.2 241.888 231.2V233.2ZM252.535 236.272C253.027 238.732 253.23 241.822 253.23 244.848H255.23C255.23 241.755 255.024 238.52 254.496 235.88L252.535 236.272ZM253.23 244.848C253.23 247.476 253.129 250.191 252.828 252.898L254.816 253.119C255.127 250.318 255.23 247.525 255.23 244.848H253.23ZM253.048 252.375C251.281 254.534 247.715 257.596 245.215 258.846L246.109 260.635C248.913 259.233 252.69 255.97 254.596 253.642L253.048 252.375ZM245.662 258.74H238.114V260.74H245.662V258.74ZM237.114 259.74C237.114 264.29 237.731 269.201 238.797 272.399L240.694 271.766C239.72 268.844 239.114 264.166 239.114 259.74H237.114ZM239.106 272.851C240.47 273.987 242.459 274.867 244.024 275.202L244.443 273.247C243.152 272.97 241.47 272.217 240.386 271.314L239.106 272.851ZM238.114 253.804H244.234V251.804H238.114V253.804ZM245.226 252.928C245.434 251.265 245.642 248.672 245.642 246.48H243.642C243.642 248.572 243.441 251.08 243.241 252.68L245.226 252.928ZM245.642 246.48C245.642 244.718 245.539 242.532 245.328 240.848L243.343 241.096C243.541 242.676 243.642 244.775 243.642 246.48H245.642ZM245.128 240.363C244.476 239.514 243.49 238.891 242.517 238.482C241.538 238.071 240.463 237.83 239.542 237.83V239.83C240.151 239.83 240.962 239.998 241.743 240.326C242.529 240.657 243.176 241.104 243.543 241.582L245.128 240.363ZM238.568 238.603C237.835 241.744 237.114 247.329 237.114 252.804H239.114C239.114 247.468 239.82 242.037 240.516 239.058L238.568 238.603ZM259.531 249.336H260.531V249.292L260.527 249.247L259.531 249.336ZM258.511 237.912L257.734 237.282L257.478 237.597L257.515 238.001L258.511 237.912ZM264.937 233.016V232.016H264.758L264.591 232.078L264.937 233.016ZM268.405 233.016H269.405V232.016H268.405V233.016ZM268.405 243.624H267.405V244.624H268.405V243.624ZM269.119 243.624V244.624H269.947L270.101 243.81L269.119 243.624ZM271.465 233.424L271.017 232.53L270.647 232.715L270.516 233.108L271.465 233.424ZM278.911 232.608L279.91 232.643L279.938 231.834L279.153 231.638L278.911 232.608ZM277.789 244.44V245.44H278.648L278.777 244.59L277.789 244.44ZM272.791 244.44V243.44H272.135L271.874 244.041L272.791 244.44ZM269.017 253.11L268.1 252.711L268.017 252.902V253.11H269.017ZM269.017 281.976V282.976H270.017V281.976H269.017ZM261.673 281.976L261.266 282.89L261.46 282.976H261.673V281.976ZM259.531 280.14H258.531V280.406L258.662 280.636L259.531 280.14ZM260.527 249.247L259.507 237.823L257.515 238.001L258.535 249.425L260.527 249.247ZM259.287 238.543C259.884 237.807 260.943 236.814 262.107 235.91C263.283 234.997 264.461 234.257 265.282 233.955L264.591 232.078C263.475 232.489 262.102 233.382 260.881 234.33C259.648 235.287 258.463 236.385 257.734 237.282L259.287 238.543ZM264.937 234.016H268.405V232.016H264.937V234.016ZM267.405 233.016V243.624H269.405V233.016H267.405ZM268.405 244.624H269.119V242.624H268.405V244.624ZM270.101 243.81C270.817 240.027 271.724 235.808 272.413 233.741L270.516 233.108C269.777 235.324 268.848 239.674 268.136 243.438L270.101 243.81ZM271.912 234.319C273.004 233.772 274.892 233.302 276.157 233.302V231.302C274.565 231.302 272.373 231.852 271.017 232.53L271.912 234.319ZM276.157 233.302C277.014 233.302 277.949 233.399 278.668 233.578L279.153 231.638C278.24 231.41 277.135 231.302 276.157 231.302V233.302ZM277.911 232.574C277.811 235.491 277.304 240.961 276.8 244.291L278.777 244.59C279.293 241.188 279.807 235.641 279.91 232.643L277.911 232.574ZM277.789 243.44H272.791V245.44H277.789V243.44ZM271.874 244.041L268.1 252.711L269.933 253.509L273.707 244.839L271.874 244.041ZM268.017 253.11V281.976H270.017V253.11H268.017ZM269.017 280.976H261.673V282.976H269.017V280.976ZM262.079 281.063C261.324 280.727 260.685 280.146 260.399 279.644L258.662 280.636C259.192 281.563 260.185 282.41 261.266 282.89L262.079 281.063ZM260.531 280.14V249.336H258.531V280.14H260.531ZM291.917 300.948L291.458 301.837L291.833 302.031L292.233 301.897L291.917 300.948ZM288.959 299.418L287.984 299.199L287.814 299.952L288.5 300.307L288.959 299.418ZM292.835 282.18L293.811 282.4L294.085 281.18H292.835V282.18ZM292.529 282.18L292.388 283.17L292.458 283.18H292.529V282.18ZM285.287 278.712L284.292 278.813L284.326 279.151L284.559 279.398L285.287 278.712ZM282.023 246.48L283.018 246.38L283.012 246.315L282.997 246.252L282.023 246.48ZM279.779 236.892L279.143 236.12L278.664 236.515L278.805 237.12L279.779 236.892ZM286.817 233.016V232.016H286.662L286.514 232.063L286.817 233.016ZM290.387 233.016L291.384 232.935L291.309 232.016H290.387V233.016ZM293.651 273.204L292.654 273.285L292.692 273.748L293.07 274.018L293.651 273.204ZM294.365 273.714L293.784 274.528L295.144 275.5L295.357 273.842L294.365 273.714ZM298.139 244.338L299.131 244.466L299.135 244.433L299.137 244.4L298.139 244.338ZM298.649 236.076L298.019 235.3L297.678 235.577L297.651 236.015L298.649 236.076ZM305.279 233.016V232.016H305.18L305.083 232.036L305.279 233.016ZM308.747 233.016L309.735 233.173L309.918 232.016H308.747V233.016ZM300.485 285.24L299.497 285.084L299.494 285.109L299.491 285.134L300.485 285.24ZM299.261 296.664L299.932 297.406L300.215 297.15L300.255 296.771L299.261 296.664ZM292.377 300.06L289.419 298.53L288.5 300.307L291.458 301.837L292.377 300.06ZM289.935 299.638L293.811 282.4L291.86 281.961L287.984 299.199L289.935 299.638ZM292.835 281.18H292.529V283.18H292.835V281.18ZM292.671 281.19C289.993 280.808 287.463 279.565 286.015 278.027L284.559 279.398C286.376 281.328 289.353 282.737 292.388 283.17L292.671 281.19ZM286.282 278.612L283.018 246.38L281.028 246.581L284.292 278.813L286.282 278.612ZM282.997 246.252L280.753 236.664L278.805 237.12L281.049 246.708L282.997 246.252ZM280.415 237.664C282.06 236.31 285.009 234.641 287.12 233.969L286.514 232.063C284.138 232.819 280.967 234.619 279.143 236.12L280.415 237.664ZM286.817 234.016H290.387V232.016H286.817V234.016ZM289.39 233.097L292.654 273.285L294.648 273.123L291.384 232.935L289.39 233.097ZM293.07 274.018L293.784 274.528L294.946 272.901L294.232 272.391L293.07 274.018ZM295.357 273.842L299.131 244.466L297.147 244.211L293.373 273.587L295.357 273.842ZM299.137 244.4L299.647 236.138L297.651 236.015L297.141 244.277L299.137 244.4ZM299.28 236.852C300.774 235.638 303.58 234.376 305.475 233.997L305.083 232.036C302.899 232.473 299.788 233.863 298.019 235.3L299.28 236.852ZM305.279 234.016H308.747V232.016H305.279V234.016ZM307.759 232.86L299.497 285.084L301.473 285.397L309.735 233.173L307.759 232.86ZM299.491 285.134L298.267 296.558L300.255 296.771L301.479 285.347L299.491 285.134ZM298.59 295.923C296.562 297.758 293.627 299.324 291.601 300L292.233 301.897C294.491 301.144 297.676 299.447 299.932 297.406L298.59 295.923Z" fill="#9B51E0" mask="url(#path-3-outside-1_3_47)"/>
<defs>
<filter id="filter0_d_3_47" x="13.6206" y="12.2823" width="383.782" height="390.386" filterUnits="userSpaceOnUse" color-interpolation-filters="sRGB">
<feFlood flood-opacity="0" result="BackgroundImageFix"/>
<feColorMatrix in="SourceAlpha" type="matrix" values="0 0 0 0 0 0 0 0 0 0 0 0 0 0 0 0 0 0 127 0" result="hardAlpha"/>
<feOffset dx="12" dy="20"/>
<feComposite in2="hardAlpha" operator="out"/>
<feColorMatrix type="matrix" values="0 0 0 0 0.607843 0 0 0 0 0.317647 0 0 0 0 0.878431 0 0 0 1 0"/>
<feBlend mode="normal" in2="BackgroundImageFix" result="effect1_dropShadow_3_47"/>
<feBlend mode="normal" in="SourceGraphic" in2="effect1_dropShadow_3_47" result="shape"/>
</filter>
</defs>
</svg>
