<svg width="259" height="250" viewBox="0 0 259 250" fill="none" xmlns="http://www.w3.org/2000/svg">
<path d="M50.9386 241.977C57.6023 246.816 65.3389 249.152 73.019 249.152C84.5772 249.152 95.9839 243.861 103.325 233.917C103.346 233.896 103.366 233.874 103.385 233.851C103.402 233.828 103.42 233.804 103.437 233.781L103.462 233.745C103.48 233.72 103.497 233.696 103.513 233.673L129.49 197.952L155.467 233.673C155.493 233.712 155.519 233.741 155.545 233.775C155.557 233.79 155.568 233.806 155.58 233.823C167.816 250.489 191.327 254.161 208.061 241.996C224.814 229.832 228.56 206.312 216.475 189.516L216.448 189.474C216.426 189.438 216.408 189.412 216.381 189.384L190.46 153.643L232.457 139.972C252.184 133.551 263.026 112.254 256.607 92.519C250.189 72.7849 228.918 61.9386 209.171 68.3411L167.176 81.9557L167.157 37.7604C167.138 17.009 150.253 0.118195 129.509 0.118195C108.765 0.118195 91.8806 17.009 91.8618 37.7792L91.8241 81.9369L49.8281 68.3222C49.8115 68.3222 49.7913 68.3185 49.7709 68.3128C49.7445 68.3057 49.7173 68.2951 49.6962 68.2845C29.9877 61.9575 8.79204 72.8037 2.39197 92.5013C-4.00821 112.198 6.75919 133.419 26.3923 139.897C26.4105 139.903 26.4267 139.909 26.4423 139.916L26.5115 139.943L26.5431 139.954L68.52 153.624L42.5995 189.365C42.5901 189.384 42.5762 189.403 42.5621 189.422C42.5478 189.44 42.5339 189.459 42.5245 189.478C30.4206 206.274 34.1854 229.813 50.9386 241.977Z" fill="#1BADE0"/>
<path d="M24.688 131.604C24.688 139.912 25.184 144.19 26.114 146.422C26.92 147.29 28.346 147.972 29.462 148.096C30.516 144.934 31.074 139.974 31.074 131.976C31.074 123.668 30.578 119.39 29.71 117.158C28.904 116.29 27.416 115.608 26.3 115.484C25.246 118.646 24.688 123.606 24.688 131.604ZM18.426 133.34C18.426 125.156 19.232 119.204 20.72 115.484C22.27 113.5 25.308 111.33 27.54 110.834C30.268 110.834 33.43 112.012 34.918 113.562C36.406 116.476 37.336 121.746 37.336 130.24C37.336 138.424 36.53 144.376 35.042 148.096C33.554 150.08 30.516 152.25 28.284 152.746C25.494 152.746 22.332 151.568 20.906 150.018C19.356 147.104 18.426 141.834 18.426 133.34ZM40.7823 132.41L40.1623 125.466C40.9683 124.474 42.8903 122.924 44.0683 122.49H46.1763V128.938H46.6103C47.0443 126.644 47.6023 124.04 48.0363 122.738C48.7803 122.366 50.0203 122.056 50.8883 122.056C51.4463 122.056 52.0663 122.118 52.5623 122.242C52.5003 124.04 52.1903 127.388 51.8803 129.434H48.8423L46.5483 134.704V152.25H42.0843C41.5263 152.002 41.0303 151.568 40.7823 151.134V132.41ZM64.0875 122.304L63.4675 111.826C64.2735 110.834 66.1955 109.284 67.3735 108.85H69.7915V143.694L70.5975 151.01C69.7295 151.506 67.9315 152.25 66.6915 152.498H65.0175L64.4595 147.042H63.9635C63.3435 149.026 62.4755 151.196 61.9795 152.25C61.4835 152.498 60.6155 152.684 59.5615 152.684C57.5775 152.684 55.8415 152.002 54.7875 151.01C53.7955 148.22 53.1755 142.888 53.1755 138.114C53.1755 133.402 53.6095 129.744 54.4155 126.954C56.0275 124.66 58.9415 122.614 60.9875 121.994C62.0415 121.994 63.3435 122.118 64.0875 122.304ZM64.0255 142.082V127.946C63.0335 126.954 61.2975 126.21 60.0575 126.024C59.4995 128.69 59.1895 131.914 59.1895 136.254C59.1895 141.09 59.4375 144.686 60.0575 146.98C60.3055 147.166 60.6775 147.228 60.9255 147.228L64.0255 142.082ZM82.7069 147.538C83.7609 146.608 85.4969 144.872 86.4889 143.756C87.2329 144.438 88.2249 145.74 88.6589 146.546C86.5509 149.212 84.1329 151.63 82.2729 152.746C79.6069 152.622 76.4449 151.382 74.8949 149.956C73.6549 147.166 72.9729 142.888 72.9729 137.556C72.9729 132.906 73.5309 129.496 74.4609 126.954C76.0109 124.66 79.0489 122.49 81.2809 121.994C84.1329 121.994 86.7369 122.862 88.3489 124.35C88.6589 125.9 88.7829 127.822 88.7829 129.682C88.7829 131.294 88.7209 132.968 88.5349 134.642C87.4189 136.006 85.1869 137.928 83.5749 138.734H78.9869C78.9869 141.462 79.3589 144.376 79.9789 146.236C80.7229 146.856 81.8389 147.352 82.7069 147.538ZM78.9869 134.518H82.7069C82.8309 133.526 82.9549 131.976 82.9549 130.674C82.9549 129.62 82.8929 128.318 82.7689 127.326C82.1489 126.52 80.7849 126.024 79.8549 126.024C79.4209 127.884 78.9869 131.232 78.9869 134.518ZM92.005 132.41L91.385 125.466C92.191 124.474 94.113 122.924 95.291 122.49H97.399V128.938H97.833C98.267 126.644 98.825 124.04 99.259 122.738C100.003 122.366 101.243 122.056 102.111 122.056C102.669 122.056 103.289 122.118 103.785 122.242C103.723 124.04 103.413 127.388 103.103 129.434H100.065L97.771 134.704V152.25H93.307C92.749 152.002 92.253 151.568 92.005 151.134V132.41ZM118.717 131.604C118.717 137.804 119.213 142.826 120.019 145.43C120.639 145.926 122.003 146.484 122.809 146.67C123.863 145.492 125.971 142.888 127.025 141.462C127.769 142.082 129.381 143.942 129.877 144.748C128.451 146.918 125.103 150.886 122.933 152.746C120.329 152.622 116.733 151.382 115.121 150.018C113.633 146.98 112.455 140.904 112.455 133.34C112.455 125.156 113.261 119.204 114.749 115.484C116.237 113.5 119.337 111.33 121.569 110.834C124.483 110.834 127.211 111.578 128.761 113.004C129.133 115.484 129.195 119.886 128.947 122.18C127.893 123.172 125.475 124.288 123.863 124.474C123.677 122.242 123.057 118.46 122.685 116.6C122.251 115.98 121.135 115.484 120.329 115.484C119.275 118.584 118.717 123.606 118.717 131.604ZM141.325 147.476H140.829C140.333 148.964 139.713 150.948 139.155 152.25C138.597 152.498 137.667 152.684 136.613 152.684C134.815 152.684 133.203 152.064 132.211 151.134C131.529 149.274 131.095 146.918 131.095 144.314C131.095 142.144 131.343 140.036 131.839 138.486C133.079 136.936 135.497 135.2 137.233 134.58C138.411 134.58 139.775 134.766 141.015 134.952C141.077 133.712 141.077 132.348 141.077 131.17C141.077 129.992 141.015 128.566 140.829 127.45C140.023 126.768 138.597 126.334 137.295 126.334C137.109 127.388 136.923 129 136.799 130.364C135.745 131.418 133.699 132.224 132.087 132.41C131.901 130.86 131.777 128.256 131.777 126.458C133.327 124.66 136.179 122.676 138.287 121.994C141.635 121.994 144.735 123.172 146.285 124.66C146.657 126.21 146.843 128.194 146.843 130.612C146.843 133.526 146.657 139.106 146.657 143.694L147.463 150.948C146.595 151.506 144.797 152.188 143.557 152.436H141.883L141.325 147.476ZM141.015 142.454V139.23C139.775 138.982 138.349 138.796 137.171 138.796C136.923 139.85 136.799 141.276 136.799 142.702C136.799 144.128 136.923 145.864 137.109 147.042C137.295 147.228 137.667 147.352 138.163 147.352L141.015 142.454ZM156.873 115.05V122.49H162.205C162.205 123.792 161.833 126.396 161.399 127.512L156.873 126.768C156.749 129.868 156.687 133.65 156.687 136.936C156.687 140.966 156.749 144.19 156.935 146.732C157.183 146.98 157.679 147.166 157.927 147.166C158.547 146.484 159.477 145.244 160.345 144.004C161.027 144.624 162.081 145.926 162.577 146.732C160.965 149.212 158.795 151.754 157.617 152.746C155.447 152.746 152.657 151.506 151.355 150.08C151.107 147.848 150.921 143.322 150.921 138.176C150.921 134.58 150.983 130.364 151.107 126.768H149.061V123.172L151.169 122.49L153.277 115.05H156.873ZM172.861 147.538C173.915 146.608 175.651 144.872 176.643 143.756C177.387 144.438 178.379 145.74 178.813 146.546C176.705 149.212 174.287 151.63 172.427 152.746C169.761 152.622 166.599 151.382 165.049 149.956C163.809 147.166 163.127 142.888 163.127 137.556C163.127 132.906 163.685 129.496 164.615 126.954C166.165 124.66 169.203 122.49 171.435 121.994C174.287 121.994 176.891 122.862 178.503 124.35C178.813 125.9 178.937 127.822 178.937 129.682C178.937 131.294 178.875 132.968 178.689 134.642C177.573 136.006 175.341 137.928 173.729 138.734H169.141C169.141 141.462 169.513 144.376 170.133 146.236C170.877 146.856 171.993 147.352 172.861 147.538ZM169.141 134.518H172.861C172.985 133.526 173.109 131.976 173.109 130.674C173.109 129.62 173.047 128.318 172.923 127.326C172.303 126.52 170.939 126.024 170.009 126.024C169.575 127.884 169.141 131.232 169.141 134.518ZM182.159 132.41L181.539 125.466C182.345 124.474 184.267 122.924 185.445 122.49H187.553V128.938H187.987C188.421 126.644 188.979 124.04 189.413 122.738C190.157 122.366 191.397 122.056 192.265 122.056C192.823 122.056 193.443 122.118 193.939 122.242C193.877 124.04 193.567 127.388 193.257 129.434H190.219L187.925 134.704V152.25H183.461C182.903 152.002 182.407 151.568 182.159 151.134V132.41ZM201.73 122.49V152.25H197.266C196.708 152.002 196.212 151.568 195.964 151.134V132.41L195.344 125.466C196.15 124.474 198.072 122.924 199.25 122.49H201.73ZM198.506 119.638L195.778 119.266C195.592 117.158 195.592 113.872 195.716 112.136C196.522 111.516 197.886 110.896 199.002 110.648L201.73 111.02C201.978 113.19 201.978 116.414 201.792 118.15C200.986 118.77 199.622 119.452 198.506 119.638ZM211.478 132.968V152.25H207.014C206.456 152.002 205.96 151.568 205.712 151.134V132.41L205.092 125.466C205.898 124.474 207.82 122.924 208.998 122.49H211.168V128.194H211.602C212.656 125.404 213.462 123.358 214.144 122.304C214.764 122.118 215.632 122.056 216.314 122.056C218.112 122.056 220.158 122.862 221.522 124.102C221.708 126.582 221.77 131.728 221.77 135.386C221.77 139.106 221.708 146.546 221.522 152.25H217.12C216.624 152.002 216.066 151.568 215.818 151.134C215.942 146.298 216.004 139.602 216.004 136.44C216.004 133.464 216.004 129.93 215.942 128.07C215.694 127.822 215.074 127.574 214.702 127.574L211.478 132.968ZM230.589 132.224C230.589 134.952 230.837 136.75 231.395 138.238C232.015 139.044 233.069 139.478 234.123 139.478C234.681 137.618 234.929 135.572 234.929 133.278C234.929 130.55 234.743 128.69 234.185 127.202C233.565 126.396 232.449 125.962 231.457 125.962C230.837 127.822 230.589 129.93 230.589 132.224ZM235.425 152.126L230.341 150.948C230.341 153.18 230.651 156.156 231.023 158.388C231.953 159.194 233.503 159.628 234.867 159.628C235.239 158.202 235.487 155.97 235.487 154.11C235.487 153.304 235.487 152.684 235.425 152.126ZM241.935 117.096L239.207 124.722C240.261 126.582 240.757 129.062 240.757 131.666C240.757 134.146 240.385 136.564 239.517 138.548C237.967 140.656 235.239 142.702 233.007 143.446C232.511 143.446 231.829 143.384 231.209 143.26L229.907 144.996L241.129 147.538C241.191 148.654 241.253 150.266 241.253 151.568C241.253 154.73 240.881 157.52 240.075 159.38C238.711 161.24 235.859 163.162 233.627 163.782C230.589 163.782 227.675 162.79 225.567 160.93C225.009 159.318 224.389 156.342 224.265 153.924C225.133 152.808 226.745 151.444 228.109 150.452L224.885 149.77V145.368C225.753 144.376 227.055 143.198 228.233 142.206C227.613 141.834 226.931 141.4 226.373 140.842C225.381 139.044 224.823 136.502 224.823 133.898C224.823 131.356 225.195 128.876 226.063 126.892C227.551 124.784 230.279 122.738 232.511 121.994C233.627 121.994 234.805 122.304 235.921 122.738L235.797 117.778C236.975 117.22 239.021 116.476 240.137 116.228C240.695 116.414 241.563 116.786 241.935 117.096Z" fill="white"/>
</svg>
