<svg width="316" height="317" viewBox="0 0 316 317" fill="none" xmlns="http://www.w3.org/2000/svg">
<path d="M131.336 17.437C147.804 7.06785 168.76 7.06785 185.228 17.437V17.437C193.143 22.4205 202.286 25.1116 211.638 25.211V25.211C231.076 25.4174 248.71 36.8095 256.952 54.4144V54.4144C260.921 62.8925 267.174 70.1395 274.988 75.2944V75.2944C291.235 86.0125 299.926 105.137 297.368 124.432V124.432C296.136 133.722 297.492 143.209 301.285 151.779V151.779C309.172 169.598 306.198 190.383 293.616 205.263V205.263C287.567 212.415 283.605 221.136 282.178 230.394V230.394C279.215 249.613 265.499 265.523 246.904 271.214V271.214C237.958 273.953 229.93 279.131 223.738 286.145V286.145C210.872 300.723 190.756 306.662 172.047 301.367V301.367C163.047 298.821 153.517 298.821 144.518 301.367V301.367C125.809 306.662 105.692 300.723 92.8257 286.145V286.145C86.6346 279.131 78.606 273.953 69.6597 271.214V271.214C51.0652 265.523 37.349 249.613 34.3865 230.394V230.394C32.9594 221.136 28.9968 212.415 22.9485 205.263V205.263C10.366 190.383 7.392 169.598 15.2792 151.779V151.779C19.0723 143.209 20.4284 133.722 19.1967 124.432V124.432C16.6383 105.137 25.329 86.0125 41.5761 75.2944V75.2944C49.3902 70.1395 55.643 62.8925 59.6121 54.4144V54.4144C67.8538 36.8095 85.4885 25.4174 104.926 25.211V25.211C114.278 25.1116 123.422 22.4205 131.336 17.437V17.437Z" fill="#2B78E0"/>
<path d="M111.273 111.986C111.273 124.314 112.009 130.662 113.389 133.974C114.585 135.262 116.701 136.274 118.357 136.458C119.921 131.766 120.749 124.406 120.749 112.538C120.749 100.21 120.013 93.8619 118.725 90.5499C117.529 89.2619 115.321 88.2499 113.665 88.0659C112.101 92.7579 111.273 100.118 111.273 111.986ZM101.981 114.562C101.981 102.418 103.177 93.5859 105.385 88.0659C107.685 85.1219 112.193 81.9019 115.505 81.1659C119.553 81.1659 124.245 82.9139 126.453 85.2139C128.661 89.5379 130.041 97.3579 130.041 109.962C130.041 122.106 128.845 130.938 126.637 136.458C124.429 139.402 119.921 142.622 116.609 143.358C112.469 143.358 107.777 141.61 105.661 139.31C103.361 134.986 101.981 127.166 101.981 114.562ZM135.155 113.182L134.235 102.878C135.431 101.406 138.283 99.1059 140.031 98.4619H143.159V108.03H143.803C144.447 104.626 145.275 100.762 145.919 98.8299C147.023 98.2779 148.863 97.8179 150.151 97.8179C150.979 97.8179 151.899 97.9099 152.635 98.0939C152.543 100.762 152.083 105.73 151.623 108.766H147.115L143.711 116.586V142.622H137.087C136.259 142.254 135.523 141.61 135.155 140.966V113.182ZM169.737 98.1859L168.817 82.6379C170.013 81.1659 172.865 78.8659 174.613 78.2219H178.201V129.926L179.397 140.782C178.109 141.518 175.441 142.622 173.601 142.99H171.117L170.289 134.894H169.553C168.633 137.838 167.345 141.058 166.609 142.622C165.873 142.99 164.585 143.266 163.021 143.266C160.077 143.266 157.501 142.254 155.937 140.782C154.465 136.642 153.545 128.73 153.545 121.646C153.545 114.654 154.189 109.226 155.385 105.086C157.777 101.682 162.101 98.6459 165.137 97.7259C166.701 97.7259 168.633 97.9099 169.737 98.1859ZM169.645 127.534V106.558C168.173 105.086 165.597 103.982 163.757 103.706C162.929 107.662 162.469 112.446 162.469 118.886C162.469 126.062 162.837 131.398 163.757 134.802C164.125 135.078 164.677 135.17 165.045 135.17L169.645 127.534ZM197.365 135.63C198.929 134.25 201.505 131.674 202.977 130.018C204.081 131.03 205.553 132.962 206.197 134.158C203.069 138.114 199.481 141.702 196.721 143.358C192.765 143.174 188.073 141.334 185.773 139.218C183.933 135.078 182.921 128.73 182.921 120.818C182.921 113.918 183.749 108.858 185.129 105.086C187.429 101.682 191.937 98.4619 195.249 97.7259C199.481 97.7259 203.345 99.0139 205.737 101.222C206.197 103.522 206.381 106.374 206.381 109.134C206.381 111.526 206.289 114.01 206.013 116.494C204.357 118.518 201.045 121.37 198.653 122.566H191.845C191.845 126.614 192.397 130.938 193.317 133.698C194.421 134.618 196.077 135.354 197.365 135.63ZM191.845 116.31H197.365C197.549 114.838 197.733 112.538 197.733 110.606C197.733 109.042 197.641 107.11 197.457 105.638C196.537 104.442 194.513 103.706 193.133 103.706C192.489 106.466 191.845 111.434 191.845 116.31ZM211.163 113.182L210.243 102.878C211.439 101.406 214.291 99.1059 216.039 98.4619H219.167V108.03H219.811C220.455 104.626 221.283 100.762 221.927 98.8299C223.031 98.2779 224.871 97.8179 226.159 97.8179C226.987 97.8179 227.907 97.9099 228.643 98.0939C228.551 100.762 228.091 105.73 227.631 108.766H223.123L219.719 116.586V142.622H213.095C212.267 142.254 211.531 141.61 211.163 140.966V113.182ZM73.0771 189.142L72.2491 172.214C74.5491 170.742 79.7011 168.81 82.8291 168.166C88.0731 168.166 93.6851 170.098 96.6291 172.306C98.5611 176.998 99.9411 184.726 99.9411 196.962C99.9411 209.106 98.7451 217.754 96.5371 223.274C94.6971 225.574 90.2811 228.702 87.2451 229.806C83.6571 229.806 78.5051 229.714 75.0091 229.622C74.1811 229.254 73.4451 228.61 73.0771 227.966V189.142ZM81.9091 175.066V210.394C81.9091 214.074 81.8171 218.674 81.6331 221.526C83.4731 222.262 86.7851 222.906 88.5331 222.906C89.7291 218.674 90.6491 211.406 90.6491 199.538C90.6491 187.486 89.9131 181.046 88.9011 178.01C87.4291 176.538 84.3011 175.25 81.9091 175.066ZM118.213 222.63C119.777 221.25 122.353 218.674 123.825 217.018C124.929 218.03 126.401 219.962 127.045 221.158C123.917 225.114 120.329 228.702 117.569 230.358C113.613 230.174 108.921 228.334 106.621 226.218C104.781 222.078 103.769 215.73 103.769 207.818C103.769 200.918 104.597 195.858 105.977 192.086C108.277 188.682 112.785 185.462 116.097 184.726C120.329 184.726 124.193 186.014 126.585 188.222C127.045 190.522 127.229 193.374 127.229 196.134C127.229 198.526 127.137 201.01 126.861 203.494C125.205 205.518 121.893 208.37 119.501 209.566H112.693C112.693 213.614 113.245 217.938 114.165 220.698C115.269 221.618 116.925 222.354 118.213 222.63ZM112.693 203.31H118.213C118.397 201.838 118.581 199.538 118.581 197.606C118.581 196.042 118.489 194.11 118.305 192.638C117.385 191.442 115.361 190.706 113.981 190.706C113.337 193.466 112.693 198.434 112.693 203.31ZM140.115 165.222V229.622H133.491C132.663 229.254 131.927 228.61 131.467 227.966V190.798L130.639 169.638C131.835 168.166 134.687 165.866 136.435 165.222H140.115ZM154.582 185.462V229.622H147.958C147.13 229.254 146.394 228.61 146.026 227.966V200.182L145.106 189.878C146.302 188.406 149.154 186.106 150.902 185.462H154.582ZM149.798 181.23L145.75 180.678C145.474 177.55 145.474 172.674 145.658 170.098C146.854 169.178 148.878 168.258 150.534 167.89L154.582 168.442C154.95 171.662 154.95 176.446 154.674 179.022C153.478 179.942 151.454 180.954 149.798 181.23ZM174.475 195.674V188.222C176.039 187.026 178.615 185.83 180.455 185.462H183.583L178.707 224.47C177.327 226.494 174.015 229.346 171.899 230.358C169.047 230.358 165.183 228.794 163.343 227.046L159.755 197.514L157.731 188.958C159.295 187.67 162.055 186.106 164.079 185.462H167.299L170.795 221.71C171.071 221.894 171.531 222.078 171.991 222.17L174.475 195.674ZM199.881 222.63C201.445 221.25 204.021 218.674 205.493 217.018C206.597 218.03 208.069 219.962 208.713 221.158C205.585 225.114 201.997 228.702 199.237 230.358C195.281 230.174 190.589 228.334 188.289 226.218C186.449 222.078 185.437 215.73 185.437 207.818C185.437 200.918 186.265 195.858 187.645 192.086C189.945 188.682 194.453 185.462 197.765 184.726C201.997 184.726 205.861 186.014 208.253 188.222C208.713 190.522 208.897 193.374 208.897 196.134C208.897 198.526 208.805 201.01 208.529 203.494C206.873 205.518 203.561 208.37 201.169 209.566H194.361C194.361 213.614 194.913 217.938 195.833 220.698C196.937 221.618 198.593 222.354 199.881 222.63ZM194.361 203.31H199.881C200.065 201.838 200.249 199.538 200.249 197.606C200.249 196.042 200.157 194.11 199.973 192.638C199.053 191.442 197.029 190.706 195.649 190.706C195.005 193.466 194.361 198.434 194.361 203.31ZM213.678 200.182L212.758 189.878C213.954 188.406 216.806 186.106 218.554 185.462H221.682V195.03H222.326C222.97 191.626 223.798 187.762 224.442 185.83C225.546 185.278 227.386 184.818 228.674 184.818C229.502 184.818 230.422 184.91 231.158 185.094C231.066 187.762 230.606 192.73 230.146 195.766H225.638L222.234 203.586V229.622H215.61C214.782 229.254 214.046 228.61 213.678 227.966V200.182ZM242.89 246.734L240.222 245.354L243.718 229.806H243.442C240.866 229.438 238.382 228.242 236.91 226.678L233.966 197.606L231.942 188.958C233.506 187.67 236.266 186.106 238.29 185.462H241.51L244.454 221.71L245.098 222.17L248.502 195.674L248.962 188.222C250.434 187.026 253.102 185.83 254.942 185.462H258.07L250.618 232.566L249.514 242.87C247.582 244.618 244.822 246.09 242.89 246.734Z" fill="#D5D0C4"/>
</svg>
