<?xml version="1.0" encoding="UTF-8"?>
<svg id="Layer_2" data-name="Layer 2" xmlns="http://www.w3.org/2000/svg" viewBox="0 0 56.52 34.88">
  <g id="Layer_1-2" data-name="Layer 1">
    <g>
      <path d="M16.38,28.94l-1.55,4.21-.76,.65-4.5,.5,.07-.94c.29-3.89,.45-6.34,.47-7.34-1.01,1.58-1.9,2.62-2.66,3.1-.43,.26-.94,.47-1.53,.63s-1.16,.23-1.71,.23c-1.27,0-2.29-.4-3.06-1.19-.77-.79-1.15-1.7-1.15-2.74,0-1.3,.45-2.72,1.35-4.27,.9-1.55,2-2.86,3.29-3.94,1.3-1.08,2.48-1.62,3.56-1.62,1.92,0,3.4,.71,4.45,2.12,1.04,1.42,1.56,3.41,1.56,5.98-.02,.5-.06,1.18-.11,2.02s-.1,1.57-.14,2.2l2.2-.22,.21,.61Zm-6.48-4.72c-.29-.91-.84-1.56-1.66-1.94-.82-.38-1.91-.58-3.28-.58-.77,0-1.45,.11-2.05,.32,.17,.86,.67,1.57,1.51,2.12,.84,.55,1.76,.83,2.77,.83s1.93-.25,2.7-.76ZM4.93,11.3l6.52-1.76-.72,3.71-6.41,1.4,.61-3.35Z"/>
      <path d="M21.02,24.44c-.34,3.19-1.12,6.04-2.34,8.53-1.1,.34-2.64,.61-4.61,.83l2.09-5.47c1.2-.14,2.17-.32,2.92-.54,.34-1.32,.6-2.45,.79-3.38l1.15,.04Zm-4.64-6.12l3.35-2.23,.5,.83c.67,1.1,1.23,1.94,1.69,2.52l-3.02,1.98c-.84-.65-1.68-1.68-2.52-3.1Z"/>
      <path d="M40.21,21.46l-1.55,4.21-.76,.65-1.65,.18c-.29,1.51-.8,2.91-1.53,4.19-.73,1.28-1.64,2.3-2.74,3.06-1.09,.76-2.3,1.13-3.62,1.13-1.08,0-2.33-.27-3.74-.81s-2.46-1.13-3.13-1.78c1.9-.55,4.02-1.25,6.36-2.11,2.34-.85,4.27-1.63,5.78-2.32l-.22-1.26h-1.69c-.91,0-1.64-.14-2.2-.41-.55-.28-.83-.67-.83-1.17,0-.6,.32-1.4,.97-2.41,.65-1.01,1.41-1.9,2.3-2.68s1.66-1.17,2.3-1.17c.43,0,.81,.22,1.15,.65,.34,.43,.6,1.03,.79,1.8l3.78-.36,.22,.61Z"/>
      <path d="M46.08,16.6c.79,.36,1.41,.78,1.85,1.26,.44,.48,.67,.9,.67,1.26,0,.96-.33,2.03-.99,3.2-.66,1.18-1.42,2.09-2.29,2.74-.77,.29-1.68,.52-2.74,.7-1.06,.18-2.63,.37-4.72,.56l2.09-5.47,1.04-.11h.07v-.18c0-.36,.18-1.06,.54-2.09s.64-1.7,.83-2.02c.26-.38,.58-.6,.94-.65l.04,.14c.98,.07,1.87,.29,2.66,.65Zm.94-11.72c.22,2.53,.32,4.95,.32,7.25,0,.72-.16,1.75-.49,3.08s-.71,2.37-1.17,3.11c-.5,.86-1.14,1.55-1.91,2.05s-1.6,.8-2.48,.9l2.09-5.47,1.19-.14c-.14-1.44-.46-3.19-.96-5.24s-.99-3.82-1.49-5.31c.58-1.01,1.25-1.98,2.02-2.92,.77-.94,1.49-1.67,2.16-2.2,.26,.72,.5,2.35,.72,4.88Z"/>
      <path d="M52.52,34.06c.02-2.3-.04-5.09-.18-8.37-.14-3.28-.34-6.19-.58-8.73,.67-.82,1.43-1.6,2.27-2.34,.84-.74,1.6-1.3,2.27-1.66,.14,.53,.22,1.57,.22,3.13,0,2.14-.11,4.67-.32,7.61-.21,2.94-.4,4.67-.54,5.2l-2.34,5.44-.79-.29Z"/>
    </g>
  </g>
</svg>