<?xml version="1.0" encoding="UTF-8"?>
<svg id="Layer_2" data-name="Layer 2" xmlns="http://www.w3.org/2000/svg" viewBox="0 0 156.92 36.9">
  <g id="Layer_1-2" data-name="Layer 1">
    <g>
      <path d="M16.38,25.2l-1.55,4.21-.76,.65-4.5,.5,.07-.94c.29-3.89,.44-6.34,.47-7.34-1.01,1.58-1.9,2.62-2.66,3.1-.43,.26-.94,.47-1.53,.63-.59,.16-1.16,.23-1.71,.23-1.27,0-2.29-.4-3.06-1.19-.77-.79-1.15-1.7-1.15-2.74,0-1.3,.45-2.72,1.35-4.27s2-2.86,3.29-3.94c1.3-1.08,2.48-1.62,3.56-1.62,1.92,0,3.4,.71,4.45,2.12,1.04,1.42,1.57,3.41,1.57,5.98-.02,.5-.06,1.18-.11,2.02-.05,.84-.1,1.57-.14,2.2l2.2-.22,.22,.61Zm-6.48-4.72c-.29-.91-.84-1.56-1.66-1.94-.82-.38-1.91-.58-3.28-.58-.77,0-1.45,.11-2.05,.32,.17,.86,.67,1.57,1.51,2.12,.84,.55,1.76,.83,2.77,.83s1.93-.25,2.7-.76Z"/>
      <path d="M24.62,24.34l-1.55,4.21-.76,.65-3.96,.4,.43-1.48c-.82,1.06-2.39,1.7-4.72,1.94l2.09-5.47c1.68-.17,3.02-.52,4.03-1.04l.79-2.63,1.15,.11-.65,2.99,2.92-.29,.22,.61Zm-9.32,9.22l6.52-1.76-.72,3.71-6.41,1.4,.61-3.35Z"/>
      <path d="M37.76,22.97l-1.55,4.21-.76,.65-.68,.07c-.58,.05-1.01,.07-1.3,.07-1.39,0-2.66-.25-3.82-.76-1.73,.98-3.64,1.58-5.72,1.8l-1.62,.18,2.02-5.47,1.87-.18c-.07-.34-.11-.64-.11-.9,0-.62,.18-1.41,.54-2.36s.79-1.86,1.28-2.74c.49-.88,.92-1.48,1.28-1.82,.67-.67,1.61-1.01,2.81-1.01,1.06,0,1.94,.26,2.66,.77,.72,.52,1.08,1.23,1.08,2.14,0,1.68-.47,3.34-1.4,4.97,.55,0,1.18-.04,1.87-.11l1.33-.14,.22,.61Zm-9.18-2.95c.33,.96,1.1,1.67,2.3,2.12,.91-.5,1.68-1.08,2.3-1.73-.79-.53-1.7-.79-2.74-.79-.67,0-1.3,.13-1.87,.4Zm.58-10.87l3.35-2.23,.5,.83c.67,1.1,1.24,1.94,1.69,2.52l-3.02,1.98c-.84-.65-1.68-1.68-2.52-3.1Z"/>
      <path d="M50.9,9.76l-1.55,4.21-.76,.65c-2.3,.24-4.56,.55-6.77,.94,1.1,.1,2.22,.26,3.35,.49,1.13,.23,2.04,.46,2.74,.7,0,1.18-.23,2.58-.7,4.21s-.98,2.84-1.53,3.64c-.84,.7-2.15,1.35-3.94,1.96-1.79,.61-3.88,1.04-6.28,1.28l2.09-5.47c1.78-.17,3.22-.37,4.34-.59,1.12-.23,2.21-.5,3.29-.81-.96-.29-2.26-.55-3.91-.79s-3.07-.38-4.27-.43c.98-3.22,2.15-5.92,3.49-8.1,2.62-1.22,6.01-2.05,10.19-2.48l.22,.61Z"/>
      <path d="M67.37,.94c.49,.62,.74,1.61,.74,2.95,0,1.22-.25,2.56-.74,4.01-.49,1.45-1.06,2.48-1.71,3.08-1.27,1.2-4.09,2.15-8.46,2.84l-.58,1.91-1.15-.18,.43-1.55c-1.18,.17-2.25,.3-3.2,.4l-1.04,.11,.36-.97c-.86,.55-2,.91-3.42,1.08l2.09-5.47c1.32-.14,2.42-.44,3.31-.9l.65-1.73,1.15,.18-.61,2.2,.25-.04c.89-.1,1.58-.18,2.09-.25,.62-2.02,1.15-3.48,1.57-4.39s.87-1.66,1.35-2.23c.53-.6,1.22-1.08,2.07-1.44,.85-.36,1.72-.54,2.61-.54,1.01,0,1.76,.31,2.25,.94Zm-3.02,6.32c1.38-.44,2.07-.85,2.07-1.21,0-.19-.18-.34-.54-.45s-.84-.16-1.44-.16c-.94,0-1.89,.14-2.86,.43-.97,.29-1.7,.64-2.18,1.04l-.54,1.51c2.28-.34,4.11-.73,5.49-1.17Z"/>
      <path d="M100.39,17.8c.56,1,.85,1.87,.85,2.61,0,.89-.23,2.03-.7,3.44-.47,1.4-.98,2.5-1.53,3.29-.67,.67-1.75,1.32-3.24,1.94-1.49,.62-3.16,1.12-5,1.49-1.85,.37-3.61,.56-5.29,.56-2.88,0-5.14-.52-6.79-1.57-1.64-1.04-2.47-2.49-2.47-4.34,.58-1.61,1.34-3.11,2.29-4.52,.95-1.4,2.21-2.89,3.8-4.45l.68,3.1c-1.2,.86-2.39,1.9-3.56,3.1,.62,1.13,1.6,1.94,2.92,2.45,1.32,.5,3.12,.76,5.4,.76,1.92,0,3.85-.17,5.78-.52,1.93-.35,3.56-.8,4.88-1.35-.72-1.2-2.02-2.58-3.89-4.14l3.92-4.21c.74,.58,1.4,1.36,1.96,2.36Zm-13.41-4.41l6.52-1.76-.72,3.71-6.41,1.4,.61-3.35Z"/>
      <path d="M124.11,12.49c.25,1.97,.38,3.9,.38,5.8,0,1.03-.02,1.8-.07,2.3-.07,.84-.49,2.09-1.26,3.76-.77,1.67-1.49,2.85-2.16,3.55-.94,.98-2.32,1.91-4.16,2.77s-3.41,1.3-4.73,1.3c-.98,0-2.13-.27-3.44-.81-1.31-.54-2.55-1.21-3.73-2.02-1.18-.8-2.05-1.58-2.63-2.32,1.22,0,2.78-.11,4.68-.34,1.9-.23,3.88-.53,5.94-.92-.24-1.44-.65-3.14-1.22-5.09s-1.14-3.58-1.69-4.88c.5-1.03,1.11-2.05,1.82-3.04,.71-1,1.37-1.77,2-2.32,.36,.82,.73,2.44,1.12,4.86,.38,2.42,.56,4.68,.54,6.77l-1.48,3.49c3.41-.7,5.95-1.34,7.63-1.94-.14-1.37-.46-2.98-.95-4.82s-.99-3.5-1.49-4.97c.58-1.01,1.25-1.98,2.02-2.92,.77-.94,1.49-1.67,2.16-2.2,.24,.7,.49,2.03,.74,4Z"/>
      <path d="M134.14,25.49l-1.55,4.21-.76,.65-3.46,.36c-.02-2.35-.14-5.23-.34-8.62-.2-3.4-.43-6.41-.67-9.05,.67-.82,1.43-1.6,2.27-2.34,.84-.74,1.6-1.3,2.27-1.66,.12,.48,.18,1.24,.18,2.27,.02,1.85-.1,4.33-.36,7.43-.26,3.11-.5,5.26-.72,6.46l2.92-.32,.22,.61Z"/>
      <path d="M147.28,24.12l-1.55,4.21-.76,.65-.68,.07c-.58,.05-1.01,.07-1.3,.07-1.39,0-2.66-.25-3.82-.76-1.73,.98-3.64,1.58-5.72,1.8l-1.62,.18,2.02-5.47,1.87-.18c-.07-.34-.11-.64-.11-.9,0-.62,.18-1.41,.54-2.36,.36-.95,.79-1.86,1.28-2.74s.92-1.48,1.28-1.82c.67-.67,1.61-1.01,2.81-1.01,1.06,0,1.94,.26,2.66,.77,.72,.52,1.08,1.23,1.08,2.14,0,1.68-.47,3.34-1.4,4.97,.55,0,1.18-.04,1.87-.11l1.33-.14,.22,.61Zm-9.18-2.95c.34,.96,1.1,1.67,2.3,2.12,.91-.5,1.68-1.08,2.3-1.73-.79-.53-1.71-.79-2.74-.79-.67,0-1.3,.13-1.87,.4Zm.76-10.76l6.52-1.76-.72,3.71-6.41,1.4,.61-3.35Z"/>
      <path d="M155.99,17.8c.62,.32,.94,.71,.94,1.17,0,1.18-.19,2.33-.58,3.47-.38,1.14-.89,2.14-1.53,2.99-.64,.85-1.3,1.47-2,1.85-2.02,.79-4.63,1.36-7.85,1.69l2.09-5.47,1.01-.11c.48-.05,.84-.1,1.08-.14-.14-.29-.22-.55-.22-.79,0-.53,.2-1.3,.59-2.32,.4-1.02,.8-1.67,1.21-1.96,.36-.26,.81-.47,1.35-.63,.54-.16,1.11-.23,1.71-.23,.84,0,1.57,.16,2.2,.49Z"/>
    </g>
  </g>
</svg>