<?xml version="1.0" encoding="UTF-8"?>
<svg id="Layer_2" data-name="Layer 2" xmlns="http://www.w3.org/2000/svg" viewBox="0 0 49.66 22.98">
  <g id="Layer_1-2" data-name="Layer 1">
    <g>
      <path d="M15.19,18l-1.44,3.91-.7,.6-4.17,.47,.07-.87c.27-3.61,.41-5.88,.43-6.81-.94,1.47-1.76,2.43-2.47,2.87-.4,.25-.87,.44-1.42,.58-.55,.15-1.07,.22-1.59,.22-1.18,0-2.13-.37-2.84-1.1-.71-.73-1.07-1.58-1.07-2.54,0-1.2,.42-2.52,1.25-3.96s1.85-2.65,3.06-3.66,2.3-1.5,3.31-1.5c1.78,0,3.16,.66,4.12,1.97,.97,1.31,1.45,3.16,1.45,5.54-.02,.47-.06,1.09-.1,1.87-.04,.78-.09,1.46-.13,2.04l2.04-.2,.2,.57Zm-6.01-4.37c-.27-.85-.78-1.45-1.54-1.8-.76-.36-1.77-.53-3.04-.53-.71,0-1.35,.1-1.9,.3,.16,.8,.62,1.46,1.4,1.97,.78,.51,1.64,.77,2.57,.77s1.79-.23,2.5-.7ZM4.58,1.64L10.62,0l-.67,3.44-5.94,1.3,.57-3.11Z"/>
      <path d="M29.25,17.23l-1.44,3.91-.7,.6c-2.43,.25-4.07,.37-4.94,.37-1.42,0-2.56-.33-3.41-1-1.96,.73-3.86,1.2-5.71,1.4l1.94-5.08,.94-.1,1.27-.13c.07-.91,.27-1.84,.62-2.79,.34-.95,.76-1.75,1.25-2.42,.62-.85,1.42-1.51,2.39-1.99,.97-.48,1.91-.72,2.82-.72,1,0,1.71,.3,2.14,.9s.63,1.48,.63,2.64c0,1.51-.57,2.93-1.7,4.24l1.2-.13,2.5-.27,.2,.57Zm-13.26-4.31c0-1.89-.04-3.51-.13-4.84s-.23-2.73-.43-4.17c.67-.8,1.39-1.57,2.15-2.3,.77-.73,1.46-1.27,2.09-1.6,.09,.36,.13,.85,.13,1.47,0,1.11-.12,2.64-.35,4.57-.23,1.94-.42,3.03-.55,3.27l-2.17,4.91-.73-.23v-1.07Zm2.34,4.11c2.47-.33,4.25-.68,5.34-1.05,1.09-.37,1.64-.7,1.64-.98,0-.16-.14-.29-.42-.4-.28-.11-.71-.17-1.29-.17-.87,0-1.71,.13-2.54,.38-.82,.26-1.49,.58-2,.97-.51,.39-.77,.76-.77,1.12,0,.07,.01,.11,.03,.13Z"/>
      <path d="M37.87,17.7l-1.44,3.91-.7,.6-3.21,.33c.04-.94,.07-2.36,.07-4.27,0-.53-.01-.94-.03-1.2-.38,1.4-.83,2.68-1.37,3.84-1.2,.4-2.56,.68-4.07,.83l1.94-5.08c1.27-.11,2.42-.32,3.44-.63-.13-1.54-.38-3.06-.75-4.58-.37-1.51-.79-2.83-1.25-3.94,.53-.94,1.16-1.84,1.87-2.7,.71-.87,1.38-1.55,2-2.04,.22,.53,.44,1.69,.65,3.46,.21,1.77,.32,3.35,.32,4.73s-.03,2.57-.1,3.76c-.07,1.19-.14,2.09-.23,2.69l2.67-.27,.2,.57Z"/>
      <path d="M37.67,17.13c3.58-.38,7.42-1.08,11.52-2.1l.47,.67-1.87,5.48-.97-.13,.33-1.67c-1.63,.67-3.43,1.26-5.43,1.77s-3.99,.87-5.99,1.07l1.94-5.08Z"/>
    </g>
  </g>
</svg>