<?xml version="1.0" encoding="UTF-8"?>
<svg id="Layer_2" data-name="Layer 2" xmlns="http://www.w3.org/2000/svg" viewBox="0 0 82.62 22.04">
  <g id="Layer_1-2" data-name="Layer 1">
    <g>
      <path d="M26.98,7.55l-1.87,5.48-.97-.13,.33-1.67c-2.45,.53-5.67,.99-9.65,1.37-.29,1.34-.85,2.87-1.67,4.61-.36,.73-.9,1.48-1.64,2.22-.73,.75-1.6,1.37-2.6,1.87s-2.05,.75-3.14,.75c-1.6,0-2.94-.45-4.02-1.34s-1.66-2.06-1.75-3.51c.4-1.54,.97-3.03,1.7-4.47,.73-1.45,1.67-2.96,2.8-4.54l1.07,2.57c-1.11,1-2.15,2.2-3.11,3.61,.65,.82,1.36,1.43,2.15,1.82,.79,.39,1.76,.58,2.92,.58,1,0,1.95-.19,2.84-.58,.89-.39,1.62-.96,2.2-1.72l-2.97-1.54,1.94-4.81c5.23-.22,10.22-.63,14.96-1.24l.47,.67ZM19.33,0c.56,0,1.13,.07,1.72,.2,.59,.13,1.12,.33,1.59,.6l-2.04,3.04c-.89-.45-1.74-.67-2.54-.67-.27,0-.52,.03-.77,.1l-1.27,1.44-.74-.4L18.6,.03c.16-.02,.4-.03,.73-.03Z"/>
      <path d="M35.28,16.7c-.63,1.58-1.53,2.87-2.69,3.86-1.16,.99-2.46,1.49-3.91,1.49-1,0-2.16-.25-3.47-.75s-2.28-1.05-2.91-1.65c1.76-.51,3.72-1.16,5.89-1.95,2.17-.79,3.96-1.51,5.36-2.15l-.2-1.17h-1.57c-.85,0-1.53-.13-2.04-.38-.51-.26-.77-.62-.77-1.09,0-.56,.3-1.3,.9-2.24,.6-.94,1.31-1.76,2.14-2.49,.82-.72,1.54-1.09,2.14-1.09s1.1,.43,1.49,1.3,.58,1.99,.58,3.37c0,1.71-.32,3.36-.95,4.94Z"/>
      <path d="M56.97,15.96l-1.44,3.91-.7,.6-3.14,.33-.54-5.38c-.38,.8-.85,1.66-1.4,2.59s-1.02,1.59-1.4,1.99c-1.2,1.34-2.66,2-4.38,2-1,0-2.18-.25-3.52-.75-1.35-.5-2.34-1.05-2.99-1.65,2.2-.62,4.51-1.4,6.93-2.32,2.42-.92,4.25-1.73,5.49-2.42l3.71-4.51,.63,.5,.47,4.78,2.07-.23,.2,.57Z"/>
      <path d="M61.28,11.79c-.31,2.96-1.04,5.6-2.17,7.91-1.02,.31-2.45,.57-4.27,.77l1.94-5.08c1.11-.13,2.01-.3,2.71-.5,.31-1.22,.56-2.27,.73-3.14l1.07,.03Zm-4.31-5.68l3.11-2.07,.47,.77c.62,1.02,1.15,1.8,1.57,2.34l-2.81,1.84c-.78-.6-1.56-1.56-2.34-2.87Z"/>
      <path d="M70.83,16.8l-1.44,3.91-.7,.6-3.21,.33c-.02-2.18-.13-4.85-.32-8s-.4-5.95-.62-8.4c.62-.76,1.32-1.48,2.1-2.17,.78-.69,1.48-1.2,2.1-1.54,.11,.45,.17,1.15,.17,2.1,.02,1.71-.09,4.01-.33,6.9-.25,2.88-.47,4.88-.67,5.99l2.7-.3,.2,.57Z"/>
      <path d="M70.63,16.23c3.58-.38,7.42-1.08,11.52-2.1l.47,.67-1.87,5.48-.97-.13,.33-1.67c-1.63,.67-3.43,1.26-5.43,1.77s-3.99,.87-5.99,1.07l1.94-5.08Z"/>
    </g>
  </g>
</svg>