<?xml version="1.0" encoding="UTF-8"?>
<svg id="Layer_2" data-name="Layer 2" xmlns="http://www.w3.org/2000/svg" viewBox="0 0 76.57 32.59">
  <g id="Layer_1-2" data-name="Layer 1">
    <g>
      <path d="M22.42,14.54c.52,.92,.79,1.73,.79,2.42,0,.82-.22,1.89-.65,3.19-.43,1.3-.91,2.32-1.42,3.06-.62,.62-1.62,1.23-3.01,1.8-1.38,.58-2.93,1.04-4.64,1.39-1.71,.34-3.35,.52-4.91,.52-2.67,0-4.77-.48-6.29-1.45s-2.29-2.31-2.29-4.02c.54-1.49,1.24-2.89,2.12-4.19,.88-1.3,2.05-2.68,3.52-4.12l.63,2.87c-1.11,.8-2.21,1.76-3.3,2.87,.58,1.05,1.48,1.8,2.71,2.27,1.22,.47,2.89,.7,5.01,.7,1.78,0,3.57-.16,5.36-.48,1.79-.32,3.3-.74,4.53-1.25-.67-1.11-1.87-2.39-3.61-3.84l3.64-3.91c.69,.53,1.3,1.26,1.82,2.19Zm-12.44-4.09l6.04-1.64-.67,3.44-5.94,1.3,.57-3.11Z"/>
      <path d="M31.82,21.67l-1.44,3.91-.7,.6-3.21,.33c-.02-2.18-.13-4.85-.32-8s-.4-5.95-.62-8.4c.62-.76,1.32-1.48,2.1-2.17,.78-.69,1.48-1.2,2.1-1.54,.11,.45,.17,1.15,.17,2.1,.02,1.71-.09,4.01-.33,6.9-.24,2.88-.47,4.88-.67,5.99l2.7-.3,.2,.57Z"/>
      <path d="M29.62,29.49l6.04-1.64-.67,3.44-5.94,1.3,.57-3.11Zm6.51-11.99c-.31,2.96-1.04,5.6-2.17,7.91-1.02,.31-2.45,.57-4.27,.77l1.94-5.08c1.11-.13,2.02-.3,2.71-.5,.31-1.22,.56-2.27,.73-3.14l1.07,.03Z"/>
      <path d="M53.93,14.46l-1.44,3.91-.7,.6-1.54,.17c-.27,1.4-.74,2.7-1.42,3.89-.68,1.19-1.53,2.14-2.54,2.84-1.01,.7-2.13,1.05-3.36,1.05-1,0-2.16-.25-3.47-.75-1.31-.5-2.28-1.05-2.9-1.65,1.76-.51,3.72-1.16,5.89-1.95,2.17-.79,3.96-1.51,5.36-2.15l-.2-1.17h-1.57c-.85,0-1.53-.13-2.04-.38-.51-.26-.77-.62-.77-1.09,0-.56,.3-1.3,.9-2.24s1.31-1.76,2.14-2.49,1.54-1.09,2.14-1.09c.4,0,.76,.2,1.07,.6,.31,.4,.55,.96,.73,1.67l3.51-.33,.2,.57Z"/>
      <path d="M62.55,14.93l-1.44,3.91-.7,.6-3.21,.33c.04-.94,.07-2.36,.07-4.27,0-.53-.01-.94-.03-1.2-.38,1.4-.83,2.68-1.37,3.84-1.2,.4-2.56,.68-4.07,.83l1.94-5.08c1.27-.11,2.42-.32,3.44-.63-.13-1.54-.38-3.06-.75-4.58-.37-1.51-.79-2.83-1.25-3.94,.54-.94,1.16-1.84,1.87-2.7,.71-.87,1.38-1.55,2-2.04,.22,.53,.44,1.69,.65,3.46,.21,1.77,.32,3.35,.32,4.73s-.03,2.57-.1,3.76-.14,2.09-.23,2.69l2.67-.27,.2,.57Z"/>
      <path d="M73.3,18.1l-8.62,.9c-.27,1.31-.51,2.98-.73,5.01l-1-.03,.17-1.5c.07-.94,.19-2.06,.37-3.37l-3.07,.33,1.94-5.08,2.3-.27c.94-2.65,2.21-4.67,3.84-6.08,1.62-1.4,3.43-2.1,5.41-2.1,.6,0,1.14,.06,1.6,.18,.47,.12,.82,.28,1.07,.48-.4,3.7-1.49,7.54-3.27,11.52Zm-4.97-6.34c-.87,.51-1.57,1.24-2.1,2.17l6.31-.7c.11-.51,.22-1.19,.33-2.04-.47-.13-.99-.2-1.57-.2-1.12,0-2.11,.26-2.97,.77Z"/>
    </g>
  </g>
</svg>