<?xml version="1.0" encoding="UTF-8"?>
<svg id="Layer_2" data-name="Layer 2" xmlns="http://www.w3.org/2000/svg" viewBox="0 0 140.83 44.44">
  <g id="Layer_1-2" data-name="Layer 1">
    <g>
      <path d="M5.46,5.82l7.87-3.21,.12,1.39-7.76,2.77-.24-.95Zm.16,2.37l7.87-3.2,.12,1.38-7.76,2.77-.24-.95Z"/>
      <path d="M26.63,26.47l-1.7,4.63-.83,.71-2.26,.24h-.75c.11-1.45,.16-3.11,.16-4.99v-.71c-1.29,1.98-2.9,3.64-4.83,4.99s-3.81,2.02-5.66,2.02c-1.08,0-2.34-.3-3.78-.89-1.44-.59-2.8-1.33-4.1-2.22-1.29-.88-2.26-1.73-2.89-2.55,1.35,0,3.07-.12,5.16-.38,2.1-.25,4.27-.59,6.51-1.01-.26-1.58-.71-3.45-1.35-5.6-.63-2.15-1.25-3.94-1.86-5.36,.55-1.13,1.22-2.25,2-3.34,.78-1.09,1.51-1.95,2.2-2.55,.4,.9,.8,2.68,1.23,5.34,.42,2.66,.62,5.14,.59,7.44l-1.62,3.88c3.88-.76,6.62-1.41,8.23-1.94-.21-1.9-.57-3.9-1.07-5.99-.5-2.1-1-3.78-1.5-5.05,.61-1.05,1.37-2.1,2.28-3.13,.91-1.03,1.76-1.86,2.55-2.49,.26,.63,.52,2,.77,4.1,.25,2.1,.38,3.96,.38,5.6,0,3.38-.13,6.32-.4,8.82l2.29-.24,.24,.67Z"/>
      <path d="M46.73,27.74l-1.7,4.63-.83,.71-1.15,.12c-.21-1.29-.55-2.2-1.01-2.71-.46-.51-1.04-.77-1.72-.77-1.32,0-2.76,.75-4.31,2.24-1.56,1.49-2.94,3.38-4.15,5.68-1.21,2.3-2.01,4.56-2.37,6.81h-.91l-1.78-12.9-2.73,.28,2.3-6.01,4.35-.47,.79,10.17c.53-1.87,1.38-3.7,2.57-5.48,1.19-1.78,2.51-3.24,3.96-4.37,1.45-1.13,2.81-1.7,4.08-1.7,.79,0,1.43,.25,1.92,.75,.49,.5,.82,1.35,1.01,2.53l1.46-.16,.24,.67Z"/>
      <path d="M46.5,27.07c4.25-.45,8.8-1.28,13.65-2.49l.55,.79-2.22,6.49-1.15-.16,.4-1.98c-1.93,.79-4.07,1.49-6.43,2.1-2.36,.61-4.73,1.03-7.1,1.27l2.3-6.01Z"/>
      <path d="M75.68,26.12c-.75,1.87-1.81,3.4-3.19,4.57-1.37,1.17-2.92,1.76-4.63,1.76-1.19,0-2.56-.3-4.12-.89-1.56-.59-2.7-1.25-3.44-1.96,2.08-.61,4.41-1.38,6.98-2.31,2.57-.94,4.69-1.79,6.35-2.55l-.24-1.38h-1.86c-1,0-1.81-.15-2.41-.46-.61-.3-.91-.73-.91-1.29,0-.66,.36-1.54,1.07-2.65,.71-1.11,1.56-2.09,2.53-2.95,.98-.86,1.82-1.29,2.53-1.29s1.3,.51,1.76,1.54,.69,2.36,.69,4c0,2.03-.38,3.98-1.13,5.86Z"/>
      <path d="M90.18,5.82l7.87-3.21,.12,1.39-7.76,2.77-.24-.95Zm.16,2.37l7.87-3.2,.12,1.38-7.76,2.77-.24-.95Z"/>
      <path d="M111.35,26.47l-1.7,4.63-.83,.71-2.26,.24h-.75c.11-1.45,.16-3.11,.16-4.99v-.71c-1.29,1.98-2.9,3.64-4.83,4.99s-3.81,2.02-5.66,2.02c-1.08,0-2.34-.3-3.78-.89-1.44-.59-2.8-1.33-4.1-2.22-1.29-.88-2.26-1.73-2.89-2.55,1.35,0,3.07-.12,5.16-.38,2.1-.25,4.27-.59,6.51-1.01-.26-1.58-.71-3.45-1.35-5.6-.63-2.15-1.25-3.94-1.86-5.36,.55-1.13,1.22-2.25,2-3.34,.78-1.09,1.51-1.95,2.2-2.55,.4,.9,.8,2.68,1.23,5.34,.42,2.66,.62,5.14,.59,7.44l-1.62,3.88c3.88-.76,6.62-1.41,8.23-1.94-.21-1.9-.57-3.9-1.07-5.99-.5-2.1-1-3.78-1.5-5.05,.61-1.05,1.37-2.1,2.28-3.13,.91-1.03,1.76-1.86,2.55-2.49,.26,.63,.52,2,.77,4.1,.25,2.1,.38,3.96,.38,5.6,0,3.38-.13,6.32-.4,8.82l2.29-.24,.24,.67Z"/>
      <path d="M127.65,8.61c1.13,1.1,1.99,2.47,2.55,4.12,.57,1.65,.85,3.3,.85,4.97,0,1.93-.23,3.59-.69,4.99-.46,1.4-1.02,2.66-1.68,3.8-.58,.58-1.44,1.18-2.59,1.8-1.15,.62-2.36,1.13-3.64,1.54-1.28,.41-2.38,.61-3.3,.61-.77,0-1.54-.13-2.33-.4-2.06,.84-4.72,1.44-7.99,1.78l2.3-6.02,2.22-.24c-.05-.32-.08-.57-.08-.75,.37-2.4,1.2-4.59,2.49-6.57,1.29-1.98,2.81-3.32,4.55-4.04,.87,.32,1.63,1.04,2.28,2.18,.65,1.13,.97,2.36,.97,3.68s-.36,2.73-1.07,4.15c2.14-.32,3.84-.7,5.1-1.15-.05-1.95-.47-3.82-1.27-5.62-.79-1.79-1.81-3.24-3.05-4.35-1.24-1.11-2.52-1.66-3.84-1.66-.71,0-1.46,.2-2.26,.61-.79,.41-1.74,1.13-2.85,2.16l-.67-.51c.84-1.32,1.85-2.49,3.03-3.52,1.17-1.03,2.37-1.82,3.58-2.37,1.21-.55,2.31-.83,3.28-.83,1.61,0,2.98,.55,4.11,1.64Zm-11.87,12.48c.08,.71,.45,1.39,1.11,2.02s1.45,1.04,2.37,1.23c.16-.53,.24-1.02,.24-1.46,0-.84-.23-1.6-.69-2.26-.46-.66-1.01-1.07-1.64-1.23-.77,.63-1.23,1.2-1.38,1.7Z"/>
      <path d="M140.83,4.27l-2.18,2.37-5.62,1.5-.47-.44,2.26-1.86c-.84-.66-1.27-1.44-1.27-2.33,0-.95,.38-1.77,1.13-2.47,.75-.7,1.71-1.05,2.87-1.05,.42,0,.88,.05,1.39,.16,.5,.11,.91,.24,1.23,.4l-1.5,2.85c-.29-.16-.69-.3-1.19-.44-.5-.13-.98-.2-1.42-.2-.4,0-.71,.06-.95,.18s-.36,.27-.36,.45c0,.26,.28,.51,.85,.73,.57,.22,1.19,.34,1.88,.34,1.13,0,2.1-.2,2.89-.59l.47,.4Zm-6.17,27.26c.03-2.53-.04-5.6-.2-9.2-.16-3.6-.37-6.8-.63-9.6,.74-.9,1.57-1.75,2.49-2.57,.92-.82,1.75-1.42,2.49-1.82,.16,.58,.24,1.73,.24,3.44,0,2.35-.12,5.14-.36,8.37-.24,3.23-.44,5.14-.59,5.72l-2.57,5.98-.87-.32Z"/>
    </g>
  </g>
</svg>